<svg width="416" height="232" fill="none" xmlns="http://www.w3.org/2000/svg"><path d="M80.033 172.456V199h32.706v-26.544h15.168v-30.099h-15.168v-42.66H80.033v42.66h-37.21l53.8-113.997H59.65L5.85 142.357v30.099h74.182z" fill="#1F2937"/><g clip-path="url(#clip0_2949_71168)"><path d="M137.828 197.257v4.125c0 2.75 2.25 4.571 4.595 4.571h25.231c-2.345 0 0-3.402 0-6.152l-2.244-6.818-27.582 4.274z" fill="url(#paint0_radial_2949_71168)"/><path d="M168.829 164.344l-31.001 7.872v25.041h25.874l5.127-32.913z" fill="url(#paint1_radial_2949_71168)"/><path d="M141.046 149.063L106 159.321v5.743a7.152 7.152 0 007.152 7.152h25.231c-.771 0 3.134-15.2 2.663-23.153z" fill="url(#paint2_radial_2949_71168)"/><path d="M138.383 28.342h-25.231A7.152 7.152 0 00106 35.494V159.32h30.521c-1.937-32.793-1.317-130.979 1.862-130.979z" fill="url(#paint3_radial_2949_71168)"/><path d="M316.852 28.342H138.386a7.152 7.152 0 00-7.152 7.152v129.57a7.152 7.152 0 007.152 7.152h24.677v29.166c0 4.065 4.914 6.1 7.788 3.226l32.392-32.392h113.609a7.152 7.152 0 007.152-7.152V35.494a7.152 7.152 0 00-7.152-7.152z" fill="url(#paint4_radial_2949_71168)"/><path d="M227.002 115.532a11.978 11.978 0 01-11.934-10.935l-3.757-42.938c-.805-9.206 6.45-17.124 15.691-17.124 9.24 0 16.496 7.918 15.69 17.123l-3.757 42.939a11.978 11.978 0 01-11.933 10.935zm0 7.808c-7.629 0-13.814 6.184-13.814 13.813 0 7.629 6.185 13.813 13.814 13.813 7.628 0 13.813-6.184 13.813-13.813 0-7.629-6.185-13.813-13.813-13.813z" fill="url(#paint5_radial_2949_71168)"/></g><path d="M362.033 172.456V199h32.706v-26.544h15.168v-30.099h-15.168v-42.66h-32.706v42.66h-37.209L378.623 28.36h-36.972l-53.799 113.997v30.099h74.181z" fill="#1F2937"/><defs><radialGradient id="paint0_radial_2949_71168" cx="0" cy="0" r="1" gradientUnits="userSpaceOnUse" gradientTransform="matrix(35.3573 0 0 14.6733 139.478 194.182)"><stop stop-color="#E4989D"/><stop offset=".193" stop-color="#E38D93"/><stop offset=".531" stop-color="#DF6F79"/><stop offset=".653" stop-color="#DD636E"/><stop offset="1" stop-color="#DA4A54"/></radialGradient><radialGradient id="paint1_radial_2949_71168" cx="0" cy="0" r="1" gradientUnits="userSpaceOnUse" gradientTransform="matrix(-26.992 0 0 -26.776 142.079 193.797)"><stop stop-color="#E4989D"/><stop offset=".193" stop-color="#E38D93"/><stop offset=".531" stop-color="#DF6F79"/><stop offset=".653" stop-color="#DD636E"/><stop offset="1" stop-color="#DA4A54"/></radialGradient><radialGradient id="paint2_radial_2949_71168" cx="0" cy="0" r="1" gradientUnits="userSpaceOnUse" gradientTransform="matrix(47.1072 0 0 22.1404 107.278 157.673)"><stop stop-color="#E4989D"/><stop offset=".193" stop-color="#E38D93"/><stop offset=".531" stop-color="#DF6F79"/><stop offset=".653" stop-color="#DD636E"/><stop offset="1" stop-color="#DA4A54"/></radialGradient><radialGradient id="paint3_radial_2949_71168" cx="0" cy="0" r="1" gradientUnits="userSpaceOnUse" gradientTransform="translate(102.268 35.739) scale(130.075)"><stop stop-color="#FBE2DD"/><stop offset=".514" stop-color="#EAB1B7"/><stop offset="1" stop-color="#E4989D"/></radialGradient><radialGradient id="paint4_radial_2949_71168" cx="0" cy="0" r="1" gradientUnits="userSpaceOnUse" gradientTransform="translate(278.134 109.936) scale(177.579)"><stop offset=".099" stop-color="#DD636E"/><stop offset=".565" stop-color="#D82E3D"/><stop offset=".689" stop-color="#D32E3B"/><stop offset=".84" stop-color="#C42F37"/><stop offset="1" stop-color="#AC3030"/></radialGradient><radialGradient id="paint5_radial_2949_71168" cx="0" cy="0" r="1" gradientUnits="userSpaceOnUse" gradientTransform="matrix(-161.14 0 0 -161.785 267.71 104.341)"><stop stop-color="#DFDDE2"/><stop offset=".248" stop-color="#D0CDD4"/><stop offset=".669" stop-color="#AFAAB4"/><stop offset=".85" stop-color="#AAA2AE"/><stop offset="1" stop-color="#A298A5"/></radialGradient><clipPath id="clip0_2949_71168"><path fill="#fff" transform="translate(106 14)" d="M0 0h218v218H0z"/></clipPath></defs></svg>