<svg width="416" height="231" fill="none" xmlns="http://www.w3.org/2000/svg"><path d="M42.017 197.222c7.584 3.555 15.682 5.333 24.293 5.333 10.744 0 20.698-2.528 29.862-7.584 9.164-5.135 16.55-12.008 22.159-20.619 5.609-8.69 8.414-18.407 8.414-29.151s-2.331-20.264-6.992-28.559c-4.582-8.374-10.981-14.931-19.197-19.67-8.137-4.82-17.577-7.23-28.321-7.23-4.74 0-9.836.79-15.287 2.37a41.884 41.884 0 00-8.472 3.477l2.255-37.13h64.638v-30.1H22.227l-5.213 90.772 27.255 8.295c1.896-1.817 4.74-3.713 8.532-5.688 3.792-2.054 8.69-3.081 14.694-3.081 4.898 0 9.361 1.185 13.39 3.555 4.108 2.37 7.347 5.569 9.717 9.598 2.45 4.029 3.674 8.493 3.674 13.391s-1.225 9.361-3.674 13.39c-2.37 4.029-5.609 7.229-9.717 9.599-4.029 2.37-8.492 3.555-13.39 3.555-3.713 0-7.347-.79-10.902-2.37-3.476-1.659-6.557-3.95-9.243-6.873-2.607-2.923-4.425-6.399-5.451-10.428l-31.047 8.295c2.37 8.374 6.28 15.721 11.731 22.041s11.93 11.257 19.434 14.812z" fill="#1F2937"/><path d="M234.242 154.33l48.566-42.232h26.894l-44.495 46.303-30.965-4.071z" fill="url(#paint0_radial_2949_71187)"/><path d="M200.797 177.971c17.671 0 34.251-6.982 46.466-19.16l39.402-2.975c-12.216 12.178-40.192 30.184-57.862 30.184l-28.006-8.049z" fill="url(#paint1_radial_2949_71187)"/><path d="M106 137.59l31.169-8.364h26.894l-29.032 15.294L106 137.59z" fill="url(#paint2_radial_2949_71187)"/><path d="M200.312 46.224c29.762 0 55.927 20.045 63.629 48.745h26.893c-7.701-28.7-29.987-60.439-59.749-60.439l-30.773 11.694z" fill="url(#paint3_radial_2949_71187)"/><path d="M247.265 158.811l-13.023-4.481h26.893l23.026 4.481h-36.896z" fill="url(#paint4_radial_2949_71187)"/><path d="M200.311 13.952c-31.529 0-60.723 14.912-79.202 40.17l35.939 8.903c18.479-25.258 38.628-49.072 70.157-49.072h-26.894z" fill="url(#paint5_radial_2949_71187)"/><path d="M106 48.923l12.3 63.175h26.893V80.51l-12.3-31.587H106z" fill="url(#paint6_radial_2949_71187)"/><path d="M200.797 210.243c-44.336 0-83.318-29.876-94.797-72.653h26.893s50.462 72.653 94.798 72.653h-26.894z" fill="url(#paint7_radial_2949_71187)"/><path d="M321.997 86.605l-31.169 8.364c-7.701-28.7-33.866-48.745-63.628-48.745-17.671 0-34.251 6.982-46.466 19.16l13.023 4.48-48.566 42.234-12.3-63.175 15.107 5.198c18.479-25.257 47.673-40.169 79.202-40.169 44.336 0 83.318 29.876 94.797 72.653zm-94.309 123.638c31.529 0 60.723-14.912 79.202-40.169l15.107 5.198-12.299-63.174-48.567 42.232 13.023 4.48c-12.215 12.179-28.795 19.161-46.466 19.161-29.761 0-55.926-20.045-63.628-48.745l-31.169 8.364c11.479 42.777 50.461 72.653 94.797 72.653z" fill="url(#paint8_radial_2949_71187)"/><path d="M220.265 128.343h11.347c-1.234 0-1.052-6.233-1.862-11.496l-19.047 2.734a9.599 9.599 0 009.562 8.762z" fill="url(#paint9_radial_2949_71187)"/><path d="M231.609 71.456h-11.347c-7.404 0-13.217 6.344-12.572 13.72l3.01 34.405h17.787c-2.454-15.957-2.446-48.125 3.122-48.125z" fill="url(#paint10_radial_2949_71187)"/><path d="M229.748 141.676l-20.553 3.991c0 6.112 4.956 11.067 11.068 11.067h11.347c-3.056 0-1.862-9.523-1.862-15.058z" fill="url(#paint11_radial_2949_71187)"/><path d="M231.61 134.599h-11.347c-6.112 0-11.068 4.955-11.068 11.067h17.831c0-5.534 1.528-11.067 4.584-11.067z" fill="url(#paint12_radial_2949_71187)"/><path d="M231.613 128.343a9.6 9.6 0 01-9.562-8.762l-3.01-34.405c-.645-7.376 5.168-13.72 12.572-13.72 7.404 0 13.218 6.344 12.573 13.72l-3.01 34.405a9.599 9.599 0 01-9.563 8.762zm0 6.256c-6.112 0-11.067 4.955-11.067 11.068 0 6.112 4.955 11.067 11.067 11.067 6.113 0 11.068-4.955 11.068-11.067 0-6.113-4.955-11.068-11.068-11.068z" fill="url(#paint13_radial_2949_71187)"/><path d="M318.946 196.986c7.742 3.397 15.879 5.095 24.411 5.095 10.744 0 20.619-2.488 29.625-7.465 9.006-5.056 16.234-11.85 21.685-20.382 5.451-8.611 8.177-18.289 8.177-29.033 0-8.769-1.778-17.024-5.333-24.766-3.476-7.821-8.611-14.378-15.405-19.671-4.851-3.881-10.506-6.752-16.966-8.613l34.623-33.455V28.36h-106.65v30.336h68.504l-45.989 38.157 14.457 25.359a28.36 28.36 0 016.399-2.725 22.322 22.322 0 016.873-1.067c7.821 0 14.22 2.647 19.197 7.94 5.056 5.214 7.584 11.494 7.584 18.841 0 4.898-1.225 9.362-3.674 13.391-2.37 4.029-5.609 7.228-9.717 9.598-4.029 2.37-8.492 3.555-13.39 3.555-5.688 0-10.981-1.698-15.879-5.095-4.819-3.476-8.058-8.335-9.717-14.576l-31.284 8.295c2.449 8.453 6.517 15.8 12.205 22.041 5.767 6.241 12.522 11.1 20.264 14.576z" fill="#1F2937"/><defs><radialGradient id="paint0_radial_2949_71187" cx="0" cy="0" r="1" gradientUnits="userSpaceOnUse" gradientTransform="matrix(195.916 0 0 42.1119 216.213 121.151)"><stop stop-color="#E4FBEF"/><stop offset=".514" stop-color="#C6EAD0"/><stop offset=".976" stop-color="#BEE4C8"/></radialGradient><radialGradient id="paint1_radial_2949_71187" cx="0" cy="0" r="1" gradientUnits="userSpaceOnUse" gradientTransform="matrix(222.939 0 0 27.4514 180.28 161.737)"><stop stop-color="#E4FBEF"/><stop offset=".514" stop-color="#C6EAD0"/><stop offset=".976" stop-color="#BEE4C8"/></radialGradient><radialGradient id="paint2_radial_2949_71187" cx="0" cy="0" r="1" gradientUnits="userSpaceOnUse" gradientTransform="matrix(150.748 0 0 13.9093 92.127 132.216)"><stop stop-color="#E4FBEF"/><stop offset=".514" stop-color="#C6EAD0"/><stop offset=".976" stop-color="#BEE4C8"/></radialGradient><radialGradient id="paint3_radial_2949_71187" cx="0" cy="0" r="1" gradientUnits="userSpaceOnUse" gradientTransform="matrix(235.022 0 0 54.9673 178.684 46.347)"><stop stop-color="#E4FBEF"/><stop offset=".514" stop-color="#C6EAD0"/><stop offset=".976" stop-color="#BEE4C8"/></radialGradient><radialGradient id="paint4_radial_2949_71187" cx="0" cy="0" r="1" gradientUnits="userSpaceOnUse" gradientTransform="matrix(129.605 0 0 4.0751 222.315 155.206)"><stop stop-color="#E4FBEF"/><stop offset=".514" stop-color="#C6EAD0"/><stop offset=".976" stop-color="#BEE4C8"/></radialGradient><radialGradient id="paint5_radial_2949_71187" cx="0" cy="0" r="1" gradientUnits="userSpaceOnUse" gradientTransform="matrix(275.455 0 0 44.6304 95.76 23.547)"><stop stop-color="#E4FBEF"/><stop offset=".514" stop-color="#C6EAD0"/><stop offset=".976" stop-color="#BEE4C8"/></radialGradient><radialGradient id="paint6_radial_2949_71187" cx="0" cy="0" r="1" gradientUnits="userSpaceOnUse" gradientTransform="matrix(101.758 0 0 57.455 96.635 61.275)"><stop stop-color="#E4FBEF"/><stop offset=".514" stop-color="#C6EAD0"/><stop offset=".976" stop-color="#BEE4C8"/></radialGradient><radialGradient id="paint7_radial_2949_71187" cx="0" cy="0" r="1" gradientUnits="userSpaceOnUse" gradientTransform="matrix(315.946 0 0 66.0757 76.924 151.795)"><stop stop-color="#E4FBEF"/><stop offset=".514" stop-color="#C6EAD0"/><stop offset=".976" stop-color="#BEE4C8"/></radialGradient><radialGradient id="paint8_radial_2949_71187" cx="0" cy="0" r="1" gradientUnits="userSpaceOnUse" gradientTransform="matrix(178.486 0 0 237.815 296.447 175.315)"><stop stop-color="#A4DAB1"/><stop offset=".189" stop-color="#96D4A4"/><stop offset=".442" stop-color="#7CC88B"/><stop offset=".597" stop-color="#6EC17D"/><stop offset="1" stop-color="#58B16E"/></radialGradient><radialGradient id="paint9_radial_2949_71187" cx="0" cy="0" r="1" gradientUnits="userSpaceOnUse" gradientTransform="translate(215.333 118.929) scale(22.364)"><stop stop-color="#E4989D"/><stop offset=".193" stop-color="#E38D93"/><stop offset=".531" stop-color="#DF6F79"/><stop offset=".653" stop-color="#DD636E"/><stop offset="1" stop-color="#DA4A54"/></radialGradient><radialGradient id="paint10_radial_2949_71187" cx="0" cy="0" r="1" gradientUnits="userSpaceOnUse" gradientTransform="translate(212.606 70.712) scale(47.806)"><stop stop-color="#FBE2DD"/><stop offset=".514" stop-color="#EAB1B7"/><stop offset="1" stop-color="#E4989D"/></radialGradient><radialGradient id="paint11_radial_2949_71187" cx="0" cy="0" r="1" gradientUnits="userSpaceOnUse" gradientTransform="matrix(24.0444 0 0 24.0443 206.84 149.045)"><stop stop-color="#E4989D"/><stop offset=".193" stop-color="#E38D93"/><stop offset=".531" stop-color="#DF6F79"/><stop offset=".653" stop-color="#DD636E"/><stop offset="1" stop-color="#DA4A54"/></radialGradient><radialGradient id="paint12_radial_2949_71187" cx="0" cy="0" r="1" gradientUnits="userSpaceOnUse" gradientTransform="translate(214.53 135.589) scale(15.8363)"><stop stop-color="#FBE2DD"/><stop offset=".514" stop-color="#EAB1B7"/><stop offset="1" stop-color="#E4989D"/></radialGradient><radialGradient id="paint13_radial_2949_71187" cx="0" cy="0" r="1" gradientUnits="userSpaceOnUse" gradientTransform="matrix(-129.114 0 0 -129.631 281.535 126.698)"><stop offset=".099" stop-color="#DD636E"/><stop offset=".565" stop-color="#D82E3D"/><stop offset=".689" stop-color="#D32E3B"/><stop offset=".84" stop-color="#C42F37"/><stop offset="1" stop-color="#AC3030"/></radialGradient></defs></svg>