<svg width="160" height="160" fill="none" xmlns="http://www.w3.org/2000/svg"><path d="M33.375 0A9.375 9.375 0 0024 9.375V152h24.444S52.64 0 57.819 0H33.375z" fill="url(#paint0_radial_2567_54434)"/><path d="M136.002 152h-16l-32-20-32 20h-7.557V9.375A9.375 9.375 0 0157.82 0h68.807a9.375 9.375 0 019.375 9.375V152z" fill="url(#paint1_radial_2567_54434)"/><path d="M128 152H56V11.125C56 9.399 57.4 8 59.125 8H124l4 144z" fill="url(#paint2_radial_2567_54434)"/><path d="M99.125 96h4V60h-4A3.125 3.125 0 0096 63.125v29.75C96 94.601 97.4 96 99.125 96z" fill="url(#paint3_radial_2567_54434)"/><path d="M112.875 96h-9.75A3.125 3.125 0 01100 92.875v-29.75A3.125 3.125 0 01103.125 60h9.75c1.726 0 3.125 1.4 3.125 3.125v29.75A3.125 3.125 0 01112.875 96z" fill="url(#paint4_radial_2567_54434)"/><path d="M112.003 76l-7.659 4c.823 2.33 3.046 4 5.658 4h4c-1.282 0-1.709-5.797-1.999-8z" fill="url(#paint5_radial_2567_54434)"/><path d="M114 72h-4a6 6 0 00-5.658 8h7.3c-.459-3.49.326-8 2.358-8z" fill="url(#paint6_radial_2567_54434)"/><path d="M120 152V11.125A3.125 3.125 0 00116.875 8h8C126.601 8 128 9.4 128 11.125V152h-8z" fill="url(#paint7_radial_2567_54434)"/><path d="M114 84a6 6 0 100-12 6 6 0 000 12z" fill="url(#paint8_radial_2567_54434)"/><defs><radialGradient id="paint0_radial_2567_54434" cx="0" cy="0" r="1" gradientUnits="userSpaceOnUse" gradientTransform="translate(30.733 20.813) scale(114.712)"><stop stop-color="#E6F6FF"/><stop offset=".376" stop-color="#C0DAE9"/><stop offset=".43" stop-color="#BAD6E5"/><stop offset="1" stop-color="#8ABBD5"/></radialGradient><radialGradient id="paint1_radial_2567_54434" cx="0" cy="0" r="1" gradientUnits="userSpaceOnUse" gradientTransform="translate(155.376 57.236) scale(125.585)"><stop stop-color="#3692BC"/><stop offset=".504" stop-color="#0681AF"/><stop offset=".976" stop-color="#0055A3"/></radialGradient><radialGradient id="paint2_radial_2567_54434" cx="0" cy="0" r="1" gradientUnits="userSpaceOnUse" gradientTransform="matrix(67.9562 0 0 174.463 118.272 126.377)"><stop stop-color="#93D3A2"/><stop offset=".189" stop-color="#8DD09C"/><stop offset=".442" stop-color="#7CC88B"/><stop offset=".597" stop-color="#6EC17D"/><stop offset="1" stop-color="#528E61"/></radialGradient><radialGradient id="paint3_radial_2567_54434" cx="0" cy="0" r="1" gradientUnits="userSpaceOnUse" gradientTransform="translate(99.696 64.003) scale(31.51)"><stop stop-color="#8ABBD5"/><stop offset=".43" stop-color="#6CABCA"/><stop offset="1" stop-color="#0681AF"/></radialGradient><radialGradient id="paint4_radial_2567_54434" cx="0" cy="0" r="1" gradientUnits="userSpaceOnUse" gradientTransform="translate(111.773 67.953) scale(28.8825)"><stop stop-color="#0055A3"/><stop offset=".438" stop-color="#004281"/><stop offset=".983" stop-color="#00366D"/></radialGradient><radialGradient id="paint5_radial_2567_54434" cx="0" cy="0" r="1" gradientUnits="userSpaceOnUse" gradientTransform="matrix(12.1987 0 0 6.08718 105.236 79.277)"><stop stop-color="#3692BC"/><stop offset=".504" stop-color="#0681AF"/><stop offset=".976" stop-color="#0055A3"/></radialGradient><radialGradient id="paint6_radial_2567_54434" cx="0" cy="0" r="1" gradientUnits="userSpaceOnUse" gradientTransform="translate(107.722 72.236) scale(8.41219)"><stop stop-color="#8ABBD5"/><stop offset=".43" stop-color="#6CABCA"/><stop offset="1" stop-color="#0681AF"/></radialGradient><radialGradient id="paint7_radial_2567_54434" cx="0" cy="0" r="1" gradientUnits="userSpaceOnUse" gradientTransform="matrix(99.5169 0 0 99.5168 120.288 96.666)"><stop stop-color="#8ABBD5"/><stop offset=".43" stop-color="#6CABCA"/><stop offset="1" stop-color="#0681AF"/></radialGradient><radialGradient id="paint8_radial_2567_54434" cx="0" cy="0" r="1" gradientUnits="userSpaceOnUse" gradientTransform="translate(116.829 74.651) scale(10.0525)"><stop stop-color="#0055A3"/><stop offset=".438" stop-color="#004281"/><stop offset=".983" stop-color="#00366D"/></radialGradient></defs></svg>