<svg width="200" height="200" fill="none" xmlns="http://www.w3.org/2000/svg"><path d="M87.106 100c-12.068 0-23.396 3.166-33.2 8.712l38.858 6.427C99.03 109.74 105.993 100 112.887 100H87.106z" fill="url(#paint0_radial_2537_53327)"/><path d="M87.106 100c-12.068 0-23.396 3.166-33.2 8.712l38.858 6.427C99.03 109.74 105.993 100 112.887 100H87.106z" fill="#fff" fill-opacity=".5"/><path d="M93.08 108.711H53.913c-20.494 11.593-34.326 33.587-34.326 58.813v22.475h25.782s34.016-69.484 47.712-81.288z" fill="url(#paint1_radial_2537_53327)"/><path d="M145.898 108.605c-9.76-5.48-21.021-8.605-33.011-8.605-12.067 0-23.396 3.166-33.2 8.712l33.077 71.427 33.134-71.534z" fill="url(#paint2_radial_2537_53327)"/><path d="M145.898 108.605c-9.76-5.48-21.021-8.605-33.011-8.605-12.067 0-23.396 3.166-33.2 8.712l33.077 71.427 33.134-71.534z" fill="#fff" fill-opacity=".5"/><path d="M145.903 108.607l-33.134 61.534-33.076-61.428c-20.494 11.593-34.326 33.588-34.326 58.813v22.475h135.05v-22.475c0-25.303-13.917-47.355-34.514-58.919z" fill="url(#paint3_radial_2537_53327)"/><path d="M117.763 115.137l-5-5-5 5-4.091 45 9.091 9.996 9.091-9.996-4.091-45z" fill="url(#paint4_radial_2537_53327)"/><path d="M117.782 115.139h-10l-4.576-13.856a.982.982 0 01.482-1.176.983.983 0 01.445-.107h17.298a.979.979 0 01.927 1.283l-4.576 13.856z" fill="url(#paint5_radial_2537_53327)"/><path d="M112.776 170.139l-33.077-61.428-11.034 24.456a1.953 1.953 0 001.163 2.656l12.947 4.316-8.084 8.084a1.953 1.953 0 00.508 3.128l37.577 18.788z" fill="url(#paint6_radial_2537_53327)"/><path d="M112.766 170.139l33.076-61.428 11.034 24.456a1.95 1.95 0 01-1.162 2.656l-12.948 4.316 8.084 8.084a1.953 1.953 0 01-.507 3.128l-37.577 18.788z" fill="url(#paint7_radial_2537_53327)"/><path d="M93.184 0h19.991C97.1 0 92.72 42.354 100.037 65.43l3.142-.43c.531 1.188 1.049 2.482 1.575 3.797 2.174 5.434 4.486 11.213 8.421 11.213h-19.99A39.854 39.854 0 0166.712 70c-8.3-7.33-13.533-18.052-13.533-29.995C53.18 17.91 71.09 0 93.184 0z" fill="url(#paint8_radial_2537_53327)"/><path d="M96.633 42.5H53.256a40.768 40.768 0 010-5h43.377a108.805 108.805 0 000 5zm4.112 25H64.13a40.202 40.202 0 005.723 5h33.156c-.837-1.494-1.591-3.173-2.264-5zm0-55c.673-1.827 1.427-3.505 2.264-5H69.853a40.198 40.198 0 00-5.723 5h36.615zm-2.643 45a86.029 86.029 0 01-.757-5H55.17a39.752 39.752 0 002.03 5h40.901zm-.757-30a85.99 85.99 0 01.758-5H57.2a39.767 39.767 0 00-2.029 5h42.174z" fill="url(#paint9_radial_2537_53327)"/><path d="M113.184 80.01c22.094 0 40.005-17.911 40.005-40.005S135.278 0 113.184 0 73.18 17.91 73.18 40.005c0 22.094 17.91 40.004 40.004 40.004z" fill="url(#paint10_radial_2537_53327)"/><path fill-rule="evenodd" clip-rule="evenodd" d="M78.18 40.005C78.18 20.672 93.852 5 113.184 5c19.333 0 35.005 15.672 35.005 35.005 0 19.332-15.672 35.005-35.005 35.005-19.332 0-35.004-15.673-35.004-35.005zm5 0c0 16.571 13.433 30.005 30.004 30.005 16.572 0 30.005-13.434 30.005-30.005 0-16.571-13.434-30.005-30.005-30.005-16.57 0-30.004 13.433-30.004 30.005zm16.82.86v5.148h4.646v5.575H100v4.82h4.646v7.478h5.513v-7.477h9.526v-4.82h-9.526v-5.576h6.088c.309 0 .753-.01 1.332-.032a24.07 24.07 0 001.951-.23c3.634-.612 6.38-2.197 8.238-4.755 1.858-2.58 2.788-5.739 2.788-9.477 0-2.514-.413-4.8-1.239-6.854-.826-2.055-2.065-3.76-3.717-5.116-1.631-1.355-3.655-2.23-6.07-2.623-.702-.131-1.7-.24-2.299-.263-4.5 0-6.48 0-8.199.921a8.261 8.261 0 00-3.511 3.692c-.875 1.807-.875 4.173-.875 8.904v10.685H100zm10.159 0h5.902c.351 0 .764-.022 1.239-.066a10.354 10.354 0 001.548-.262c2.065-.525 3.593-1.607 4.584-3.247.991-1.64 1.487-3.52 1.487-5.64 0-1.356-.207-2.667-.62-3.935a8.472 8.472 0 00-1.982-3.313c-.888-.94-2.044-1.574-3.469-1.902a6.05 6.05 0 00-1.548-.262 30.663 30.663 0 00-1.239-.033h-1.618c-1.499 0-2.249 0-2.822.307-.504.27-.914.701-1.17 1.231-.292.602-.292 1.39-.292 2.968v14.154z" fill="url(#paint11_radial_2537_53327)"/><defs><radialGradient id="paint0_radial_2537_53327" cx="0" cy="0" r="1" gradientUnits="userSpaceOnUse" gradientTransform="matrix(153.132 0 0 13.7689 39.814 102.96)"><stop stop-color="#E4FBEF"/><stop offset=".514" stop-color="#C6EAD0"/><stop offset=".976" stop-color="#BEE4C8"/></radialGradient><radialGradient id="paint1_radial_2537_53327" cx="0" cy="0" r="1" gradientUnits="userSpaceOnUse" gradientTransform="matrix(190.814 0 0 73.9294 2.026 124.604)"><stop stop-color="#E4FBEF"/><stop offset=".514" stop-color="#C6EAD0"/><stop offset=".976" stop-color="#BEE4C8"/></radialGradient><radialGradient id="paint2_radial_2537_53327" cx="0" cy="0" r="1" gradientUnits="userSpaceOnUse" gradientTransform="matrix(171.903 0 0 72.8846 63.868 115.668)"><stop stop-color="#E4FBEF"/><stop offset=".514" stop-color="#C6EAD0"/><stop offset=".976" stop-color="#BEE4C8"/></radialGradient><radialGradient id="paint3_radial_2537_53327" cx="0" cy="0" r="1" gradientUnits="userSpaceOnUse" gradientTransform="matrix(127.465 0 0 98.6132 162.171 175.518)"><stop stop-color="#93D3A2"/><stop offset=".189" stop-color="#8DD09C"/><stop offset=".442" stop-color="#7CC88B"/><stop offset=".597" stop-color="#6EC17D"/><stop offset="1" stop-color="#528E61"/></radialGradient><radialGradient id="paint4_radial_2537_53327" cx="0" cy="0" r="1" gradientUnits="userSpaceOnUse" gradientTransform="matrix(-41.5773 0 0 -107.41 121.566 174.559)"><stop stop-color="#FF6470"/><stop offset=".504" stop-color="#FF4555"/><stop offset=".629" stop-color="#EF3A4B"/><stop offset=".942" stop-color="#C92136"/></radialGradient><radialGradient id="paint5_radial_2537_53327" cx="0" cy="0" r="1" gradientUnits="userSpaceOnUse" gradientTransform="matrix(-44.0214 0 0 -27.104 122.102 116.256)"><stop stop-color="#FF6470"/><stop offset=".504" stop-color="#FF4555"/><stop offset=".629" stop-color="#EF3A4B"/><stop offset=".942" stop-color="#C92136"/></radialGradient><radialGradient id="paint6_radial_2537_53327" cx="0" cy="0" r="1" gradientUnits="userSpaceOnUse" gradientTransform="matrix(114.973 0 0 55.8668 57.911 120.721)"><stop stop-color="#E4FBEF"/><stop offset=".514" stop-color="#C6EAD0"/><stop offset=".976" stop-color="#BEE4C8"/></radialGradient><radialGradient id="paint7_radial_2537_53327" cx="0" cy="0" r="1" gradientUnits="userSpaceOnUse" gradientTransform="matrix(114.973 0 0 55.8668 102.185 120.721)"><stop stop-color="#E4FBEF"/><stop offset=".514" stop-color="#C6EAD0"/><stop offset=".976" stop-color="#BEE4C8"/></radialGradient><radialGradient id="paint8_radial_2537_53327" cx="0" cy="0" r="1" gradientUnits="userSpaceOnUse" gradientTransform="matrix(60.8765 0 0 55.5038 94.387 19.9)"><stop stop-color="#FFF9E2"/><stop offset=".535" stop-color="#FFE4CB"/><stop offset=".623" stop-color="#FFDFC1"/><stop offset=".973" stop-color="#FFCB9B"/></radialGradient><radialGradient id="paint9_radial_2537_53327" cx="0" cy="0" r="1" gradientUnits="userSpaceOnUse" gradientTransform="matrix(50.5612 0 0 45.0915 87.404 23.667)"><stop stop-color="#FFEEAD"/><stop offset=".535" stop-color="#FFCA99"/><stop offset=".623" stop-color="#FFC58F"/><stop offset=".973" stop-color="#FFAF66"/></radialGradient><radialGradient id="paint10_radial_2537_53327" cx="0" cy="0" r="1" gradientUnits="userSpaceOnUse" gradientTransform="matrix(0 66.0352 -66.9508 0 147.016 36.416)"><stop stop-color="#FFC58A"/><stop offset=".512" stop-color="#FFB05C"/><stop offset=".598" stop-color="#FFAC61"/><stop offset=".976" stop-color="#FF9161"/></radialGradient><radialGradient id="paint11_radial_2537_53327" cx="0" cy="0" r="1" gradientUnits="userSpaceOnUse" gradientTransform="matrix(0 57.7821 -58.5829 0 142.825 36.865)"><stop stop-color="#FF9C38"/><stop offset=".512" stop-color="#FF8B0F"/><stop offset=".598" stop-color="#FF810F"/><stop offset=".976" stop-color="#F54B00"/></radialGradient></defs></svg>