<svg width="200" height="200" fill="none" xmlns="http://www.w3.org/2000/svg"><path d="M130 89.997h10v35h-10v-35z" fill="url(#paint0_radial_2543_51712)"/><path d="M118.115 130.648l1.884-5.651h20v-35h10v35.234a9.766 9.766 0 01-9.766 9.766h-24.53a13.647 13.647 0 002.412-4.349z" fill="url(#paint1_radial_2543_51712)"/><path d="M164.766 90v-5.234c0-5.394-4.373-9.766-9.766-9.766h-14.766C145.628 75 150 90 150 90h14.766z" fill="url(#paint2_radial_2543_51712)"/><path d="M150 90h-30V75h20.234A9.766 9.766 0 01150 84.766V90z" fill="url(#paint3_radial_2543_51712)"/><path d="M95 190.003H80v-55h20l-5 55z" fill="url(#paint4_radial_2543_51712)"/><path d="M95 135.003h15v55H95v-55z" fill="url(#paint5_radial_2543_51712)"/><path d="M51.884 130.652L50 125l35-5 9.854 20h-30a13.671 13.671 0 01-12.97-9.348z" fill="url(#paint6_radial_2543_51712)"/><path d="M49.531 0C38.745 0 30 8.745 30 19.531V90l30 10S59.213 0 70 0H49.531z" fill="url(#paint7_radial_2543_51712)"/><path d="M135 105l-85-5V19.531C50 8.745 58.745 0 69.531 0h45.938C126.255 0 135 8.745 135 19.531V105z" fill="url(#paint8_radial_2543_51712)"/><path fill-rule="evenodd" clip-rule="evenodd" d="M70.047 52.468v14.694h8.946v7.923h-8.946V88.5h8.946V100h17.378V88.5h21.565V75.085H96.371v-7.923h9.299c.342 0 1.256-.021 2.748-.064a43.885 43.885 0 004.918-.447c8.051-1.15 14.013-4.217 17.89-9.2 3.917-4.983 5.878-11.372 5.878-19.166 0-5.026-.833-9.648-2.493-13.864-1.66-4.217-4.259-7.71-7.793-10.478-3.494-2.811-7.986-4.621-13.482-5.43a43.875 43.875 0 00-4.918-.448 144.54 144.54 0 00-2.748-.064H78.993v44.467h-8.946zm26.324 0h8.531c.64 0 1.449-.021 2.428-.064 1.023-.085 2.173-.32 3.45-.703 3.196-.98 5.453-2.598 6.774-4.855 1.362-2.258 2.043-4.941 2.043-8.05 0-1.79-.255-3.642-.765-5.559a12.212 12.212 0 00-2.621-5.11c-1.278-1.534-3.087-2.62-5.431-3.26a13.97 13.97 0 00-3.45-.574 75.486 75.486 0 00-2.428-.064h-8.531v28.239z" fill="url(#paint9_radial_2543_51712)"/><path fill-rule="evenodd" clip-rule="evenodd" d="M78.39 52.468v14.694h8.947v7.923h-8.946V88.5h8.946V100h17.377V88.5h21.566V75.085h-21.566v-7.923h9.299c.342 0 1.256-.021 2.748-.064a43.844 43.844 0 004.918-.447c8.052-1.15 14.014-4.217 17.891-9.2 3.917-4.983 5.878-11.372 5.878-19.166 0-5.026-.833-9.648-2.493-13.864-1.66-4.217-4.259-7.71-7.794-10.478-3.493-2.811-7.986-4.621-13.482-5.43a43.833 43.833 0 00-4.918-.448 144.54 144.54 0 00-2.748-.064H87.337v44.467h-8.946zm26.324 0h8.532c.64 0 1.448-.021 2.428-.064 1.022-.085 2.172-.32 3.45-.703 3.196-.98 5.453-2.598 6.774-4.855 1.361-2.258 2.042-4.941 2.042-8.05 0-1.79-.255-3.642-.765-5.559a12.199 12.199 0 00-2.62-5.11c-1.278-1.534-3.087-2.62-5.431-3.26a13.97 13.97 0 00-3.45-.574 75.555 75.555 0 00-2.428-.064h-8.532v28.239z" fill="url(#paint10_radial_2543_51712)"/><path d="M55.469 190v-5.234c0-5.394 4.372-9.766 9.765-9.766H85c-5.393 0-9.766 15-9.766 15H55.47z" fill="url(#paint11_radial_2543_51712)"/><path fill-rule="evenodd" clip-rule="evenodd" d="M86.86 137.419A13.67 13.67 0 0094.854 140h40.292a13.672 13.672 0 0012.97-9.348L150 125l-35-5-35 5 1.884 5.652a13.667 13.667 0 004.976 6.767zM75.234 190h59.532l.234-5.234c0-5.394-4.607-9.766-10-9.766H85c-5.393 0-9.766 4.372-9.766 9.766V190z" fill="url(#paint12_radial_2543_51712)"/><path d="M175 125v-5.469c0-10.786-8.745-19.531-19.531-19.531h-85C81.256 100 80 109.213 80 120l10 5h85z" fill="url(#paint13_radial_2543_51712)"/><path d="M90 125H49.531C38.745 135 30 126.255 30 115.469V100h40.469C81.256 100 90 108.745 90 119.531V125z" fill="url(#paint14_radial_2543_51712)"/><path d="M74.766 90v-5.234C74.766 79.372 70.393 75 65 75H50.234C55.628 75 60 90 60 90h14.766z" fill="url(#paint15_radial_2543_51712)"/><path d="M60 90H25v-5.234A9.766 9.766 0 0134.766 75h15.468A9.766 9.766 0 0160 84.766V90z" fill="url(#paint16_radial_2543_51712)"/><path d="M31.242 130a9.76 9.76 0 008.524 5h10L50 125l-18.758 5z" fill="url(#paint17_radial_2543_51712)"/><path d="M40 89.997H30v35.234a9.72 9.72 0 001.242 4.766h17.439l-8.681-40z" fill="url(#paint18_radial_2543_51712)"/><path d="M70 124.997H50v-35H40v35.234a9.766 9.766 0 009.766 9.766h16.328A3.906 3.906 0 0070 131.091v-6.094z" fill="url(#paint19_radial_2543_51712)"/><defs><radialGradient id="paint0_radial_2543_51712" cx="0" cy="0" r="1" gradientUnits="userSpaceOnUse" gradientTransform="matrix(25.963 0 0 31.8315 127.611 96.84)"><stop stop-color="#E4FBEF"/><stop offset=".514" stop-color="#C6EAD0"/><stop offset=".976" stop-color="#BEE4C8"/></radialGradient><radialGradient id="paint1_radial_2543_51712" cx="0" cy="0" r="1" gradientUnits="userSpaceOnUse" gradientTransform="matrix(32.3695 0 0 54.5196 145.365 126.99)"><stop stop-color="#93D3A2"/><stop offset=".189" stop-color="#8DD09C"/><stop offset=".442" stop-color="#7CC88B"/><stop offset=".597" stop-color="#6EC17D"/><stop offset="1" stop-color="#528E61"/></radialGradient><radialGradient id="paint2_radial_2543_51712" cx="0" cy="0" r="1" gradientUnits="userSpaceOnUse" gradientTransform="translate(168.607 71.457) scale(25.6414)"><stop stop-color="#FFAB56"/><stop offset=".512" stop-color="#FF982A"/><stop offset=".598" stop-color="#FF8F2A"/><stop offset=".976" stop-color="#FF6927"/></radialGradient><radialGradient id="paint3_radial_2543_51712" cx="0" cy="0" r="1" gradientUnits="userSpaceOnUse" gradientTransform="translate(121.604 74.159) scale(31.0922)"><stop stop-color="#FFF9E2"/><stop offset=".535" stop-color="#FFE4CB"/><stop offset=".623" stop-color="#FFDFC1"/><stop offset=".973" stop-color="#FFCB9B"/></radialGradient><radialGradient id="paint4_radial_2543_51712" cx="0" cy="0" r="1" gradientUnits="userSpaceOnUse" gradientTransform="matrix(51.926 0 0 50.021 75.221 145.756)"><stop stop-color="#E4FBEF"/><stop offset=".514" stop-color="#C6EAD0"/><stop offset=".976" stop-color="#BEE4C8"/></radialGradient><radialGradient id="paint5_radial_2543_51712" cx="0" cy="0" r="1" gradientUnits="userSpaceOnUse" gradientTransform="matrix(-58.75 0 0 -276.518 147.5 180.216)"><stop stop-color="#93D3A2"/><stop offset=".189" stop-color="#8DD09C"/><stop offset=".442" stop-color="#7CC88B"/><stop offset=".597" stop-color="#6EC17D"/><stop offset="1" stop-color="#528E61"/></radialGradient><radialGradient id="paint6_radial_2543_51712" cx="0" cy="0" r="1" gradientUnits="userSpaceOnUse" gradientTransform="matrix(116.455 0 0 18.1894 39.283 123.91)"><stop stop-color="#E4FBEF"/><stop offset=".514" stop-color="#C6EAD0"/><stop offset=".976" stop-color="#BEE4C8"/></radialGradient><radialGradient id="paint7_radial_2543_51712" cx="0" cy="0" r="1" gradientUnits="userSpaceOnUse" gradientTransform="matrix(79.1899 0 0 79.1898 37.94 16.005)"><stop stop-color="#FFF9E2"/><stop offset=".535" stop-color="#FFE4CB"/><stop offset=".623" stop-color="#FFDFC1"/><stop offset=".973" stop-color="#FFCB9B"/></radialGradient><radialGradient id="paint8_radial_2543_51712" cx="0" cy="0" r="1" gradientUnits="userSpaceOnUse" gradientTransform="translate(132.168 31.76) scale(93.5328)"><stop stop-color="#FFAB56"/><stop offset=".512" stop-color="#FF982A"/><stop offset=".598" stop-color="#FF8F2A"/><stop offset=".976" stop-color="#FF6927"/></radialGradient><radialGradient id="paint9_radial_2543_51712" cx="0" cy="0" r="1" gradientUnits="userSpaceOnUse" gradientTransform="matrix(174.101 0 0 83.6714 54.025 25.988)"><stop stop-color="#E4FBEF"/><stop offset=".514" stop-color="#C6EAD0"/><stop offset=".976" stop-color="#BEE4C8"/></radialGradient><radialGradient id="paint10_radial_2543_51712" cx="0" cy="0" r="1" gradientUnits="userSpaceOnUse" gradientTransform="matrix(63.2911 0 0 111.462 136.388 83.63)"><stop stop-color="#93D3A2"/><stop offset=".189" stop-color="#8DD09C"/><stop offset=".442" stop-color="#7CC88B"/><stop offset=".597" stop-color="#6EC17D"/><stop offset="1" stop-color="#528E61"/></radialGradient><radialGradient id="paint11_radial_2543_51712" cx="0" cy="0" r="1" gradientUnits="userSpaceOnUse" gradientTransform="matrix(76.672 0 0 13.6421 48.413 177.933)"><stop stop-color="#E4FBEF"/><stop offset=".514" stop-color="#C6EAD0"/><stop offset=".976" stop-color="#BEE4C8"/></radialGradient><radialGradient id="paint12_radial_2543_51712" cx="0" cy="0" r="1" gradientUnits="userSpaceOnUse" gradientTransform="matrix(70.5665 0 0 84.8082 139.898 177.544)"><stop stop-color="#93D3A2"/><stop offset=".189" stop-color="#8DD09C"/><stop offset=".442" stop-color="#7CC88B"/><stop offset=".597" stop-color="#6EC17D"/><stop offset="1" stop-color="#528E61"/></radialGradient><radialGradient id="paint13_radial_2543_51712" cx="0" cy="0" r="1" gradientUnits="userSpaceOnUse" gradientTransform="matrix(83.9313 0 0 32.7332 138.842 99.66)"><stop stop-color="#FFAB56"/><stop offset=".512" stop-color="#FF982A"/><stop offset=".598" stop-color="#FF8F2A"/><stop offset=".976" stop-color="#FF6927"/></radialGradient><radialGradient id="paint14_radial_2543_51712" cx="0" cy="0" r="1" gradientUnits="userSpaceOnUse" gradientTransform="matrix(44.7935 0 0 67.1566 41.92 104.704)"><stop stop-color="#FFF9E2"/><stop offset=".535" stop-color="#FFE4CB"/><stop offset=".623" stop-color="#FFDFC1"/><stop offset=".973" stop-color="#FFCB9B"/></radialGradient><radialGradient id="paint15_radial_2543_51712" cx="0" cy="0" r="1" gradientUnits="userSpaceOnUse" gradientTransform="translate(78.607 71.457) scale(29.1957)"><stop stop-color="#FFAB56"/><stop offset=".512" stop-color="#FF982A"/><stop offset=".598" stop-color="#FF8F2A"/><stop offset=".976" stop-color="#FF6927"/></radialGradient><radialGradient id="paint16_radial_2543_51712" cx="0" cy="0" r="1" gradientUnits="userSpaceOnUse" gradientTransform="translate(26.871 74.159) scale(35.1137)"><stop stop-color="#FFF9E2"/><stop offset=".535" stop-color="#FFE4CB"/><stop offset=".623" stop-color="#FFDFC1"/><stop offset=".973" stop-color="#FFCB9B"/></radialGradient><radialGradient id="paint17_radial_2543_51712" cx="0" cy="0" r="1" gradientUnits="userSpaceOnUse" gradientTransform="matrix(48.7009 0 0 9.09472 26.76 126.955)"><stop stop-color="#E4FBEF"/><stop offset=".514" stop-color="#C6EAD0"/><stop offset=".976" stop-color="#BEE4C8"/></radialGradient><radialGradient id="paint18_radial_2543_51712" cx="0" cy="0" r="1" gradientUnits="userSpaceOnUse" gradientTransform="matrix(48.5001 0 0 36.3789 25.537 97.817)"><stop stop-color="#E4FBEF"/><stop offset=".514" stop-color="#C6EAD0"/><stop offset=".976" stop-color="#BEE4C8"/></radialGradient><radialGradient id="paint19_radial_2543_51712" cx="0" cy="0" r="1" gradientUnits="userSpaceOnUse" gradientTransform="matrix(28.3151 0 0 54.5196 65.947 126.99)"><stop stop-color="#93D3A2"/><stop offset=".189" stop-color="#8DD09C"/><stop offset=".442" stop-color="#7CC88B"/><stop offset=".597" stop-color="#6EC17D"/><stop offset="1" stop-color="#528E61"/></radialGradient></defs></svg>