<svg width="200" height="200" fill="none" xmlns="http://www.w3.org/2000/svg"><path d="M165.009 103.33a9.747 9.747 0 01-6.905-2.86L95.922 38.288l18.23-3.285s63.358 68.327 65.857 68.327h-15z" fill="url(#paint0_radial_2545_55908)"/><path d="M30 85.003v85l35 5 20-95-55 5z" fill="url(#paint1_radial_2545_55908)"/><path d="M14.142 104.123a9.726 9.726 0 01-6.905-2.86L0 94.027l35-4.024s9.39 14.12 11.89 14.12H14.141z" fill="url(#paint2_radial_2545_55908)"/><path d="M0 94.027l84.023-84.024h32.747l-31.77 40-52.253 44.024H0z" fill="url(#paint3_radial_2545_55908)"/><path d="M170 170.006l-50 5-60-5v-85l56.77-65 53.23 65v85z" fill="url(#paint4_radial_2545_55908)"/><path d="M180.002 103.33a9.74 9.74 0 01-6.906-2.86l-62.182-62.182 9.088-3.285s63.358 68.327 65.857 68.327h-5.857z" fill="url(#paint5_radial_2545_55908)"/><path d="M199.995 93.233l-83.229-83.23-84.024 84.024 7.237 7.236c3.814 3.814 9.997 3.814 13.81 0l62.977-62.975 62.182 62.182c3.813 3.813 9.997 3.813 13.81 0l7.237-7.237z" fill="url(#paint6_radial_2545_55908)"/><path fill-rule="evenodd" clip-rule="evenodd" d="M77.742 123.623v14.695h8.947v7.922h-8.947v13.417h8.947v11.5h17.377v-11.5h21.566V146.24h-21.566v-7.922h9.299c.342 0 1.256-.022 2.748-.064 1.489-.043 3.13-.192 4.918-.447 8.051-1.15 14.014-4.217 17.89-9.2 3.917-4.984 5.878-11.372 5.878-19.167 0-5.026-.832-9.647-2.492-13.864-1.661-4.217-4.259-7.71-7.794-10.477-3.494-2.812-7.986-4.622-13.482-5.431a43.875 43.875 0 00-4.918-.448 144.64 144.64 0 00-2.748-.063H86.689v44.466h-8.947zm26.324 0h8.531c.641 0 1.449-.021 2.428-.064 1.023-.085 2.173-.319 3.451-.702 3.195-.98 5.452-2.599 6.773-4.856 1.362-2.257 2.043-4.941 2.043-8.05 0-1.789-.255-3.641-.765-5.558a12.197 12.197 0 00-2.621-5.111c-1.277-1.534-3.087-2.62-5.43-3.258a13.93 13.93 0 00-3.451-.576 75.72 75.72 0 00-2.428-.063h-8.531v28.238z" fill="url(#paint7_radial_2545_55908)"/><path fill-rule="evenodd" clip-rule="evenodd" d="M86.086 123.623v14.695h8.946v7.922h-8.946v13.417h8.946v11.5h17.378v-11.5h21.565V146.24H112.41v-7.922h9.299c.342 0 1.256-.022 2.748-.064 1.489-.043 3.13-.192 4.918-.447 8.051-1.15 14.013-4.217 17.89-9.2 3.917-4.984 5.878-11.372 5.878-19.167 0-5.026-.833-9.647-2.493-13.864-1.66-4.217-4.259-7.71-7.793-10.477-3.494-2.812-7.986-4.622-13.482-5.431a43.875 43.875 0 00-4.918-.448 144.64 144.64 0 00-2.748-.063H95.032v44.466h-8.946zm26.324 0h8.531c.64 0 1.449-.021 2.428-.064 1.023-.085 2.173-.319 3.45-.702 3.196-.98 5.453-2.599 6.774-4.856 1.362-2.257 2.043-4.941 2.043-8.05 0-1.789-.255-3.641-.765-5.558a12.209 12.209 0 00-2.621-5.111c-1.277-1.534-3.087-2.62-5.431-3.258-1.15-.341-2.3-.533-3.45-.576a75.79 75.79 0 00-2.428-.063h-8.531v28.238z" fill="url(#paint8_radial_2545_55908)"/><path d="M16.398 180.006v-1.397a8.603 8.603 0 018.604-8.603h30c-4.752 0-8.604 10-8.604 10h-30z" fill="url(#paint9_radial_2545_55908)"/><path d="M174.994 170.006h-120a8.603 8.603 0 00-8.603 8.603v1.397h137.205v-1.397a8.602 8.602 0 00-8.602-8.603z" fill="url(#paint10_radial_2545_55908)"/><defs><radialGradient id="paint0_radial_2545_55908" cx="0" cy="0" r="1" gradientUnits="userSpaceOnUse" gradientTransform="matrix(166.472 0 0 54.1077 112.612 45.939)"><stop stop-color="#FFF9E2"/><stop offset=".535" stop-color="#FFE4CB"/><stop offset=".623" stop-color="#FFDFC1"/><stop offset=".973" stop-color="#FFCB9B"/></radialGradient><radialGradient id="paint1_radial_2545_55908" cx="0" cy="0" r="1" gradientUnits="userSpaceOnUse" gradientTransform="matrix(142.797 0 0 86.3998 16.859 98.577)"><stop stop-color="#E4FBEF"/><stop offset=".514" stop-color="#C6EAD0"/><stop offset=".976" stop-color="#BEE4C8"/></radialGradient><radialGradient id="paint2_radial_2545_55908" cx="0" cy="0" r="1" gradientUnits="userSpaceOnUse" gradientTransform="matrix(92.8284 0 0 11.1819 9.307 92.263)"><stop stop-color="#FFF9E2"/><stop offset=".535" stop-color="#FFE4CB"/><stop offset=".623" stop-color="#FFDFC1"/><stop offset=".973" stop-color="#FFCB9B"/></radialGradient><radialGradient id="paint3_radial_2545_55908" cx="0" cy="0" r="1" gradientUnits="userSpaceOnUse" gradientTransform="matrix(231.176 0 0 66.538 23.177 23.45)"><stop stop-color="#FFF9E2"/><stop offset=".535" stop-color="#FFE4CB"/><stop offset=".623" stop-color="#FFDFC1"/><stop offset=".973" stop-color="#FFCB9B"/></radialGradient><radialGradient id="paint4_radial_2545_55908" cx="0" cy="0" r="1" gradientUnits="userSpaceOnUse" gradientTransform="matrix(103.822 0 0 187.79 155.138 147.426)"><stop stop-color="#93D3A2"/><stop offset=".189" stop-color="#8DD09C"/><stop offset=".442" stop-color="#7CC88B"/><stop offset=".597" stop-color="#6EC17D"/><stop offset="1" stop-color="#528E61"/></radialGradient><radialGradient id="paint5_radial_2545_55908" cx="0" cy="0" r="1" gradientUnits="userSpaceOnUse" gradientTransform="matrix(148.373 0 0 54.1077 125.79 45.939)"><stop stop-color="#FFF9E2"/><stop offset=".535" stop-color="#FFE4CB"/><stop offset=".623" stop-color="#FFDFC1"/><stop offset=".973" stop-color="#FFCB9B"/></radialGradient><radialGradient id="paint6_radial_2545_55908" cx="0" cy="0" r="1" gradientUnits="userSpaceOnUse" gradientTransform="matrix(134.293 0 0 123.234 142.142 8.723)"><stop stop-color="#FFAB56"/><stop offset=".512" stop-color="#FF982A"/><stop offset=".598" stop-color="#FF8F2A"/><stop offset=".976" stop-color="#FF6927"/></radialGradient><radialGradient id="paint7_radial_2545_55908" cx="0" cy="0" r="1" gradientUnits="userSpaceOnUse" gradientTransform="matrix(132.756 0 0 72.8546 91.052 93.881)"><stop stop-color="#FFF9E2"/><stop offset=".535" stop-color="#FFE4CB"/><stop offset=".623" stop-color="#FFDFC1"/><stop offset=".973" stop-color="#FFCB9B"/></radialGradient><radialGradient id="paint8_radial_2545_55908" cx="0" cy="0" r="1" gradientUnits="userSpaceOnUse" gradientTransform="matrix(53.8423 0 0 120.458 129.948 77.906)"><stop stop-color="#FFAB56"/><stop offset=".512" stop-color="#FF982A"/><stop offset=".598" stop-color="#FF8F2A"/><stop offset=".976" stop-color="#FF6927"/></radialGradient><radialGradient id="paint9_radial_2545_55908" cx="0" cy="0" r="1" gradientUnits="userSpaceOnUse" gradientTransform="matrix(36.9359 0 0 14.405 26.863 167.674)"><stop stop-color="#FFF9E2"/><stop offset=".535" stop-color="#FFE4CB"/><stop offset=".623" stop-color="#FFDFC1"/><stop offset=".973" stop-color="#FFCB9B"/></radialGradient><radialGradient id="paint10_radial_2545_55908" cx="0" cy="0" r="1" gradientUnits="userSpaceOnUse" gradientTransform="matrix(110.465 0 0 49.4882 159.302 180.704)"><stop stop-color="#FFAB56"/><stop offset=".512" stop-color="#FF982A"/><stop offset=".598" stop-color="#FF8F2A"/><stop offset=".976" stop-color="#FF6927"/></radialGradient></defs></svg>