<svg width="200" height="200" fill="none" xmlns="http://www.w3.org/2000/svg"><path d="M60 60l-5 40 5 50 37.2-64.434c1.128-1.951 1.05-4.388-.237-6.238C88.835 67.646 75.31 60 60 60z" fill="url(#paint0_radial_2730_25795)"/><path d="M50 20H20l5 25 35-10-10-15z" fill="url(#paint1_radial_2730_25795)"/><path d="M60 170H30L25 35h35v135z" fill="url(#paint2_radial_2730_25795)"/><path d="M0 170h30V35L20 20H0v150z" fill="url(#paint3_radial_2730_25795)"/><path d="M190 20h-30l5 25 35-10-10-15z" fill="url(#paint4_radial_2730_25795)"/><path d="M200 170h-30l-5-135h35v135z" fill="url(#paint5_radial_2730_25795)"/><path d="M140 170h30V35l-10-15h-20v150z" fill="url(#paint6_radial_2730_25795)"/><path d="M160 60l-5 5-5-5V50h10v10z" fill="url(#paint7_radial_2730_25795)"/><path d="M150 150l5-5 5 5v10h-10v-10z" fill="url(#paint8_radial_2730_25795)"/><path d="M53.047 60H36.953A1.953 1.953 0 0135 58.047V41.953A1.953 1.953 0 0136.953 40h16.094A1.953 1.953 0 0155 41.953v16.094A1.953 1.953 0 0153.047 60z" fill="url(#paint9_radial_2730_25795)"/><path d="M150 60c-15.31 0-28.835 7.646-36.963 19.328-1.288 1.85-1.365 4.287-.238 6.238L150 150h10s-15.31-90 0-90h-10z" fill="url(#paint10_radial_2730_25795)"/><path d="M160 60v90l-37.201-64.434c-1.127-1.951-1.05-4.388.238-6.238C131.165 67.646 144.69 60 160 60z" fill="url(#paint11_radial_2730_25795)"/><path d="M37.045 45.58l3.535-3.535 7.375 7.374v-4.511a1.954 1.954 0 011.953-1.953h3.047v15h-15v-3.047a1.954 1.954 0 011.953-1.953h4.511l-7.374-7.374z" fill="url(#paint12_radial_2730_25795)"/><defs><radialGradient id="paint0_radial_2730_25795" cx="0" cy="0" r="1" gradientUnits="userSpaceOnUse" gradientTransform="matrix(0 54.0539 -37.7296 0 96.294 92.799)"><stop stop-color="#FFAB56"/><stop offset=".512" stop-color="#FF982A"/><stop offset=".598" stop-color="#FF8F2A"/><stop offset=".976" stop-color="#FF6927"/></radialGradient><radialGradient id="paint1_radial_2730_25795" cx="0" cy="0" r="1" gradientUnits="userSpaceOnUse" gradientTransform="translate(53.957 22.652) scale(29.9043)"><stop stop-color="#8ABBD5"/><stop offset=".43" stop-color="#6CABCA"/><stop offset="1" stop-color="#0681AF"/></radialGradient><radialGradient id="paint2_radial_2730_25795" cx="0" cy="0" r="1" gradientUnits="userSpaceOnUse" gradientTransform="matrix(0 127.961 -51.824 0 77.989 38.07)"><stop offset=".019" stop-color="#3692BC"/><stop offset=".504" stop-color="#0681AF"/><stop offset=".976" stop-color="#0055A3"/></radialGradient><radialGradient id="paint3_radial_2730_25795" cx="0" cy="0" r="1" gradientUnits="userSpaceOnUse" gradientTransform="translate(8.295 38.034) scale(105.033)"><stop stop-color="#E6F6FF"/><stop offset=".376" stop-color="#C0DAE9"/><stop offset=".43" stop-color="#BAD6E5"/><stop offset="1" stop-color="#8ABBD5"/></radialGradient><radialGradient id="paint4_radial_2730_25795" cx="0" cy="0" r="1" gradientUnits="userSpaceOnUse" gradientTransform="translate(194.913 20.666) scale(34.0488)"><stop stop-color="#8ABBD5"/><stop offset=".43" stop-color="#6CABCA"/><stop offset="1" stop-color="#0681AF"/></radialGradient><radialGradient id="paint5_radial_2730_25795" cx="0" cy="0" r="1" gradientUnits="userSpaceOnUse" gradientTransform="matrix(0 127.961 -51.824 0 217.989 38.07)"><stop offset=".019" stop-color="#3692BC"/><stop offset=".504" stop-color="#0681AF"/><stop offset=".976" stop-color="#0055A3"/></radialGradient><radialGradient id="paint6_radial_2730_25795" cx="0" cy="0" r="1" gradientUnits="userSpaceOnUse" gradientTransform="translate(148.295 38.034) scale(105.033)"><stop stop-color="#E6F6FF"/><stop offset=".376" stop-color="#C0DAE9"/><stop offset=".43" stop-color="#BAD6E5"/><stop offset="1" stop-color="#8ABBD5"/></radialGradient><radialGradient id="paint7_radial_2730_25795" cx="0" cy="0" r="1" gradientUnits="userSpaceOnUse" gradientTransform="translate(157.937 57.89) scale(10.9703)"><stop stop-color="#8ABBD5"/><stop offset=".43" stop-color="#6CABCA"/><stop offset="1" stop-color="#0681AF"/></radialGradient><radialGradient id="paint8_radial_2730_25795" cx="0" cy="0" r="1" gradientUnits="userSpaceOnUse" gradientTransform="translate(160.418 157.1) scale(8.30547)"><stop stop-color="#8ABBD5"/><stop offset=".43" stop-color="#6CABCA"/><stop offset="1" stop-color="#0681AF"/></radialGradient><radialGradient id="paint9_radial_2730_25795" cx="0" cy="0" r="1" gradientUnits="userSpaceOnUse" gradientTransform="translate(62.56 45.703) scale(28.3715)"><stop stop-color="#0055A3"/><stop offset=".438" stop-color="#004281"/><stop offset=".983" stop-color="#00366D"/></radialGradient><radialGradient id="paint10_radial_2730_25795" cx="0" cy="0" r="1" gradientUnits="userSpaceOnUse" gradientTransform="matrix(37.4356 0 0 37.4355 122.156 69.223)"><stop stop-color="#FFF9E2"/><stop offset=".535" stop-color="#FFE4CB"/><stop offset=".623" stop-color="#FFDFC1"/><stop offset=".973" stop-color="#FFCB9B"/></radialGradient><radialGradient id="paint11_radial_2730_25795" cx="0" cy="0" r="1" gradientUnits="userSpaceOnUse" gradientTransform="translate(168.479 86.843) scale(43.843)"><stop stop-color="#FFAB56"/><stop offset=".512" stop-color="#FF982A"/><stop offset=".598" stop-color="#FF8F2A"/><stop offset=".976" stop-color="#FF6927"/></radialGradient><radialGradient id="paint12_radial_2730_25795" cx="0" cy="0" r="1" gradientUnits="userSpaceOnUse" gradientTransform="rotate(180 31.478 22.852) scale(28.3715)"><stop stop-color="#7BE700"/><stop offset=".512" stop-color="#72D800"/><stop offset=".808" stop-color="#26B847"/><stop offset=".976" stop-color="#00A96A"/></radialGradient></defs></svg>