<svg width="96" height="96" fill="none" xmlns="http://www.w3.org/2000/svg"><path d="M12.117 7h11.627c-1.687 0-2.043 51.723-1.069 72.345l1.068-.227c.122 1.848.026 4.175-.05 6.014-.072 1.772-.126 3.09.05 3.09H12.117a3.871 3.871 0 01-3.87-3.87V10.87A3.871 3.871 0 0112.116 7z" fill="url(#paint0_radial_2905_28336)"/><path d="M83.876 88.222H23.742a3.871 3.871 0 01-3.87-3.87v-73.48A3.871 3.871 0 0123.741 7h60.134a3.871 3.871 0 013.871 3.871v73.48a3.871 3.871 0 01-3.871 3.871z" fill="url(#paint1_radial_2905_28336)"/><path d="M27.625 36.538V14.75H80l1.453 13.01L80 36.538H27.625z" fill="url(#paint2_radial_2905_28336)"/><path d="M79.996 14.75h2.907v21.788h-2.907V14.75z" fill="url(#paint3_radial_2905_28336)"/><path d="M32.668 49.137l-5.043 1.258v.97a1.078 1.078 0 001.078 1.077h2.906c-.172 0 1.132-2.104 1.06-3.305z" fill="url(#paint4_radial_2905_28336)"/><path d="M31.61 42.352h-2.907a1.078 1.078 0 00-1.078 1.077v6.966h3.617c-.178-2.949-.056-8.043.367-8.043z" fill="url(#paint5_radial_2905_28336)"/><path d="M38.818 42.352h-7.21a1.078 1.078 0 00-1.077 1.077v7.935a1.078 1.078 0 001.078 1.078h7.21a1.078 1.078 0 001.077-1.078v-7.935a1.078 1.078 0 00-1.078-1.077z" fill="url(#paint6_radial_2905_28336)"/><path d="M47.004 49.137l-5.043 1.258v.97a1.078 1.078 0 001.078 1.077h2.906c-.172 0 1.132-2.104 1.06-3.305z" fill="url(#paint7_radial_2905_28336)"/><path d="M45.945 42.352H43.04a1.078 1.078 0 00-1.078 1.077v6.966h3.617c-.178-2.949-.056-8.043.367-8.043z" fill="url(#paint8_radial_2905_28336)"/><path d="M53.154 42.352h-7.21a1.077 1.077 0 00-1.077 1.077v7.935a1.079 1.079 0 001.078 1.078h7.209a1.078 1.078 0 001.078-1.078v-7.935a1.077 1.077 0 00-1.078-1.077z" fill="url(#paint9_radial_2905_28336)"/><path d="M61.34 49.137l-5.043 1.258v.97a1.078 1.078 0 001.078 1.077h2.906c-.172 0 1.132-2.104 1.06-3.305z" fill="url(#paint10_radial_2905_28336)"/><path d="M60.281 42.352h-2.907a1.078 1.078 0 00-1.077 1.077v6.966h3.617c-.178-2.949-.056-8.043.367-8.043z" fill="url(#paint11_radial_2905_28336)"/><path d="M67.49 42.352h-7.21a1.078 1.078 0 00-1.077 1.077v7.935a1.078 1.078 0 001.078 1.078h7.209a1.078 1.078 0 001.078-1.078v-7.935a1.078 1.078 0 00-1.078-1.077z" fill="url(#paint12_radial_2905_28336)"/><path d="M75.676 49.137l-5.043 1.258v.97a1.078 1.078 0 001.077 1.077h2.907c-.172 0 1.132-2.104 1.06-3.305z" fill="url(#paint13_radial_2905_28336)"/><path d="M74.617 42.352H71.71a1.078 1.078 0 00-1.077 1.077v6.966h3.617c-.178-2.949-.056-8.043.367-8.043z" fill="url(#paint14_radial_2905_28336)"/><path d="M81.826 42.352h-7.21a1.078 1.078 0 00-1.077 1.077v7.935a1.078 1.078 0 001.078 1.078h7.209a1.078 1.078 0 001.078-1.078v-7.935a1.078 1.078 0 00-1.078-1.077z" fill="url(#paint15_radial_2905_28336)"/><path fill-rule="evenodd" clip-rule="evenodd" d="M28.703 56.29h2.906c-.383 0-.52 4.172-.41 7.15l1.47-.366c.047.789-.499 1.966-.83 2.682-.174.375-.289.623-.23.623h-2.906a1.078 1.078 0 01-1.078-1.077v-.97h.001-.001v-6.965a1.078 1.078 0 011.078-1.078z" fill="url(#paint16_radial_2905_28336)"/><path d="M38.818 56.29h-7.21a1.078 1.078 0 00-1.077 1.077v7.935a1.078 1.078 0 001.078 1.077h7.21a1.078 1.078 0 001.077-1.078v-7.934a1.078 1.078 0 00-1.078-1.078z" fill="url(#paint17_radial_2905_28336)"/><path d="M43.039 56.29h2.906c-.383 0-.52 4.172-.41 7.15l1.47-.366c.047.788-.499 1.966-.83 2.682-.174.375-.29.623-.23.623H43.04a1.078 1.078 0 01-1.078-1.078v-7.934a1.078 1.078 0 011.078-1.078z" fill="url(#paint18_radial_2905_28336)"/><path d="M53.154 56.29h-7.21a1.077 1.077 0 00-1.077 1.077v7.935a1.079 1.079 0 001.078 1.077h7.209a1.078 1.078 0 001.078-1.078v-7.934a1.077 1.077 0 00-1.078-1.078z" fill="url(#paint19_radial_2905_28336)"/><path d="M57.374 56.29h2.907c-.383 0-.52 4.172-.41 7.15l1.47-.366c.047.788-.499 1.966-.83 2.682-.174.375-.29.623-.23.623h-2.907a1.078 1.078 0 01-1.077-1.078v-7.934a1.078 1.078 0 011.078-1.078z" fill="url(#paint20_radial_2905_28336)"/><path d="M67.861 55.969h-7.21a1.077 1.077 0 00-1.077 1.077v7.935a1.078 1.078 0 001.078 1.078h7.21a1.078 1.078 0 001.077-1.078v-7.935a1.078 1.078 0 00-1.078-1.077z" fill="url(#paint21_radial_2905_28336)"/><path d="M75.676 77.008l-5.043 1.259v.968a1.078 1.078 0 001.077 1.078h2.907c-.172 0 1.132-2.104 1.06-3.305z" fill="url(#paint22_radial_2905_28336)"/><path d="M74.617 56.29H71.71a1.078 1.078 0 00-1.077 1.077v20.901h3.617c-.178-2.949-.056-21.979.367-21.979z" fill="url(#paint23_radial_2905_28336)"/><path d="M81.826 56.29h-7.21a1.078 1.078 0 00-1.077 1.077v21.87a1.078 1.078 0 001.078 1.078h7.209a1.078 1.078 0 001.078-1.078v-21.87a1.078 1.078 0 00-1.078-1.078z" fill="url(#paint24_radial_2905_28336)"/><path d="M28.703 70.223h2.906c-.383 0-.52 4.172-.41 7.151l1.47-.367c.047.789-.499 1.967-.83 2.683-.174.374-.289.623-.23.623h-2.906a1.078 1.078 0 01-1.078-1.078V71.3a1.078 1.078 0 011.078-1.077z" fill="url(#paint25_radial_2905_28336)"/><path d="M38.818 70.223h-7.21a1.078 1.078 0 00-1.077 1.077v7.935a1.078 1.078 0 001.078 1.078h7.21a1.078 1.078 0 001.077-1.078V71.3a1.078 1.078 0 00-1.078-1.077z" fill="url(#paint26_radial_2905_28336)"/><path d="M43.039 70.223h2.906c-.383 0-.52 4.172-.41 7.151l1.47-.367c.047.789-.499 1.967-.83 2.683-.174.374-.29.623-.23.623H43.04a1.078 1.078 0 01-1.078-1.078V71.3a1.078 1.078 0 011.078-1.077z" fill="url(#paint27_radial_2905_28336)"/><path d="M53.154 70.223h-7.21a1.077 1.077 0 00-1.077 1.077v7.935a1.079 1.079 0 001.078 1.078h7.209a1.078 1.078 0 001.078-1.078V71.3a1.077 1.077 0 00-1.078-1.077z" fill="url(#paint28_radial_2905_28336)"/><path d="M57.374 70.223h2.907c-.383 0-.52 4.172-.41 7.151l1.47-.367c.047.789-.499 1.967-.83 2.683-.174.374-.29.623-.23.623h-2.907a1.078 1.078 0 01-1.077-1.078V71.3a1.078 1.078 0 011.078-1.077z" fill="url(#paint29_radial_2905_28336)"/><path d="M67.49 70.223h-7.21a1.078 1.078 0 00-1.077 1.077v7.935a1.078 1.078 0 001.078 1.078h7.209a1.078 1.078 0 001.078-1.078V71.3a1.078 1.078 0 00-1.078-1.077z" fill="url(#paint30_radial_2905_28336)"/><defs><radialGradient id="paint0_radial_2905_28336" cx="0" cy="0" r="1" gradientUnits="userSpaceOnUse" gradientTransform="matrix(40.3862 0 0 73.8695 4.53 22.88)"><stop stop-color="#E4FBEF"/><stop offset=".514" stop-color="#C6EAD0"/><stop offset=".976" stop-color="#BEE4C8"/></radialGradient><radialGradient id="paint1_radial_2905_28336" cx="0" cy="0" r="1" gradientUnits="userSpaceOnUse" gradientTransform="matrix(64.0638 0 0 98.4046 78.576 73.77)"><stop stop-color="#93D3A2"/><stop offset=".189" stop-color="#8DD09C"/><stop offset=".442" stop-color="#7CC88B"/><stop offset=".597" stop-color="#6EC17D"/><stop offset="1" stop-color="#528E61"/></radialGradient><radialGradient id="paint2_radial_2905_28336" cx="0" cy="0" r="1" gradientUnits="userSpaceOnUse" gradientTransform="translate(13.75 16.034) scale(88.5623)"><stop stop-color="#E6F6FF"/><stop offset=".426" stop-color="#C0DAE9"/><stop offset=".488" stop-color="#BAD6E5"/><stop offset="1" stop-color="#8ABBD5"/></radialGradient><radialGradient id="paint3_radial_2905_28336" cx="0" cy="0" r="1" gradientUnits="userSpaceOnUse" gradientTransform="matrix(7.54622 0 0 19.8152 79.302 19.01)"><stop stop-color="#E4FBEF"/><stop offset=".514" stop-color="#C6EAD0"/><stop offset=".976" stop-color="#BEE4C8"/></radialGradient><radialGradient id="paint4_radial_2905_28336" cx="0" cy="0" r="1" gradientUnits="userSpaceOnUse" gradientTransform="matrix(7.45947 0 0 5.30368 27.909 49.432)"><stop stop-color="#FBF4AF"/><stop offset=".381" stop-color="#FAF184"/><stop offset=".65" stop-color="#F9EF63"/><stop offset=".811" stop-color="#F8EC52"/><stop offset="1" stop-color="#F6E738"/></radialGradient><radialGradient id="paint5_radial_2905_28336" cx="0" cy="0" r="1" gradientUnits="userSpaceOnUse" gradientTransform="translate(28.647 42.462) scale(10.9346)"><stop stop-color="#FFFBE4"/><stop offset=".554" stop-color="#FFF9C1"/><stop offset="1" stop-color="#FBF4AF"/></radialGradient><radialGradient id="paint6_radial_2905_28336" cx="0" cy="0" r="1" gradientUnits="userSpaceOnUse" gradientTransform="matrix(10.4516 0 0 7.6088 38.824 50.036)"><stop stop-color="#F9EF63"/><stop offset=".16" stop-color="#F7EC5D"/><stop offset=".375" stop-color="#F3E44C"/><stop offset=".597" stop-color="#ECD833"/><stop offset="1" stop-color="#E49824"/></radialGradient><radialGradient id="paint7_radial_2905_28336" cx="0" cy="0" r="1" gradientUnits="userSpaceOnUse" gradientTransform="matrix(7.45947 0 0 5.30368 42.244 49.432)"><stop stop-color="#FBF4AF"/><stop offset=".381" stop-color="#FAF184"/><stop offset=".65" stop-color="#F9EF63"/><stop offset=".811" stop-color="#F8EC52"/><stop offset="1" stop-color="#F6E738"/></radialGradient><radialGradient id="paint8_radial_2905_28336" cx="0" cy="0" r="1" gradientUnits="userSpaceOnUse" gradientTransform="translate(42.983 42.462) scale(10.9346)"><stop stop-color="#FFFBE4"/><stop offset=".554" stop-color="#FFF9C1"/><stop offset="1" stop-color="#FBF4AF"/></radialGradient><radialGradient id="paint9_radial_2905_28336" cx="0" cy="0" r="1" gradientUnits="userSpaceOnUse" gradientTransform="matrix(10.4516 0 0 7.6088 53.16 50.036)"><stop stop-color="#F9EF63"/><stop offset=".16" stop-color="#F7EC5D"/><stop offset=".375" stop-color="#F3E44C"/><stop offset=".597" stop-color="#ECD833"/><stop offset="1" stop-color="#E49824"/></radialGradient><radialGradient id="paint10_radial_2905_28336" cx="0" cy="0" r="1" gradientUnits="userSpaceOnUse" gradientTransform="matrix(7.45948 0 0 5.30368 56.58 49.432)"><stop stop-color="#FBF4AF"/><stop offset=".381" stop-color="#FAF184"/><stop offset=".65" stop-color="#F9EF63"/><stop offset=".811" stop-color="#F8EC52"/><stop offset="1" stop-color="#F6E738"/></radialGradient><radialGradient id="paint11_radial_2905_28336" cx="0" cy="0" r="1" gradientUnits="userSpaceOnUse" gradientTransform="translate(57.319 42.462) scale(10.9346)"><stop stop-color="#FFFBE4"/><stop offset=".554" stop-color="#FFF9C1"/><stop offset="1" stop-color="#FBF4AF"/></radialGradient><radialGradient id="paint12_radial_2905_28336" cx="0" cy="0" r="1" gradientUnits="userSpaceOnUse" gradientTransform="matrix(10.4516 0 0 7.6088 67.496 50.036)"><stop stop-color="#F9EF63"/><stop offset=".16" stop-color="#F7EC5D"/><stop offset=".375" stop-color="#F3E44C"/><stop offset=".597" stop-color="#ECD833"/><stop offset="1" stop-color="#E49824"/></radialGradient><radialGradient id="paint13_radial_2905_28336" cx="0" cy="0" r="1" gradientUnits="userSpaceOnUse" gradientTransform="matrix(7.45947 0 0 5.30368 70.916 49.432)"><stop stop-color="#FBF4AF"/><stop offset=".381" stop-color="#FAF184"/><stop offset=".65" stop-color="#F9EF63"/><stop offset=".811" stop-color="#F8EC52"/><stop offset="1" stop-color="#F6E738"/></radialGradient><radialGradient id="paint14_radial_2905_28336" cx="0" cy="0" r="1" gradientUnits="userSpaceOnUse" gradientTransform="translate(71.655 42.462) scale(10.9346)"><stop stop-color="#FFFBE4"/><stop offset=".554" stop-color="#FFF9C1"/><stop offset="1" stop-color="#FBF4AF"/></radialGradient><radialGradient id="paint15_radial_2905_28336" cx="0" cy="0" r="1" gradientUnits="userSpaceOnUse" gradientTransform="matrix(10.4516 0 0 7.6088 81.832 50.036)"><stop stop-color="#F9EF63"/><stop offset=".16" stop-color="#F7EC5D"/><stop offset=".375" stop-color="#F3E44C"/><stop offset=".597" stop-color="#ECD833"/><stop offset="1" stop-color="#E49824"/></radialGradient><radialGradient id="paint16_radial_2905_28336" cx="0" cy="0" r="1" gradientUnits="userSpaceOnUse" gradientTransform="matrix(13.1014 0 0 9.17655 26.42 58.262)"><stop stop-color="#E4FBEF"/><stop offset=".514" stop-color="#C6EAD0"/><stop offset=".976" stop-color="#BEE4C8"/></radialGradient><radialGradient id="paint17_radial_2905_28336" cx="0" cy="0" r="1" gradientUnits="userSpaceOnUse" gradientTransform="matrix(8.83854 0 0 12.2245 38.63 64.584)"><stop stop-color="#93D3A2"/><stop offset=".189" stop-color="#8DD09C"/><stop offset=".442" stop-color="#7CC88B"/><stop offset=".597" stop-color="#6EC17D"/><stop offset="1" stop-color="#528E61"/></radialGradient><radialGradient id="paint18_radial_2905_28336" cx="0" cy="0" r="1" gradientUnits="userSpaceOnUse" gradientTransform="matrix(13.1014 0 0 9.17655 40.755 58.262)"><stop stop-color="#E4FBEF"/><stop offset=".514" stop-color="#C6EAD0"/><stop offset=".976" stop-color="#BEE4C8"/></radialGradient><radialGradient id="paint19_radial_2905_28336" cx="0" cy="0" r="1" gradientUnits="userSpaceOnUse" gradientTransform="matrix(8.83855 0 0 12.2245 52.966 64.584)"><stop stop-color="#93D3A2"/><stop offset=".189" stop-color="#8DD09C"/><stop offset=".442" stop-color="#7CC88B"/><stop offset=".597" stop-color="#6EC17D"/><stop offset="1" stop-color="#528E61"/></radialGradient><radialGradient id="paint20_radial_2905_28336" cx="0" cy="0" r="1" gradientUnits="userSpaceOnUse" gradientTransform="matrix(13.1015 0 0 9.17655 55.091 58.262)"><stop stop-color="#E4FBEF"/><stop offset=".514" stop-color="#C6EAD0"/><stop offset=".976" stop-color="#BEE4C8"/></radialGradient><radialGradient id="paint21_radial_2905_28336" cx="0" cy="0" r="1" gradientUnits="userSpaceOnUse" gradientTransform="matrix(8.83854 0 0 12.2245 67.674 64.263)"><stop stop-color="#93D3A2"/><stop offset=".189" stop-color="#8DD09C"/><stop offset=".442" stop-color="#7CC88B"/><stop offset=".597" stop-color="#6EC17D"/><stop offset="1" stop-color="#528E61"/></radialGradient><radialGradient id="paint22_radial_2905_28336" cx="0" cy="0" r="1" gradientUnits="userSpaceOnUse" gradientTransform="matrix(7.45947 0 0 2.93903 70.875 78.247)"><stop stop-color="#E4989D"/><stop offset=".193" stop-color="#E38D93"/><stop offset=".531" stop-color="#DF6F79"/><stop offset=".653" stop-color="#DD636E"/><stop offset="1" stop-color="#DA4A54"/></radialGradient><radialGradient id="paint23_radial_2905_28336" cx="0" cy="0" r="1" gradientUnits="userSpaceOnUse" gradientTransform="translate(72.553 64.02) scale(15.052)"><stop stop-color="#FBE2DD"/><stop offset=".514" stop-color="#EAB1B7"/><stop offset="1" stop-color="#E4989D"/></radialGradient><radialGradient id="paint24_radial_2905_28336" cx="0" cy="0" r="1" gradientUnits="userSpaceOnUse" gradientTransform="matrix(0 25.4701 -18.313 0 82.875 70.16)"><stop stop-color="#DD636E"/><stop offset=".501" stop-color="#D82E3D"/><stop offset="1" stop-color="#8E2E2E"/></radialGradient><radialGradient id="paint25_radial_2905_28336" cx="0" cy="0" r="1" gradientUnits="userSpaceOnUse" gradientTransform="matrix(13.1014 0 0 9.17655 26.42 72.195)"><stop stop-color="#E4FBEF"/><stop offset=".514" stop-color="#C6EAD0"/><stop offset=".976" stop-color="#BEE4C8"/></radialGradient><radialGradient id="paint26_radial_2905_28336" cx="0" cy="0" r="1" gradientUnits="userSpaceOnUse" gradientTransform="matrix(8.83854 0 0 12.2245 38.63 78.517)"><stop stop-color="#93D3A2"/><stop offset=".189" stop-color="#8DD09C"/><stop offset=".442" stop-color="#7CC88B"/><stop offset=".597" stop-color="#6EC17D"/><stop offset="1" stop-color="#528E61"/></radialGradient><radialGradient id="paint27_radial_2905_28336" cx="0" cy="0" r="1" gradientUnits="userSpaceOnUse" gradientTransform="matrix(13.1014 0 0 9.17655 40.755 72.195)"><stop stop-color="#E4FBEF"/><stop offset=".514" stop-color="#C6EAD0"/><stop offset=".976" stop-color="#BEE4C8"/></radialGradient><radialGradient id="paint28_radial_2905_28336" cx="0" cy="0" r="1" gradientUnits="userSpaceOnUse" gradientTransform="matrix(8.83855 0 0 12.2245 52.966 78.517)"><stop stop-color="#93D3A2"/><stop offset=".189" stop-color="#8DD09C"/><stop offset=".442" stop-color="#7CC88B"/><stop offset=".597" stop-color="#6EC17D"/><stop offset="1" stop-color="#528E61"/></radialGradient><radialGradient id="paint29_radial_2905_28336" cx="0" cy="0" r="1" gradientUnits="userSpaceOnUse" gradientTransform="matrix(13.1015 0 0 9.17655 55.091 72.195)"><stop stop-color="#E4FBEF"/><stop offset=".514" stop-color="#C6EAD0"/><stop offset=".976" stop-color="#BEE4C8"/></radialGradient><radialGradient id="paint30_radial_2905_28336" cx="0" cy="0" r="1" gradientUnits="userSpaceOnUse" gradientTransform="matrix(8.83854 0 0 12.2245 67.302 78.517)"><stop stop-color="#93D3A2"/><stop offset=".189" stop-color="#8DD09C"/><stop offset=".442" stop-color="#7CC88B"/><stop offset=".597" stop-color="#6EC17D"/><stop offset="1" stop-color="#528E61"/></radialGradient></defs></svg>