<svg width="48" height="48" fill="none" xmlns="http://www.w3.org/2000/svg"><g clip-path="url(#clip0_2115_33043)"><path fill-rule="evenodd" clip-rule="evenodd" d="M10 4.002h28a6 6 0 016 6v20a6 6 0 01-6 6H16l-12 12v-38a6 6 0 016-6zm12.861 22.934a1.724 1.724 0 101.916-2.868 1.724 1.724 0 00-1.916 2.868zm2.4-4.444c0-1.184.44-1.49 1.318-2.099a4.545 4.545 0 002.381-4.027 4.596 4.596 0 00-4.752-4.407 4.924 4.924 0 00-4.933 5.456h2.851c0-1.68.74-2.605 2.082-2.605a1.758 1.758 0 011.902 1.557c0 .84-.278 1.075-1.158 1.687a4.918 4.918 0 00-2.54 4.439h2.85z" fill="#E63946"/></g><defs><clipPath id="clip0_2115_33043"><path fill="#fff" d="M0 0h48v48H0z"/></clipPath></defs></svg>