<svg width="232" height="232" fill="none" xmlns="http://www.w3.org/2000/svg"><path d="M99.176 156.5h3.359a22.69 22.69 0 00-3.36 0z" fill="url(#paint0_radial_2054_35592)"/><path d="M84.082 208.9l.001-5.802-18.45 5.802v.272c0 6.26 5.074 11.334 11.333 11.334h12.648c-6.26 0-5.532-5.346-5.532-11.606z" fill="url(#paint1_radial_2054_35592)"/><path d="M78.28 179.108c0-12.004 9.297-21.746 20.894-22.608h-9.288c-13.108-.967-24.253 9.465-24.253 22.608V208.9H78.28v-29.792z" fill="url(#paint2_radial_2054_35592)"/><path d="M75.28 191.493a2.995 2.995 0 002.121-.879 2.992 2.992 0 00.878-2.121v-12.378h-5.998v12.378a2.999 2.999 0 003 3z" fill="url(#paint3_radial_2054_35592)"/><path d="M75.28 191.493a2.995 2.995 0 002.121-.879 2.992 2.992 0 00.878-2.121v-12.378h-5.998v12.378a2.999 2.999 0 003 3z" fill="#000" fill-opacity=".2"/><path d="M107.295 185.689c-49.674 0-89.943-40.269-89.943-89.943S57.62 5.803 107.295 5.803h11.606c-49.675 0-87.042 43.17-87.042 92.844 0 40.62 37.367 87.042 87.042 87.042h-11.606z" fill="url(#paint4_radial_2054_35592)"/><path d="M118.901 5.803c-49.675 0-89.944 40.269-89.944 89.943s40.27 89.943 89.944 89.943 89.943-40.269 89.943-89.943-40.269-89.943-89.943-89.943zm0 156.675c-38.458 0-69.634-31.176-69.634-69.633 0-38.458 31.176-69.634 69.634-69.634 38.457 0 69.633 31.176 69.633 69.634 0 38.457-31.176 69.633-69.633 69.633z" fill="url(#paint5_radial_2054_35592)"/><path d="M106.92.004c-7.858.2-14.17 6.658-14.13 14.575.039 8.047 6.781 14.395 14.828 14.435 35.104.174 63.509 28.686 63.509 63.83 0 21.588-10.717 40.674-27.124 52.225-10.382 7.313-23.043 11.606-36.707 11.606l11.605 11.605c13.664 0 30.238-10.095 40.62-17.408 16.406-11.551 34.817-36.44 34.817-58.028 0-35.144-34.531-69.46-69.634-69.633-8.048-.04-11.566-3.559-11.606-11.606-.038-7.917-2.43-11.401 5.428-11.601H106.92z" fill="url(#paint6_radial_2054_35592)"/><path d="M113.562 156.501h.575a3.941 3.941 0 00-.575 0z" fill="url(#paint7_radial_2054_35592)"/><path d="M101.492 203.098l-23.21 5.802v.272c0 6.26 5.074 11.334 11.333 11.334h11.605c-1.687 0 .271-10.527.272-17.408z" fill="url(#paint8_radial_2054_35592)"/><path d="M113.565 156.5h-11.031c-13.108-.967-24.253 9.465-24.253 22.608V208.9h20.462c.004-18.263 5.591-51.721 14.822-52.4z" fill="url(#paint9_radial_2054_35592)"/><path d="M214.647 95.746c0 35.99-19.86 67.345-49.217 83.7-3.697 2.06-6.267 5.676-6.911 9.859l-3.323 21.592a11.334 11.334 0 01-11.202 9.609H101.22c-6.26 0-11.334-5.074-11.334-11.333v-30.064c0-13.143 11.145-23.575 24.253-22.608 1.572.116 3.16.175 4.761.175 13.664 0 26.326-4.294 36.708-11.606 16.406-11.551 27.123-30.637 27.123-52.225 0-35.145-28.404-63.656-63.508-63.83-8.047-.04-14.79-6.388-14.829-14.436-.039-7.916 6.273-14.375 14.131-14.574.127-.005.249-.005.376-.005s.249 0 .376.005c52.706.199 95.37 42.99 95.37 95.741z" fill="url(#paint10_radial_2054_35592)"/><path d="M118.9 23.211a8.704 8.704 0 000-17.408 8.704 8.704 0 100 17.408z" fill="url(#paint11_radial_2054_35592)"/><path d="M118.9 23.211a8.704 8.704 0 000-17.408 8.704 8.704 0 100 17.408z" fill="#000" fill-opacity=".2"/><path d="M130.506 182.788a8.705 8.705 0 00-9.697-8.649c-4.069.45-7.323 3.793-7.677 7.871a8.691 8.691 0 003.154 7.512c1.619 1.327 2.615 3.264 2.615 5.358v5.316a2.902 2.902 0 005.803 0v-5.319c0-2.062.94-4.009 2.548-5.301a8.691 8.691 0 003.254-6.788z" fill="url(#paint12_radial_2054_35592)"/><path d="M130.506 182.788a8.705 8.705 0 00-9.697-8.649c-4.069.45-7.323 3.793-7.677 7.871a8.691 8.691 0 003.154 7.512c1.619 1.327 2.615 3.264 2.615 5.358v5.316a2.902 2.902 0 005.803 0v-5.319c0-2.062.94-4.009 2.548-5.301a8.691 8.691 0 003.254-6.788z" fill="#000" fill-opacity=".2"/><path fill-rule="evenodd" clip-rule="evenodd" d="M84 93.666v12.778h7.738v6.889H84V125h7.738v10h15.03v-10h18.653v-11.667h-18.653v-6.889h8.043c.296 0 1.087-.018 2.377-.055a37.785 37.785 0 004.254-.389c6.964-1 12.121-3.667 15.474-8 3.388-4.334 5.084-9.889 5.084-16.667 0-4.37-.72-8.389-2.156-12.055-1.436-3.667-3.684-6.704-6.741-9.111-3.022-2.445-6.908-4.019-11.661-4.723a37.83 37.83 0 00-4.254-.389 130.72 130.72 0 00-2.377-.055H91.738v38.666H84zm22.768 0h7.379c.554 0 1.253-.018 2.1-.055.885-.074 1.88-.278 2.985-.611 2.764-.852 4.716-2.26 5.858-4.222 1.178-1.963 1.767-4.297 1.767-7 0-1.556-.22-3.167-.662-4.834a10.625 10.625 0 00-2.266-4.444c-1.105-1.333-2.67-2.278-4.697-2.833a11.996 11.996 0 00-2.985-.5 65.226 65.226 0 00-2.1-.056h-7.379v24.555z" fill="url(#paint13_radial_2054_35592)"/><path fill-rule="evenodd" clip-rule="evenodd" d="M91 93.666v12.778h7.738v6.889H91V125h7.738v10h15.03v-10h18.653v-11.667h-18.653v-6.889h8.043c.296 0 1.087-.018 2.377-.055a37.785 37.785 0 004.254-.389c6.964-1 12.121-3.667 15.474-8 3.388-4.334 5.084-9.889 5.084-16.667 0-4.37-.72-8.389-2.156-12.055-1.436-3.667-3.684-6.704-6.741-9.111-3.022-2.445-6.908-4.019-11.661-4.723a37.83 37.83 0 00-4.254-.389 130.72 130.72 0 00-2.377-.055H98.738v38.666H91zm22.768 0h7.379c.554 0 1.253-.018 2.1-.055.885-.074 1.88-.278 2.985-.611 2.764-.852 4.716-2.26 5.858-4.222 1.178-1.963 1.767-4.297 1.767-7 0-1.556-.22-3.167-.662-4.834a10.625 10.625 0 00-2.266-4.444c-1.105-1.333-2.67-2.278-4.697-2.833a11.996 11.996 0 00-2.985-.5 65.226 65.226 0 00-2.1-.056h-7.379v24.555z" fill="url(#paint14_radial_2054_35592)"/><defs><radialGradient id="paint0_radial_2054_35592" cx="0" cy="0" r="1" gradientUnits="userSpaceOnUse" gradientTransform="translate(81.435 162.942) scale(43.9947)"><stop stop-color="#E6F6FF"/><stop offset=".376" stop-color="#C0DAE9"/><stop offset=".43" stop-color="#BAD6E5"/><stop offset="1" stop-color="#8ABBD5"/></radialGradient><radialGradient id="paint1_radial_2054_35592" cx="0" cy="0" r="1" gradientUnits="userSpaceOnUse" gradientTransform="matrix(62.2619 0 0 15.8324 59.903 206.501)"><stop stop-color="#E4FBEF"/><stop offset=".514" stop-color="#C6EAD0"/><stop offset=".976" stop-color="#BEE4C8"/></radialGradient><radialGradient id="paint2_radial_2054_35592" cx="0" cy="0" r="1" gradientUnits="userSpaceOnUse" gradientTransform="matrix(87.0839 0 0 47.713 57.619 166.695)"><stop stop-color="#E4FBEF"/><stop offset=".514" stop-color="#C6EAD0"/><stop offset=".976" stop-color="#BEE4C8"/></radialGradient><radialGradient id="paint3_radial_2054_35592" cx="0" cy="0" r="1" gradientUnits="userSpaceOnUse" gradientTransform="matrix(5.66131 0 0 18.6304 77.469 188.756)"><stop stop-color="#93D3A2"/><stop offset=".189" stop-color="#8DD09C"/><stop offset=".442" stop-color="#7CC88B"/><stop offset=".597" stop-color="#6EC17D"/><stop offset="1" stop-color="#528E61"/></radialGradient><radialGradient id="paint4_radial_2054_35592" cx="0" cy="0" r="1" gradientUnits="userSpaceOnUse" gradientTransform="matrix(263.652 0 0 163.602 -6.912 40.973)"><stop stop-color="#E4FBEF"/><stop offset=".514" stop-color="#C6EAD0"/><stop offset=".976" stop-color="#BEE4C8"/></radialGradient><radialGradient id="paint5_radial_2054_35592" cx="0" cy="0" r="1" gradientUnits="userSpaceOnUse" gradientTransform="matrix(169.784 0 0 217.941 184.54 153.681)"><stop stop-color="#93D3A2"/><stop offset=".189" stop-color="#8DD09C"/><stop offset=".442" stop-color="#7CC88B"/><stop offset=".597" stop-color="#6EC17D"/><stop offset="1" stop-color="#528E61"/></radialGradient><radialGradient id="paint6_radial_2054_35592" cx="0" cy="0" r="1" gradientUnits="userSpaceOnUse" gradientTransform="matrix(263.651 0 0 153.042 68.526 32.904)"><stop stop-color="#E4FBEF"/><stop offset=".514" stop-color="#C6EAD0"/><stop offset=".976" stop-color="#BEE4C8"/></radialGradient><radialGradient id="paint7_radial_2054_35592" cx="0" cy="0" r="1" gradientUnits="userSpaceOnUse" gradientTransform="matrix(43.9737 0 0 43.9735 81.448 162.94)"><stop stop-color="#E6F6FF"/><stop offset=".376" stop-color="#C0DAE9"/><stop offset=".43" stop-color="#BAD6E5"/><stop offset="1" stop-color="#8ABBD5"/></radialGradient><radialGradient id="paint8_radial_2054_35592" cx="0" cy="0" r="1" gradientUnits="userSpaceOnUse" gradientTransform="matrix(60.2633 0 0 15.8324 72.735 206.501)"><stop stop-color="#E4FBEF"/><stop offset=".514" stop-color="#C6EAD0"/><stop offset=".976" stop-color="#BEE4C8"/></radialGradient><radialGradient id="paint9_radial_2054_35592" cx="0" cy="0" r="1" gradientUnits="userSpaceOnUse" gradientTransform="matrix(91.606 0 0 47.713 69.851 166.695)"><stop stop-color="#E4FBEF"/><stop offset=".514" stop-color="#C6EAD0"/><stop offset=".976" stop-color="#BEE4C8"/></radialGradient><radialGradient id="paint10_radial_2054_35592" cx="0" cy="0" r="1" gradientUnits="userSpaceOnUse" gradientTransform="matrix(117.753 0 0 267.154 197.79 181.27)"><stop stop-color="#93D3A2"/><stop offset=".189" stop-color="#8DD09C"/><stop offset=".442" stop-color="#7CC88B"/><stop offset=".597" stop-color="#6EC17D"/><stop offset="1" stop-color="#528E61"/></radialGradient><radialGradient id="paint11_radial_2054_35592" cx="0" cy="0" r="1" gradientUnits="userSpaceOnUse" gradientTransform="matrix(16.4307 0 0 21.0911 125.252 20.113)"><stop stop-color="#93D3A2"/><stop offset=".189" stop-color="#8DD09C"/><stop offset=".442" stop-color="#7CC88B"/><stop offset=".597" stop-color="#6EC17D"/><stop offset="1" stop-color="#528E61"/></radialGradient><radialGradient id="paint12_radial_2054_35592" cx="0" cy="0" r="1" gradientUnits="userSpaceOnUse" gradientTransform="matrix(16.4306 0 0 35.1516 128.154 197.935)"><stop stop-color="#93D3A2"/><stop offset=".189" stop-color="#8DD09C"/><stop offset=".442" stop-color="#7CC88B"/><stop offset=".597" stop-color="#6EC17D"/><stop offset="1" stop-color="#528E61"/></radialGradient><radialGradient id="paint13_radial_2054_35592" cx="0" cy="0" r="1" gradientUnits="userSpaceOnUse" gradientTransform="matrix(114.825 0 0 63.3519 95.512 67.804)"><stop stop-color="#FFF9E2"/><stop offset=".535" stop-color="#FFE4CB"/><stop offset=".623" stop-color="#FFDFC1"/><stop offset=".973" stop-color="#FFCB9B"/></radialGradient><radialGradient id="paint14_radial_2054_35592" cx="0" cy="0" r="1" gradientUnits="userSpaceOnUse" gradientTransform="matrix(46.5699 0 0 104.746 128.938 53.912)"><stop stop-color="#FFAB56"/><stop offset=".512" stop-color="#FF982A"/><stop offset=".598" stop-color="#FF8F2A"/><stop offset=".976" stop-color="#FF6927"/></radialGradient></defs></svg>