<svg width="192" height="192" fill="none" xmlns="http://www.w3.org/2000/svg"><path d="M88.18 34.28h5.982l11.742-16.864-8.948 1.663-8.776 15.2z" fill="url(#paint0_radial_2469_47726)"/><path d="M88.18 3.879l8.776 15.2h7.79L94.162 3.88H88.18z" fill="url(#paint1_radial_2469_47726)"/><path d="M115.668 61.762a2.803 2.803 0 00-2.801 2.8v2.956l23.938 2.607s-1.132-8.363.414-8.363h-21.551z" fill="url(#paint2_radial_2469_47726)"/><path d="M163.778 69.071l-29.364-1.553v-2.956a2.801 2.801 0 012.801-2.8h23.762a2.803 2.803 0 012.801 2.8v4.51z" fill="url(#paint3_radial_2469_47726)"/><path d="M22.68 183.36v-38.614h30.8l10.224 21.568L53.48 183.36h-30.8z" fill="url(#paint4_radial_2469_47726)"/><path d="M61.297 144.747v-38.614h30.801l6.334 45.579-37.135-6.965z" fill="url(#paint5_radial_2469_47726)"/><path d="M99.906 106.132V67.518h30.802l6.333 44.947-37.135-6.333z" fill="url(#paint6_radial_2469_47726)"/><path d="M130.713 67.518v38.614H92.099v38.614H53.483v38.614h115.843V67.518h-38.614z" fill="url(#paint7_radial_2469_47726)"/><path d="M132.781 61.762V0h5.647l1.918 28.152-1.918 33.61h-5.647z" fill="url(#paint8_radial_2469_47726)"/><path d="M138.422 0h5.281v61.762h-5.281V0z" fill="url(#paint9_radial_2469_47726)"/><path d="M94.156 3.879h41.838v30.4H94.156l8.776-15.2-8.776-15.2z" fill="url(#paint10_radial_2469_47726)"/><path d="M189.617 133a20.77 20.77 0 11-41.539-.004 20.77 20.77 0 0141.539.004z" fill="url(#paint11_radial_2469_47726)"/><path style="mix-blend-mode:lighten" opacity=".5" d="M167.753 133a9.838 9.838 0 11-19.676-.001 9.838 9.838 0 0119.676.001z" fill="url(#paint12_radial_2469_47726)"/><path style="mix-blend-mode:lighten" opacity=".5" d="M186.576 125.896a8.317 8.317 0 01-5.137 7.684 8.317 8.317 0 01-10.868-10.871 8.32 8.32 0 0116.005 3.187z" fill="url(#paint13_radial_2469_47726)"/><defs><radialGradient id="paint0_radial_2469_47726" cx="0" cy="0" r="1" gradientUnits="userSpaceOnUse" gradientTransform="matrix(8.26636 0 0 12.3805 95.154 35.587)"><stop stop-color="#BEE4C8"/><stop offset=".665" stop-color="#93D3A2"/><stop offset=".96" stop-color="#83CC91"/><stop offset="1" stop-color="#80CB8E"/></radialGradient><radialGradient id="paint1_radial_2469_47726" cx="0" cy="0" r="1" gradientUnits="userSpaceOnUse" gradientTransform="matrix(7.72628 0 0 11.1597 94.698 20.258)"><stop stop-color="#BEE4C8"/><stop offset=".665" stop-color="#93D3A2"/><stop offset=".96" stop-color="#83CC91"/><stop offset="1" stop-color="#80CB8E"/></radialGradient><radialGradient id="paint2_radial_2469_47726" cx="0" cy="0" r="1" gradientUnits="userSpaceOnUse" gradientTransform="matrix(23.0507 0 0 14.5367 122.322 59.841)"><stop stop-color="#FFFBE4"/><stop offset=".554" stop-color="#FFF9C1"/><stop offset="1" stop-color="#FBF4AF"/></radialGradient><radialGradient id="paint3_radial_2469_47726" cx="0" cy="0" r="1" gradientUnits="userSpaceOnUse" gradientTransform="matrix(31.186 0 0 19.6672 158.054 69.038)"><stop stop-color="#F9EF63"/><stop offset=".16" stop-color="#F7EC5D"/><stop offset=".375" stop-color="#F3E44C"/><stop offset=".597" stop-color="#ECD833"/><stop offset="1" stop-color="#E49824"/></radialGradient><radialGradient id="paint4_radial_2469_47726" cx="0" cy="0" r="1" gradientUnits="userSpaceOnUse" gradientTransform="matrix(53.2102 0 0 53.2103 19.176 145.101)"><stop stop-color="#fff"/><stop offset=".065" stop-color="#FDFDFE"/><stop offset=".514" stop-color="#F1F4F6"/><stop offset=".978" stop-color="#DFEAEF"/></radialGradient><radialGradient id="paint5_radial_2469_47726" cx="0" cy="0" r="1" gradientUnits="userSpaceOnUse" gradientTransform="translate(61.62 101.618) scale(51.5066)"><stop stop-color="#fff"/><stop offset=".065" stop-color="#FDFDFE"/><stop offset=".514" stop-color="#F1F4F6"/><stop offset=".978" stop-color="#DFEAEF"/></radialGradient><radialGradient id="paint6_radial_2469_47726" cx="0" cy="0" r="1" gradientUnits="userSpaceOnUse" gradientTransform="translate(100.926 60.22) scale(52.2844)"><stop stop-color="#fff"/><stop offset=".065" stop-color="#FDFDFE"/><stop offset=".514" stop-color="#F1F4F6"/><stop offset=".978" stop-color="#DFEAEF"/></radialGradient><radialGradient id="paint7_radial_2469_47726" cx="0" cy="0" r="1" gradientUnits="userSpaceOnUse" gradientTransform="translate(142.889 146.659) scale(144.01)"><stop offset=".1" stop-color="#D0E2E7"/><stop offset=".539" stop-color="#9BB9C1"/><stop offset="1" stop-color="#738B95"/></radialGradient><radialGradient id="paint8_radial_2469_47726" cx="0" cy="0" r="1" gradientUnits="userSpaceOnUse" gradientTransform="matrix(12.1404 0 0 43.402 132.213 27.9)"><stop stop-color="#F1F4F6"/><stop offset=".514" stop-color="#D0E2E7"/><stop offset="1" stop-color="#B4D0D5"/></radialGradient><radialGradient id="paint9_radial_2469_47726" cx="0" cy="0" r="1" gradientUnits="userSpaceOnUse" gradientTransform="matrix(14.7068 0 0 49.583 144.424 40.931)"><stop offset=".099" stop-color="#86A0AF"/><stop offset=".539" stop-color="#617881"/><stop offset="1" stop-color="#404A4A"/></radialGradient><radialGradient id="paint10_radial_2469_47726" cx="0" cy="0" r="1" gradientUnits="userSpaceOnUse" gradientTransform="matrix(39.4882 0 0 36.8321 130.342 28.87)"><stop stop-color="#93D3A2"/><stop offset=".189" stop-color="#8DD09C"/><stop offset=".442" stop-color="#7CC88B"/><stop offset=".597" stop-color="#6EC17D"/><stop offset="1" stop-color="#528E61"/></radialGradient><radialGradient id="paint11_radial_2469_47726" cx="0" cy="0" r="1" gradientUnits="userSpaceOnUse" gradientTransform="translate(168.847 125.469) scale(30.3416)"><stop stop-color="#fff"/><stop offset=".27" stop-color="#FCFCFC"/><stop offset=".48" stop-color="#F2F2F2"/><stop offset=".68" stop-color="#E0E0E0"/><stop offset=".87" stop-color="#C9C9C9"/><stop offset="1" stop-color="#B4B4B4"/></radialGradient><radialGradient id="paint12_radial_2469_47726" cx="0" cy="0" r="1" gradientUnits="userSpaceOnUse" gradientTransform="translate(157.916 129.433) scale(14.3725)"><stop stop-color="#fff"/><stop offset=".27" stop-color="#FCFCFC"/><stop offset=".48" stop-color="#F2F2F2"/><stop offset=".68" stop-color="#E0E0E0"/><stop offset=".87" stop-color="#C9C9C9"/><stop offset="1" stop-color="#B4B4B4"/></radialGradient><radialGradient id="paint13_radial_2469_47726" cx="0" cy="0" r="1" gradientUnits="userSpaceOnUse" gradientTransform="translate(178.257 122.88) scale(12.1543)"><stop stop-color="#fff"/><stop offset=".27" stop-color="#FCFCFC"/><stop offset=".48" stop-color="#F2F2F2"/><stop offset=".68" stop-color="#E0E0E0"/><stop offset=".87" stop-color="#C9C9C9"/><stop offset="1" stop-color="#B4B4B4"/></radialGradient></defs></svg>