<svg width="181" height="160" fill="none" xmlns="http://www.w3.org/2000/svg"><path d="M75.945 84.008h15.527v20.703H75.945V84.008z" fill="url(#paint0_radial_2569_56171)"/><path d="M91.469 84.008h10.351v20.703H91.469V84.008z" fill="url(#paint1_radial_2569_56171)"/><path d="M72.492 104.711H88.02s.722 23.127 1.754 34.813l1.697-.309c.151 1.261-.167 3.421-.397 4.99-.162 1.102-.282 1.911-.165 1.911H75.381a2.89 2.89 0 01-2.889-2.889v-38.516z" fill="url(#paint2_radial_2569_56171)"/><path fill-rule="evenodd" clip-rule="evenodd" d="M76.925 15h19.722C83.7 15 79.13 45.341 82.94 66.756H44.182a36.09 36.09 0 01-3.487-15.527C40.695 31.221 56.915 15 76.925 15zM44.18 66.756h38.757c2.078 11.679 6.647 20.703 13.708 20.703H76.923c-14.453 0-26.929-8.463-32.743-20.703z" fill="url(#paint3_radial_2569_56171)"/><path d="M69.047 108.161v-6.901h15.527l3.45 3.451-3.45 3.45H69.047z" fill="url(#paint4_radial_2569_56171)"/><path d="M102.387 146.116H90.913a2.889 2.889 0 01-2.89-2.889v-38.516h17.253v38.516a2.89 2.89 0 01-2.889 2.889z" fill="url(#paint5_radial_2569_56171)"/><path d="M84.57 101.26h24.153v6.901H84.57v-6.901z" fill="url(#paint6_radial_2569_56171)"/><path d="M96.644 87.459c20.008 0 36.229-16.22 36.229-36.23C132.873 31.22 116.652 15 96.643 15c-20.008 0-36.229 16.22-36.229 36.23 0 20.008 16.22 36.229 36.23 36.229z" fill="url(#paint7_radial_2569_56171)"/><path d="M96.648 80.541c16.188 0 29.312-13.123 29.312-29.312 0-16.188-13.124-29.311-29.312-29.311-16.189 0-29.312 13.123-29.312 29.311 0 16.189 13.123 29.312 29.312 29.312z" fill="url(#paint8_radial_2569_56171)"/><path d="M96.558 61.58a3.813 3.813 0 01-3.794-3.433l-2.42-24.204a6.245 6.245 0 1112.429 0l-2.421 24.204a3.812 3.812 0 01-3.794 3.434zm5.176 8.627a5.176 5.176 0 11-10.351 0 5.176 5.176 0 0110.351 0z" fill="#fff"/><defs><radialGradient id="paint0_radial_2569_56171" cx="0" cy="0" r="1" gradientUnits="userSpaceOnUse" gradientTransform="matrix(0 13.2535 -19.9134 0 92.428 96.906)"><stop stop-color="#F9F7F8"/><stop offset=".43" stop-color="#E2DEE2"/><stop offset="1" stop-color="#B5ADB6"/></radialGradient><radialGradient id="paint1_radial_2569_56171" cx="0" cy="0" r="1" gradientUnits="userSpaceOnUse" gradientTransform="matrix(0 12.6573 -15.0728 0 104.203 94.85)"><stop offset=".001" stop-color="#B5ADB6"/><stop offset=".43" stop-color="#A79BA7"/><stop offset="1" stop-color="#7A6D79"/></radialGradient><radialGradient id="paint2_radial_2569_56171" cx="0" cy="0" r="1" gradientUnits="userSpaceOnUse" gradientTransform="matrix(49.3736 0 0 37.6567 67.948 112.806)"><stop stop-color="#C2E6C9"/><stop offset=".976" stop-color="#BEE4C8"/></radialGradient><radialGradient id="paint3_radial_2569_56171" cx="0" cy="0" r="1" gradientUnits="userSpaceOnUse" gradientTransform="translate(52.973 26.902) scale(46.0089)"><stop stop-color="#F9F7F8"/><stop offset=".43" stop-color="#E2DEE2"/><stop offset="1" stop-color="#B5ADB6"/></radialGradient><radialGradient id="paint4_radial_2569_56171" cx="0" cy="0" r="1" gradientUnits="userSpaceOnUse" gradientTransform="matrix(49.2708 0 0 6.27612 64.513 102.61)"><stop stop-color="#C2E6C9"/><stop offset=".976" stop-color="#BEE4C8"/></radialGradient><radialGradient id="paint5_radial_2569_56171" cx="0" cy="0" r="1" gradientUnits="userSpaceOnUse" gradientTransform="matrix(16.2831 0 0 50.1641 102.945 138.748)"><stop stop-color="#93D3A2"/><stop offset=".189" stop-color="#8DD09C"/><stop offset=".442" stop-color="#7CC88B"/><stop offset=".597" stop-color="#6EC17D"/><stop offset="1" stop-color="#528E61"/></radialGradient><radialGradient id="paint6_radial_2569_56171" cx="0" cy="0" r="1" gradientUnits="userSpaceOnUse" gradientTransform="matrix(22.7964 0 0 8.36068 105.46 106.933)"><stop stop-color="#93D3A2"/><stop offset=".189" stop-color="#8DD09C"/><stop offset=".442" stop-color="#7CC88B"/><stop offset=".597" stop-color="#6EC17D"/><stop offset="1" stop-color="#528E61"/></radialGradient><radialGradient id="paint7_radial_2569_56171" cx="0" cy="0" r="1" gradientUnits="userSpaceOnUse" gradientTransform="translate(119.265 58.64) scale(68.7579)"><stop stop-color="#F9F7F8"/><stop offset=".43" stop-color="#E2DEE2"/><stop offset="1" stop-color="#B5ADB6"/></radialGradient><radialGradient id="paint8_radial_2569_56171" cx="0" cy="0" r="1" gradientUnits="userSpaceOnUse" gradientTransform="matrix(47.0707 0 0 76.7576 105.681 21.12)"><stop stop-color="#FFAB56"/><stop offset=".512" stop-color="#FF982A"/><stop offset=".598" stop-color="#FF8F2A"/><stop offset=".976" stop-color="#FF6927"/></radialGradient></defs></svg>