<svg width="96" height="96" fill="none" xmlns="http://www.w3.org/2000/svg"><g clip-path="url(#clip0_2686_65046)"><path d="M31.2 10.823v64.8h14.4l4.917-31.21-4.918-33.59H31.2z" fill="url(#paint0_radial_2686_65046)"/><path d="M57.6 44.423v31.2H72l4.917-31.21-4.917.01H57.6z" fill="url(#paint1_radial_2686_65046)"/><path d="M45.6 10.823h19.2v64.8H45.6v-64.8z" fill="url(#paint2_radial_2686_65046)"/><path d="M72 44.423h19.2v31.2H72v-31.2z" fill="url(#paint3_radial_2686_65046)"/><path d="M4.8 25.224v50.4h14.4l4.918-31.21-4.917-19.19H4.8z" fill="url(#paint4_radial_2686_65046)"/><path d="M19.2 25.224h19.2v50.4H19.2v-50.4z" fill="url(#paint5_radial_2686_65046)"/><path d="M0 73.224v7.2h14.4l2.4-4.238-2.4-2.962H0z" fill="url(#paint6_radial_2686_65046)"/><path d="M14.4 73.224H96v7.2H14.4v-7.2z" fill="url(#paint7_radial_2686_65046)"/></g><defs><radialGradient id="paint0_radial_2686_65046" cx="0" cy="0" r="1" gradientUnits="userSpaceOnUse" gradientTransform="matrix(50.1542 0 0 58.9338 26.584 23.492)"><stop stop-color="#E4FBEF"/><stop offset=".514" stop-color="#C6EAD0"/><stop offset=".976" stop-color="#BEE4C8"/></radialGradient><radialGradient id="paint1_radial_2686_65046" cx="0" cy="0" r="1" gradientUnits="userSpaceOnUse" gradientTransform="matrix(0 67.2057 -56.2997 0 53.515 68.032)"><stop stop-color="#FBE2DD"/><stop offset=".514" stop-color="#EAB1B7"/><stop offset="1" stop-color="#E4989D"/></radialGradient><radialGradient id="paint2_radial_2686_65046" cx="0" cy="0" r="1" gradientUnits="userSpaceOnUse" gradientTransform="matrix(18.1216 0 0 78.5082 62.206 64.093)"><stop stop-color="#93D3A2"/><stop offset=".189" stop-color="#8DD09C"/><stop offset=".442" stop-color="#7CC88B"/><stop offset=".597" stop-color="#6EC17D"/><stop offset="1" stop-color="#528E61"/></radialGradient><radialGradient id="paint3_radial_2686_65046" cx="0" cy="0" r="1" gradientUnits="userSpaceOnUse" gradientTransform="matrix(-43.197 0 0 -132.358 90.207 87.087)"><stop offset=".099" stop-color="#DD636E"/><stop offset=".539" stop-color="#D82E3D"/><stop offset="1" stop-color="#8E2E2E"/></radialGradient><radialGradient id="paint4_radial_2686_65046" cx="0" cy="0" r="1" gradientUnits="userSpaceOnUse" gradientTransform="matrix(38.2439 0 0 39.9117 8.635 33.29)"><stop stop-color="#FFF9E2"/><stop offset=".535" stop-color="#FFE4CB"/><stop offset=".623" stop-color="#FFDFC1"/><stop offset=".973" stop-color="#FFCB9B"/></radialGradient><radialGradient id="paint5_radial_2686_65046" cx="0" cy="0" r="1" gradientUnits="userSpaceOnUse" gradientTransform="matrix(21.1274 0 0 44.8957 37.76 40.468)"><stop stop-color="#FFAB56"/><stop offset=".512" stop-color="#FF982A"/><stop offset=".598" stop-color="#FF8F2A"/><stop offset=".976" stop-color="#FF6927"/></radialGradient><radialGradient id="paint6_radial_2686_65046" cx="0" cy="0" r="1" gradientUnits="userSpaceOnUse" gradientTransform="translate(4.193 72.995) scale(9.59419)"><stop stop-color="#fff"/><stop offset=".31" stop-color="#E5F2F6"/><stop offset=".514" stop-color="#D9EDF2"/><stop offset=".714" stop-color="#BAE1E7"/><stop offset=".978" stop-color="#94D4D9"/></radialGradient><radialGradient id="paint7_radial_2686_65046" cx="0" cy="0" r="1" gradientUnits="userSpaceOnUse" gradientTransform="matrix(-64.9116 0 0 -13.8262 78.258 83.816)"><stop stop-color="#69A2B3"/><stop offset=".504" stop-color="#518E9A"/><stop offset=".942" stop-color="#397A85"/></radialGradient><clipPath id="clip0_2686_65046"><path fill="#fff" d="M0 0h96v96H0z"/></clipPath></defs></svg>