<svg width="96" height="96" fill="none" xmlns="http://www.w3.org/2000/svg"><path d="M12.43 0h4.8c-1.271 0-1.509 64.043-.712 84.094L16.8 84c.055 1.01.095 2.149.132 3.218.075 2.13.14 3.982.298 3.982h-4.8a2.83 2.83 0 01-2.83-2.83V2.83A2.83 2.83 0 0112.43 0z" fill="url(#paint0_radial_2686_65091)"/><path d="M26.398 91.2h-9.17a2.83 2.83 0 01-2.83-2.83V2.83A2.83 2.83 0 0117.228 0h9.17v91.2z" fill="url(#paint1_radial_2686_65091)"/><path d="M16.799 88.8h4.8V2.4h-4.8v86.4z" fill="url(#paint2_radial_2686_65091)"/><path d="M22.03 0h4.8c-1.272 0-1.51 64.043-.713 84.094L26.4 84c.056 1.01.095 2.149.133 3.218.074 2.13.139 3.982.297 3.982h-4.8a2.83 2.83 0 01-2.83-2.83V2.83A2.83 2.83 0 0122.03 0z" fill="url(#paint3_radial_2686_65091)"/><path d="M86.4 91.2H26.83A2.83 2.83 0 0124 88.37V2.83A2.83 2.83 0 0126.83 0H86.4v91.2z" fill="url(#paint4_radial_2686_65091)"/><path d="M55.68 11.04h6.24c-9.016 0-12.02 21.77-9.011 36.277l1.81-.277c.123.441.245.89.369 1.34C56.615 53.962 58.268 60 61.919 60h-6.24c-8.137 0-15.345-3.971-19.796-10.08a24.367 24.367 0 01-4.684-14.4c0-13.52 10.96-24.48 24.48-24.48z" fill="url(#paint5_radial_2686_65091)"/><path opacity=".7" d="M46.08 36.96H31.24a24.79 24.79 0 01.002-2.88h14.836v2.88zm0 10.08v-2.88H32.768c.373.987.81 1.95 1.307 2.88H46.08zm0-23.04H34.074a24.35 24.35 0 00-1.306 2.88h13.31V24z" fill="#fff"/><path d="M61.92 60C75.44 60 86.4 49.04 86.4 35.52S75.44 11.04 61.92 11.04 37.44 22 37.44 35.52 48.4 60 61.92 60z" fill="url(#paint6_radial_2686_65091)"/><path opacity=".7" d="M73.357 47.04h10.166a24.35 24.35 0 001.306-2.88H74.048c.451-2.26.73-4.678.808-7.2h11.5a24.54 24.54 0 000-2.88h-11.5a43.714 43.714 0 00-.808-7.2h10.78A24.357 24.357 0 0083.524 24H73.357c-2.182-7.712-6.485-12.96-11.438-12.96-4.952 0-9.255 5.248-11.437 12.96H40.316a24.13 24.13 0 00-1.306 2.88h10.78a43.703 43.703 0 00-.808 7.2h-11.5a24.72 24.72 0 00-.042 1.44c0 .484.015.963.043 1.44h11.5c.077 2.521.356 4.94.808 7.2H39.01c.372.987.808 1.95 1.306 2.88h10.166C52.664 54.752 56.967 60 61.919 60c4.953 0 9.256-5.248 11.438-12.96zm-12.878 9.818c-2.686-.961-5.36-4.522-7.005-9.818h7.005v9.818zm0-12.698h-7.757a40.451 40.451 0 01-.859-7.2h8.616v7.2zm0-10.08h-8.616c.083-2.591.386-5.006.859-7.2h7.757v7.2zm0-10.08h-7.005c1.646-5.296 4.319-8.857 7.005-9.818V24zm2.88-9.818c2.687.961 5.36 4.522 7.006 9.818h-7.006v-9.818zm0 12.698h7.758c.472 2.194.776 4.609.858 7.2H63.36v-7.2zm0 10.08h8.616a40.442 40.442 0 01-.858 7.2h-7.758v-7.2zm0 19.898V47.04h7.006c-1.646 5.296-4.32 8.857-7.006 9.818zM36 69.6h38.4a2.4 2.4 0 000-4.8H36a2.4 2.4 0 000 4.8zm9.6 9.6h19.2a2.4 2.4 0 000-4.8H45.6a2.4 2.4 0 000 4.8z" fill="#fff"/><defs><radialGradient id="paint0_radial_2686_65091" cx="0" cy="0" r="1" gradientUnits="userSpaceOnUse" gradientTransform="matrix(19.8101 0 0 82.9438 7.777 17.83)"><stop stop-color="#E4FBEF"/><stop offset=".514" stop-color="#C6EAD0"/><stop offset=".976" stop-color="#BEE4C8"/></radialGradient><radialGradient id="paint1_radial_2686_65091" cx="0" cy="0" r="1" gradientUnits="userSpaceOnUse" gradientTransform="matrix(11.326 0 0 110.493 24.777 74.972)"><stop stop-color="#93D3A2"/><stop offset=".189" stop-color="#8DD09C"/><stop offset=".442" stop-color="#7CC88B"/><stop offset=".597" stop-color="#6EC17D"/><stop offset="1" stop-color="#528E61"/></radialGradient><radialGradient id="paint2_radial_2686_65091" cx="0" cy="0" r="1" gradientUnits="userSpaceOnUse" gradientTransform="matrix(9.50278 0 0 68.42 17.752 16.228)"><stop stop-color="#FFF9E2"/><stop offset=".535" stop-color="#FFE4CB"/><stop offset=".623" stop-color="#FFDFC1"/><stop offset=".973" stop-color="#FFCB9B"/></radialGradient><radialGradient id="paint3_radial_2686_65091" cx="0" cy="0" r="1" gradientUnits="userSpaceOnUse" gradientTransform="matrix(19.8101 0 0 82.9438 17.376 17.83)"><stop stop-color="#E4FBEF"/><stop offset=".514" stop-color="#C6EAD0"/><stop offset=".976" stop-color="#BEE4C8"/></radialGradient><radialGradient id="paint4_radial_2686_65091" cx="0" cy="0" r="1" gradientUnits="userSpaceOnUse" gradientTransform="matrix(58.8954 0 0 110.493 77.97 74.972)"><stop stop-color="#93D3A2"/><stop offset=".189" stop-color="#8DD09C"/><stop offset=".442" stop-color="#7CC88B"/><stop offset=".597" stop-color="#6EC17D"/><stop offset="1" stop-color="#528E61"/></radialGradient><radialGradient id="paint5_radial_2686_65091" cx="0" cy="0" r="1" gradientUnits="userSpaceOnUse" gradientTransform="matrix(60.8182 0 0 38.7713 37.297 18.876)"><stop stop-color="#FFF9E2"/><stop offset=".535" stop-color="#FFE4CB"/><stop offset=".623" stop-color="#FFDFC1"/><stop offset=".973" stop-color="#FFCB9B"/></radialGradient><radialGradient id="paint6_radial_2686_65091" cx="0" cy="0" r="1" gradientUnits="userSpaceOnUse" gradientTransform="matrix(53.8749 0 0 43.613 84.768 25.849)"><stop stop-color="#FFAB56"/><stop offset=".512" stop-color="#FF982A"/><stop offset=".598" stop-color="#FF8F2A"/><stop offset=".976" stop-color="#FF6927"/></radialGradient></defs></svg>