<svg width="96" height="96" fill="none" xmlns="http://www.w3.org/2000/svg"><path d="M30 78.061l-3.227 1.076C25.71 58.623 26.363 9.6 28.74 9.6H14.4v81.6h14.34c-.745 0 1.668-8.076 1.261-13.139z" fill="url(#paint0_radial_2686_65285)"/><path d="M81.6 9.6h-60v81.6h60V9.6z" fill="url(#paint1_radial_2686_65285)"/><path d="M26.4 86.4H30l2.4-39.538L30 14.4h-3.6v72z" fill="url(#paint2_radial_2686_65285)"/><path d="M26.4 86.4H30l2.4-39.538L30 14.4h-3.6v72z" fill="#fff" fill-opacity=".4"/><path d="M28.8 14.4h48v72h-48v-72z" fill="url(#paint3_radial_2686_65285)"/><path d="M45.6 4.8A4.8 4.8 0 0150.4 0h4.8c-2.651 0-3.6 6.949-3.6 9.6l-6-4.8z" fill="url(#paint4_radial_2686_65285)"/><path d="M60 4.8a4.8 4.8 0 10-9.6 0h-7.182L38.4 21.6h24a4.818 4.818 0 004.818-4.818V4.8H60z" fill="url(#paint5_radial_2686_65285)"/><path d="M38.4 21.6V4.8h4.818v11.982A4.818 4.818 0 0138.4 21.6z" fill="url(#paint6_radial_2686_65285)"/><path d="M55.2 7.2a2.4 2.4 0 100-4.8 2.4 2.4 0 000 4.8z" fill="url(#paint7_radial_2686_65285)"/><path d="M50.254 51.248l-6.788-6.788-5.091 5.091 11.88 11.88 16.97-16.97-5.091-5.092-11.88 11.88z" fill="url(#paint8_radial_2686_65285)"/><defs><radialGradient id="paint0_radial_2686_65285" cx="0" cy="0" r="1" gradientUnits="userSpaceOnUse" gradientTransform="matrix(14.992 0 0 52.8909 17.855 21.072)"><stop stop-color="#FFF2C2"/><stop offset=".623" stop-color="#FFD8B3"/><stop offset=".973" stop-color="#FFCB9B"/></radialGradient><radialGradient id="paint1_radial_2686_65285" cx="0" cy="0" r="1" gradientUnits="userSpaceOnUse" gradientTransform="rotate(93.503 6.293 61.629) scale(65.9048 36.2772)"><stop stop-color="#FFA447"/><stop offset=".512" stop-color="#FF9729"/><stop offset=".976" stop-color="#FF8A57"/></radialGradient><radialGradient id="paint2_radial_2686_65285" cx="0" cy="0" r="1" gradientUnits="userSpaceOnUse" gradientTransform="matrix(8.49259 0 0 95.2297 30.113 34.629)"><stop offset=".035" stop-color="#DFEAEF"/><stop offset=".256" stop-color="#D4E3E8"/><stop offset=".645" stop-color="#B6D1D6"/><stop offset=".671" stop-color="#B4D0D5"/><stop offset="1" stop-color="#9BB9C1"/></radialGradient><radialGradient id="paint3_radial_2686_65285" cx="0" cy="0" r="1" gradientUnits="userSpaceOnUse" gradientTransform="matrix(67.9407 0 0 95.2297 58.505 34.629)"><stop offset=".035" stop-color="#DFEAEF"/><stop offset=".256" stop-color="#D4E3E8"/><stop offset=".645" stop-color="#B6D1D6"/><stop offset=".671" stop-color="#B4D0D5"/><stop offset="1" stop-color="#9BB9C1"/></radialGradient><radialGradient id="paint4_radial_2686_65285" cx="0" cy="0" r="1" gradientUnits="userSpaceOnUse" gradientTransform="translate(48.063 -.563) scale(5.66494)"><stop stop-color="#E6F6FF"/><stop offset=".426" stop-color="#C0DAE9"/><stop offset=".488" stop-color="#BAD6E5"/><stop offset="1" stop-color="#8ABBD5"/></radialGradient><radialGradient id="paint5_radial_2686_65285" cx="0" cy="0" r="1" gradientUnits="userSpaceOnUse" gradientTransform="translate(61.806 13.01) scale(21.9058)"><stop stop-color="#3692BC"/><stop offset=".504" stop-color="#0681AF"/><stop offset=".976" stop-color="#0055A3"/></radialGradient><radialGradient id="paint6_radial_2686_65285" cx="0" cy="0" r="1" gradientUnits="userSpaceOnUse" gradientTransform="matrix(12.9173 0 0 12.9172 37.159 5.79)"><stop stop-color="#E6F6FF"/><stop offset=".426" stop-color="#C0DAE9"/><stop offset=".488" stop-color="#BAD6E5"/><stop offset="1" stop-color="#8ABBD5"/></radialGradient><radialGradient id="paint7_radial_2686_65285" cx="0" cy="0" r="1" gradientUnits="userSpaceOnUse" gradientTransform="translate(54.1 6.956) scale(6.46369)"><stop stop-color="#0055A3"/><stop offset=".438" stop-color="#004281"/><stop offset=".983" stop-color="#00366D"/></radialGradient><radialGradient id="paint8_radial_2686_65285" cx="0" cy="0" r="1" gradientUnits="userSpaceOnUse" gradientTransform="translate(93.426 78.346) scale(69.8516)"><stop stop-color="#7BE700"/><stop offset=".512" stop-color="#72D800"/><stop offset=".808" stop-color="#26B847"/><stop offset=".976" stop-color="#00A96A"/></radialGradient></defs></svg>