<svg width="96" height="96" fill="none" xmlns="http://www.w3.org/2000/svg"><path d="M65.626 84.117L55.578 74.069l10.048-3.172 6.61 13.22h-6.61z" fill="url(#paint0_radial_2686_65153)"/><path d="M22.606 22.423h6.61c-2.168 0-2.775 24.438-1.82 40.577l2.978-.993c.213 2.647-.414 6.19-.867 8.751-.342 1.937-.585 3.311-.29 3.311h-6.61a5.452 5.452 0 01-5.453-5.452V27.875a5.452 5.452 0 015.452-5.452z" fill="url(#paint1_radial_2686_65153)"/><path d="M86.616 22.423h-57.4a5.452 5.452 0 00-5.452 5.452v40.743c0 3.01 2.44 5.451 5.451 5.451H62.19l10.048 10.048V74.069h14.378a5.451 5.451 0 005.452-5.451V27.875a5.452 5.452 0 00-5.452-5.452z" fill="url(#paint2_radial_2686_65153)"/><path d="M9.385 7h6.61c-2.167 0-2.774 24.439-1.82 40.578l2.979-.994c.212 2.647-.414 6.19-.867 8.751-.343 1.937-.586 3.311-.292 3.311h-6.61a5.452 5.452 0 01-5.451-5.452V12.453A5.45 5.45 0 019.385 7z" fill="url(#paint3_radial_2686_65153)"/><path d="M23.764 57.677l8.813-2.203-2.203 13.22h-6.61V57.677z" fill="url(#paint4_radial_2686_65153)"/><path d="M73.395 7h-57.4a5.452 5.452 0 00-5.452 5.452v40.743c0 3.01 2.44 5.451 5.452 5.451h14.378v10.048l10.048-10.048h32.974a5.451 5.451 0 005.452-5.451V12.452A5.45 5.45 0 0073.395 7z" fill="url(#paint5_radial_2686_65153)"/><path opacity=".7" d="M29.272 32.824a4.407 4.407 0 11-8.813 0 4.407 4.407 0 018.813 0zm8.814-4.407a4.407 4.407 0 100 8.814 4.407 4.407 0 000-8.814zm13.22 0a4.407 4.407 0 100 8.814 4.407 4.407 0 000-8.814zm13.22 0a4.407 4.407 0 100 8.814 4.407 4.407 0 000-8.814z" fill="#fff"/><defs><radialGradient id="paint0_radial_2686_65153" cx="0" cy="0" r="1" gradientUnits="userSpaceOnUse" gradientTransform="matrix(43.2489 0 0 12.0234 51.598 73.481)"><stop stop-color="#E4FBEF"/><stop offset=".514" stop-color="#C6EAD0"/><stop offset=".976" stop-color="#BEE4C8"/></radialGradient><radialGradient id="paint1_radial_2686_65153" cx="0" cy="0" r="1" gradientUnits="userSpaceOnUse" gradientTransform="matrix(34.4343 0 0 46.9708 13.985 32.52)"><stop stop-color="#E4FBEF"/><stop offset=".514" stop-color="#C6EAD0"/><stop offset=".976" stop-color="#BEE4C8"/></radialGradient><radialGradient id="paint2_radial_2686_65153" cx="0" cy="0" r="1" gradientUnits="userSpaceOnUse" gradientTransform="matrix(64.468 0 0 74.7454 82.84 73.14)"><stop stop-color="#93D3A2"/><stop offset=".189" stop-color="#8DD09C"/><stop offset=".442" stop-color="#7CC88B"/><stop offset=".597" stop-color="#6EC17D"/><stop offset="1" stop-color="#528E61"/></radialGradient><radialGradient id="paint3_radial_2686_65153" cx="0" cy="0" r="1" gradientUnits="userSpaceOnUse" gradientTransform="matrix(12.708 0 0 33.4757 6.862 14.261)"><stop stop-color="#FFF2C2"/><stop offset=".623" stop-color="#FFD8B3"/><stop offset=".973" stop-color="#FFCB9B"/></radialGradient><radialGradient id="paint4_radial_2686_65153" cx="0" cy="0" r="1" gradientUnits="userSpaceOnUse" gradientTransform="matrix(8.44476 0 0 8.56894 25.71 57.332)"><stop stop-color="#FFF2C2"/><stop offset=".623" stop-color="#FFD8B3"/><stop offset=".973" stop-color="#FFCB9B"/></radialGradient><radialGradient id="paint5_radial_2686_65153" cx="0" cy="0" r="1" gradientUnits="userSpaceOnUse" gradientTransform="matrix(-4.58397 49.7346 -41.0268 -3.78139 63.583 44.435)"><stop stop-color="#FFA447"/><stop offset=".512" stop-color="#FF9729"/><stop offset=".976" stop-color="#FF8A57"/></radialGradient></defs></svg>