<svg width="96" height="96" fill="none" xmlns="http://www.w3.org/2000/svg"><path d="M41.78 48.198h12.443c-2.77 0-5.459 2.668-8.026 5.215-.707.7-1.404 1.392-2.09 2.016l-2.234-.295c-5.43 5.955-10.126 14.792-13.624 22.632l.813-.13c-3.354 7.934-7.43 13.835-7.43 13.835H9.186V80.79c0-17.958 14.551-32.592 32.592-32.592z" fill="url(#paint0_radial_2686_65163)"/><path d="M54.222 0c-6.464 0-9.138 13.724-8.023 25.08l-11.203-2.333c3.161 7.729 15.17 17.18 19.226 17.18H41.595c-10.995 0-19.964-8.907-19.964-19.963C21.63 8.938 30.569 0 41.595 0h12.627z" fill="url(#paint1_radial_2686_65163)"/><path d="M54.222 39.928c11.025 0 19.964-8.938 19.964-19.964C74.186 8.938 65.247 0 54.222 0 43.196 0 34.258 8.938 34.258 19.964c0 11.026 8.938 19.964 19.964 19.964z" fill="url(#paint2_radial_2686_65163)"/><path d="M64.49 49.847L54.222 60.115 43.955 49.847C30.967 54.153 21.63 66.405 21.63 80.79v10.68h65.183V80.79c0-14.355-9.318-26.632-22.324-30.943z" fill="url(#paint3_radial_2686_65163)"/><path d="M43.955 49.848l4.91 40.692 10.713-.026 5.525-38.81-.613-1.856H43.955z" fill="url(#paint4_radial_2686_65163)"/><path d="M64.49 49.848a32.568 32.568 0 00-10.267-1.649c-3.59 0-7.042.58-10.268 1.65l10.268 11.686L64.49 49.848z" fill="url(#paint5_radial_2686_65163)"/><path d="M56.692 62.442l-2.469-1.606-2.469 1.606-2.889 28.099.267.931h10.183l.264-.957-2.887-28.073z" fill="url(#paint6_radial_2686_65163)"/><path d="M56.692 62.441h-4.938l-2.984-6.706h10.907l-2.985 6.706z" fill="url(#paint7_radial_2686_65163)"/><path d="M43.955 49.848l10.268 5.888-8.901 5.1-1.367-10.988z" fill="url(#paint8_radial_2686_65163)"/><path d="M49.13 91.472l-5.176-41.624-11.339 11.338h8.782l-5.88 5.88L49.13 91.472z" fill="url(#paint9_radial_2686_65163)"/><path d="M59.313 91.472l5.176-41.624 11.338 11.338h-8.782l5.88 5.88-13.612 24.406z" fill="url(#paint10_radial_2686_65163)"/><path d="M64.49 49.848l-10.267 5.888 8.9 5.1 1.367-10.988z" fill="url(#paint11_radial_2686_65163)"/><defs><radialGradient id="paint0_radial_2686_65163" cx="0" cy="0" r="1" gradientUnits="userSpaceOnUse" gradientTransform="matrix(116.926 0 0 39.3557 -1.573 56.659)"><stop stop-color="#E4FBEF"/><stop offset=".514" stop-color="#C6EAD0"/><stop offset=".976" stop-color="#BEE4C8"/></radialGradient><radialGradient id="paint1_radial_2686_65163" cx="0" cy="0" r="1" gradientUnits="userSpaceOnUse" gradientTransform="matrix(64.5232 0 0 31.6187 28.1 6.39)"><stop stop-color="#FFF9E2"/><stop offset=".535" stop-color="#FFE4CB"/><stop offset=".623" stop-color="#FFDFC1"/><stop offset=".973" stop-color="#FFCB9B"/></radialGradient><radialGradient id="paint2_radial_2686_65163" cx="0" cy="0" r="1" gradientUnits="userSpaceOnUse" gradientTransform="matrix(43.9359 0 0 35.5672 72.855 12.077)"><stop stop-color="#FFAB56"/><stop offset=".512" stop-color="#FF982A"/><stop offset=".598" stop-color="#FF8F2A"/><stop offset=".976" stop-color="#FF6927"/></radialGradient><radialGradient id="paint3_radial_2686_65163" cx="0" cy="0" r="1" gradientUnits="userSpaceOnUse" gradientTransform="matrix(61.5223 0 0 50.4304 78.007 84.065)"><stop stop-color="#93D3A2"/><stop offset=".189" stop-color="#8DD09C"/><stop offset=".442" stop-color="#7CC88B"/><stop offset=".597" stop-color="#6EC17D"/><stop offset="1" stop-color="#528E61"/></radialGradient><radialGradient id="paint4_radial_2686_65163" cx="0" cy="0" r="1" gradientUnits="userSpaceOnUse" gradientTransform="translate(61.603 75.3) scale(19.7398)"><stop offset=".035" stop-color="#DFEAEF"/><stop offset=".256" stop-color="#D4E3E8"/><stop offset=".645" stop-color="#B6D1D6"/><stop offset=".671" stop-color="#B4D0D5"/><stop offset="1" stop-color="#9BB9C1"/></radialGradient><radialGradient id="paint5_radial_2686_65163" cx="0" cy="0" r="1" gradientUnits="userSpaceOnUse" gradientTransform="matrix(22.5968 0 0 11.879 63.806 52.233)"><stop stop-color="#FFAB56"/><stop offset=".512" stop-color="#FF982A"/><stop offset=".598" stop-color="#FF8F2A"/><stop offset=".976" stop-color="#FF6927"/></radialGradient><radialGradient id="paint6_radial_2686_65163" cx="0" cy="0" r="1" gradientUnits="userSpaceOnUse" gradientTransform="translate(54.56 78.435) scale(21.6911)"><stop stop-color="#DD636E"/><stop offset=".539" stop-color="#D82E3D"/><stop offset="1" stop-color="#8E2E2E"/></radialGradient><radialGradient id="paint7_radial_2686_65163" cx="0" cy="0" r="1" gradientUnits="userSpaceOnUse" gradientTransform="matrix(8.31188 4.9949 -7.5943 12.6375 58.354 63.853)"><stop stop-color="#DD636E"/><stop offset=".539" stop-color="#D82E3D"/><stop offset="1" stop-color="#8E2E2E"/></radialGradient><radialGradient id="paint8_radial_2686_65163" cx="0" cy="0" r="1" gradientUnits="userSpaceOnUse" gradientTransform="translate(44.496 51.624) scale(13.9266)"><stop offset=".035" stop-color="#DFEAEF"/><stop offset=".256" stop-color="#D4E3E8"/><stop offset=".645" stop-color="#B6D1D6"/><stop offset=".671" stop-color="#B4D0D5"/><stop offset="1" stop-color="#9BB9C1"/></radialGradient><radialGradient id="paint9_radial_2686_65163" cx="0" cy="0" r="1" gradientUnits="userSpaceOnUse" gradientTransform="matrix(15.5873 0 0 50.4297 46.899 84.065)"><stop stop-color="#93D3A2"/><stop offset=".189" stop-color="#8DD09C"/><stop offset=".442" stop-color="#7CC88B"/><stop offset=".597" stop-color="#6EC17D"/><stop offset="1" stop-color="#528E61"/></radialGradient><radialGradient id="paint10_radial_2686_65163" cx="0" cy="0" r="1" gradientUnits="userSpaceOnUse" gradientTransform="matrix(15.5871 0 0 50.4297 73.596 84.065)"><stop stop-color="#93D3A2"/><stop offset=".189" stop-color="#8DD09C"/><stop offset=".442" stop-color="#7CC88B"/><stop offset=".597" stop-color="#6EC17D"/><stop offset="1" stop-color="#528E61"/></radialGradient><radialGradient id="paint11_radial_2686_65163" cx="0" cy="0" r="1" gradientUnits="userSpaceOnUse" gradientTransform="translate(60.577 52.935) scale(14.5329)"><stop offset=".035" stop-color="#DFEAEF"/><stop offset=".256" stop-color="#D4E3E8"/><stop offset=".645" stop-color="#B6D1D6"/><stop offset=".671" stop-color="#B4D0D5"/><stop offset="1" stop-color="#9BB9C1"/></radialGradient></defs></svg>