<svg width="138" height="138" fill="none" xmlns="http://www.w3.org/2000/svg"><path d="M113.855 131.1h-86.25l-6.9-10.35V13.8L13.805 0h89.7c5.716 0 10.35 4.634 10.35 10.35V131.1z" fill="url(#paint0_radial_2569_56093)"/><path d="M34.502 117.3a3.45 3.45 0 01-2.867-5.364l10.93-16.397a7.119 7.119 0 015.719-3.163 7.113 7.113 0 015.884 2.841l4.144 5.525a.2.2 0 00.173.084c.108-.003.147-.062.169-.093l2.945-4.418a7.096 7.096 0 015.914-3.165h8.392a3.45 3.45 0 110 6.9h-8.392a.202.202 0 00-.099.025.203.203 0 00-.075.068l-2.945 4.417a7.122 7.122 0 01-5.718 3.163 7.106 7.106 0 01-5.884-2.841l-4.144-5.525a.206.206 0 00-.173-.084.188.188 0 00-.168.094l-10.932 16.396a3.44 3.44 0 01-2.873 1.537zm69.003-95.845v-4.96a2.695 2.695 0 00-2.695-2.695H37.2a2.695 2.695 0 00-2.695 2.695v4.96A2.695 2.695 0 0037.2 24.15h63.61a2.695 2.695 0 002.695-2.695zm-3.45 19.945a3.45 3.45 0 00-3.45-3.45h-27.6a3.45 3.45 0 000 6.9h27.6a3.45 3.45 0 003.45-3.45zm0 13.8a3.45 3.45 0 00-3.45-3.45h-55.2a3.45 3.45 0 000 6.9h55.2a3.45 3.45 0 003.45-3.45zm0 13.8a3.45 3.45 0 00-3.45-3.45h-55.2a3.45 3.45 0 000 6.9h55.2a3.45 3.45 0 003.45-3.45zm0 13.8a3.45 3.45 0 00-3.45-3.45h-55.2a3.45 3.45 0 000 6.9h55.2a3.45 3.45 0 003.45-3.45z" fill="url(#paint1_radial_2569_56093)"/><path d="M31.053 107.543v13.109c0 1.858-1.428 3.457-3.283 3.544a3.45 3.45 0 01-3.617-3.446V10.35C24.153 4.634 19.52 0 13.803 0 8.087 0 3.453 4.634 3.453 10.35v13.207A4.043 4.043 0 007.496 27.6h9.757l-6.9-17.25a3.45 3.45 0 016.9 0v110.4c0 5.716 4.634 10.35 10.35 10.35 5.716 0 10.35-4.634 10.35-10.35l4.043-17.25h-6.9a4.043 4.043 0 00-4.043 4.043z" fill="url(#paint2_radial_2569_56093)"/><path d="M17.252 10.35a3.45 3.45 0 00-6.9 0v13.207a4.043 4.043 0 004.043 4.043h2.857V10.35z" fill="url(#paint3_radial_2569_56093)"/><path d="M127.652 107.543v13.207c0 5.716-4.634 10.35-10.35 10.35h-89.7c5.716 0 10.35-4.634 10.35-10.35v-13.207a4.043 4.043 0 014.043-4.043h81.614a4.043 4.043 0 014.043 4.043z" fill="url(#paint4_radial_2569_56093)"/><path d="M55.398 85.946v.989a2.38 2.38 0 002.38 2.38h7.1l.865-4.681-10.345 1.312z" fill="url(#paint5_radial_2569_56093)"/><path d="M66.895 69.5l-2.017-21.691h-7.1a2.38 2.38 0 00-2.38 2.38v35.757h9.823L66.895 69.5z" fill="url(#paint6_radial_2569_56093)"/><path d="M62.5 50.189v36.745a2.38 2.38 0 002.38 2.38h67.141a2.38 2.38 0 002.38-2.38V50.19a2.38 2.38 0 00-2.38-2.38h-67.14a2.38 2.38 0 00-2.381 2.38z" fill="url(#paint7_radial_2569_56093)"/><path d="M131.224 54.816a3.829 3.829 0 01-3.829-3.829v-.367H69.508v.367a3.828 3.828 0 01-3.829 3.828h-.367v27.493h.367a3.829 3.829 0 013.829 3.828v.367h57.887v-.367a3.828 3.828 0 013.829-3.828h.366V54.815h-.366zm-55.628 17.88a4.047 4.047 0 110-8.095 4.047 4.047 0 010 8.094zm22.855 8.875c-7.184 0-13.008-5.825-13.008-13.01 0-7.184 5.824-13.008 13.008-13.008 7.185 0 13.009 5.824 13.009 13.009 0 7.184-5.824 13.009-13.008 13.009zm22.856-8.876a4.047 4.047 0 11-.001-8.095 4.047 4.047 0 01.001 8.095z" fill="url(#paint8_radial_2569_56093)"/><defs><radialGradient id="paint0_radial_2569_56093" cx="0" cy="0" r="1" gradientUnits="userSpaceOnUse" gradientTransform="matrix(126.359 0 0 112.233 122.643 75.539)"><stop offset=".1" stop-color="#D0E2E7"/><stop offset="1" stop-color="#9FB8BF"/></radialGradient><radialGradient id="paint1_radial_2569_56093" cx="0" cy="0" r="1" gradientUnits="userSpaceOnUse" gradientTransform="rotate(-117.243 72.651 21.505) scale(100.084 162.198)"><stop offset=".099" stop-color="#86A0AF"/><stop offset=".539" stop-color="#617881"/><stop offset="1" stop-color="#404A4A"/></radialGradient><radialGradient id="paint2_radial_2569_56093" cx="0" cy="0" r="1" gradientUnits="userSpaceOnUse" gradientTransform="matrix(44.7434 0 0 224.556 12.248 80.695)"><stop offset=".035" stop-color="#DFEAEF"/><stop offset=".256" stop-color="#D4E3E8"/><stop offset=".645" stop-color="#B6D1D6"/><stop offset=".671" stop-color="#B4D0D5"/><stop offset="1" stop-color="#9BB9C1"/></radialGradient><radialGradient id="paint3_radial_2569_56093" cx="0" cy="0" r="1" gradientUnits="userSpaceOnUse" gradientTransform="matrix(8.71443 0 0 47.9198 17.858 18.827)"><stop offset=".1" stop-color="#C3D6DB"/><stop offset="1" stop-color="#94AAAF"/></radialGradient><radialGradient id="paint4_radial_2569_56093" cx="0" cy="0" r="1" gradientUnits="userSpaceOnUse" gradientTransform="matrix(126.359 0 0 63.893 136.44 119.403)"><stop offset=".1" stop-color="#C3D6DB"/><stop offset="1" stop-color="#94AAAF"/></radialGradient><radialGradient id="paint5_radial_2569_56093" cx="0" cy="0" r="1" gradientUnits="userSpaceOnUse" gradientTransform="matrix(11.5354 0 0 4.83333 58.503 84.66)"><stop stop-color="#BEE4C8"/><stop offset=".665" stop-color="#93D3A2"/><stop offset=".96" stop-color="#83CC91"/><stop offset="1" stop-color="#80CB8E"/></radialGradient><radialGradient id="paint6_radial_2569_56093" cx="0" cy="0" r="1" gradientUnits="userSpaceOnUse" gradientTransform="matrix(29.8492 0 0 34.6848 52.651 55.265)"><stop stop-color="#E4FBEF"/><stop offset=".514" stop-color="#C6EAD0"/><stop offset=".976" stop-color="#BEE4C8"/></radialGradient><radialGradient id="paint7_radial_2569_56093" cx="0" cy="0" r="1" gradientUnits="userSpaceOnUse" gradientTransform="matrix(67.8627 0 0 50.2863 124.686 81.929)"><stop stop-color="#93D3A2"/><stop offset=".189" stop-color="#8DD09C"/><stop offset=".442" stop-color="#7CC88B"/><stop offset=".597" stop-color="#6EC17D"/><stop offset="1" stop-color="#528E61"/></radialGradient><radialGradient id="paint8_radial_2569_56093" cx="0" cy="0" r="1" gradientUnits="userSpaceOnUse" gradientTransform="matrix(63.0112 0 0 55.0718 125.083 79.684)"><stop stop-color="#E4FBEF"/><stop offset=".514" stop-color="#C6EAD0"/><stop offset=".976" stop-color="#BEE4C8"/></radialGradient></defs></svg>