<svg width="152" height="152" fill="none" xmlns="http://www.w3.org/2000/svg"><path d="M30.398 93.836v1.14a2.748 2.748 0 002.748 2.749h8.196l.999-5.405-11.943 1.516z" fill="url(#paint0_radial_2054_35323)"/><path d="M43.67 74.85l-2.328-25.041h-8.196a2.748 2.748 0 00-2.748 2.747v41.28h11.34l1.933-18.987z" fill="url(#paint1_radial_2054_35323)"/><path d="M38.594 52.556v42.42a2.748 2.748 0 002.748 2.748h77.509a2.748 2.748 0 002.747-2.748v-42.42a2.747 2.747 0 00-2.747-2.747h-77.51a2.748 2.748 0 00-2.747 2.747z" fill="url(#paint2_radial_2054_35323)"/><path d="M117.93 57.898a4.42 4.42 0 01-4.42-4.42v-.423H46.683v.423a4.42 4.42 0 01-4.42 4.42h-.423v31.737h.423a4.42 4.42 0 014.42 4.42v.424h66.827v-.424a4.42 4.42 0 014.419-4.42h.424V57.899h-.423zm-64.218 20.64a4.672 4.672 0 110-9.344 4.672 4.672 0 010 9.345zm26.385 10.247c-8.295 0-15.018-6.724-15.018-15.018s6.723-15.018 15.018-15.018c8.294 0 15.017 6.723 15.017 15.018 0 8.294-6.724 15.018-15.017 15.018zm26.384-10.246a4.672 4.672 0 110-9.345 4.672 4.672 0 010 9.345z" fill="url(#paint3_radial_2054_35323)"/><path d="M72.664 112.734h4.547c-.742 0-.777-4.106.174-6.929l-9.235 2.309c-.055 2.396 1.843 4.62 4.514 4.62z" fill="url(#paint4_radial_2054_35323)"/><path d="M94.672 73.467h-4.547a4.47 4.47 0 00-3.907 2.255l-17.462 30.244a4.483 4.483 0 00-.608 2.148h9.576c3.499-10.38 15.753-34.647 16.948-34.647z" fill="url(#paint5_radial_2054_35323)"/><path d="M90.768 75.722l-17.462 30.244c-1.736 3.008.435 6.767 3.907 6.767h34.923c3.473 0 5.643-3.759 3.907-6.767L98.582 75.723c-1.737-3.008-6.078-3.008-7.814 0z" fill="url(#paint6_radial_2054_35323)"/><path d="M94.708 101.186a1.31 1.31 0 01-1.299-1.146l-1.737-13.895a3.059 3.059 0 116.07 0l-1.736 13.895a1.307 1.307 0 01-1.298 1.146zm0 6.928a2.31 2.31 0 100-4.62 2.31 2.31 0 000 4.62z" fill="#fff"/><defs><radialGradient id="paint0_radial_2054_35323" cx="0" cy="0" r="1" gradientUnits="userSpaceOnUse" gradientTransform="matrix(13.3168 0 0 5.57974 33.983 92.351)"><stop stop-color="#BEE4C8"/><stop offset=".665" stop-color="#93D3A2"/><stop offset=".96" stop-color="#83CC91"/><stop offset="1" stop-color="#80CB8E"/></radialGradient><radialGradient id="paint1_radial_2054_35323" cx="0" cy="0" r="1" gradientUnits="userSpaceOnUse" gradientTransform="matrix(34.4588 0 0 40.0411 27.227 58.416)"><stop stop-color="#E4FBEF"/><stop offset=".514" stop-color="#C6EAD0"/><stop offset=".976" stop-color="#BEE4C8"/></radialGradient><radialGradient id="paint2_radial_2054_35323" cx="0" cy="0" r="1" gradientUnits="userSpaceOnUse" gradientTransform="matrix(78.3428 0 0 58.052 110.384 89.198)"><stop stop-color="#93D3A2"/><stop offset=".189" stop-color="#8DD09C"/><stop offset=".442" stop-color="#7CC88B"/><stop offset=".597" stop-color="#6EC17D"/><stop offset="1" stop-color="#528E61"/></radialGradient><radialGradient id="paint3_radial_2054_35323" cx="0" cy="0" r="1" gradientUnits="userSpaceOnUse" gradientTransform="matrix(72.742 0 0 63.5765 110.841 86.607)"><stop stop-color="#E4FBEF"/><stop offset=".514" stop-color="#C6EAD0"/><stop offset=".976" stop-color="#BEE4C8"/></radialGradient><radialGradient id="paint4_radial_2054_35323" cx="0" cy="0" r="1" gradientUnits="userSpaceOnUse" gradientTransform="matrix(14.9218 0 0 6.58053 72.063 105.854)"><stop stop-color="#FF9AA2"/><stop offset=".43" stop-color="#FF8188"/><stop offset="1" stop-color="#FF4555"/></radialGradient><radialGradient id="paint5_radial_2054_35323" cx="0" cy="0" r="1" gradientUnits="userSpaceOnUse" gradientTransform="translate(83.628 73.673) scale(34.1314)"><stop stop-color="#FFD6D6"/><stop offset=".535" stop-color="#FFB3BD"/><stop offset=".56" stop-color="#FFB1BB"/><stop offset=".973" stop-color="#FF8B99"/></radialGradient><radialGradient id="paint6_radial_2054_35323" cx="0" cy="0" r="1" gradientUnits="userSpaceOnUse" gradientTransform="matrix(-100.52 0 0 -70.2986 115.958 115.631)"><stop stop-color="#FF6470"/><stop offset=".504" stop-color="#FF4555"/><stop offset=".629" stop-color="#EF3A4B"/><stop offset=".942" stop-color="#C92136"/></radialGradient></defs></svg>