<svg width="152" height="152" fill="none" xmlns="http://www.w3.org/2000/svg"><path d="M50.665 92.54l-20.267 17.077v.488c0 1.129.916 2.045 2.046 2.045h15.2c-.192 0 3.148-18.03 3.021-19.61z" fill="url(#paint0_radial_2054_35263)"/><path d="M47.644 64.748h-15.2c-1.13 0-2.046.916-2.046 2.046v42.822h16.767c-.618-7.703-.458-44.868.48-44.868z" fill="url(#paint1_radial_2054_35263)"/><path d="M63.819 112.15c1.13 0 2.046-.916 2.046-2.046v-43.31c0-1.13-.916-2.046-2.046-2.046H47.644c-1.13 0-2.046.916-2.046 2.046v43.31c0 1.13.916 2.046 2.046 2.046h16.175z" fill="url(#paint2_radial_2054_35263)"/><path d="M62.318 107.59h-11.4V93.91l11.4-23.918v37.598z" fill="url(#paint3_radial_2054_35263)"/><path d="M62.318 107.59h-11.4V93.91l11.4-23.918v37.598z" fill="#000" fill-opacity=".2"/><path d="M117.059 62.506a4.54 4.54 0 014.54 4.54v36.004a4.54 4.54 0 01-4.54 4.54H96.554c2.507 0 .739-45.084-1.769-45.084h22.274z" fill="url(#paint4_radial_2054_35263)"/><path d="M78.531 34.2c6.04 0 10.938 4.896 10.938 10.936V68.4l-10.104-5.893v-17.37c0-6.04-8.642-10.937-8.642-10.937h7.808z" fill="url(#paint5_radial_2054_35263)"/><path d="M96.552 62.506H81.66v-17.37c0-6.04-4.897-10.937-10.937-10.937L61.34 69.517H50.918v31.725h13.826c3.713 3.908 8.955 6.348 14.77 6.348h17.038a4.54 4.54 0 004.541-4.54V67.046a4.54 4.54 0 00-4.54-4.54z" fill="url(#paint6_radial_2054_35263)"/><defs><radialGradient id="paint0_radial_2054_35263" cx="0" cy="0" r="1" gradientUnits="userSpaceOnUse" gradientTransform="matrix(22.6027 0 0 20.248 36.482 92.65)"><stop stop-color="#BEE4C8"/><stop offset=".665" stop-color="#93D3A2"/><stop offset=".96" stop-color="#83CC91"/><stop offset="1" stop-color="#80CB8E"/></radialGradient><radialGradient id="paint1_radial_2054_35263" cx="0" cy="0" r="1" gradientUnits="userSpaceOnUse" gradientTransform="matrix(44.7755 0 0 40.8066 26.278 73.52)"><stop stop-color="#E4FBEF"/><stop offset=".514" stop-color="#C6EAD0"/><stop offset=".976" stop-color="#BEE4C8"/></radialGradient><radialGradient id="paint2_radial_2054_35263" cx="0" cy="0" r="1" gradientUnits="userSpaceOnUse" gradientTransform="matrix(19.1286 0 0 57.4298 63.126 103.715)"><stop stop-color="#93D3A2"/><stop offset=".189" stop-color="#8DD09C"/><stop offset=".442" stop-color="#7CC88B"/><stop offset=".597" stop-color="#6EC17D"/><stop offset="1" stop-color="#528E61"/></radialGradient><radialGradient id="paint3_radial_2054_35263" cx="0" cy="0" r="1" gradientUnits="userSpaceOnUse" gradientTransform="matrix(10.7597 0 0 45.5518 60.778 100.9)"><stop stop-color="#93D3A2"/><stop offset=".189" stop-color="#8DD09C"/><stop offset=".442" stop-color="#7CC88B"/><stop offset=".597" stop-color="#6EC17D"/><stop offset="1" stop-color="#528E61"/></radialGradient><radialGradient id="paint4_radial_2054_35263" cx="0" cy="0" r="1" gradientUnits="userSpaceOnUse" gradientTransform="matrix(0 37.2098 -22.4375 0 119.53 83.026)"><stop stop-color="#FFAB56"/><stop offset=".512" stop-color="#FF982A"/><stop offset=".598" stop-color="#FF8F2A"/><stop offset=".976" stop-color="#FF6927"/></radialGradient><radialGradient id="paint5_radial_2054_35263" cx="0" cy="0" r="1" gradientUnits="userSpaceOnUse" gradientTransform="translate(99.36 44.499) scale(29.288)"><stop stop-color="#FFAB56"/><stop offset=".512" stop-color="#FF982A"/><stop offset=".598" stop-color="#FF8F2A"/><stop offset=".976" stop-color="#FF6927"/></radialGradient><radialGradient id="paint6_radial_2054_35263" cx="0" cy="0" r="1" gradientUnits="userSpaceOnUse" gradientTransform="translate(85.38 52.453) scale(50.9119)"><stop stop-color="#FFF9E2"/><stop offset=".535" stop-color="#FFE4CB"/><stop offset=".623" stop-color="#FFDFC1"/><stop offset=".973" stop-color="#FFCB9B"/></radialGradient></defs></svg>