<svg width="152" height="152" fill="none" xmlns="http://www.w3.org/2000/svg"><path d="M69.158 34.98h13.68c-14.328 0-19.065 34.73-14.213 57.697l5.093-.697c.652 2.29 1.161 4.714 1.655 7.063 1.486 7.07 2.828 13.457 7.465 13.457h-13.68c-12.741 0-24.047-6.148-31.112-15.639a38.587 38.587 0 01-7.648-23.12c0-21.407 17.354-38.76 38.76-38.76z" fill="url(#paint0_radial_2054_35295)"/><path d="M82.838 112.5c21.407 0 38.76-17.353 38.76-38.76 0-21.406-17.353-38.76-38.76-38.76-21.406 0-38.76 17.354-38.76 38.76 0 21.407 17.354 38.76 38.76 38.76z" fill="url(#paint1_radial_2054_35295)"/><path d="M82.838 105.685c17.643 0 31.944-14.302 31.944-31.944s-14.301-31.944-31.944-31.944c-17.642 0-31.943 14.302-31.943 31.944s14.301 31.944 31.943 31.944z" fill="url(#paint2_radial_2054_35295)"/><path d="M85.119 73.716h-4.56v-25.08a2.28 2.28 0 014.56 0v25.08z" fill="url(#paint3_linear_2054_35295)"/><path d="M82.813 72.602v2.28h-27.36v-2.28h27.36z" fill="url(#paint4_radial_2054_35295)"/><path d="M87.422 73.74a4.584 4.584 0 00-4.877-4.575c-2.282.142-4.14 2-4.282 4.283a4.584 4.584 0 004.575 4.876l9.084 9.084a3.241 3.241 0 004.584-4.584l-9.084-9.084z" fill="url(#paint5_radial_2054_35295)"/><path d="M82.839 76.045a2.304 2.304 0 100-4.607 2.304 2.304 0 000 4.607z" fill="url(#paint6_radial_2054_35295)"/><defs><radialGradient id="paint0_radial_2054_35295" cx="0" cy="0" r="1" gradientUnits="userSpaceOnUse" gradientTransform="matrix(136.15 0 0 70.5023 17.869 50.137)"><stop stop-color="#E4FBEF"/><stop offset=".514" stop-color="#C6EAD0"/><stop offset=".976" stop-color="#BEE4C8"/></radialGradient><radialGradient id="paint1_radial_2054_35295" cx="0" cy="0" r="1" gradientUnits="userSpaceOnUse" gradientTransform="matrix(73.1662 0 0 93.9191 111.124 98.707)"><stop stop-color="#A4DAB1"/><stop offset=".189" stop-color="#96D4A4"/><stop offset=".442" stop-color="#7CC88B"/><stop offset=".597" stop-color="#6EC17D"/><stop offset="1" stop-color="#58B16E"/></radialGradient><radialGradient id="paint2_radial_2054_35295" cx="0" cy="0" r="1" gradientUnits="userSpaceOnUse" gradientTransform="matrix(32.9333 0 0 31.6667 82.332 73.466)"><stop stop-color="#E4FBEF"/><stop offset=".901" stop-color="#C6EAD0"/><stop offset=".976" stop-color="#BEE4C8"/></radialGradient><radialGradient id="paint4_radial_2054_35295" cx="0" cy="0" r="1" gradientUnits="userSpaceOnUse" gradientTransform="matrix(0 1.88178 -22.8945 0 80.702 73.64)"><stop stop-color="#FFAB56"/><stop offset=".512" stop-color="#FF982A"/><stop offset=".598" stop-color="#FF8F2A"/><stop offset=".976" stop-color="#FF6927"/></radialGradient><radialGradient id="paint5_radial_2054_35295" cx="0" cy="0" r="1" gradientUnits="userSpaceOnUse" gradientTransform="matrix(15.8333 -20.26666 82.7883 64.67828 82.964 74.098)"><stop stop-color="#8DD09C"/><stop offset="1" stop-color="#8BBC97"/></radialGradient><radialGradient id="paint6_radial_2054_35295" cx="0" cy="0" r="1" gradientUnits="userSpaceOnUse" gradientTransform="rotate(-90 78.018 -4.309) scale(2.18654)"><stop stop-color="#8DD09C"/><stop offset="1" stop-color="#528E61"/></radialGradient><linearGradient id="paint3_linear_2054_35295" x1="82.332" y1="72.831" x2="82.332" y2="46.864" gradientUnits="userSpaceOnUse"><stop stop-color="#47AD5E"/><stop offset="1" stop-color="#528E61"/></linearGradient></defs></svg>