<svg width="153" height="152" fill="none" xmlns="http://www.w3.org/2000/svg"><path d="M35.656 54.338C42.358 42.754 54.883 34.96 69.23 34.96h13.68c-14.346 0-25.218 11.216-31.92 22.8l-2.676-.598c-1.935 7.797-1.935 25.319 0 33.115l2.676-.597c6.702 11.584 17.574 22.8 31.92 22.8H69.23c-14.346 0-26.87-7.793-33.573-19.377A38.582 38.582 0 0130.47 73.72a38.581 38.581 0 015.187-19.383z" fill="url(#paint0_radial_2054_35282)"/><path d="M92.026 73.722a22.7 22.7 0 01-3.05 11.402c-3.943 6.814-11.31 11.398-19.75 11.398l13.68 2.28c8.44 0 19.428-9.146 23.371-15.96l-2.622.346a22.724 22.724 0 002.052-9.466c0-4.153-.34-11.466-2.28-14.82l-14.452 3.419a22.695 22.695 0 013.052 11.401z" fill="url(#paint1_radial_2054_35282)"/><path d="M69.227 50.92c8.438 0 15.806 4.585 19.748 11.399h13.68c-3.942-6.814-11.31-13.678-19.748-13.678l-13.68 2.28z" fill="url(#paint2_radial_2054_35282)"/><path d="M85.188 41.8l-2.28 9.12c-8.438 0-15.806 4.585-19.748 11.4a22.693 22.693 0 00-3.052 11.4c0 4.155 1.111 8.049 3.052 11.403 3.942 6.814 11.31 11.398 19.748 11.398 8.439 0 15.806-4.584 19.749-11.398a22.69 22.69 0 003.051-11.402 22.69 22.69 0 00-3.051-11.402l7.611-6.838 6.213-1.143a38.582 38.582 0 015.187 19.383 38.581 38.581 0 01-5.187 19.383c-6.702 11.584-19.227 19.377-33.573 19.377-14.345 0-26.87-7.793-33.572-19.377a38.581 38.581 0 01-5.188-19.383 38.581 38.581 0 015.188-19.383C56.038 42.754 68.563 34.96 82.908 34.96l2.28 6.84z" fill="url(#paint3_radial_2054_35282)"/><path d="M102.659 62.32l13.824-7.982C109.781 42.754 97.255 34.96 82.91 34.96v15.96c8.439 0 15.806 4.584 19.749 11.398z" fill="url(#paint4_radial_2054_35282)"/><defs><radialGradient id="paint0_radial_2054_35282" cx="0" cy="0" r="1" gradientUnits="userSpaceOnUse" gradientTransform="matrix(136.15 0 0 70.5023 17.94 50.117)"><stop stop-color="#E4FBEF"/><stop offset=".514" stop-color="#C6EAD0"/><stop offset=".976" stop-color="#BEE4C8"/></radialGradient><radialGradient id="paint1_radial_2054_35282" cx="0" cy="0" r="1" gradientUnits="userSpaceOnUse" gradientTransform="matrix(96.193 0 0 36.288 60.374 66.703)"><stop stop-color="#E4FBEF"/><stop offset=".514" stop-color="#C6EAD0"/><stop offset=".976" stop-color="#BEE4C8"/></radialGradient><radialGradient id="paint2_radial_2054_35282" cx="0" cy="0" r="1" gradientUnits="userSpaceOnUse" gradientTransform="translate(92.329 96.54) scale(33.9925)"><stop stop-color="#FFE3E0"/><stop offset=".43" stop-color="#FFC5C9"/><stop offset="1" stop-color="#FF9AA2"/></radialGradient><radialGradient id="paint3_radial_2054_35282" cx="0" cy="0" r="1" gradientUnits="userSpaceOnUse" gradientTransform="matrix(73.1661 0 0 93.9191 111.195 98.687)"><stop stop-color="#A4DAB1"/><stop offset=".189" stop-color="#96D4A4"/><stop offset=".442" stop-color="#7CC88B"/><stop offset=".597" stop-color="#6EC17D"/><stop offset="1" stop-color="#58B16E"/></radialGradient><radialGradient id="paint4_radial_2054_35282" cx="0" cy="0" r="1" gradientUnits="userSpaceOnUse" gradientTransform="matrix(-76.7697 0 0 -48.9791 115.951 64.338)"><stop stop-color="#FF6470"/><stop offset=".504" stop-color="#FF4555"/><stop offset=".629" stop-color="#EF3A4B"/><stop offset=".942" stop-color="#C92136"/></radialGradient></defs></svg>