<svg width="192" height="192" fill="none" xmlns="http://www.w3.org/2000/svg"><path d="M60.003 158.4l-28.8-72h14.4l28.8 72h-14.4z" fill="url(#paint0_radial_2435_46091)"/><path d="M31.203 86.4a230.843 230.843 0 0034.865-73.436L69.603 0h14.4l-3.535 12.964A230.837 230.837 0 0145.603 86.4h-14.4z" fill="url(#paint1_radial_2435_46091)"/><path d="M88.805 96c7.953 0 14.4-6.447 14.4-14.4h14.4c0 7.953-6.447 14.4-14.4 14.4h-14.4z" fill="url(#paint2_radial_2435_46091)"/><path d="M103.202 81.6c0-6.269-4.008-11.6-9.6-13.577l19.2-5.623c5.592 1.977 4.8 12.931 4.8 19.2h-14.4z" fill="url(#paint3_radial_2435_46091)"/><path d="M93.602 0h14.4v68.023h-14.4V0z" fill="url(#paint4_radial_2435_46091)"/><path d="M160.802 86.4a230.825 230.825 0 01-34.865-73.436L122.402 0h-14.4v68.023c5.592 1.977 9.6 7.308 9.6 13.577 0 7.953-6.447 14.4-14.4 14.4s-14.4-6.447-14.4-14.4c0-6.27 4.007-11.6 9.6-13.577V0h-14.4l-3.536 12.964A230.84 230.84 0 0145.602 86.4l28.8 72h57.6l28.8-72z" fill="url(#paint5_radial_2435_46091)"/><path d="M45.602 182.4h28.8l4.8-9.6-4.8-14.4h-28.8v24z" fill="url(#paint6_radial_2435_46091)"/><path d="M74.406 158.4h76.8v24h-76.8v-24z" fill="url(#paint7_radial_2435_46091)"/><g filter="url(#filter0_i_2435_46091)"><path d="M50.62 18.587l-15.986-2.445L27.468.856c-.535-1.141-2.405-1.141-2.94 0l-7.163 15.286-15.987 2.445A1.624 1.624 0 00.041 20.56c.067.292.212.56.42.773l11.615 11.922L9.33 50.11a1.63 1.63 0 001.516 1.886c.304.017.607-.052.874-.2L26 43.892l14.278 7.905a1.623 1.623 0 002.39-1.686l-2.745-16.855 11.613-11.922a1.63 1.63 0 00-.916-2.747z" fill="#F1F1F1" fill-opacity=".1"/><path d="M50.62 18.587l-15.986-2.445L27.468.856c-.535-1.141-2.405-1.141-2.94 0l-7.163 15.286-15.987 2.445A1.624 1.624 0 00.041 20.56c.067.292.212.56.42.773l11.615 11.922L9.33 50.11a1.63 1.63 0 001.516 1.886c.304.017.607-.052.874-.2L26 43.892l14.278 7.905a1.623 1.623 0 002.39-1.686l-2.745-16.855 11.613-11.922a1.63 1.63 0 00-.916-2.747z" fill="url(#paint8_radial_2435_46091)"/></g><path d="M50.544 19.081h0a1.123 1.123 0 01.898.758 1.13 1.13 0 01-.263 1.146h0L39.564 32.907l-.176.181.04.249 2.745 16.854s0 0 0 0a1.13 1.13 0 01-.462 1.103l.288.409-.288-.409a1.124 1.124 0 01-1.192.066s0 0 0 0L26.24 43.454 26 43.32l-.242.134-14.279 7.903a1.123 1.123 0 01-1.58-.55 1.13 1.13 0 01-.074-.618l2.745-16.854.04-.25-.175-.18L.82 20.983a1.128 1.128 0 01.634-1.902s0 0 0 0l15.986-2.445.264-.04.113-.242 7.164-15.286C25.146.716 25.539.5 25.998.5c.46 0 .852.216 1.017.568 0 0 0 0 0 0l7.166 15.286.113.242.264.04 15.986 2.445z" stroke="url(#paint9_linear_2435_46091)" stroke-opacity=".1"/><path d="M174.617 125a20.77 20.77 0 11-41.539-.004 20.77 20.77 0 0141.539.004z" fill="url(#paint10_radial_2435_46091)"/><path style="mix-blend-mode:lighten" opacity=".5" d="M152.753 125a9.838 9.838 0 11-19.676-.001 9.838 9.838 0 0119.676.001z" fill="url(#paint11_radial_2435_46091)"/><path style="mix-blend-mode:lighten" opacity=".5" d="M171.576 117.896a8.317 8.317 0 01-5.137 7.684 8.317 8.317 0 01-10.868-10.871 8.32 8.32 0 0116.005 3.187z" fill="url(#paint12_radial_2435_46091)"/><defs><radialGradient id="paint0_radial_2435_46091" cx="0" cy="0" r="1" gradientUnits="userSpaceOnUse" gradientTransform="translate(41.372 124.558) scale(45.6109)"><stop stop-color="#FFF6AB"/><stop offset=".518" stop-color="#FFF485"/><stop offset=".833" stop-color="#FFED26"/><stop offset=".976" stop-color="#FFEA00"/></radialGradient><radialGradient id="paint1_radial_2435_46091" cx="0" cy="0" r="1" gradientUnits="userSpaceOnUse" gradientTransform="translate(50.425 42.922) scale(65.772)"><stop stop-color="#FFF9E2"/><stop offset=".514" stop-color="#FFFACD"/><stop offset=".976" stop-color="#FFF6AB"/></radialGradient><radialGradient id="paint2_radial_2435_46091" cx="0" cy="0" r="1" gradientUnits="userSpaceOnUse" gradientTransform="matrix(22.9943 0 0 22.9942 101.25 104.704)"><stop stop-color="#FFF9E2"/><stop offset=".514" stop-color="#FFFACD"/><stop offset=".976" stop-color="#FFF6AB"/></radialGradient><radialGradient id="paint3_radial_2435_46091" cx="0" cy="0" r="1" gradientUnits="userSpaceOnUse" gradientTransform="matrix(14.3542 0 0 14.3543 109.214 80.92)"><stop stop-color="#FFF6AB"/><stop offset=".518" stop-color="#FFF485"/><stop offset=".833" stop-color="#FFED26"/><stop offset=".976" stop-color="#FFEA00"/></radialGradient><radialGradient id="paint4_radial_2435_46091" cx="0" cy="0" r="1" gradientUnits="userSpaceOnUse" gradientTransform="matrix(62.7322 0 0 62.7323 98.468 7.505)"><stop stop-color="#FFF9E2"/><stop offset=".514" stop-color="#FFFACD"/><stop offset=".976" stop-color="#FFF6AB"/></radialGradient><radialGradient id="paint5_radial_2435_46091" cx="0" cy="0" r="1" gradientUnits="userSpaceOnUse" gradientTransform="translate(155.406 85.17) scale(117.665)"><stop stop-color="#FFF044"/><stop offset=".512" stop-color="#FFEA00"/><stop offset=".686" stop-color="#FBD113"/><stop offset=".976" stop-color="#F6AB31"/></radialGradient><radialGradient id="paint6_radial_2435_46091" cx="0" cy="0" r="1" gradientUnits="userSpaceOnUse" gradientTransform="matrix(15.6708 0 0 17.6199 58.823 184.261)"><stop stop-color="#BEE4C8"/><stop offset=".665" stop-color="#93D3A2"/><stop offset=".96" stop-color="#83CC91"/><stop offset="1" stop-color="#80CB8E"/></radialGradient><radialGradient id="paint7_radial_2435_46091" cx="0" cy="0" r="1" gradientUnits="userSpaceOnUse" gradientTransform="matrix(72.4866 0 0 29.0771 140.83 178.13)"><stop stop-color="#93D3A2"/><stop offset=".189" stop-color="#8DD09C"/><stop offset=".442" stop-color="#7CC88B"/><stop offset=".597" stop-color="#6EC17D"/><stop offset="1" stop-color="#528E61"/></radialGradient><radialGradient id="paint8_radial_2435_46091" cx="0" cy="0" r="1" gradientUnits="userSpaceOnUse" gradientTransform="matrix(-30.45722 -25.96332 82.50497 -96.78547 52 54.5)"><stop stop-color="#D5E1B4"/><stop offset="1" stop-color="#CCE6DB"/></radialGradient><radialGradient id="paint10_radial_2435_46091" cx="0" cy="0" r="1" gradientUnits="userSpaceOnUse" gradientTransform="translate(153.847 117.469) scale(30.3416)"><stop stop-color="#fff"/><stop offset=".27" stop-color="#FCFCFC"/><stop offset=".48" stop-color="#F2F2F2"/><stop offset=".68" stop-color="#E0E0E0"/><stop offset=".87" stop-color="#C9C9C9"/><stop offset="1" stop-color="#B4B4B4"/></radialGradient><radialGradient id="paint11_radial_2435_46091" cx="0" cy="0" r="1" gradientUnits="userSpaceOnUse" gradientTransform="translate(142.916 121.433) scale(14.3725)"><stop stop-color="#fff"/><stop offset=".27" stop-color="#FCFCFC"/><stop offset=".48" stop-color="#F2F2F2"/><stop offset=".68" stop-color="#E0E0E0"/><stop offset=".87" stop-color="#C9C9C9"/><stop offset="1" stop-color="#B4B4B4"/></radialGradient><radialGradient id="paint12_radial_2435_46091" cx="0" cy="0" r="1" gradientUnits="userSpaceOnUse" gradientTransform="translate(163.257 114.88) scale(12.1543)"><stop stop-color="#fff"/><stop offset=".27" stop-color="#FCFCFC"/><stop offset=".48" stop-color="#F2F2F2"/><stop offset=".68" stop-color="#E0E0E0"/><stop offset=".87" stop-color="#C9C9C9"/><stop offset="1" stop-color="#B4B4B4"/></radialGradient><linearGradient id="paint9_linear_2435_46091" x1="46.972" y1="46.888" x2="57.328" y2="46.888" gradientUnits="userSpaceOnUse"><stop stop-color="#8BA7BE"/><stop offset="1" stop-color="#BBC5CD"/></linearGradient><filter id="filter0_i_2435_46091" x="0" y="0" width="52" height="52.5" filterUnits="userSpaceOnUse" color-interpolation-filters="sRGB"><feFlood flood-opacity="0" result="BackgroundImageFix"/><feBlend in="SourceGraphic" in2="BackgroundImageFix" result="shape"/><feColorMatrix in="SourceAlpha" values="0 0 0 0 0 0 0 0 0 0 0 0 0 0 0 0 0 0 127 0" result="hardAlpha"/><feOffset dy=".5"/><feGaussianBlur stdDeviation="1"/><feComposite in2="hardAlpha" operator="arithmetic" k2="-1" k3="1"/><feColorMatrix values="0 0 0 0 1 0 0 0 0 1 0 0 0 0 1 0 0 0 0.4 0"/><feBlend in2="shape" result="effect1_innerShadow_2435_46091"/></filter></defs></svg>