<svg width="82" height="27" fill="none" xmlns="http://www.w3.org/2000/svg"><path d="M35.041 13.877c0 3.756-2.938 6.524-6.544 6.524-3.606 0-6.544-2.768-6.544-6.524 0-3.782 2.938-6.523 6.544-6.523 3.606 0 6.544 2.74 6.544 6.523zm-2.864 0c0-2.347-1.703-3.953-3.68-3.953-1.976 0-3.68 1.606-3.68 3.953 0 2.324 1.704 3.953 3.68 3.953 1.977 0 3.68-1.632 3.68-3.953z" fill="#EA4335"/><path d="M49.158 13.877c0 3.756-2.938 6.524-6.544 6.524-3.605 0-6.544-2.768-6.544-6.524 0-3.78 2.938-6.523 6.544-6.523 3.606 0 6.544 2.74 6.544 6.523zm-2.864 0c0-2.347-1.703-3.953-3.68-3.953-1.976 0-3.679 1.606-3.679 3.953 0 2.324 1.703 3.953 3.68 3.953 1.976 0 3.679-1.632 3.679-3.953z" fill="#FBBC05"/><path d="M62.693 7.748v11.711c0 4.818-2.84 6.786-6.2 6.786-3.161 0-5.064-2.115-5.782-3.844l2.494-1.039c.444 1.062 1.532 2.315 3.285 2.315 2.15 0 3.483-1.326 3.483-3.823v-.939h-.1c-.641.791-1.877 1.483-3.435 1.483-3.262 0-6.25-2.841-6.25-6.497 0-3.683 2.988-6.547 6.25-6.547 1.555 0 2.79.69 3.435 1.458h.1V7.751h2.72v-.003zM60.176 13.9c0-2.297-1.533-3.977-3.483-3.977-1.976 0-3.632 1.68-3.632 3.977 0 2.273 1.656 3.929 3.632 3.929 1.95 0 3.483-1.656 3.483-3.93z" fill="#4285F4"/><path d="M67.177.883V20h-2.794V.883h2.794z" fill="#34A853"/><path d="M78.068 16.023l2.224 1.483c-.718 1.061-2.447 2.89-5.436 2.89-3.706 0-6.473-2.864-6.473-6.523 0-3.88 2.791-6.523 6.153-6.523 3.385 0 5.04 2.694 5.582 4.15l.297.74-8.72 3.613c.667 1.308 1.706 1.976 3.161 1.976 1.46 0 2.47-.718 3.212-1.806zm-6.844-2.347l5.83-2.42c-.321-.815-1.286-1.383-2.421-1.383-1.456 0-3.483 1.285-3.409 3.803z" fill="#EA4335"/><path d="M11.383 12.18V9.412h9.326c.092.483.139 1.053.139 1.67 0 2.077-.568 4.645-2.397 6.474-1.78 1.853-4.053 2.841-7.065 2.841-5.583 0-10.277-4.547-10.277-10.129S5.803.138 11.386.138c3.088 0 5.288 1.212 6.941 2.792l-1.953 1.953c-1.185-1.112-2.791-1.977-4.991-1.977-4.077 0-7.265 3.286-7.265 7.362 0 4.077 3.188 7.362 7.265 7.362 2.644 0 4.15-1.062 5.115-2.027.782-.782 1.297-1.9 1.5-3.426l-6.615.003z" fill="#4285F4"/></svg>