<svg width="135" height="135" fill="none" xmlns="http://www.w3.org/2000/svg"><g clip-path="url(#clip0_2059_28514)"><path d="M105.539 35.592v85.669h7.763l3.178-18.021-.472-69.537-10.469 1.89z" fill="url(#paint0_radial_2059_28514)"/><path d="M78.122 58.852H70.36v17.302l10.941 3.35-3.178-20.652z" fill="url(#paint1_radial_2059_28514)"/><path d="M42.943 32.484H35.18v22.564l10.94 3.804-3.177-26.368z" fill="url(#paint2_radial_2059_28514)"/><path d="M7.763 85.219H0V99.94l10.941 3.299-3.178-18.021z" fill="url(#paint3_radial_2059_28514)"/><path d="M35.18 55.047v66.212h7.763l3.178-18.021-2.165-48.191H35.18z" fill="url(#paint4_radial_2059_28514)"/><path d="M0 99.941v21.32h7.763l3.178-18.021-.582-3.299H0z" fill="url(#paint5_radial_2059_28514)"/><path d="M70.36 76.154v45.107h7.762L81.3 103.24l-1.939-27.086H70.36z" fill="url(#paint6_radial_2059_28514)"/><path d="M113.302 6.117h-7.763v29.475h8.727l-.964-29.475z" fill="url(#paint7_radial_2059_28514)"/><path d="M64.64 32.484H42.942v22.564l11.924 3.804 9.776-3.804V32.484z" fill="url(#paint8_radial_2059_28514)"/><path d="M99.82 58.852H78.121v17.302l10.85 4.356 10.85-4.356V58.852z" fill="url(#paint9_radial_2059_28514)"/><path d="M135 6.117h-21.699v29.475l10.85 4.492L135 35.592V6.117z" fill="url(#paint10_radial_2059_28514)"/><path d="M7.766 99.94v21.32h21.699V99.94l-10.85-2.512-10.85 2.512z" fill="url(#paint11_radial_2059_28514)"/><path d="M7.766 85.219h21.699V99.94h-21.7V85.219z" fill="url(#paint12_radial_2059_28514)"/><path d="M42.941 55.047h21.7v66.212h-21.7V55.047z" fill="url(#paint13_radial_2059_28514)"/><path d="M78.121 76.154h21.7v45.106h-21.7V76.154z" fill="url(#paint14_radial_2059_28514)"/><path d="M113.301 35.596H135v85.668h-21.699V35.596z" fill="url(#paint15_radial_2059_28514)"/></g><defs><radialGradient id="paint0_radial_2059_28514" cx="0" cy="0" r="1" gradientUnits="userSpaceOnUse" gradientTransform="matrix(28.4063 0 0 79.6311 102.925 50.822)"><stop stop-color="#E4FBEF"/><stop offset=".514" stop-color="#C6EAD0"/><stop offset=".976" stop-color="#BEE4C8"/></radialGradient><radialGradient id="paint1_radial_2059_28514" cx="0" cy="0" r="1" gradientUnits="userSpaceOnUse" gradientTransform="matrix(0 44.4727 -31.887 0 68.046 74.481)"><stop stop-color="#FBE2DD"/><stop offset=".514" stop-color="#EAB1B7"/><stop offset="1" stop-color="#E4989D"/></radialGradient><radialGradient id="paint2_radial_2059_28514" cx="0" cy="0" r="1" gradientUnits="userSpaceOnUse" gradientTransform="matrix(21.66 0 0 20.8801 37.351 36.704)"><stop stop-color="#FFF9E2"/><stop offset=".535" stop-color="#FFE4CB"/><stop offset=".623" stop-color="#FFDFC1"/><stop offset=".973" stop-color="#FFCB9B"/></radialGradient><radialGradient id="paint3_radial_2059_28514" cx="0" cy="0" r="1" gradientUnits="userSpaceOnUse" gradientTransform="matrix(28.4063 0 0 16.3895 -2.614 88.742)"><stop stop-color="#E4FBEF"/><stop offset=".514" stop-color="#C6EAD0"/><stop offset=".976" stop-color="#BEE4C8"/></radialGradient><radialGradient id="paint4_radial_2059_28514" cx="0" cy="0" r="1" gradientUnits="userSpaceOnUse" gradientTransform="matrix(28.4056 0 0 60.2184 32.566 67.992)"><stop stop-color="#E4FBEF"/><stop offset=".514" stop-color="#C6EAD0"/><stop offset=".976" stop-color="#BEE4C8"/></radialGradient><radialGradient id="paint5_radial_2059_28514" cx="0" cy="0" r="1" gradientUnits="userSpaceOnUse" gradientTransform="matrix(0 22.4801 -16.1183 0 -1.915 92.782)"><stop stop-color="#FBE2DD"/><stop offset=".514" stop-color="#EAB1B7"/><stop offset="1" stop-color="#E4989D"/></radialGradient><radialGradient id="paint6_radial_2059_28514" cx="0" cy="0" r="1" gradientUnits="userSpaceOnUse" gradientTransform="matrix(21.6605 0 0 35.7197 72.531 83.373)"><stop stop-color="#FFF9E2"/><stop offset=".535" stop-color="#FFE4CB"/><stop offset=".623" stop-color="#FFDFC1"/><stop offset=".973" stop-color="#FFCB9B"/></radialGradient><radialGradient id="paint7_radial_2059_28514" cx="0" cy="0" r="1" gradientUnits="userSpaceOnUse" gradientTransform="matrix(0 63.47 -25.435 0 103.694 28.423)"><stop stop-color="#FBE2DD"/><stop offset=".514" stop-color="#EAB1B7"/><stop offset="1" stop-color="#E4989D"/></radialGradient><radialGradient id="paint8_radial_2059_28514" cx="0" cy="0" r="1" gradientUnits="userSpaceOnUse" gradientTransform="matrix(23.8777 0 0 23.4876 63.918 40.46)"><stop stop-color="#FFAB56"/><stop offset=".512" stop-color="#FF982A"/><stop offset=".598" stop-color="#FF8F2A"/><stop offset=".976" stop-color="#FF6927"/></radialGradient><radialGradient id="paint9_radial_2059_28514" cx="0" cy="0" r="1" gradientUnits="userSpaceOnUse" gradientTransform="matrix(-48.8197 0 0 -91.8786 98.698 88.467)"><stop offset=".099" stop-color="#DD636E"/><stop offset=".539" stop-color="#D82E3D"/><stop offset="1" stop-color="#8E2E2E"/></radialGradient><radialGradient id="paint10_radial_2059_28514" cx="0" cy="0" r="1" gradientUnits="userSpaceOnUse" gradientTransform="matrix(-48.8202 0 0 -144.095 133.878 52.564)"><stop offset=".099" stop-color="#DD636E"/><stop offset=".539" stop-color="#D82E3D"/><stop offset="1" stop-color="#8E2E2E"/></radialGradient><radialGradient id="paint11_radial_2059_28514" cx="0" cy="0" r="1" gradientUnits="userSpaceOnUse" gradientTransform="matrix(-25.3307 0 0 -47.6724 28.343 96.218)"><stop offset=".099" stop-color="#DD636E"/><stop offset=".539" stop-color="#D82E3D"/><stop offset="1" stop-color="#8E2E2E"/></radialGradient><radialGradient id="paint12_radial_2059_28514" cx="0" cy="0" r="1" gradientUnits="userSpaceOnUse" gradientTransform="matrix(20.4807 0 0 17.8362 26.533 97.321)"><stop stop-color="#93D3A2"/><stop offset=".189" stop-color="#8DD09C"/><stop offset=".442" stop-color="#7CC88B"/><stop offset=".597" stop-color="#6EC17D"/><stop offset="1" stop-color="#528E61"/></radialGradient><radialGradient id="paint13_radial_2059_28514" cx="0" cy="0" r="1" gradientUnits="userSpaceOnUse" gradientTransform="matrix(20.4807 0 0 80.2192 61.709 109.477)"><stop stop-color="#93D3A2"/><stop offset=".189" stop-color="#8DD09C"/><stop offset=".442" stop-color="#7CC88B"/><stop offset=".597" stop-color="#6EC17D"/><stop offset="1" stop-color="#528E61"/></radialGradient><radialGradient id="paint14_radial_2059_28514" cx="0" cy="0" r="1" gradientUnits="userSpaceOnUse" gradientTransform="matrix(23.8777 0 0 40.18 99.097 89.797)"><stop stop-color="#FFAB56"/><stop offset=".512" stop-color="#FF982A"/><stop offset=".598" stop-color="#FF8F2A"/><stop offset=".976" stop-color="#FF6927"/></radialGradient><radialGradient id="paint15_radial_2059_28514" cx="0" cy="0" r="1" gradientUnits="userSpaceOnUse" gradientTransform="matrix(20.4807 0 0 103.791 132.068 106.02)"><stop stop-color="#93D3A2"/><stop offset=".189" stop-color="#8DD09C"/><stop offset=".442" stop-color="#7CC88B"/><stop offset=".597" stop-color="#6EC17D"/><stop offset="1" stop-color="#528E61"/></radialGradient><clipPath id="clip0_2059_28514"><path fill="#fff" d="M0 0h135v135H0z"/></clipPath></defs></svg>