<svg width="80" height="80" fill="none" xmlns="http://www.w3.org/2000/svg"><path d="M15.028 72.147l-11.6-11.663 8.203-3.917 11.6 15.58h-8.203z" fill="url(#paint0_radial_2717_6895)"/><path d="M3.429 19.663L15.029 8h8.201l-3.397 15.579-16.404-3.916z" fill="url(#paint1_radial_2717_6895)"/><path d="M23.728 40.073l-20.3-20.41h20.506l12.303 24.533-12.509-4.123z" fill="url(#paint2_radial_2717_6895)"/><path d="M55.627 72.146l-20.299-20.41 9.112-3.416 19.39 23.826h-8.203z" fill="url(#paint3_radial_2717_6895)"/><path d="M3.429 60.483l20.3-20.41h12.508l-20.505 20.41H3.429z" fill="url(#paint4_radial_2717_6895)"/><path d="M35.328 28.41L55.628 8h8.201L44.44 31.826l-9.11-3.416z" fill="url(#paint5_radial_2717_6895)"/><path d="M75.429 19.663L63.829 8l-20.3 20.41L23.23 8l-11.6 11.663 20.3 20.41-20.3 20.41 11.6 11.663 20.3-20.41 20.299 20.41 11.6-11.663-20.3-20.41 20.3-20.41z" fill="url(#paint6_radial_2717_6895)"/><defs><radialGradient id="paint0_radial_2717_6895" cx="0" cy="0" r="1" gradientUnits="userSpaceOnUse" gradientTransform="matrix(16.2252 0 0 16.3137 6.538 62.878)"><stop stop-color="#FF8B99"/><stop offset=".43" stop-color="#FF7383"/><stop offset="1" stop-color="#FF3650"/></radialGradient><radialGradient id="paint1_radial_2717_6895" cx="0" cy="0" r="1" gradientUnits="userSpaceOnUse" gradientTransform="matrix(16.7984 0 0 16.89 11.378 7.483)"><stop stop-color="#FFD6D6"/><stop offset=".535" stop-color="#FFB3BD"/><stop offset=".56" stop-color="#FFB1BB"/><stop offset=".973" stop-color="#FF8B99"/></radialGradient><radialGradient id="paint2_radial_2717_6895" cx="0" cy="0" r="1" gradientUnits="userSpaceOnUse" gradientTransform="matrix(18.3914 0 0 18.4917 16.851 32.724)"><stop stop-color="#FF8B99"/><stop offset=".43" stop-color="#FF7383"/><stop offset="1" stop-color="#FF3650"/></radialGradient><radialGradient id="paint3_radial_2717_6895" cx="0" cy="0" r="1" gradientUnits="userSpaceOnUse" gradientTransform="matrix(26.6122 0 0 26.7573 57.018 70.109)"><stop stop-color="#FF8B99"/><stop offset=".43" stop-color="#FF7383"/><stop offset="1" stop-color="#FF3650"/></radialGradient><radialGradient id="paint4_radial_2717_6895" cx="0" cy="0" r="1" gradientUnits="userSpaceOnUse" gradientTransform="matrix(16.5556 0 0 16.6458 14.137 50.189)"><stop stop-color="#FFD6D6"/><stop offset=".535" stop-color="#FFB3BD"/><stop offset=".56" stop-color="#FFB1BB"/><stop offset=".973" stop-color="#FF8B99"/></radialGradient><radialGradient id="paint5_radial_2717_6895" cx="0" cy="0" r="1" gradientUnits="userSpaceOnUse" gradientTransform="matrix(21.9293 0 0 22.0488 51.002 8.666)"><stop stop-color="#FFD6D6"/><stop offset=".535" stop-color="#FFB3BD"/><stop offset=".56" stop-color="#FFB1BB"/><stop offset=".973" stop-color="#FF8B99"/></radialGradient><radialGradient id="paint6_radial_2717_6895" cx="0" cy="0" r="1" gradientUnits="userSpaceOnUse" gradientTransform="matrix(52.4833 0 0 52.7694 75.453 41.775)"><stop stop-color="#FF546A"/><stop offset=".529" stop-color="#FF3650"/><stop offset=".661" stop-color="#EB2C59"/><stop offset=".942" stop-color="#C3186C"/></radialGradient></defs></svg>