<svg width="48" height="48" fill="none" xmlns="http://www.w3.org/2000/svg"><path d="M22 12.178v-8.08a19.924 19.924 0 00-11.951 5.584l6.181 5.187A11.95 11.95 0 0122 12.178zm4-8.08v8.08a11.993 11.993 0 019.295 15.928A11.995 11.995 0 0122.9 35.944a11.992 11.992 0 01-4.963-1.608l-5.195 6.19a20 20 0 0030.052-9.689A19.997 19.997 0 0034.54 7.001 20 20 0 0026 4.098zm-14 19.9a11.908 11.908 0 011.663-6.065l-6.19-5.194a19.972 19.972 0 002.212 25.21l5.186-6.182A11.94 11.94 0 0112 23.997z" fill="#E63946"/></svg>