<svg width="12" height="12" fill="none" xmlns="http://www.w3.org/2000/svg"><path d="M1.014 3.51l4.068 2.848c.331.231.496.347.676.392a1 1 0 00.484 0c.18-.045.345-.16.676-.392l4.068-2.848m-9.972 0C1 3.744 1 4.03 1 4.4v3.2c0 .84 0 1.26.163 1.581a1.5 1.5 0 00.656.656c.32.163.74.163 1.581.163h5.2c.84 0 1.26 0 1.581-.163a1.5 1.5 0 00.655-.656C11 8.861 11 8.441 11 7.6V4.4c0-.369 0-.656-.014-.89m-9.972 0c.017-.3.058-.51.15-.691a1.5 1.5 0 01.655-.656C2.139 2 2.559 2 3.4 2h5.2c.84 0 1.26 0 1.581.163a1.5 1.5 0 01.655.656c.092.18.133.391.15.69" stroke="#1F2937" stroke-linecap="square" stroke-linejoin="round"/></svg>