<svg width="80" height="80" fill="none" xmlns="http://www.w3.org/2000/svg"><path d="M32.432 40.005h9v12.001h-9V40.005z" fill="url(#paint0_radial_2706_69277)"/><path d="M41.433 40.005h6v12.001h-6V40.005z" fill="url(#paint1_radial_2706_69277)"/><path d="M30.432 52.006h9s.42 13.408 1.017 20.182l.984-.18c.088.732-.096 1.984-.23 2.893-.094.64-.163 1.108-.095 1.108h-9.002c-.925 0-1.674-.75-1.674-1.675V52.006z" fill="url(#paint2_radial_2706_69277)"/><path fill-rule="evenodd" clip-rule="evenodd" d="M33 0h11.433c-7.506 0-10.155 17.59-7.947 30.004H14.018a20.92 20.92 0 01-2.02-9.002C11.997 9.404 21.4 0 33 0zM14.019 30.004h22.468c1.204 6.77 3.853 12.001 7.946 12.001H33c-8.378 0-15.61-4.905-18.981-12.001z" fill="url(#paint3_radial_2706_69277)"/><path d="M28.43 54.006v-4h9.002l2 2-2 2H28.43z" fill="url(#paint4_radial_2706_69277)"/><path d="M47.76 76.009h-6.652c-.925 0-1.675-.75-1.675-1.675V52.006h10v22.328a1.674 1.674 0 01-1.674 1.675z" fill="url(#paint5_radial_2706_69277)"/><path d="M37.433 50.006h14.001v4H37.433v-4z" fill="url(#paint6_radial_2706_69277)"/><path d="M44.433 42.005c11.6 0 21.003-9.403 21.003-21.003C65.436 9.404 56.033 0 44.433 0S23.431 9.403 23.431 21.003c0 11.599 9.403 21.002 21.002 21.002z" fill="url(#paint7_radial_2706_69277)"/><path d="M44.433 37.995c9.384 0 16.992-7.608 16.992-16.993 0-9.384-7.608-16.992-16.992-16.992-9.385 0-16.993 7.607-16.993 16.992 0 9.385 7.608 16.993 16.993 16.993z" fill="url(#paint8_radial_2706_69277)"/><path d="M44.38 27.003a2.21 2.21 0 01-2.199-1.99l-1.403-14.031a3.62 3.62 0 117.205 0L46.58 25.013a2.21 2.21 0 01-2.2 1.99zm3 5.001a3 3 0 11-6 0 3 3 0 016 0z" fill="#fff"/><defs><radialGradient id="paint0_radial_2706_69277" cx="0" cy="0" r="1" gradientUnits="userSpaceOnUse" gradientTransform="matrix(0 7.68318 -11.544 0 41.987 47.482)"><stop stop-color="#F9F7F8"/><stop offset=".43" stop-color="#E2DEE2"/><stop offset="1" stop-color="#B5ADB6"/></radialGradient><radialGradient id="paint1_radial_2706_69277" cx="0" cy="0" r="1" gradientUnits="userSpaceOnUse" gradientTransform="matrix(0 7.33757 -8.73783 0 48.815 46.29)"><stop offset=".001" stop-color="#B5ADB6"/><stop offset=".43" stop-color="#A79BA7"/><stop offset="1" stop-color="#7A6D79"/></radialGradient><radialGradient id="paint2_radial_2706_69277" cx="0" cy="0" r="1" gradientUnits="userSpaceOnUse" gradientTransform="matrix(28.6224 0 0 21.8304 27.798 56.699)"><stop stop-color="#C2E6C9"/><stop offset=".976" stop-color="#BEE4C8"/></radialGradient><radialGradient id="paint3_radial_2706_69277" cx="0" cy="0" r="1" gradientUnits="userSpaceOnUse" gradientTransform="matrix(26.6721 0 0 26.672 19.114 6.9)"><stop stop-color="#F9F7F8"/><stop offset=".43" stop-color="#E2DEE2"/><stop offset="1" stop-color="#B5ADB6"/></radialGradient><radialGradient id="paint4_radial_2706_69277" cx="0" cy="0" r="1" gradientUnits="userSpaceOnUse" gradientTransform="matrix(28.5628 0 0 3.63833 25.802 50.788)"><stop stop-color="#C2E6C9"/><stop offset=".976" stop-color="#BEE4C8"/></radialGradient><radialGradient id="paint5_radial_2706_69277" cx="0" cy="0" r="1" gradientUnits="userSpaceOnUse" gradientTransform="matrix(9.4395 0 0 29.0806 48.083 71.738)"><stop stop-color="#93D3A2"/><stop offset=".189" stop-color="#8DD09C"/><stop offset=".442" stop-color="#7CC88B"/><stop offset=".597" stop-color="#6EC17D"/><stop offset="1" stop-color="#528E61"/></radialGradient><radialGradient id="paint6_radial_2706_69277" cx="0" cy="0" r="1" gradientUnits="userSpaceOnUse" gradientTransform="matrix(13.2153 0 0 4.84677 49.542 53.294)"><stop stop-color="#93D3A2"/><stop offset=".189" stop-color="#8DD09C"/><stop offset=".442" stop-color="#7CC88B"/><stop offset=".597" stop-color="#6EC17D"/><stop offset="1" stop-color="#528E61"/></radialGradient><radialGradient id="paint7_radial_2706_69277" cx="0" cy="0" r="1" gradientUnits="userSpaceOnUse" gradientTransform="translate(57.547 25.299) scale(39.8597)"><stop stop-color="#F9F7F8"/><stop offset=".43" stop-color="#E2DEE2"/><stop offset="1" stop-color="#B5ADB6"/></radialGradient><radialGradient id="paint8_radial_2706_69277" cx="0" cy="0" r="1" gradientUnits="userSpaceOnUse" gradientTransform="matrix(27.2874 0 0 44.4972 49.67 3.548)"><stop stop-color="#FFAB56"/><stop offset=".512" stop-color="#FF982A"/><stop offset=".598" stop-color="#FF8F2A"/><stop offset=".976" stop-color="#FF6927"/></radialGradient></defs></svg>