<svg width="48" height="48" fill="none" xmlns="http://www.w3.org/2000/svg"><g clip-path="url(#clip0_2550_52966)" fill="#E63946"><path d="M3.84 15.487H0V0h15.487v3.84H3.84v11.647zM48 48H32.513v-3.84H44.16V32.513H48V48zm0-32.513h-3.84V3.84H32.513V0H48v15.487zM15.487 48H0V32.513h3.84V44.16h11.647V48z"/><path d="M40.32 40.321H22.08v-14.4H7.68v-3.84h18.24v14.4h14.4v3.84z"/><path d="M40.32 32.729h-3.84v-6.81h-3.75v6.81h-3.84v-10.65h11.43v10.65zm-21.21-13.62H7.68V7.679h11.43v11.43zm-7.59-3.84h3.75v-3.75h-3.75v3.75zm28.8 3.84H28.89V7.679h11.43v11.43zm-7.59-3.84h3.75v-3.75h-3.75v3.75zm-13.62 25.05H7.68v-11.43h11.43v11.43zm-7.59-3.84h3.75v-3.75h-3.75v3.75zm10.56-28.8h3.84v11.43h-3.84V7.679z"/></g><defs><clipPath id="clip0_2550_52966"><path fill="#fff" d="M0 0h48v48H0z"/></clipPath></defs></svg>