<svg xmlns="http://www.w3.org/2000/svg" width="40" height="40" fill="none"><path d="M31.666 9.927V3.333H8.333v6.594a8.34 8.34 0 001.9 5.298L14.166 20l-3.933 4.775a8.334 8.334 0 00-1.9 5.298v6.594h23.333v-6.594a8.334 8.334 0 00-1.9-5.298L25.833 20l3.933-4.775a8.333 8.333 0 001.9-5.298zm-20-3.26h16.667v3.26c0 .025-.006.049-.006.073H11.673c0-.024-.007-.048-.007-.073v-3.26zm15.527 20.228a5.012 5.012 0 011.14 3.178v3.26H11.666v-3.26a5.012 5.012 0 011.14-3.178l3.934-4.776L18.485 20h3.03l1.745 2.119 3.933 4.776z" fill="#1F2937"/></svg>