<svg width="40" height="40" fill="none" xmlns="http://www.w3.org/2000/svg"><path fill-rule="evenodd" clip-rule="evenodd" d="M6.555 31.076l5.403-1.372-.782 5.02.186-.028.391 1.188c0 .177-.055.368-.105.54-.085.296-.153.533.105.533H7.356a.795.795 0 01-.801-.797v-.719h.004-.004v-4.365z" fill="url(#paint0_radial_2949_71134)"/><path fill-rule="evenodd" clip-rule="evenodd" d="M2.247 6h4.397c-.51 0-.642 14.543-.395 21.294l.86-.252c.05.845-.184 2.16-.344 3.058-.102.574-.173.977-.12.977H2.246A1.247 1.247 0 011 29.831V28.83h.002H1V7.245C1 6.558 1.558 6 2.247 6z" fill="url(#paint1_radial_2949_71134)"/><path d="M37.751 6H6.645c-.688 0-1.247.558-1.247 1.247V29.83c0 .689.559 1.247 1.247 1.247h4.301v5.083a.795.795 0 001.357.563l5.646-5.646h19.802c.689 0 1.247-.558 1.247-1.247V7.246C38.998 6.558 38.44 6 37.75 6z" fill="url(#paint2_radial_2949_71134)"/><path d="M22.089 21.196a2.088 2.088 0 01-2.08-1.906l-.655-7.484a2.745 2.745 0 115.47 0l-.655 7.484a2.088 2.088 0 01-2.08 1.906zm0 1.36a2.408 2.408 0 100 4.816 2.408 2.408 0 000-4.815z" fill="#fff"/><defs><radialGradient id="paint0_radial_2949_71134" cx="0" cy="0" r="1" gradientUnits="userSpaceOnUse" gradientTransform="matrix(5.17738 0 0 4.70127 7.748 30.723)"><stop stop-color="#FFEFB3"/><stop offset=".623" stop-color="#FFD0A3"/><stop offset=".973" stop-color="#FFCB9B"/></radialGradient><radialGradient id="paint1_radial_2949_71134" cx="0" cy="0" r="1" gradientUnits="userSpaceOnUse" gradientTransform="matrix(5.85956 0 0 16.2545 2.35 9.526)"><stop stop-color="#FFF2C2"/><stop offset=".623" stop-color="#FFD8B3"/><stop offset=".973" stop-color="#FFCB9B"/></radialGradient><radialGradient id="paint2_radial_2949_71134" cx="0" cy="0" r="1" gradientUnits="userSpaceOnUse" gradientTransform="matrix(-2.25492 24.95593 -20.18796 -1.8241 31.49 24.784)"><stop stop-color="#FFA447"/><stop offset=".512" stop-color="#FF9729"/><stop offset=".976" stop-color="#FF8A57"/></radialGradient></defs></svg>