<svg width="40" height="40" fill="none" xmlns="http://www.w3.org/2000/svg"><path d="M4.362 35h3.59c-.587 0-.614-3.242.137-5.47L.798 31.352C.754 33.244 2.253 35 4.362 35z" fill="url(#paint0_radial_2949_71121)"/><path d="M21.736 4h-3.59a3.527 3.527 0 00-3.084 1.78L1.277 29.659a3.536 3.536 0 00-.48 1.695h7.56C11.118 23.159 20.792 4 21.736 4z" fill="url(#paint1_radial_2949_71121)"/><path d="M18.65 5.78L4.866 29.659C3.495 32.032 5.208 35 7.95 35h27.57c2.742 0 4.455-2.968 3.085-5.342L24.82 5.78c-1.372-2.375-4.799-2.375-6.17 0z" fill="url(#paint2_radial_2949_71121)"/><path d="M21.767 25.883a1.033 1.033 0 01-1.025-.904l-1.371-10.97a2.415 2.415 0 114.792 0L22.79 24.98a1.033 1.033 0 01-1.024.904zm-.006 5.469a1.824 1.824 0 100-3.647 1.824 1.824 0 000 3.647z" fill="#fff"/><defs><radialGradient id="paint0_radial_2949_71121" cx="0" cy="0" r="1" gradientUnits="userSpaceOnUse" gradientTransform="matrix(11.7804 0 0 5.19516 3.887 29.568)"><stop stop-color="#FF9AA2"/><stop offset=".43" stop-color="#FF8188"/><stop offset="1" stop-color="#FF4555"/></radialGradient><radialGradient id="paint1_radial_2949_71121" cx="0" cy="0" r="1" gradientUnits="userSpaceOnUse" gradientTransform="translate(13.018 4.163) scale(26.9459)"><stop stop-color="#FFD6D6"/><stop offset=".535" stop-color="#FFB3BD"/><stop offset=".56" stop-color="#FFB1BB"/><stop offset=".973" stop-color="#FF8B99"/></radialGradient><radialGradient id="paint2_radial_2949_71121" cx="0" cy="0" r="1" gradientUnits="userSpaceOnUse" gradientTransform="matrix(-79.3576 0 0 -55.4989 38.537 37.287)"><stop stop-color="#FF6470"/><stop offset=".504" stop-color="#FF4555"/><stop offset=".629" stop-color="#EF3A4B"/><stop offset=".942" stop-color="#C92136"/></radialGradient></defs></svg>