<svg width="64" height="64" fill="none" xmlns="http://www.w3.org/2000/svg"><path fill-rule="evenodd" clip-rule="evenodd" d="M17.18 9.83a26.667 26.667 0 1129.63 44.346A26.667 26.667 0 0117.18 9.83zm6.101 25.514v-2.695h2.557v-5.59c0-2.477 0-3.715.482-4.66a4.421 4.421 0 011.932-1.933c.945-.482 2.183-.482 4.66-.482h2.112c.17 0 .415.006.733.017.33.012.688.052 1.074.12 1.33.207 2.443.664 3.34 1.374a6.593 6.593 0 012.046 2.677c.454 1.075.681 2.27.681 3.586 0 1.957-.511 3.61-1.534 4.96-1.022 1.339-2.533 2.168-4.533 2.488-.387.058-.744.098-1.074.12a22.02 22.02 0 01-.733.018h-6.152v2.917h8.044v2.523h-8.044v3.913h-3.034v-3.913H23.28V38.26h2.557v-2.917H23.28zm11.64-2.695h-6.05v-7.407c0-.825 0-1.238.161-1.553.141-.277.367-.503.644-.644.315-.16.728-.16 1.553-.16h3.693c.17 0 .398.005.682.017.295.011.58.057.852.137.784.172 1.42.503 1.909.995a4.4 4.4 0 011.09 1.734c.228.663.341 1.35.341 2.06 0 1.109-.272 2.093-.818 2.95-.545.859-1.386 1.425-2.522 1.7a5.99 5.99 0 01-.852.137 7.946 7.946 0 01-.682.034z" fill="#E63946"/></svg>