<svg width="180" height="160" fill="none" xmlns="http://www.w3.org/2000/svg"><path d="M65.582 75.643c-1.245 0-2.47.198-3.669.03-12.79-1.784-22.636-12.767-22.636-26.05 0-13.283 9.845-24.266 22.636-26.05 1.2-.168 2.424-.119 3.669-.119 14.527 0 24.409 15.202 24.409 26.169 0 10.966-9.882 26.02-24.41 26.02z" fill="url(#paint0_radial_2059_28551)"/><path d="M83.366 49.62c0 12.492-9.258 22.821-21.288 24.5 1.128.157 4.007 3.392 5.177 3.392 13.663 0 23.012-14.23 23.012-27.892l-3.349-2.192-3.552 2.192z" fill="url(#paint1_radial_2059_28551)"/><path d="M90.267 49.622c0-13.662-8.713-27.952-22.376-27.952-1.17 0-4.685 3.295-5.813 3.453 12.03 1.679 21.288 12.008 21.288 24.5h6.9z" fill="url(#paint2_radial_2059_28551)"/><path d="M22.82 49.62c0 18.202 14.755 32.956 32.956 32.956h9.75c-18.2 0-27.973-17.143-27.973-35.344L22.82 49.621z" fill="url(#paint3_radial_2059_28551)"/><path d="M47.883 103.411V81.623h9.753l8.463 21.788H47.883z" fill="url(#paint4_radial_2059_28551)"/><path d="M57.633 76.611h10.255v26.804H57.633V76.611z" fill="url(#paint5_radial_2059_28551)"/><path d="M62.762 140.283l-19.032 3.501-.072 1.981c-.187 5.185 3.966 9.49 9.154 9.49h9.95c-1.17 0 .41-8.001 0-14.972z" fill="url(#paint6_radial_2059_28551)"/><path d="M22.82 49.621c0-18.2 14.755-32.955 32.956-32.955h9.75c-18.2 0-30.153 14.755-30.153 32.955H22.82z" fill="url(#paint7_radial_2059_28551)"/><path d="M46.508 74.359h5.212s1.707-2.472 3.112-5.794l-8.324 1.32v4.474z" fill="url(#paint8_radial_2059_28551)"/><path d="M65.37 56.236h-5.212c-7.556 0-13.65 6.13-13.65 13.65h7.433c1.505-3.558 3.684-7.924 6.256-10.745l.936.124c1.334-1.212 2.758-3.029 4.237-3.029z" fill="url(#paint9_radial_2059_28551)"/><path d="M62.009 46.551c-.467-4.756.653-10.504 3.36-10.504H60.08a8.361 8.361 0 00-8.361 8.361l10.29 2.143z" fill="url(#paint10_radial_2059_28551)"/><path d="M57.008 44.41c.33 3.357 6.45 8.362 8.361 8.362H60.08c-4.605 0-8.361-3.731-8.361-8.362h5.288z" fill="url(#paint11_radial_2059_28551)"/><path d="M65.37 52.77a8.361 8.361 0 100-16.723 8.361 8.361 0 000 16.723z" fill="url(#paint12_radial_2059_28551)"/><path d="M65.369 56.236c-7.578 0-13.65 6.15-13.65 13.65v4.474h27.3v-4.473c0-7.485-6.062-13.65-13.65-13.65z" fill="url(#paint13_radial_2059_28551)"/><path d="M60.188 103.414h-15l-1.461 40.371H60.46c-.604-10.26-.542-25.874-.273-40.371z" fill="url(#paint14_radial_2059_28551)"/><path d="M70.383 103.414H55.14l-1.532 42.352c-.188 5.185 3.965 9.49 9.154 9.49 5.188 0 9.34-4.305 9.153-9.49l-1.532-42.352z" fill="url(#paint15_radial_2059_28551)"/><path d="M65.525 16.666c-18.2 0-32.955 14.755-32.955 32.955 0 18.201 14.755 32.955 32.955 32.955 18.201 0 32.956-14.754 32.956-32.955 0-18.2-14.755-32.955-32.956-32.955zm0 57.694c-1.168 0-2.318-.082-3.443-.238h-.007c-12.03-1.68-21.288-12.009-21.288-24.5 0-12.492 9.259-22.822 21.288-24.5l.014-.002a24.983 24.983 0 013.436-.237c13.663 0 24.739 11.076 24.739 24.738 0 13.663-11.076 24.739-24.739 24.739z" fill="url(#paint16_radial_2059_28551)"/><path fill-rule="evenodd" clip-rule="evenodd" d="M97.438 114.543l12.112-3.076-1.754 11.256.418-.065.877 2.664c0 .395-.124.825-.235 1.21-.191.662-.345 1.194.235 1.194h-9.858c-.916 0-1.796-.712-1.796-1.786v-1.612l.013-.002h-.013v-9.783z" fill="url(#paint17_radial_2059_28551)"/><path fill-rule="evenodd" clip-rule="evenodd" d="M87.794 58.332h9.858c-1.145 0-1.44 32.599-.886 47.732l1.927-.564c.112 1.895-.412 4.842-.769 6.854-.229 1.288-.39 2.192-.272 2.192h-9.858A2.794 2.794 0 0185 111.752v-2.244l.005-.001H85v-48.38a2.794 2.794 0 012.794-2.795z" fill="url(#paint18_radial_2059_28551)"/><path d="M167.382 58.332H97.654a2.794 2.794 0 00-2.795 2.794v50.624a2.794 2.794 0 002.795 2.795h9.641v11.395c0 1.588 1.92 2.383 3.043 1.26l12.656-12.655h44.388a2.794 2.794 0 002.794-2.795V61.126a2.794 2.794 0 00-2.794-2.794z" fill="url(#paint19_radial_2059_28551)"/><path d="M132.279 92.395a4.68 4.68 0 01-4.662-4.272l-1.468-16.777a6.154 6.154 0 1112.261 0l-1.468 16.777a4.681 4.681 0 01-4.663 4.272zm0 3.05a5.397 5.397 0 100 10.796 5.397 5.397 0 000-10.795z" fill="#fff"/><defs><radialGradient id="paint0_radial_2059_28551" cx="0" cy="0" r="1" gradientUnits="userSpaceOnUse" gradientTransform="translate(72.191 55.688) scale(73.2778)"><stop stop-color="#ECF9F9"/><stop offset=".514" stop-color="#CBE2FF"/><stop offset="1" stop-color="#BED8FB"/></radialGradient><radialGradient id="paint1_radial_2059_28551" cx="0" cy="0" r="1" gradientUnits="userSpaceOnUse" gradientTransform="translate(80.76 74.947) scale(25.4736)"><stop stop-color="#F1F4F6"/><stop offset=".514" stop-color="#D0E2E7"/><stop offset="1" stop-color="#B4D0D5"/></radialGradient><radialGradient id="paint2_radial_2059_28551" cx="0" cy="0" r="1" gradientUnits="userSpaceOnUse" gradientTransform="translate(81.177 47.617) scale(24.8221)"><stop offset=".035" stop-color="#B4D0D5"/><stop offset=".238" stop-color="#A9C5CC"/><stop offset=".594" stop-color="#8DA7B5"/><stop offset=".671" stop-color="#86A0AF"/><stop offset="1" stop-color="#738B95"/></radialGradient><radialGradient id="paint3_radial_2059_28551" cx="0" cy="0" r="1" gradientUnits="userSpaceOnUse" gradientTransform="translate(35.138 56.723) scale(37.1169)"><stop offset=".035" stop-color="#B4D0D5"/><stop offset=".238" stop-color="#A9C5CC"/><stop offset=".594" stop-color="#8DA7B5"/><stop offset=".671" stop-color="#86A0AF"/><stop offset="1" stop-color="#738B95"/></radialGradient><radialGradient id="paint4_radial_2059_28551" cx="0" cy="0" r="1" gradientUnits="userSpaceOnUse" gradientTransform="matrix(0 23.6002 -22.3966 0 55.4 103.769)"><stop stop-color="#F1F4F6"/><stop offset=".514" stop-color="#D0E2E7"/><stop offset="1" stop-color="#B4D0D5"/></radialGradient><radialGradient id="paint5_radial_2059_28551" cx="0" cy="0" r="1" gradientUnits="userSpaceOnUse" gradientTransform="translate(74.506 97.775) scale(20.0611)"><stop offset=".099" stop-color="#86A0AF"/><stop offset=".539" stop-color="#617881"/><stop offset="1" stop-color="#404A4A"/></radialGradient><radialGradient id="paint6_radial_2059_28551" cx="0" cy="0" r="1" gradientUnits="userSpaceOnUse" gradientTransform="translate(45.95 142.471) scale(15.6681)"><stop stop-color="#D8A595"/><stop offset=".598" stop-color="#C8806A"/><stop offset=".65" stop-color="#C67D66"/><stop offset=".923" stop-color="#C06E55"/><stop offset="1" stop-color="#BE694F"/></radialGradient><radialGradient id="paint7_radial_2059_28551" cx="0" cy="0" r="1" gradientUnits="userSpaceOnUse" gradientTransform="translate(39.667 15.675) scale(35.4697)"><stop stop-color="#F1F4F6"/><stop offset=".514" stop-color="#D0E2E7"/><stop offset="1" stop-color="#B4D0D5"/></radialGradient><radialGradient id="paint8_radial_2059_28551" cx="0" cy="0" r="1" gradientUnits="userSpaceOnUse" gradientTransform="matrix(7.95417 .00795 -.0109 10.8972 48.408 69.433)"><stop offset=".035" stop-color="#DFEAEF"/><stop offset=".256" stop-color="#D4E3E8"/><stop offset=".645" stop-color="#B6D1D6"/><stop offset=".671" stop-color="#B4D0D5"/><stop offset="1" stop-color="#9BB9C1"/></radialGradient><radialGradient id="paint9_radial_2059_28551" cx="0" cy="0" r="1" gradientUnits="userSpaceOnUse" gradientTransform="matrix(15.80781 9.49942 -14.44303 24.03439 63.104 72.758)"><stop stop-color="#fff"/><stop offset=".065" stop-color="#FDFDFE"/><stop offset=".514" stop-color="#F1F4F6"/><stop offset=".978" stop-color="#DFEAEF"/></radialGradient><radialGradient id="paint10_radial_2059_28551" cx="0" cy="0" r="1" gradientUnits="userSpaceOnUse" gradientTransform="matrix(-9.60445 0 0 -9.4796 56.613 36.644)"><stop stop-color="#fff"/><stop offset=".065" stop-color="#FDFDFE"/><stop offset=".514" stop-color="#F1F4F6"/><stop offset=".978" stop-color="#DFEAEF"/></radialGradient><radialGradient id="paint11_radial_2059_28551" cx="0" cy="0" r="1" gradientUnits="userSpaceOnUse" gradientTransform="matrix(-13.3611 0 0 -13.1874 55.25 44.834)"><stop offset=".035" stop-color="#DFEAEF"/><stop offset=".256" stop-color="#D4E3E8"/><stop offset=".645" stop-color="#B6D1D6"/><stop offset=".671" stop-color="#B4D0D5"/><stop offset="1" stop-color="#9BB9C1"/></radialGradient><radialGradient id="paint12_radial_2059_28551" cx="0" cy="0" r="1" gradientUnits="userSpaceOnUse" gradientTransform="matrix(-19.6266 0 0 -19.3714 72.452 45.882)"><stop offset=".1" stop-color="#D0E2E7"/><stop offset=".539" stop-color="#9BB9C1"/><stop offset="1" stop-color="#738B95"/></radialGradient><radialGradient id="paint13_radial_2059_28551" cx="0" cy="0" r="1" gradientUnits="userSpaceOnUse" gradientTransform="rotate(31.003 -92.107 162.12) scale(22.5876 34.3424)"><stop offset=".1" stop-color="#D0E2E7"/><stop offset=".539" stop-color="#9BB9C1"/><stop offset="1" stop-color="#738B95"/></radialGradient><radialGradient id="paint14_radial_2059_28551" cx="0" cy="0" r="1" gradientUnits="userSpaceOnUse" gradientTransform="translate(40.562 106.971) scale(38.5813)"><stop stop-color="#FBF6EC"/><stop offset=".554" stop-color="#E2BCAF"/><stop offset="1" stop-color="#D8A595"/></radialGradient><radialGradient id="paint15_radial_2059_28551" cx="0" cy="0" r="1" gradientUnits="userSpaceOnUse" gradientTransform="matrix(-19.6698 0 0 -68.6157 72.34 130.698)"><stop stop-color="#C67D66"/><stop offset=".177" stop-color="#C27860"/><stop offset=".414" stop-color="#B6694F"/><stop offset=".597" stop-color="#AA593D"/><stop offset="1" stop-color="#664545"/></radialGradient><radialGradient id="paint16_radial_2059_28551" cx="0" cy="0" r="1" gradientUnits="userSpaceOnUse" gradientTransform="translate(75.347 57.303) scale(45.781)"><stop offset=".099" stop-color="#86A0AF"/><stop offset=".539" stop-color="#617881"/><stop offset="1" stop-color="#404A4A"/></radialGradient><radialGradient id="paint17_radial_2059_28551" cx="0" cy="0" r="1" gradientUnits="userSpaceOnUse" gradientTransform="matrix(11.6057 0 0 10.5387 100.112 113.753)"><stop stop-color="#FFEFB3"/><stop offset=".623" stop-color="#FFD0A3"/><stop offset=".973" stop-color="#FFCB9B"/></radialGradient><radialGradient id="paint18_radial_2059_28551" cx="0" cy="0" r="1" gradientUnits="userSpaceOnUse" gradientTransform="matrix(13.1349 0 0 36.4364 88.027 66.236)"><stop stop-color="#FFF2C2"/><stop offset=".623" stop-color="#FFD8B3"/><stop offset=".973" stop-color="#FFCB9B"/></radialGradient><radialGradient id="paint19_radial_2059_28551" cx="0" cy="0" r="1" gradientUnits="userSpaceOnUse" gradientTransform="matrix(-5.0546 55.94191 -45.25385 -4.08888 153.345 100.439)"><stop stop-color="#FFA447"/><stop offset=".512" stop-color="#FF9729"/><stop offset=".976" stop-color="#FF8A57"/></radialGradient></defs></svg>