<svg width="190" height="37" fill="none" xmlns="http://www.w3.org/2000/svg"><path fill-rule="evenodd" clip-rule="evenodd" d="M186.311.754l-57.483 5.35 2.857 30.691 57.483-5.35L186.311.754zm-48.16 16.29V9.028h-3.995v20.028h3.995v-8.017h8.016v8.017h3.995V9.028h-3.995v8.016h-8.016zm18.707 8.017v-4.022h4.008l1.336-3.995h-5.344v-4.021h9.353V9.027h-10.685c-1.774 0-2.663.89-2.663 2.672v14.683c0 1.783.889 2.673 2.663 2.673h10.685V25.06h-9.353zm26.739-16.033v3.995h-5.344v16.033h-3.995V13.022h-5.344V9.029h14.683zM19.815 25.06v6.925l-3.994 1.337v-4.268H4.303v2.931L.309 33.322v-8.263H2.87l2.727-13.387c.597-1.7 1.728-2.59 3.406-2.672h8.677v16.06h2.134zm-6.128-12.038H9.332L6.93 25.059h6.758V13.022zM38.512 11.7v14.682c0 1.782-.889 2.672-2.667 2.672h-10.67c-1.778 0-2.667-.89-2.667-2.672V11.699c0-1.783.889-2.672 2.667-2.672h10.67c1.778 0 2.667.89 2.667 2.672zm-12.01 1.322v12.037h8.016V13.022h-8.016zm30.956-3.995v20.027h-3.994V13.049h-3.821l-4.674 16.005h-4.063l5.011-17.382c.598-1.7 1.733-2.59 3.407-2.672l8.134.027zm6.681 20.027h-3.994V11.699c0-1.783.889-2.672 2.662-2.672h10.684v3.995h-9.352v16.032zm12.037 0V11.672c0-1.783.889-2.672 2.667-2.672h10.67c1.778 0 2.667.89 2.667 2.672v17.382h-3.994V23.69H80.17v5.363h-3.994zm12.01-16.06H80.17v6.703h8.016v-6.703zm16.1 16.06l-5.413-13.898v13.898H94.88V11.699c0-1.783.88-2.672 2.64-2.672h3.096l5.686 14.792 5.686-14.792h3.096c1.76 0 2.64.89 2.64 2.672v17.355h-3.994V15.156l-5.413 13.898h-4.03zm17.904-3.991h6.256l-2.346 3.993h-6.256l2.346-3.994z" fill="#fff"/></svg>