<svg width="232" height="233" fill="none" xmlns="http://www.w3.org/2000/svg"><g clip-path="url(#clip0_2404_44521)"><path d="M153.219 57.689l41.754 41.754h21.331L181.898 50.34l-28.679 7.349z" fill="url(#paint0_radial_2404_44521)"/><path d="M127.866 62.405c-4.744 0-9.384 1.79-12.878 5.282L84.602 98.074l32.297 1.37s27.554-37.04 32.297-37.04h-21.33z" fill="url(#paint1_radial_2404_44521)"/><path d="M153.222 57.69l-7.253 7.253 19.43 1.9 9.154-9.154h-21.331z" fill="url(#paint2_radial_2404_44521)"/><path d="M153.219 57.689l15.694-15.695h21.331L174.55 57.69h-21.331z" fill="url(#paint3_radial_2404_44521)"/><path d="M72.076 96.598L38.408 108.87c-.203 7.972 2.729 16.01 8.813 22.095l44.128 5.533c-6.003-7.653-13.94-33.069-19.273-39.901z" fill="url(#paint4_radial_2404_44521)"/><path d="M43.667 82.897l-21.331 9.905 16.07 16.069h25.483a13266.307 13266.307 0 01-20.222-25.974z" fill="url(#paint5_radial_2404_44521)"/><path d="M81.175 130.967H47.219l48.745 48.745a6.714 6.714 0 002.178 1.458c.816.337 1.69.51 2.572.509h21.331c-.875 0-21.159-25.584-40.87-50.712z" fill="url(#paint6_radial_2404_44521)"/><path d="M121.028 174.956a6.693 6.693 0 01-4.75-1.968l-33.083-33.082h21.331s36.113 35.05 37.832 35.05h-21.33z" fill="url(#paint7_radial_2404_44521)"/><path d="M135.145 160.837a6.697 6.697 0 01-4.75-1.968l-33.083-33.082h21.331s36.114 35.05 37.833 35.05h-21.331z" fill="url(#paint8_radial_2404_44521)"/><path d="M149.262 146.72a6.692 6.692 0 01-4.75-1.968L111.43 111.67h21.331s36.113 35.05 37.832 35.05h-21.331z" fill="url(#paint9_radial_2404_44521)"/><path d="M60.625 60.866a13.69 13.69 0 0016.525 2.176 30.81 30.81 0 0115.43-4.138h21.331c-5.287 0-9.542 13.003-14.361 15.785l-24.543 3.313-14.382-17.136z" fill="url(#paint10_radial_2404_44521)"/><path d="M179.929 130.605l-44.026-62.506-.149-.148c-9.882-9.883-25.17-11.895-37.273-4.908a13.69 13.69 0 01-16.526-2.175l-3.178-3.178L56.19 69.688 43.664 92.802l16.07 16.069c-.205 7.973 2.727 16.011 8.812 22.096l48.745 48.744a6.716 6.716 0 009.5 0l4.018-4.017a6.718 6.718 0 000-9.501l6.795 6.795a6.716 6.716 0 009.5 0l4.618-4.617a6.718 6.718 0 000-9.501 6.716 6.716 0 009.5 0l4.618-4.617a6.718 6.718 0 000-9.501l-.029-.029a6.716 6.716 0 009.5 0l4.618-4.617a6.72 6.72 0 000-9.501z" fill="url(#paint11_radial_2404_44521)"/><path d="M209.664 92.802l-12.527-23.114L174.55 57.69l-3.178 3.178a13.691 13.691 0 01-14.872 2.988c-6.937-2.847-14.882-1.47-20.184 3.832L105.93 98.074a16.074 16.074 0 0022.088 5.988l16.058-9.311 35.855 35.854a6.682 6.682 0 011.828 3.384l3.022-3.022c6.085-6.084 9.016-14.122 8.813-22.095l16.07-16.07z" fill="url(#paint12_radial_2404_44521)"/><path d="M232.004 83.748l-15.695 15.695-41.754-41.754 15.694-15.695 41.755 41.754z" fill="url(#paint13_radial_2404_44521)"/><path d="M0 83.748l15.695 15.695h21.33l6.088-27.388L0 83.748z" fill="url(#paint14_radial_2404_44521)"/><path d="M63.085 41.994h-21.33L0 83.748h44.145l18.94-41.754z" fill="url(#paint15_radial_2404_44521)"/><path d="M21.328 83.748l15.695 15.695L78.777 57.69 63.083 41.994 21.328 83.748z" fill="url(#paint16_radial_2404_44521)"/></g><defs><radialGradient id="paint0_radial_2404_44521" cx="0" cy="0" r="1" gradientUnits="userSpaceOnUse" gradientTransform="translate(220.294 95.26) scale(16.08)"><stop offset=".011" stop-color="#80B4FB"/><stop offset=".171" stop-color="#7AAFFB"/><stop offset=".386" stop-color="#69A1FA"/><stop offset=".578" stop-color="#5490F9"/><stop offset="1" stop-color="#3B69AF"/></radialGradient><radialGradient id="paint1_radial_2404_44521" cx="0" cy="0" r="1" gradientUnits="userSpaceOnUse" gradientTransform="translate(130.534 54.25) scale(20.0259)"><stop stop-color="#F1F4F6"/><stop offset=".514" stop-color="#D0E2E7"/><stop offset="1" stop-color="#B4D0D5"/></radialGradient><radialGradient id="paint2_radial_2404_44521" cx="0" cy="0" r="1" gradientUnits="userSpaceOnUse" gradientTransform="matrix(-15.68045 -15.68045 31.21974 -31.21974 142.523 88.951)"><stop stop-color="#F1F4F6"/><stop offset=".514" stop-color="#D0E2E7"/><stop offset="1" stop-color="#B4D0D5"/></radialGradient><radialGradient id="paint3_radial_2404_44521" cx="0" cy="0" r="1" gradientUnits="userSpaceOnUse" gradientTransform="rotate(134.757 77.308 62.859) scale(72.0081 76.1332)"><stop stop-color="#E7ECF6"/><stop offset=".155" stop-color="#D6DCF1"/><stop offset=".459" stop-color="#ABB2E5"/><stop offset=".514" stop-color="#A2AAE2"/><stop offset="1" stop-color="#8993DA"/></radialGradient><radialGradient id="paint4_radial_2404_44521" cx="0" cy="0" r="1" gradientUnits="userSpaceOnUse" gradientTransform="translate(33.266 110.864) scale(31.412)"><stop stop-color="#fff"/><stop offset=".065" stop-color="#FDFDFE"/><stop offset=".514" stop-color="#F1F4F6"/><stop offset=".978" stop-color="#DFEAEF"/></radialGradient><radialGradient id="paint5_radial_2404_44521" cx="0" cy="0" r="1" gradientUnits="userSpaceOnUse" gradientTransform="translate(43.94 113.525) scale(41.2135)"><stop offset=".035" stop-color="#DFEAEF"/><stop offset=".256" stop-color="#D4E3E8"/><stop offset=".645" stop-color="#B6D1D6"/><stop offset=".671" stop-color="#B4D0D5"/><stop offset="1" stop-color="#9BB9C1"/></radialGradient><radialGradient id="paint6_radial_2404_44521" cx="0" cy="0" r="1" gradientUnits="userSpaceOnUse" gradientTransform="translate(64.293 162.181) scale(86.8632)"><stop offset=".035" stop-color="#DFEAEF"/><stop offset=".256" stop-color="#D4E3E8"/><stop offset=".645" stop-color="#B6D1D6"/><stop offset=".671" stop-color="#B4D0D5"/><stop offset="1" stop-color="#9BB9C1"/></radialGradient><radialGradient id="paint7_radial_2404_44521" cx="0" cy="0" r="1" gradientUnits="userSpaceOnUse" gradientTransform="matrix(65.951 0 0 40.0982 125.902 166.233)"><stop offset=".1" stop-color="#D0E2E7"/><stop offset=".539" stop-color="#9BB9C1"/><stop offset="1" stop-color="#738B95"/></radialGradient><radialGradient id="paint8_radial_2404_44521" cx="0" cy="0" r="1" gradientUnits="userSpaceOnUse" gradientTransform="translate(154.285 163.601) scale(8.49247)"><stop offset=".1" stop-color="#D0E2E7"/><stop offset=".539" stop-color="#9BB9C1"/><stop offset="1" stop-color="#738B95"/></radialGradient><radialGradient id="paint9_radial_2404_44521" cx="0" cy="0" r="1" gradientUnits="userSpaceOnUse" gradientTransform="translate(168.402 149.484) scale(8.49247)"><stop offset=".1" stop-color="#D0E2E7"/><stop offset=".539" stop-color="#9BB9C1"/><stop offset="1" stop-color="#738B95"/></radialGradient><radialGradient id="paint10_radial_2404_44521" cx="0" cy="0" r="1" gradientUnits="userSpaceOnUse" gradientTransform="translate(95.86 70.022) scale(24.9975)"><stop stop-color="#fff"/><stop offset=".065" stop-color="#FDFDFE"/><stop offset=".514" stop-color="#F1F4F6"/><stop offset=".978" stop-color="#DFEAEF"/></radialGradient><radialGradient id="paint11_radial_2404_44521" cx="0" cy="0" r="1" gradientUnits="userSpaceOnUse" gradientTransform="matrix(174.582 0 0 106.146 194.039 129.131)"><stop offset=".1" stop-color="#D0E2E7"/><stop offset=".539" stop-color="#9BB9C1"/><stop offset="1" stop-color="#738B95"/></radialGradient><radialGradient id="paint12_radial_2404_44521" cx="0" cy="0" r="1" gradientUnits="userSpaceOnUse" gradientTransform="matrix(-65.59738 -65.59738 130.60474 -130.60474 185.73 118.246)"><stop offset=".099" stop-color="#86A0AF"/><stop offset=".539" stop-color="#617881"/><stop offset="1" stop-color="#404A4A"/></radialGradient><radialGradient id="paint13_radial_2404_44521" cx="0" cy="0" r="1" gradientUnits="userSpaceOnUse" gradientTransform="rotate(45 17.748 297.198) scale(42.5815 23.4624)"><stop offset=".011" stop-color="#80B4FB"/><stop offset=".171" stop-color="#7AAFFB"/><stop offset=".386" stop-color="#69A1FA"/><stop offset=".578" stop-color="#5490F9"/><stop offset="1" stop-color="#3B69AF"/></radialGradient><radialGradient id="paint14_radial_2404_44521" cx="0" cy="0" r="1" gradientUnits="userSpaceOnUse" gradientTransform="translate(16.964 101.567) scale(20.1074)"><stop stop-color="#BEE4C8"/><stop offset=".665" stop-color="#93D3A2"/><stop offset=".96" stop-color="#83CC91"/><stop offset="1" stop-color="#80CB8E"/></radialGradient><radialGradient id="paint15_radial_2404_44521" cx="0" cy="0" r="1" gradientUnits="userSpaceOnUse" gradientTransform="matrix(40.7668 0 0 40.7667 26.074 51.502)"><stop stop-color="#E4FBEF"/><stop offset=".514" stop-color="#C6EAD0"/><stop offset=".976" stop-color="#BEE4C8"/></radialGradient><radialGradient id="paint16_radial_2404_44521" cx="0" cy="0" r="1" gradientUnits="userSpaceOnUse" gradientTransform="rotate(135 15.66 59.746) scale(68.9711 48.69359)"><stop stop-color="#93D3A2"/><stop offset=".189" stop-color="#8DD09C"/><stop offset=".442" stop-color="#7CC88B"/><stop offset=".597" stop-color="#6EC17D"/><stop offset="1" stop-color="#528E61"/></radialGradient><clipPath id="clip0_2404_44521"><path fill="#fff" transform="translate(0 .43)" d="M0 0h232v232H0z"/></clipPath></defs></svg>