<svg width="185" height="165" fill="none" xmlns="http://www.w3.org/2000/svg"><path fill-rule="evenodd" clip-rule="evenodd" d="M88 40.615l28-4c20.765 0 37.834 19.357 39.809 40.027l.191-.027c0 .632-.018 1.268-.053 1.905.035.698.053 1.397.053 2.095h-.231c-2.391 21.099-22.999 44-43.769 44l-24-4c22.092 0 40-17.909 40-40s-17.908-40-40-40z" fill="url(#paint0_radial_2821_99965)"/><path fill-rule="evenodd" clip-rule="evenodd" d="M112 12.615c-18.778 0-48 38-48 72 0 6.452 1.052 12.76 2.886 18.747 10.49 21.9 32.073 45.253 45.114 45.253H88c-28.029 0-52.097-16.957-62.504-41.173C21.96 99.212 20 90.142 20 80.615c0-37.555 30.445-68 68-68h24z" fill="url(#paint1_radial_2821_99965)"/><path d="M34.594 122.709a68.393 68.393 0 0011.312 11.312h42.409c-3.298-3.409-6.544-7.244-9.584-11.312H34.594z" fill="url(#paint2_radial_2821_99965)"/><path fill-rule="evenodd" clip-rule="evenodd" d="M121.426 58.636a40.21 40.21 0 00-11.243-11.312h31.206c3.442 3.258 6.402 7.103 8.741 11.312h-28.704zm-11.416 55.385a40.213 40.213 0 0011.34-11.312h25.761c-2.841 4.185-6.239 8.041-10.009 11.312H110.01z" fill="url(#paint3_radial_2821_99965)"/><path d="M87.849 27.209H45.906a68.404 68.404 0 00-11.312 11.313H79.16c2.713-4.145 5.65-7.959 8.689-11.313z" fill="url(#paint4_radial_2821_99965)"/><path d="M112 12.615c-15.895 0-30.516 5.454-42.094 14.592-2.046 1.615-1.974 5.55-3.74 7.304-1.858 1.847-5.874 1.856-7.574 4.01C49.454 50.099 44 64.72 44 80.614c0 15.895 5.454 30.516 14.592 42.095 1.556 1.972 5.422 1.855 7.107 3.563 1.903 1.93 1.98 5.992 4.207 7.75 11.578 9.138 26.199 14.592 42.094 14.592s30.516-5.454 42.094-14.592c1.847-1.457 1.618-5.204 3.229-6.771 2.053-1.995 6.228-2.19 8.085-4.542C174.546 111.131 180 96.51 180 80.615s-5.454-30.516-14.592-42.094c-1.501-1.902-5.301-1.703-6.919-3.357-1.954-1.998-2.097-6.143-4.395-7.957A67.715 67.715 0 00112 12.615zm0 108a39.814 39.814 0 01-22.06-6.627c-2.371-1.571-5.558-2.224-7.54-4.252-1.767-1.807-2.372-4.946-3.773-7.062A39.813 39.813 0 0172 80.615c0-8.153 2.44-15.735 6.627-22.059 1.458-2.2 2.01-5.63 3.862-7.496 1.925-1.94 5.164-2.302 7.452-3.818A39.813 39.813 0 01112 40.615a39.82 39.82 0 0122.059 6.627c2.703 1.79 7.432.582 9.621 2.958 1.446 1.569.51 6.571 1.693 8.356A39.814 39.814 0 01152 80.616a39.813 39.813 0 01-6.627 22.058c-1.24 1.872-.297 6.488-1.825 8.121-2.136 2.283-6.872 1.46-9.489 3.193A39.815 39.815 0 01112 120.615z" fill="url(#paint5_radial_2821_99965)"/><path d="M145.375 58.556l20.036-20.035a68.418 68.418 0 00-11.314-11.314l-20.035 20.035a40.24 40.24 0 0111.313 11.314zm-66.746 44.118L58.594 122.71a68.413 68.413 0 0011.313 11.314l20.036-20.036a40.215 40.215 0 01-11.314-11.314zm86.781 20.036l-20.035-20.036a40.232 40.232 0 01-11.314 11.314l20.035 20.035a68.413 68.413 0 0011.314-11.313zM89.943 47.242L69.908 27.207a68.412 68.412 0 00-11.314 11.314l20.035 20.035a40.22 40.22 0 0111.314-11.314z" fill="url(#paint6_radial_2821_99965)"/><path d="M184.617 130a20.77 20.77 0 11-41.539-.004 20.77 20.77 0 0141.539.004z" fill="url(#paint7_radial_2821_99965)"/><path style="mix-blend-mode:lighten" opacity=".5" d="M162.753 130a9.838 9.838 0 11-19.676-.001 9.838 9.838 0 0119.676.001z" fill="url(#paint8_radial_2821_99965)"/><path style="mix-blend-mode:lighten" opacity=".5" d="M181.58 122.896a8.317 8.317 0 01-5.137 7.684 8.318 8.318 0 01-7.804-14.604 8.319 8.319 0 0112.941 6.92z" fill="url(#paint9_radial_2821_99965)"/><g filter="url(#filter0_i_2821_99965)"><path d="M0 13.431c.405 4.835 1.335 11.457 3.44 18.411C7.91 46.61 15.807 57.11 26.923 63.077c11.116-5.967 19.013-16.468 23.483-31.235 2.105-6.953 3.035-13.576 3.44-18.411L26.923 0 0 13.431z" fill="#F1F1F1" fill-opacity=".1"/><path d="M0 13.431c.405 4.835 1.335 11.457 3.44 18.411C7.91 46.61 15.807 57.11 26.923 63.077c11.116-5.967 19.013-16.468 23.483-31.235 2.105-6.953 3.035-13.576 3.44-18.411L26.923 0 0 13.431z" fill="url(#paint10_radial_2821_99965)"/></g><path d="M49.927 31.697l.479.145-.479-.145C45.52 46.262 37.774 56.596 26.923 62.508c-10.85-5.912-18.596-16.246-23.004-30.81C1.875 24.946.945 18.505.527 13.726L26.923.559l26.396 13.168c-.418 4.78-1.349 11.22-3.392 17.97z" stroke="url(#paint11_linear_2821_99965)" stroke-opacity=".1"/><defs><radialGradient id="paint0_radial_2821_99965" cx="0" cy="0" r="1" gradientUnits="userSpaceOnUse" gradientTransform="translate(129.21 80.869) scale(80.79)"><stop stop-color="#FFCB9B"/><stop offset=".518" stop-color="#FFBA7C"/><stop offset=".75" stop-color="#FFA850"/><stop offset=".976" stop-color="#FF982A"/></radialGradient><radialGradient id="paint1_radial_2821_99965" cx="0" cy="0" r="1" gradientUnits="userSpaceOnUse" gradientTransform="matrix(88.1515 0 0 88.1516 40.313 31.736)"><stop stop-color="#FFF9E2"/><stop offset=".535" stop-color="#FFE4CB"/><stop offset=".623" stop-color="#FFDFC1"/><stop offset=".973" stop-color="#FFCB9B"/></radialGradient><radialGradient id="paint2_radial_2821_99965" cx="0" cy="0" r="1" gradientUnits="userSpaceOnUse" gradientTransform="matrix(59.6331 0 0 42.4588 48.917 107.198)"><stop stop-color="#F9F7F8"/><stop offset=".43" stop-color="#E2DEE2"/><stop offset="1" stop-color="#B5ADB6"/></radialGradient><radialGradient id="paint3_radial_2821_99965" cx="0" cy="0" r="1" gradientUnits="userSpaceOnUse" gradientTransform="matrix(59.8919 0 0 42.4588 118.007 87.198)"><stop stop-color="#F9F7F8"/><stop offset=".43" stop-color="#E2DEE2"/><stop offset="1" stop-color="#B5ADB6"/></radialGradient><radialGradient id="paint4_radial_2821_99965" cx="0" cy="0" r="1" gradientUnits="userSpaceOnUse" gradientTransform="matrix(88.1515 0 0 88.1516 40.314 31.737)"><stop stop-color="#F9F7F8"/><stop offset=".43" stop-color="#E2DEE2"/><stop offset="1" stop-color="#B5ADB6"/></radialGradient><radialGradient id="paint5_radial_2821_99965" cx="0" cy="0" r="1" gradientUnits="userSpaceOnUse" gradientTransform="matrix(-9.12718 109.63574 -81.81518 -6.81111 149.607 95.138)"><stop stop-color="#FFAB56"/><stop offset=".512" stop-color="#FF982A"/><stop offset=".598" stop-color="#FF8F2A"/><stop offset=".976" stop-color="#FF6927"/></radialGradient><radialGradient id="paint6_radial_2821_99965" cx="0" cy="0" r="1" gradientUnits="userSpaceOnUse" gradientTransform="matrix(176.81 0 0 832.358 70.068 69.963)"><stop stop-color="#F9F7F8"/><stop offset=".43" stop-color="#E2DEE2"/><stop offset="1" stop-color="#B5ADB6"/></radialGradient><radialGradient id="paint7_radial_2821_99965" cx="0" cy="0" r="1" gradientUnits="userSpaceOnUse" gradientTransform="translate(163.847 122.469) scale(30.3416)"><stop stop-color="#fff"/><stop offset=".27" stop-color="#FCFCFC"/><stop offset=".48" stop-color="#F2F2F2"/><stop offset=".68" stop-color="#E0E0E0"/><stop offset=".87" stop-color="#C9C9C9"/><stop offset="1" stop-color="#B4B4B4"/></radialGradient><radialGradient id="paint8_radial_2821_99965" cx="0" cy="0" r="1" gradientUnits="userSpaceOnUse" gradientTransform="translate(152.916 126.433) scale(14.3725)"><stop stop-color="#fff"/><stop offset=".27" stop-color="#FCFCFC"/><stop offset=".48" stop-color="#F2F2F2"/><stop offset=".68" stop-color="#E0E0E0"/><stop offset=".87" stop-color="#C9C9C9"/><stop offset="1" stop-color="#B4B4B4"/></radialGradient><radialGradient id="paint9_radial_2821_99965" cx="0" cy="0" r="1" gradientUnits="userSpaceOnUse" gradientTransform="translate(173.261 119.88) scale(12.1543)"><stop stop-color="#fff"/><stop offset=".27" stop-color="#FCFCFC"/><stop offset=".48" stop-color="#F2F2F2"/><stop offset=".68" stop-color="#E0E0E0"/><stop offset=".87" stop-color="#C9C9C9"/><stop offset="1" stop-color="#B4B4B4"/></radialGradient><radialGradient id="paint10_radial_2821_99965" cx="0" cy="0" r="1" gradientUnits="userSpaceOnUse" gradientTransform="rotate(-142.765 29.062 17.619) scale(24.1543 35.4475)"><stop stop-color="#E7E3D7"/><stop offset="1" stop-color="#CCE6DB"/></radialGradient><linearGradient id="paint11_linear_2821_99965" x1="48.64" y1="56.876" x2="59.364" y2="56.876" gradientUnits="userSpaceOnUse"><stop stop-color="#8BA7BE"/><stop offset="1" stop-color="#BBC5CD"/></linearGradient><filter id="filter0_i_2821_99965" x="0" y="0" width="53.846" height="63.577" filterUnits="userSpaceOnUse" color-interpolation-filters="sRGB"><feFlood flood-opacity="0" result="BackgroundImageFix"/><feBlend in="SourceGraphic" in2="BackgroundImageFix" result="shape"/><feColorMatrix in="SourceAlpha" values="0 0 0 0 0 0 0 0 0 0 0 0 0 0 0 0 0 0 127 0" result="hardAlpha"/><feOffset dy=".5"/><feGaussianBlur stdDeviation="1"/><feComposite in2="hardAlpha" operator="arithmetic" k2="-1" k3="1"/><feColorMatrix values="0 0 0 0 1 0 0 0 0 1 0 0 0 0 1 0 0 0 0.4 0"/><feBlend in2="shape" result="effect1_innerShadow_2821_99965"/></filter></defs></svg>