<svg width="160" height="160" fill="none" xmlns="http://www.w3.org/2000/svg"><path d="M15.313 152.452h20.739s6.794-9.836 12.385-23.057l-33.124 5.255v17.802z" fill="url(#paint0_radial_2127_33376)"/><path d="M90.372 80.33h-20.74c-30.069 0-54.32 24.389-54.32 54.319h29.581c5.987-14.16 14.659-31.534 24.894-42.76l3.724.493c5.308-4.824 10.975-12.052 16.86-12.052z" fill="url(#paint1_radial_2127_33376)"/><path d="M76.999 41.8C75.139 22.875 79.596 0 90.37 0H69.324C50.948 0 36.05 14.897 36.05 33.273l40.948 8.528z" fill="url(#paint2_radial_2127_33376)"/><path d="M57.097 33.273c1.312 13.356 25.67 33.274 33.273 33.274H69.324c-18.325 0-33.273-14.847-33.273-33.274h21.046z" fill="url(#paint3_radial_2127_33376)"/><path d="M90.37 66.546c18.377 0 33.274-14.897 33.274-33.273C123.644 14.897 108.747 0 90.371 0 71.995 0 57.098 14.897 57.098 33.273c0 18.376 14.897 33.273 33.273 33.273z" fill="url(#paint4_radial_2127_33376)"/><path d="M107.483 83.078L90.37 100.192 73.257 83.079c-21.646 7.177-37.206 27.596-37.206 51.571v17.803H144.69V134.65c0-23.924-15.531-44.386-37.207-51.572z" fill="url(#paint5_radial_2127_33376)"/><path d="M73.258 83.08l8.183 67.821 17.855-.043 9.209-64.684-1.022-3.094H73.258z" fill="url(#paint6_radial_2127_33376)"/><path d="M107.483 83.08a54.275 54.275 0 00-17.113-2.748 54.27 54.27 0 00-17.112 2.749l17.112 19.477 17.113-19.479z" fill="url(#paint7_radial_2127_33376)"/><path d="M94.486 104.07l-4.115-2.677-4.115 2.677-4.815 46.83.445 1.553h16.971l.44-1.596-4.81-46.787z" fill="url(#paint8_radial_2127_33376)"/><path d="M94.486 104.069h-8.23L81.28 92.893h18.18l-4.975 11.176z" fill="url(#paint9_radial_2127_33376)"/><path d="M73.258 83.08l17.113 9.814-14.836 8.499-2.277-18.313z" fill="url(#paint10_radial_2127_33376)"/><path d="M81.884 152.454L73.257 83.08l-18.898 18.898h14.637l-9.8 9.8 22.688 40.676z" fill="url(#paint11_radial_2127_33376)"/><path d="M98.856 152.454l8.626-69.374 18.898 18.898h-14.637l9.8 9.8-22.688 40.676z" fill="url(#paint12_radial_2127_33376)"/><path d="M107.484 83.08l-17.113 9.814 14.835 8.499 2.278-18.313z" fill="url(#paint13_radial_2127_33376)"/><defs><radialGradient id="paint0_radial_2127_33376" cx="0" cy="0" r="1" gradientUnits="userSpaceOnUse" gradientTransform="matrix(31.65278 .03165 -.04336 43.36438 22.864 132.788)"><stop offset=".035" stop-color="#B4D0D5"/><stop offset=".238" stop-color="#A9C5CC"/><stop offset=".594" stop-color="#8DA7B5"/><stop offset=".671" stop-color="#86A0AF"/><stop offset="1" stop-color="#738B95"/></radialGradient><radialGradient id="paint1_radial_2127_33376" cx="0" cy="0" r="1" gradientUnits="userSpaceOnUse" gradientTransform="translate(26.27 75.305) scale(64.1469)"><stop stop-color="#F1F4F6"/><stop offset=".514" stop-color="#D0E2E7"/><stop offset="1" stop-color="#B4D0D5"/></radialGradient><radialGradient id="paint2_radial_2127_33376" cx="0" cy="0" r="1" gradientUnits="userSpaceOnUse" gradientTransform="matrix(-38.22 0 0 -37.7231 55.527 2.417)"><stop stop-color="#fff"/><stop offset=".065" stop-color="#FDFDFE"/><stop offset=".514" stop-color="#F1F4F6"/><stop offset=".978" stop-color="#DFEAEF"/></radialGradient><radialGradient id="paint3_radial_2127_33376" cx="0" cy="0" r="1" gradientUnits="userSpaceOnUse" gradientTransform="matrix(-53.1681 0 0 -52.4769 50.104 35.004)"><stop offset=".035" stop-color="#DFEAEF"/><stop offset=".256" stop-color="#D4E3E8"/><stop offset=".645" stop-color="#B6D1D6"/><stop offset=".671" stop-color="#B4D0D5"/><stop offset="1" stop-color="#9BB9C1"/></radialGradient><radialGradient id="paint4_radial_2127_33376" cx="0" cy="0" r="1" gradientUnits="userSpaceOnUse" gradientTransform="matrix(-78.1016 0 0 -77.0862 118.555 39.179)"><stop offset=".1" stop-color="#D0E2E7"/><stop offset=".539" stop-color="#9BB9C1"/><stop offset="1" stop-color="#738B95"/></radialGradient><radialGradient id="paint5_radial_2127_33376" cx="0" cy="0" r="1" gradientUnits="userSpaceOnUse" gradientTransform="rotate(31.003 -193.756 267.787) scale(89.3461 135.843)"><stop offset=".099" stop-color="#86A0AF"/><stop offset=".539" stop-color="#617881"/><stop offset="1" stop-color="#404A4A"/></radialGradient><radialGradient id="paint6_radial_2127_33376" cx="0" cy="0" r="1" gradientUnits="userSpaceOnUse" gradientTransform="translate(102.671 125.5) scale(32.8997)"><stop offset=".035" stop-color="#DFEAEF"/><stop offset=".256" stop-color="#D4E3E8"/><stop offset=".645" stop-color="#B6D1D6"/><stop offset=".671" stop-color="#B4D0D5"/><stop offset="1" stop-color="#9BB9C1"/></radialGradient><radialGradient id="paint7_radial_2127_33376" cx="0" cy="0" r="1" gradientUnits="userSpaceOnUse" gradientTransform="rotate(31.003 -206.147 271.222) scale(99.9268 151.93)"><stop offset=".035" stop-color="#DFEAEF"/><stop offset=".256" stop-color="#D4E3E8"/><stop offset=".645" stop-color="#B6D1D6"/><stop offset=".671" stop-color="#B4D0D5"/><stop offset="1" stop-color="#9BB9C1"/></radialGradient><radialGradient id="paint8_radial_2127_33376" cx="0" cy="0" r="1" gradientUnits="userSpaceOnUse" gradientTransform="translate(90.934 130.725) scale(36.1519)"><stop stop-color="#DD636E"/><stop offset=".539" stop-color="#D82E3D"/><stop offset="1" stop-color="#8E2E2E"/></radialGradient><radialGradient id="paint9_radial_2127_33376" cx="0" cy="0" r="1" gradientUnits="userSpaceOnUse" gradientTransform="rotate(31.003 -143.227 228.539) scale(16.162 24.573)"><stop stop-color="#DD636E"/><stop offset=".539" stop-color="#D82E3D"/><stop offset="1" stop-color="#8E2E2E"/></radialGradient><radialGradient id="paint10_radial_2127_33376" cx="0" cy="0" r="1" gradientUnits="userSpaceOnUse" gradientTransform="translate(74.16 86.041) scale(23.2109)"><stop offset=".035" stop-color="#DFEAEF"/><stop offset=".256" stop-color="#D4E3E8"/><stop offset=".645" stop-color="#B6D1D6"/><stop offset=".671" stop-color="#B4D0D5"/><stop offset="1" stop-color="#9BB9C1"/></radialGradient><radialGradient id="paint11_radial_2127_33376" cx="0" cy="0" r="1" gradientUnits="userSpaceOnUse" gradientTransform="matrix(0 39.4416 -28.2007 0 63.409 118.997)"><stop offset=".099" stop-color="#86A0AF"/><stop offset=".539" stop-color="#617881"/><stop offset="1" stop-color="#404A4A"/></radialGradient><radialGradient id="paint12_radial_2127_33376" cx="0" cy="0" r="1" gradientUnits="userSpaceOnUse" gradientTransform="matrix(-6.50513 47.05488 -29.48735 -4.0765 105.578 108.534)"><stop offset=".099" stop-color="#86A0AF"/><stop offset=".539" stop-color="#617881"/><stop offset="1" stop-color="#404A4A"/></radialGradient><radialGradient id="paint13_radial_2127_33376" cx="0" cy="0" r="1" gradientUnits="userSpaceOnUse" gradientTransform="translate(100.961 88.225) scale(24.2216)"><stop offset=".035" stop-color="#DFEAEF"/><stop offset=".256" stop-color="#D4E3E8"/><stop offset=".645" stop-color="#B6D1D6"/><stop offset=".671" stop-color="#B4D0D5"/><stop offset="1" stop-color="#9BB9C1"/></radialGradient></defs></svg>