<svg width="96" height="96" fill="none" xmlns="http://www.w3.org/2000/svg"><path d="M62.398 43.2h4.8V60h-4.8V43.2z" fill="url(#paint0_radial_2054_35532)"/><path d="M56.697 62.712l.904-2.713h9.6V43.2h4.8v16.913a4.688 4.688 0 01-4.688 4.687H55.54a6.546 6.546 0 001.158-2.087z" fill="url(#paint1_radial_2054_35532)"/><path d="M79.088 43.2v-2.513A4.688 4.688 0 0074.4 36h-7.088C69.903 36 72 43.2 72 43.2h7.088z" fill="url(#paint2_radial_2054_35532)"/><path d="M72.002 43.2h-14.4V36h9.712a4.688 4.688 0 014.688 4.688V43.2z" fill="url(#paint3_radial_2054_35532)"/><path d="M45.598 91.2h-7.2V64.8h9.6l-2.4 26.4z" fill="url(#paint4_radial_2054_35532)"/><path d="M45.602 64.8h7.2v26.4h-7.2V64.8z" fill="url(#paint5_radial_2054_35532)"/><path d="M24.904 62.712L24 60l16.8-2.4 4.73 9.6h-14.4a6.563 6.563 0 01-6.226-4.488z" fill="url(#paint6_radial_2054_35532)"/><path d="M23.773 0a9.375 9.375 0 00-9.375 9.375V43.2l14.4 4.8s-.377-48 4.8-48h-9.825z" fill="url(#paint7_radial_2054_35532)"/><path d="M64.8 50.4L24 48V9.375A9.375 9.375 0 0133.375 0h22.05A9.375 9.375 0 0164.8 9.375V50.4z" fill="url(#paint8_radial_2054_35532)"/><path fill-rule="evenodd" clip-rule="evenodd" d="M33.625 25.184v7.053h4.294v3.803h-4.294v6.44h4.294V48h8.341v-5.52h10.352v-6.44H46.26v-3.803h4.464c.164 0 .603-.01 1.319-.03a21.074 21.074 0 002.36-.215c3.865-.552 6.727-2.024 8.588-4.416 1.88-2.392 2.822-5.459 2.822-9.2 0-2.413-.4-4.63-1.197-6.655a11.732 11.732 0 00-3.741-5.03c-1.677-1.349-3.833-2.217-6.471-2.606a21.094 21.094 0 00-2.361-.215c-.716-.02-1.155-.03-1.319-.03H37.919v21.344h-4.294zm12.635 0h4.096c.307 0 .695-.01 1.165-.03a8.211 8.211 0 001.656-.338c1.534-.47 2.617-1.247 3.251-2.33.654-1.084.98-2.372.98-3.865 0-.858-.122-1.748-.366-2.668a5.86 5.86 0 00-1.258-2.453c-.613-.736-1.482-1.258-2.607-1.564a6.684 6.684 0 00-1.656-.276c-.552-.02-.94-.03-1.166-.03H46.26v13.554z" fill="url(#paint9_radial_2054_35532)"/><path fill-rule="evenodd" clip-rule="evenodd" d="M37.625 25.184v7.053h4.294v3.803h-4.294v6.44h4.294V48h8.341v-5.52h10.352v-6.44H50.26v-3.803h4.464c.164 0 .603-.01 1.319-.03a21.074 21.074 0 002.36-.215c3.865-.552 6.727-2.024 8.588-4.416 1.88-2.392 2.822-5.459 2.822-9.2 0-2.413-.4-4.63-1.197-6.655a11.732 11.732 0 00-3.741-5.03c-1.677-1.349-3.833-2.217-6.471-2.606a21.094 21.094 0 00-2.361-.215c-.716-.02-1.155-.03-1.319-.03H41.919v21.344h-4.294zm12.635 0h4.096c.307 0 .695-.01 1.165-.03a8.211 8.211 0 001.656-.338c1.534-.47 2.617-1.247 3.251-2.33.654-1.084.98-2.372.98-3.865 0-.858-.122-1.748-.366-2.668a5.86 5.86 0 00-1.258-2.453c-.613-.736-1.482-1.258-2.607-1.564a6.684 6.684 0 00-1.656-.276c-.552-.02-.94-.03-1.166-.03H50.26v13.554z" fill="url(#paint10_radial_2054_35532)"/><path d="M26.625 91.2v-2.513A4.688 4.688 0 0131.313 84H40.8c-2.589 0-4.688 7.2-4.688 7.2h-9.487z" fill="url(#paint11_radial_2054_35532)"/><path fill-rule="evenodd" clip-rule="evenodd" d="M41.695 65.96a6.563 6.563 0 003.837 1.24h19.34a6.563 6.563 0 006.226-4.488L72.002 60l-16.8-2.4-16.8 2.4.905 2.712a6.563 6.563 0 002.388 3.249zM36.113 91.2h28.575l.113-2.513C64.8 86.1 62.59 84 60 84H40.8a4.688 4.688 0 00-4.688 4.688V91.2z" fill="url(#paint12_radial_2054_35532)"/><path d="M84 60v-2.625A9.375 9.375 0 0074.623 48h-40.8c5.178 0 4.575 4.422 4.575 9.6l4.8 2.4H84z" fill="url(#paint13_radial_2054_35532)"/><path d="M43.198 60H23.773c-5.177 4.8-9.375.603-9.375-4.575V48h19.425a9.375 9.375 0 019.375 9.375V60z" fill="url(#paint14_radial_2054_35532)"/><path d="M35.888 43.2v-2.513A4.688 4.688 0 0031.201 36h-7.088c2.59 0 4.688 7.2 4.688 7.2h7.087z" fill="url(#paint15_radial_2054_35532)"/><path d="M28.8 43.2H12v-2.513A4.688 4.688 0 0116.688 36h7.425a4.688 4.688 0 014.687 4.688V43.2z" fill="url(#paint16_radial_2054_35532)"/><path d="M14.996 62.4a4.685 4.685 0 004.092 2.4h4.8L24 60l-9.004 2.4z" fill="url(#paint17_radial_2054_35532)"/><path d="M19.198 43.2h-4.8v16.912c0 .8.205 1.589.597 2.287h8.37l-4.167-19.2z" fill="url(#paint18_radial_2054_35532)"/><path d="M33.6 60H24V43.2h-4.8v16.912a4.688 4.688 0 004.687 4.687h7.837c1.036 0 1.875-.84 1.875-1.875V60z" fill="url(#paint19_radial_2054_35532)"/><defs><radialGradient id="paint0_radial_2054_35532" cx="0" cy="0" r="1" gradientUnits="userSpaceOnUse" gradientTransform="matrix(12.4622 0 0 15.2791 61.252 46.484)"><stop stop-color="#E4FBEF"/><stop offset=".514" stop-color="#C6EAD0"/><stop offset=".976" stop-color="#BEE4C8"/></radialGradient><radialGradient id="paint1_radial_2054_35532" cx="0" cy="0" r="1" gradientUnits="userSpaceOnUse" gradientTransform="matrix(15.5374 0 0 26.1694 69.777 60.956)"><stop stop-color="#93D3A2"/><stop offset=".189" stop-color="#8DD09C"/><stop offset=".442" stop-color="#7CC88B"/><stop offset=".597" stop-color="#6EC17D"/><stop offset="1" stop-color="#528E61"/></radialGradient><radialGradient id="paint2_radial_2054_35532" cx="0" cy="0" r="1" gradientUnits="userSpaceOnUse" gradientTransform="translate(80.932 34.3) scale(12.3079)"><stop stop-color="#FFAB56"/><stop offset=".512" stop-color="#FF982A"/><stop offset=".598" stop-color="#FF8F2A"/><stop offset=".976" stop-color="#FF6927"/></radialGradient><radialGradient id="paint3_radial_2054_35532" cx="0" cy="0" r="1" gradientUnits="userSpaceOnUse" gradientTransform="translate(58.371 35.596) scale(14.9242)"><stop stop-color="#FFF9E2"/><stop offset=".535" stop-color="#FFE4CB"/><stop offset=".623" stop-color="#FFDFC1"/><stop offset=".973" stop-color="#FFCB9B"/></radialGradient><radialGradient id="paint4_radial_2054_35532" cx="0" cy="0" r="1" gradientUnits="userSpaceOnUse" gradientTransform="matrix(24.9245 0 0 24.0101 36.105 69.962)"><stop stop-color="#E4FBEF"/><stop offset=".514" stop-color="#C6EAD0"/><stop offset=".976" stop-color="#BEE4C8"/></radialGradient><radialGradient id="paint5_radial_2054_35532" cx="0" cy="0" r="1" gradientUnits="userSpaceOnUse" gradientTransform="matrix(-28.2 0 0 -132.728 70.802 86.503)"><stop stop-color="#93D3A2"/><stop offset=".189" stop-color="#8DD09C"/><stop offset=".442" stop-color="#7CC88B"/><stop offset=".597" stop-color="#6EC17D"/><stop offset="1" stop-color="#528E61"/></radialGradient><radialGradient id="paint6_radial_2054_35532" cx="0" cy="0" r="1" gradientUnits="userSpaceOnUse" gradientTransform="matrix(55.8985 0 0 8.73093 18.856 59.477)"><stop stop-color="#E4FBEF"/><stop offset=".514" stop-color="#C6EAD0"/><stop offset=".976" stop-color="#BEE4C8"/></radialGradient><radialGradient id="paint7_radial_2054_35532" cx="0" cy="0" r="1" gradientUnits="userSpaceOnUse" gradientTransform="translate(18.21 7.682) scale(38.0111)"><stop stop-color="#FFF9E2"/><stop offset=".535" stop-color="#FFE4CB"/><stop offset=".623" stop-color="#FFDFC1"/><stop offset=".973" stop-color="#FFCB9B"/></radialGradient><radialGradient id="paint8_radial_2054_35532" cx="0" cy="0" r="1" gradientUnits="userSpaceOnUse" gradientTransform="translate(63.44 15.245) scale(44.8958)"><stop stop-color="#FFAB56"/><stop offset=".512" stop-color="#FF982A"/><stop offset=".598" stop-color="#FF8F2A"/><stop offset=".976" stop-color="#FF6927"/></radialGradient><radialGradient id="paint9_radial_2054_35532" cx="0" cy="0" r="1" gradientUnits="userSpaceOnUse" gradientTransform="matrix(83.5684 0 0 40.1623 25.934 12.474)"><stop stop-color="#E4FBEF"/><stop offset=".514" stop-color="#C6EAD0"/><stop offset=".976" stop-color="#BEE4C8"/></radialGradient><radialGradient id="paint10_radial_2054_35532" cx="0" cy="0" r="1" gradientUnits="userSpaceOnUse" gradientTransform="matrix(30.3797 0 0 53.5019 65.464 40.142)"><stop stop-color="#93D3A2"/><stop offset=".189" stop-color="#8DD09C"/><stop offset=".442" stop-color="#7CC88B"/><stop offset=".597" stop-color="#6EC17D"/><stop offset="1" stop-color="#528E61"/></radialGradient><radialGradient id="paint11_radial_2054_35532" cx="0" cy="0" r="1" gradientUnits="userSpaceOnUse" gradientTransform="matrix(36.8026 0 0 6.5482 23.238 85.408)"><stop stop-color="#E4FBEF"/><stop offset=".514" stop-color="#C6EAD0"/><stop offset=".976" stop-color="#BEE4C8"/></radialGradient><radialGradient id="paint12_radial_2054_35532" cx="0" cy="0" r="1" gradientUnits="userSpaceOnUse" gradientTransform="matrix(33.8734 0 0 40.7084 67.153 85.221)"><stop stop-color="#93D3A2"/><stop offset=".189" stop-color="#8DD09C"/><stop offset=".442" stop-color="#7CC88B"/><stop offset=".597" stop-color="#6EC17D"/><stop offset="1" stop-color="#528E61"/></radialGradient><radialGradient id="paint13_radial_2054_35532" cx="0" cy="0" r="1" gradientUnits="userSpaceOnUse" gradientTransform="matrix(40.287 0 0 15.7119 66.644 47.837)"><stop stop-color="#FFAB56"/><stop offset=".512" stop-color="#FF982A"/><stop offset=".598" stop-color="#FF8F2A"/><stop offset=".976" stop-color="#FF6927"/></radialGradient><radialGradient id="paint14_radial_2054_35532" cx="0" cy="0" r="1" gradientUnits="userSpaceOnUse" gradientTransform="matrix(21.5009 0 0 32.2352 20.12 50.258)"><stop stop-color="#FFF9E2"/><stop offset=".535" stop-color="#FFE4CB"/><stop offset=".623" stop-color="#FFDFC1"/><stop offset=".973" stop-color="#FFCB9B"/></radialGradient><radialGradient id="paint15_radial_2054_35532" cx="0" cy="0" r="1" gradientUnits="userSpaceOnUse" gradientTransform="translate(37.732 34.3) scale(14.0139)"><stop stop-color="#FFAB56"/><stop offset=".512" stop-color="#FF982A"/><stop offset=".598" stop-color="#FF8F2A"/><stop offset=".976" stop-color="#FF6927"/></radialGradient><radialGradient id="paint16_radial_2054_35532" cx="0" cy="0" r="1" gradientUnits="userSpaceOnUse" gradientTransform="translate(12.898 35.596) scale(16.8546)"><stop stop-color="#FFF9E2"/><stop offset=".535" stop-color="#FFE4CB"/><stop offset=".623" stop-color="#FFDFC1"/><stop offset=".973" stop-color="#FFCB9B"/></radialGradient><radialGradient id="paint17_radial_2054_35532" cx="0" cy="0" r="1" gradientUnits="userSpaceOnUse" gradientTransform="matrix(23.3764 0 0 4.36547 12.845 60.938)"><stop stop-color="#E4FBEF"/><stop offset=".514" stop-color="#C6EAD0"/><stop offset=".976" stop-color="#BEE4C8"/></radialGradient><radialGradient id="paint18_radial_2054_35532" cx="0" cy="0" r="1" gradientUnits="userSpaceOnUse" gradientTransform="matrix(23.2801 0 0 17.4619 12.256 46.953)"><stop stop-color="#E4FBEF"/><stop offset=".514" stop-color="#C6EAD0"/><stop offset=".976" stop-color="#BEE4C8"/></radialGradient><radialGradient id="paint19_radial_2054_35532" cx="0" cy="0" r="1" gradientUnits="userSpaceOnUse" gradientTransform="matrix(13.5912 0 0 26.1694 31.654 60.956)"><stop stop-color="#93D3A2"/><stop offset=".189" stop-color="#8DD09C"/><stop offset=".442" stop-color="#7CC88B"/><stop offset=".597" stop-color="#6EC17D"/><stop offset="1" stop-color="#528E61"/></radialGradient></defs></svg>