<svg width="96" height="96" fill="none" xmlns="http://www.w3.org/2000/svg"><path d="M41.81 48c-5.792 0-11.23 1.52-15.935 4.182l18.651 3.085c3.008-2.592 6.35-7.267 9.66-7.267H41.81z" fill="url(#paint0_radial_2054_35512)"/><path d="M41.81 48c-5.792 0-11.23 1.52-15.935 4.182l18.651 3.085c3.008-2.592 6.35-7.267 9.66-7.267H41.81z" fill="#fff" fill-opacity=".5"/><path d="M44.676 52.182H25.875c-9.837 5.564-16.477 16.122-16.477 28.23V91.2h12.376S38.1 57.848 44.676 52.182z" fill="url(#paint1_radial_2054_35512)"/><path d="M70.03 52.13A32.266 32.266 0 0054.187 48c-5.793 0-11.23 1.52-15.936 4.182l15.877 34.285L70.03 52.13z" fill="url(#paint2_radial_2054_35512)"/><path d="M70.03 52.13A32.266 32.266 0 0054.187 48c-5.793 0-11.23 1.52-15.936 4.182l15.877 34.285L70.03 52.13z" fill="#fff" fill-opacity=".5"/><path d="M70.03 52.13L54.127 81.668 38.25 52.182c-9.837 5.564-16.477 16.122-16.477 28.23V91.2h64.824V80.412c0-12.145-6.68-22.73-16.566-28.281z" fill="url(#paint3_radial_2054_35512)"/><path d="M56.525 55.267l-2.4-2.4-2.4 2.4-1.963 21.6 4.363 4.798 4.364-4.798-1.964-21.6z" fill="url(#paint4_radial_2054_35512)"/><path d="M56.528 55.267h-4.8l-2.197-6.651a.468.468 0 01.446-.616h8.303a.47.47 0 01.445.616l-2.197 6.65z" fill="url(#paint5_radial_2054_35512)"/><path d="M54.127 81.667L38.25 52.182 32.954 63.92a.937.937 0 00.558 1.275l6.215 2.072-3.88 3.88a.938.938 0 00.243 1.502l18.037 9.018z" fill="url(#paint6_radial_2054_35512)"/><path d="M54.125 81.667l15.877-29.485 5.296 11.738a.937.937 0 01-.558 1.275l-6.215 2.072 3.88 3.88a.938.938 0 01-.243 1.502l-18.037 9.018z" fill="url(#paint7_radial_2054_35512)"/><path d="M44.73 0h9.595c-7.716 0-9.818 20.33-6.306 31.407l1.508-.207c.255.57.504 1.192.756 1.823 1.044 2.608 2.153 5.382 4.042 5.382H44.73A19.13 19.13 0 0132.023 33.6a19.156 19.156 0 01-6.496-14.398C25.527 8.597 34.124 0 44.73 0z" fill="url(#paint8_radial_2054_35512)"/><path d="M46.385 20.402h-20.82c-.05-.8-.05-1.601 0-2.4h20.82c-.019.8-.019 1.6 0 2.4zm1.974 12H30.784a19.285 19.285 0 002.746 2.4h15.915a16.816 16.816 0 01-1.086-2.4zm0-26.4a16.89 16.89 0 011.086-2.4H33.53a19.293 19.293 0 00-2.746 2.4h17.575zm-1.269 21.6a41.329 41.329 0 01-.364-2.4H26.484c.27.82.595 1.622.974 2.4H47.09zm-.363-14.4c.1-.819.221-1.621.363-2.4H27.457a19.079 19.079 0 00-.974 2.4h20.244z" fill="url(#paint9_radial_2054_35512)"/><path d="M54.323 38.404c10.605 0 19.203-8.597 19.203-19.202C73.526 8.597 64.929 0 54.323 0 43.718 0 35.121 8.597 35.121 19.202c0 10.605 8.597 19.202 19.202 19.202z" fill="url(#paint10_radial_2054_35512)"/><path fill-rule="evenodd" clip-rule="evenodd" d="M37.523 19.203c0-9.28 7.523-16.803 16.803-16.803 9.28 0 16.802 7.523 16.802 16.803 0 9.28-7.523 16.802-16.802 16.802-9.28 0-16.803-7.523-16.803-16.802zm2.4 0c0 7.954 6.449 14.402 14.403 14.402 7.954 0 14.402-6.448 14.402-14.402 0-7.954-6.448-14.403-14.402-14.403-7.954 0-14.403 6.448-14.403 14.403zm8.077.414v2.471h2.23v2.676H48v2.314h2.23v3.589h2.646v-3.59h4.573v-2.313h-4.573v-2.676h2.922c.15 0 .362-.005.64-.016.287-.02.6-.057.936-.11 1.745-.294 3.063-1.055 3.955-2.282.892-1.239 1.338-2.755 1.338-4.55 0-1.206-.199-2.303-.595-3.29a6.024 6.024 0 00-1.784-2.455c-.783-.65-1.754-1.07-2.914-1.26A8.836 8.836 0 0056.271 8c-2.16 0-3.11 0-3.935.442a3.961 3.961 0 00-1.686 1.772c-.42.867-.42 2.003-.42 4.274v5.129H48zm4.876 0h2.833c.169 0 .367-.01.595-.032.238-.02.485-.063.743-.126.991-.252 1.725-.771 2.2-1.558.476-.787.714-1.69.714-2.707 0-.651-.1-1.28-.297-1.89a4.069 4.069 0 00-.952-1.59c-.426-.45-.98-.755-1.665-.912a2.912 2.912 0 00-.743-.126 15.85 15.85 0 00-.595-.016h-.776c-.72 0-1.08 0-1.355.147a1.32 1.32 0 00-.562.591c-.14.29-.14.668-.14 1.425v6.794z" fill="url(#paint11_radial_2054_35512)"/><defs><radialGradient id="paint0_radial_2054_35512" cx="0" cy="0" r="1" gradientUnits="userSpaceOnUse" gradientTransform="matrix(73.5034 0 0 6.60907 19.11 49.42)"><stop stop-color="#E4FBEF"/><stop offset=".514" stop-color="#C6EAD0"/><stop offset=".976" stop-color="#BEE4C8"/></radialGradient><radialGradient id="paint1_radial_2054_35512" cx="0" cy="0" r="1" gradientUnits="userSpaceOnUse" gradientTransform="matrix(91.5907 0 0 35.4861 .97 59.81)"><stop stop-color="#E4FBEF"/><stop offset=".514" stop-color="#C6EAD0"/><stop offset=".976" stop-color="#BEE4C8"/></radialGradient><radialGradient id="paint2_radial_2054_35512" cx="0" cy="0" r="1" gradientUnits="userSpaceOnUse" gradientTransform="matrix(82.5132 0 0 34.9846 30.656 55.52)"><stop stop-color="#E4FBEF"/><stop offset=".514" stop-color="#C6EAD0"/><stop offset=".976" stop-color="#BEE4C8"/></radialGradient><radialGradient id="paint3_radial_2054_35512" cx="0" cy="0" r="1" gradientUnits="userSpaceOnUse" gradientTransform="matrix(61.1832 0 0 47.3343 77.84 84.248)"><stop stop-color="#93D3A2"/><stop offset=".189" stop-color="#8DD09C"/><stop offset=".442" stop-color="#7CC88B"/><stop offset=".597" stop-color="#6EC17D"/><stop offset="1" stop-color="#528E61"/></radialGradient><radialGradient id="paint4_radial_2054_35512" cx="0" cy="0" r="1" gradientUnits="userSpaceOnUse" gradientTransform="matrix(-19.9571 0 0 -51.5569 58.351 83.79)"><stop stop-color="#FF6470"/><stop offset=".504" stop-color="#FF4555"/><stop offset=".629" stop-color="#EF3A4B"/><stop offset=".942" stop-color="#C92136"/></radialGradient><radialGradient id="paint5_radial_2054_35512" cx="0" cy="0" r="1" gradientUnits="userSpaceOnUse" gradientTransform="matrix(-21.1303 0 0 -13.0099 58.602 55.803)"><stop stop-color="#FF6470"/><stop offset=".504" stop-color="#FF4555"/><stop offset=".629" stop-color="#EF3A4B"/><stop offset=".942" stop-color="#C92136"/></radialGradient><radialGradient id="paint6_radial_2054_35512" cx="0" cy="0" r="1" gradientUnits="userSpaceOnUse" gradientTransform="matrix(55.1871 0 0 26.8161 27.792 57.946)"><stop stop-color="#E4FBEF"/><stop offset=".514" stop-color="#C6EAD0"/><stop offset=".976" stop-color="#BEE4C8"/></radialGradient><radialGradient id="paint7_radial_2054_35512" cx="0" cy="0" r="1" gradientUnits="userSpaceOnUse" gradientTransform="matrix(55.1871 0 0 26.8161 49.046 57.946)"><stop stop-color="#E4FBEF"/><stop offset=".514" stop-color="#C6EAD0"/><stop offset=".976" stop-color="#BEE4C8"/></radialGradient><radialGradient id="paint8_radial_2054_35512" cx="0" cy="0" r="1" gradientUnits="userSpaceOnUse" gradientTransform="matrix(29.2207 0 0 26.6418 45.307 9.552)"><stop stop-color="#FFF9E2"/><stop offset=".535" stop-color="#FFE4CB"/><stop offset=".623" stop-color="#FFDFC1"/><stop offset=".973" stop-color="#FFCB9B"/></radialGradient><radialGradient id="paint9_radial_2054_35512" cx="0" cy="0" r="1" gradientUnits="userSpaceOnUse" gradientTransform="matrix(24.2694 0 0 21.6439 41.955 11.362)"><stop stop-color="#FFEEAD"/><stop offset=".535" stop-color="#FFCA99"/><stop offset=".623" stop-color="#FFC58F"/><stop offset=".973" stop-color="#FFAF66"/></radialGradient><radialGradient id="paint10_radial_2054_35512" cx="0" cy="0" r="1" gradientUnits="userSpaceOnUse" gradientTransform="matrix(0 31.6969 -32.1364 0 70.563 17.48)"><stop stop-color="#FFC58A"/><stop offset=".512" stop-color="#FFB05C"/><stop offset=".598" stop-color="#FFAC61"/><stop offset=".976" stop-color="#FF9161"/></radialGradient><radialGradient id="paint11_radial_2054_35512" cx="0" cy="0" r="1" gradientUnits="userSpaceOnUse" gradientTransform="scale(28.1198 27.7354) rotate(90 .9 1.538)"><stop stop-color="#FF9C38"/><stop offset=".512" stop-color="#FF8B0F"/><stop offset=".598" stop-color="#FF810F"/><stop offset=".976" stop-color="#F54B00"/></radialGradient></defs></svg>