<svg width="96" height="96" fill="none" xmlns="http://www.w3.org/2000/svg"><path d="M53.402 17.143l34.774 9.317c.208.056.417.082.622.082h4.34a2.39 2.39 0 01-.622-.082L59.998 14.4l-6.596 2.743z" fill="url(#paint0_radial_2054_35476)"/><path d="M83.634 57.6l-12.11-34.258 4.802-1.676L91.199 60l-7.565-2.4z" fill="#E5E7EB"/><path d="M69.283 21.396L56.484 57.6 62.4 60l11.354-38.603h-4.47z" fill="#E5E7EB"/><path d="M63.224 57.6L62.4 60l-1.575-2.4L74.4 19.2h2.4L63.224 57.6z" fill="#A0A2A6"/><path d="M87.973 57.6l.825 2.4 1.575-2.4-13.575-38.4h-2.4l13.575 38.4z" fill="#A0A2A6"/><path fill-rule="evenodd" clip-rule="evenodd" d="M52.8 57.6h19.088v4.815l.11-.015-.112 4.8h-14.4a4.685 4.685 0 01-4.091-2.4h.006-.004a4.665 4.665 0 01-.596-2.288V57.6z" fill="url(#paint1_radial_2054_35476)"/><path fill-rule="evenodd" clip-rule="evenodd" d="M46.364 7.625h9.6c-2.006 0-3 3.666-2.982 7.3l.582-.1.053.4c.348 2.678.884 6.8 2.348 6.8h-9.6a7.167 7.167 0 01-4.035-1.237 7.22 7.22 0 01-2.755-3.563h-.001a7.2 7.2 0 016.79-9.6z" fill="url(#paint2_radial_2054_35476)"/><path d="M42.328 86.401h12.87l-3.27-65.612h-9.6v65.612z" fill="url(#paint3_radial_2054_35476)"/><path d="M9.599 0h-4.8a2.401 2.401 0 00-.621 4.719l36.964 9.904h4.84C43.986 13.843 8.568 0 9.599 0z" fill="url(#paint4_radial_2054_35476)"/><path d="M46.357 91.2H27.27v-2.513A4.688 4.688 0 0131.957 84h15.457l-1.057 7.2z" fill="url(#paint5_radial_2054_35476)"/><path d="M92.516 26.46l-34.774-9.318 1.243-4.636 34.773 9.317a2.4 2.4 0 11-1.242 4.637z" fill="url(#paint6_radial_2054_35476)"/><path d="M51.93 12.424H60V86.4h-8.07V12.424z" fill="url(#paint7_radial_2054_35476)"/><path d="M55.966 22.025a7.2 7.2 0 100-14.4 7.2 7.2 0 000 14.4z" fill="url(#paint8_radial_2054_35476)"/><path d="M72.114 84H46.36a4.688 4.688 0 00-4.687 4.688V91.2h35.13v-2.513A4.688 4.688 0 0072.114 84z" fill="url(#paint9_radial_2054_35476)"/><path d="M29.551 45.6L17.406 11.245l5.04-2.522L38.4 48l-8.85-2.4z" fill="#E5E7EB"/><path d="M35.177 45.6L36 48l1.576-2.4L24.002 7.2h-2.4l13.575 38.4z" fill="#A0A2A6"/><path d="M16.51 8.023L3.228 45.601 8.945 48l13.24-39.978H16.51z" fill="#E5E7EB"/><path d="M10.423 45.6L9.598 48l-1.575-2.4L21.598 7.2h2.4L10.423 45.6z" fill="#A0A2A6"/><path d="M47.183 9.986L10.22.082A2.4 2.4 0 008.979 4.72l36.963 9.904a9.974 9.974 0 011.24-4.637z" fill="url(#paint10_radial_2054_35476)"/><path fill-rule="evenodd" clip-rule="evenodd" d="M0 45.6h19.087v4.815l.114-.015-.112 4.8h-14.4a4.685 4.685 0 01-4.091-2.4h.006-.008A4.665 4.665 0 010 50.512V45.6z" fill="url(#paint11_radial_2054_35476)"/><path d="M38.51 55.2H19.087a4.688 4.688 0 01-4.688-4.688V45.6h28.8v4.912a4.688 4.688 0 01-4.687 4.688z" fill="url(#paint12_radial_2054_35476)"/><path fill-rule="evenodd" clip-rule="evenodd" d="M71 44.287v4.548h2.776v2.452H71v4.153h2.776V59h5.393v-3.56h6.692v-4.153H79.17v-2.452h2.886c.106 0 .39-.006.852-.02.463-.013.972-.059 1.527-.138 2.498-.356 4.348-1.305 5.551-2.848 1.216-1.542 1.825-3.52 1.825-5.932 0-1.556-.259-2.986-.774-4.291a7.566 7.566 0 00-2.419-3.243c-1.084-.87-2.478-1.43-4.183-1.681a13.674 13.674 0 00-1.527-.139 44.51 44.51 0 00-.852-.02h-8.279v13.764H71zm8.169 0h2.647c.2 0 .45-.007.754-.02a5.311 5.311 0 001.07-.217c.992-.304 1.693-.805 2.103-1.503.422-.699.633-1.53.633-2.492a6.67 6.67 0 00-.237-1.72 3.775 3.775 0 00-.813-1.582c-.397-.475-.958-.811-1.685-1.009a4.33 4.33 0 00-1.071-.178c-.357-.013-.608-.02-.754-.02H79.17v8.74z" fill="url(#paint13_radial_2054_35476)"/><path fill-rule="evenodd" clip-rule="evenodd" d="M73.191 44.287v4.548h2.777v2.452H73.19v4.153h2.777V59h5.392v-3.56h6.693v-4.153H81.36v-2.452h2.886c.106 0 .39-.006.853-.02.462-.013.971-.059 1.526-.138 2.499-.356 4.349-1.305 5.552-2.848C93.392 44.287 94 42.31 94 39.897c0-1.556-.258-2.986-.774-4.291a7.566 7.566 0 00-2.418-3.243c-1.084-.87-2.478-1.43-4.184-1.681a13.672 13.672 0 00-1.526-.139 44.51 44.51 0 00-.853-.02h-8.278v13.764H73.19zm8.17 0h2.647c.199 0 .45-.007.753-.02a5.311 5.311 0 001.071-.217c.992-.304 1.692-.805 2.102-1.503.423-.699.634-1.53.634-2.492 0-.554-.08-1.127-.237-1.72a3.775 3.775 0 00-.814-1.582c-.396-.475-.958-.811-1.685-1.009a4.33 4.33 0 00-1.07-.178 24.65 24.65 0 00-.754-.02H81.36v8.74z" fill="url(#paint14_radial_2054_35476)"/><path d="M91.312 67.2H71.887a4.688 4.688 0 01-4.688-4.688V57.6H96v4.912a4.688 4.688 0 01-4.687 4.688z" fill="url(#paint15_radial_2054_35476)"/><path d="M33.602 84h14.4l2.812-4.8h-14.4a2.813 2.813 0 00-2.812 2.812v1.987z" fill="url(#paint16_radial_2054_35476)"/><path d="M69.6 84H48v-1.988a2.813 2.813 0 012.813-2.813h15.974a2.813 2.813 0 012.813 2.813v1.987z" fill="url(#paint17_radial_2054_35476)"/><defs><radialGradient id="paint0_radial_2054_35476" cx="0" cy="0" r="1" gradientUnits="userSpaceOnUse" gradientTransform="matrix(103.166 0 0 11.0428 43.908 16.774)"><stop stop-color="#E4FBEF"/><stop offset=".514" stop-color="#C6EAD0"/><stop offset=".976" stop-color="#BEE4C8"/></radialGradient><radialGradient id="paint1_radial_2054_35476" cx="0" cy="0" r="1" gradientUnits="userSpaceOnUse" gradientTransform="matrix(49.5569 0 0 6.5482 48.24 59.007)"><stop stop-color="#E4FBEF"/><stop offset=".514" stop-color="#C6EAD0"/><stop offset=".976" stop-color="#BEE4C8"/></radialGradient><radialGradient id="paint2_radial_2054_35476" cx="0" cy="0" r="1" gradientUnits="userSpaceOnUse" gradientTransform="matrix(43.6179 0 0 8.73034 35.15 9.502)"><stop stop-color="#E4FBEF"/><stop offset=".514" stop-color="#C6EAD0"/><stop offset=".976" stop-color="#BEE4C8"/></radialGradient><radialGradient id="paint3_radial_2054_35476" cx="0" cy="0" r="1" gradientUnits="userSpaceOnUse" gradientTransform="matrix(33.4144 0 0 59.6723 39.253 33.617)"><stop stop-color="#E4FBEF"/><stop offset=".514" stop-color="#C6EAD0"/><stop offset=".976" stop-color="#BEE4C8"/></radialGradient><radialGradient id="paint4_radial_2054_35476" cx="0" cy="0" r="1" gradientUnits="userSpaceOnUse" gradientTransform="matrix(113.155 0 0 13.2993 -8.015 2.859)"><stop stop-color="#E4FBEF"/><stop offset=".514" stop-color="#C6EAD0"/><stop offset=".976" stop-color="#BEE4C8"/></radialGradient><radialGradient id="paint5_radial_2054_35476" cx="0" cy="0" r="1" gradientUnits="userSpaceOnUse" gradientTransform="matrix(52.3025 0 0 6.5482 22.456 85.408)"><stop stop-color="#E4FBEF"/><stop offset=".514" stop-color="#C6EAD0"/><stop offset=".976" stop-color="#BEE4C8"/></radialGradient><radialGradient id="paint6_radial_2054_35476" cx="0" cy="0" r="1" gradientUnits="userSpaceOnUse" gradientTransform="matrix(35.6725 0 0 17.0057 90.43 24.045)"><stop stop-color="#93D3A2"/><stop offset=".189" stop-color="#8DD09C"/><stop offset=".442" stop-color="#7CC88B"/><stop offset=".597" stop-color="#6EC17D"/><stop offset="1" stop-color="#528E61"/></radialGradient><radialGradient id="paint7_radial_2054_35476" cx="0" cy="0" r="1" gradientUnits="userSpaceOnUse" gradientTransform="matrix(7.61676 0 0 89.6254 58.91 73.237)"><stop stop-color="#93D3A2"/><stop offset=".189" stop-color="#8DD09C"/><stop offset=".442" stop-color="#7CC88B"/><stop offset=".597" stop-color="#6EC17D"/><stop offset="1" stop-color="#528E61"/></radialGradient><radialGradient id="paint8_radial_2054_35476" cx="0" cy="0" r="1" gradientUnits="userSpaceOnUse" gradientTransform="matrix(13.5912 0 0 17.4463 61.22 19.463)"><stop stop-color="#93D3A2"/><stop offset=".189" stop-color="#8DD09C"/><stop offset=".442" stop-color="#7CC88B"/><stop offset=".597" stop-color="#6EC17D"/><stop offset="1" stop-color="#528E61"/></radialGradient><radialGradient id="paint9_radial_2054_35476" cx="0" cy="0" r="1" gradientUnits="userSpaceOnUse" gradientTransform="matrix(33.157 0 0 8.72313 72.055 89.919)"><stop stop-color="#93D3A2"/><stop offset=".189" stop-color="#8DD09C"/><stop offset=".442" stop-color="#7CC88B"/><stop offset=".597" stop-color="#6EC17D"/><stop offset="1" stop-color="#528E61"/></radialGradient><radialGradient id="paint10_radial_2054_35476" cx="0" cy="0" r="1" gradientUnits="userSpaceOnUse" gradientTransform="matrix(37.7381 0 0 17.7166 41.78 12.021)"><stop stop-color="#93D3A2"/><stop offset=".189" stop-color="#8DD09C"/><stop offset=".442" stop-color="#7CC88B"/><stop offset=".597" stop-color="#6EC17D"/><stop offset="1" stop-color="#528E61"/></radialGradient><radialGradient id="paint11_radial_2054_35476" cx="0" cy="0" r="1" gradientUnits="userSpaceOnUse" gradientTransform="matrix(49.5569 0 0 6.5482 -4.56 47.007)"><stop stop-color="#E4FBEF"/><stop offset=".514" stop-color="#C6EAD0"/><stop offset=".976" stop-color="#BEE4C8"/></radialGradient><radialGradient id="paint12_radial_2054_35476" cx="0" cy="0" r="1" gradientUnits="userSpaceOnUse" gradientTransform="matrix(27.1825 0 0 11.6308 39.307 53.491)"><stop stop-color="#93D3A2"/><stop offset=".189" stop-color="#8DD09C"/><stop offset=".442" stop-color="#7CC88B"/><stop offset=".597" stop-color="#6EC17D"/><stop offset="1" stop-color="#528E61"/></radialGradient><radialGradient id="paint13_radial_2054_35476" cx="0" cy="0" r="1" gradientUnits="userSpaceOnUse" gradientTransform="matrix(41.1976 0 0 22.5503 75.13 35.081)"><stop stop-color="#FFF9E2"/><stop offset=".535" stop-color="#FFE4CB"/><stop offset=".623" stop-color="#FFDFC1"/><stop offset=".973" stop-color="#FFCB9B"/></radialGradient><radialGradient id="paint14_radial_2054_35476" cx="0" cy="0" r="1" gradientUnits="userSpaceOnUse" gradientTransform="matrix(22.8985 0 0 25.3663 93.308 39.137)"><stop stop-color="#FFAB56"/><stop offset=".512" stop-color="#FF982A"/><stop offset=".598" stop-color="#FF8F2A"/><stop offset=".976" stop-color="#FF6927"/></radialGradient><radialGradient id="paint15_radial_2054_35476" cx="0" cy="0" r="1" gradientUnits="userSpaceOnUse" gradientTransform="matrix(27.1825 0 0 11.6308 92.108 65.491)"><stop stop-color="#93D3A2"/><stop offset=".189" stop-color="#8DD09C"/><stop offset=".442" stop-color="#7CC88B"/><stop offset=".597" stop-color="#6EC17D"/><stop offset="1" stop-color="#528E61"/></radialGradient><radialGradient id="paint16_radial_2054_35476" cx="0" cy="0" r="1" gradientUnits="userSpaceOnUse" gradientTransform="matrix(34.0764 0 0 3.80111 37.018 79.967)"><stop stop-color="#FFF9E2"/><stop offset=".535" stop-color="#FFE4CB"/><stop offset=".623" stop-color="#FFDFC1"/><stop offset=".973" stop-color="#FFCB9B"/></radialGradient><radialGradient id="paint17_radial_2054_35476" cx="0" cy="0" r="1" gradientUnits="userSpaceOnUse" gradientTransform="matrix(23.7683 0 0 4.27579 68.88 80.651)"><stop stop-color="#FFAB56"/><stop offset=".512" stop-color="#FF982A"/><stop offset=".598" stop-color="#FF8F2A"/><stop offset=".976" stop-color="#FF6927"/></radialGradient></defs></svg>