<svg width="96" height="96" fill="none" xmlns="http://www.w3.org/2000/svg"><g clip-path="url(#clip0_2054_35565)"><path d="M79.201 49.597a4.673 4.673 0 01-3.315-1.372L46.04 18.377l8.75-1.576s30.412 32.797 31.612 32.797h-7.2z" fill="url(#paint0_radial_2054_35565)"/><path d="M14.398 40.8v40.8l16.8 2.4 9.6-45.6-26.4 2.4z" fill="url(#paint1_radial_2054_35565)"/><path d="M6.788 49.979a4.673 4.673 0 01-3.314-1.373L0 45.132l16.8-1.93s4.507 6.777 5.707 6.777H6.788z" fill="url(#paint2_radial_2054_35565)"/><path d="M0 45.132L40.331 4.801H56.05L40.8 24 15.719 45.132H0z" fill="url(#paint3_radial_2054_35565)"/><path d="M81.6 81.602l-24 2.4-28.8-2.4v-40.8l27.25-31.2 25.55 31.2v40.8z" fill="url(#paint4_radial_2054_35565)"/><path d="M86.4 49.597a4.673 4.673 0 01-3.314-1.372L53.238 18.377l4.362-1.576s30.412 32.797 31.612 32.797H86.4z" fill="url(#paint5_radial_2054_35565)"/><path d="M96 44.751L56.05 4.801 15.719 45.132l3.473 3.474a4.687 4.687 0 006.63 0L56.05 18.377l29.847 29.848a4.687 4.687 0 006.63 0L96 44.75z" fill="url(#paint6_radial_2054_35565)"/><path fill-rule="evenodd" clip-rule="evenodd" d="M37.316 59.338v7.053h4.295v3.803h-4.295v6.44h4.295v5.52h8.34v-5.52h10.352v-6.44H49.952v-3.803h4.463c.164 0 .603-.01 1.32-.03.714-.02 1.502-.092 2.36-.215 3.865-.552 6.727-2.024 8.587-4.416 1.88-2.392 2.822-5.458 2.822-9.2 0-2.412-.4-4.63-1.197-6.654a11.733 11.733 0 00-3.74-5.03c-1.678-1.35-3.834-2.218-6.472-2.607a21.107 21.107 0 00-2.36-.214c-.717-.02-1.156-.03-1.32-.03H41.611v21.343h-4.295zm12.636 0h4.095c.307 0 .695-.01 1.165-.03a8.211 8.211 0 001.656-.338c1.534-.47 2.618-1.247 3.252-2.33.653-1.084.98-2.372.98-3.865 0-.858-.122-1.747-.367-2.668a5.86 5.86 0 00-1.258-2.453c-.613-.736-1.482-1.257-2.607-1.564a6.684 6.684 0 00-1.656-.276c-.552-.02-.94-.03-1.165-.03h-4.095v13.554z" fill="url(#paint7_radial_2054_35565)"/><path fill-rule="evenodd" clip-rule="evenodd" d="M41.32 59.338v7.053h4.295v3.803H41.32v6.44h4.295v5.52h8.34v-5.52h10.352v-6.44H53.956v-3.803h4.463c.164 0 .603-.01 1.32-.03.714-.02 1.502-.092 2.36-.215 3.864-.552 6.727-2.024 8.587-4.416 1.88-2.392 2.822-5.458 2.822-9.2 0-2.412-.4-4.63-1.197-6.654a11.733 11.733 0 00-3.74-5.03c-1.678-1.35-3.834-2.218-6.472-2.607a21.107 21.107 0 00-2.36-.214c-.717-.02-1.156-.03-1.32-.03H45.615v21.343H41.32zm12.636 0h4.095c.307 0 .695-.01 1.165-.03a8.211 8.211 0 001.656-.338c1.534-.47 2.618-1.247 3.252-2.33.653-1.084.98-2.372.98-3.865 0-.858-.122-1.747-.367-2.668a5.86 5.86 0 00-1.258-2.453c-.613-.736-1.482-1.257-2.607-1.564a6.684 6.684 0 00-1.656-.276c-.552-.02-.94-.03-1.165-.03h-4.095v13.554z" fill="url(#paint8_radial_2054_35565)"/><path d="M7.871 86.402v-.67a4.13 4.13 0 014.13-4.13h14.4c-2.281 0-4.13 4.8-4.13 4.8h-14.4z" fill="url(#paint9_radial_2054_35565)"/><path d="M83.999 81.602h-57.6a4.13 4.13 0 00-4.13 4.13v.67h65.86v-.67a4.13 4.13 0 00-4.13-4.13z" fill="url(#paint10_radial_2054_35565)"/></g><defs><radialGradient id="paint0_radial_2054_35565" cx="0" cy="0" r="1" gradientUnits="userSpaceOnUse" gradientTransform="matrix(79.9065 0 0 25.9717 54.05 22.05)"><stop stop-color="#FFF9E2"/><stop offset=".535" stop-color="#FFE4CB"/><stop offset=".623" stop-color="#FFDFC1"/><stop offset=".973" stop-color="#FFCB9B"/></radialGradient><radialGradient id="paint1_radial_2054_35565" cx="0" cy="0" r="1" gradientUnits="userSpaceOnUse" gradientTransform="matrix(68.5424 0 0 41.4719 8.09 47.316)"><stop stop-color="#E4FBEF"/><stop offset=".514" stop-color="#C6EAD0"/><stop offset=".976" stop-color="#BEE4C8"/></radialGradient><radialGradient id="paint2_radial_2054_35565" cx="0" cy="0" r="1" gradientUnits="userSpaceOnUse" gradientTransform="matrix(44.5577 0 0 5.36729 4.467 44.286)"><stop stop-color="#FFF9E2"/><stop offset=".535" stop-color="#FFE4CB"/><stop offset=".623" stop-color="#FFDFC1"/><stop offset=".973" stop-color="#FFCB9B"/></radialGradient><radialGradient id="paint3_radial_2054_35565" cx="0" cy="0" r="1" gradientUnits="userSpaceOnUse" gradientTransform="matrix(110.964 0 0 31.9383 11.125 11.256)"><stop stop-color="#FFF9E2"/><stop offset=".535" stop-color="#FFE4CB"/><stop offset=".623" stop-color="#FFDFC1"/><stop offset=".973" stop-color="#FFCB9B"/></radialGradient><radialGradient id="paint4_radial_2054_35565" cx="0" cy="0" r="1" gradientUnits="userSpaceOnUse" gradientTransform="matrix(49.8345 0 0 90.139 74.467 70.763)"><stop stop-color="#93D3A2"/><stop offset=".189" stop-color="#8DD09C"/><stop offset=".442" stop-color="#7CC88B"/><stop offset=".597" stop-color="#6EC17D"/><stop offset="1" stop-color="#528E61"/></radialGradient><radialGradient id="paint5_radial_2054_35565" cx="0" cy="0" r="1" gradientUnits="userSpaceOnUse" gradientTransform="matrix(71.2189 0 0 25.9717 60.379 22.05)"><stop stop-color="#FFF9E2"/><stop offset=".535" stop-color="#FFE4CB"/><stop offset=".623" stop-color="#FFDFC1"/><stop offset=".973" stop-color="#FFCB9B"/></radialGradient><radialGradient id="paint6_radial_2054_35565" cx="0" cy="0" r="1" gradientUnits="userSpaceOnUse" gradientTransform="matrix(64.4604 0 0 59.1525 68.23 4.186)"><stop stop-color="#FFAB56"/><stop offset=".512" stop-color="#FF982A"/><stop offset=".598" stop-color="#FF8F2A"/><stop offset=".976" stop-color="#FF6927"/></radialGradient><radialGradient id="paint7_radial_2054_35565" cx="0" cy="0" r="1" gradientUnits="userSpaceOnUse" gradientTransform="matrix(63.7231 0 0 34.9702 43.705 45.062)"><stop stop-color="#FFF9E2"/><stop offset=".535" stop-color="#FFE4CB"/><stop offset=".623" stop-color="#FFDFC1"/><stop offset=".973" stop-color="#FFCB9B"/></radialGradient><radialGradient id="paint8_radial_2054_35565" cx="0" cy="0" r="1" gradientUnits="userSpaceOnUse" gradientTransform="matrix(25.8443 0 0 57.8199 62.374 37.394)"><stop stop-color="#FFAB56"/><stop offset=".512" stop-color="#FF982A"/><stop offset=".598" stop-color="#FF8F2A"/><stop offset=".976" stop-color="#FF6927"/></radialGradient><radialGradient id="paint9_radial_2054_35565" cx="0" cy="0" r="1" gradientUnits="userSpaceOnUse" gradientTransform="matrix(17.7293 0 0 6.9144 12.894 80.482)"><stop stop-color="#FFF9E2"/><stop offset=".535" stop-color="#FFE4CB"/><stop offset=".623" stop-color="#FFDFC1"/><stop offset=".973" stop-color="#FFCB9B"/></radialGradient><radialGradient id="paint10_radial_2054_35565" cx="0" cy="0" r="1" gradientUnits="userSpaceOnUse" gradientTransform="matrix(53.0231 0 0 23.7543 76.467 86.736)"><stop stop-color="#FFAB56"/><stop offset=".512" stop-color="#FF982A"/><stop offset=".598" stop-color="#FF8F2A"/><stop offset=".976" stop-color="#FF6927"/></radialGradient><clipPath id="clip0_2054_35565"><path fill="#fff" d="M0 0h96v96H0z"/></clipPath></defs></svg>