<svg width="181" height="162" fill="none" xmlns="http://www.w3.org/2000/svg"><path d="M177.194 113.5c0 4.45-1.326 8.8-3.81 12.5a22.593 22.593 0 01-10.147 8.287 22.71 22.71 0 01-13.062 1.281 22.642 22.642 0 01-11.576-6.158 22.466 22.466 0 01-6.188-11.52 22.396 22.396 0 011.287-13 22.52 22.52 0 018.327-10.098 22.707 22.707 0 0121.213-2.08 22.62 22.62 0 017.335 4.877 22.496 22.496 0 014.901 7.3 22.412 22.412 0 011.72 8.611z" fill="url(#paint0_radial_2525_50529)"/><path style="mix-blend-mode:lighten" opacity=".5" d="M153.394 113.499c0 2.108-.628 4.169-1.804 5.921a10.697 10.697 0 01-4.806 3.925 10.758 10.758 0 01-6.188.607 10.722 10.722 0 01-5.483-2.917 10.642 10.642 0 01-2.931-5.457 10.606 10.606 0 01.61-6.157 10.662 10.662 0 013.944-4.783 10.745 10.745 0 0113.522 1.325c.994.99 1.783 2.165 2.321 3.458.538 1.293.815 2.679.815 4.078z" fill="url(#paint1_radial_2525_50529)"/><path style="mix-blend-mode:lighten" opacity=".5" d="M173.894 105.804a8.99 8.99 0 01-1.528 5.007 9.044 9.044 0 01-4.065 3.318 9.095 9.095 0 01-5.232.512 9.07 9.07 0 01-4.636-2.467 9.004 9.004 0 01-2.478-4.615 8.971 8.971 0 01.516-5.207 9.017 9.017 0 013.335-4.044 9.09 9.09 0 0111.436 1.122 9.01 9.01 0 012.652 6.374z" fill="url(#paint2_radial_2525_50529)"/><g filter="url(#filter0_i_2525_50529)"><path d="M36.123 3.606a1 1 0 011.755 0l7.738 14.16a1 1 0 001.05.506l15.896-2.78a1 1 0 011.094 1.373l-6.246 14.88a1 1 0 00.259 1.135l12.083 10.695a1 1 0 01-.39 1.711L53.835 49.68a1 1 0 00-.727.91l-.828 16.117a1 1 0 01-1.581.76l-13.116-9.4a1 1 0 00-1.166 0l-13.116 9.4a1 1 0 01-1.58-.76l-.829-16.116a1 1 0 00-.726-.911L4.638 45.286a1 1 0 01-.39-1.71L16.33 32.88a1 1 0 00.26-1.136l-6.247-14.879a1 1 0 011.094-1.372l15.896 2.779a1 1 0 001.05-.506l7.739-14.16z" fill="#F1F1F1" fill-opacity=".1"/><path d="M36.123 3.606a1 1 0 011.755 0l7.738 14.16a1 1 0 001.05.506l15.896-2.78a1 1 0 011.094 1.373l-6.246 14.88a1 1 0 00.259 1.135l12.083 10.695a1 1 0 01-.39 1.711L53.835 49.68a1 1 0 00-.727.91l-.828 16.117a1 1 0 01-1.581.76l-13.116-9.4a1 1 0 00-1.166 0l-13.116 9.4a1 1 0 01-1.58-.76l-.829-16.116a1 1 0 00-.726-.911L4.638 45.286a1 1 0 01-.39-1.71L16.33 32.88a1 1 0 00.26-1.136l-6.247-14.879a1 1 0 011.094-1.372l15.896 2.779a1 1 0 001.05-.506l7.739-14.16z" fill="url(#paint3_radial_2525_50529)"/></g><path d="M36.561 3.845a.5.5 0 01.878 0l7.738 14.16a1.5 1.5 0 001.575.76l15.896-2.78a.5.5 0 01.547.687L56.949 31.55a1.5 1.5 0 00.389 1.703L69.42 43.95a.5.5 0 01-.195.855L53.698 49.2a1.5 1.5 0 00-1.09 1.366l-.827 16.116a.5.5 0 01-.791.38l-13.116-9.4a1.5 1.5 0 00-1.748 0l-13.116 9.4a.5.5 0 01-.79-.38l-.829-16.116a1.5 1.5 0 00-1.09-1.366L4.775 44.805l-.136.481.136-.48a.5.5 0 01-.195-.856l12.084-10.696a1.5 1.5 0 00.388-1.703l-6.246-14.88a.5.5 0 01.547-.685l15.896 2.778a1.5 1.5 0 001.575-.758l7.738-14.16z" stroke="url(#paint4_linear_2525_50529)" stroke-opacity=".1"/><path d="M71.747 129.258l-10.35-27.6h-10.35l6.9 37.95h17.25v-2.72c0-2.308-1.142-7.63-3.45-7.63z" fill="url(#paint5_radial_2525_50529)"/><path d="M82.098 139.608h-13.8l-6.9-37.95h13.8l6.9 37.95z" fill="url(#paint6_radial_2525_50529)"/><path d="M75.198 115.458h-6.9l-2.103-10.35h6.9l3.45 6.9-1.347 3.45z" fill="url(#paint7_radial_2525_50529)"/><path d="M82.096 115.458h-6.9l-2.102-10.35h6.9l2.102 10.35z" fill="url(#paint8_radial_2525_50529)"/><path d="M71.017 132.708h-3.975l-5.645-31.05h-10.35l6.9 37.95h17.25v-2.72a4.18 4.18 0 00-4.18-4.18z" fill="url(#paint9_radial_2525_50529)"/><path d="M85.553 139.608v-2.721a4.18 4.18 0 00-4.18-4.179h-10.35a4.18 4.18 0 014.18 4.179v2.721h10.35z" fill="url(#paint10_radial_2525_50529)"/><path d="M37.25 93.858L20 95.808v1.22c0 2.557 3.667 4.63 8.19 4.63h10.35c-1.023 0-.73-4.246-1.29-7.8z" fill="url(#paint11_radial_2525_50529)"/><path d="M38.54 56.808H28.19c-4.523 0-8.19 2.073-8.19 4.63v34.37h16.165c-1.916-12.15-1.124-39 2.376-39z" fill="url(#paint12_radial_2525_50529)"/><path d="M63.488 101.658H35.165a4.814 4.814 0 01-4.813-4.814V61.622a4.814 4.814 0 014.813-4.814h28.323a4.814 4.814 0 014.814 4.814v35.223a4.814 4.814 0 01-4.814 4.813z" fill="url(#paint13_radial_2525_50529)"/><path d="M88.997 112.008L35.54 98.644a2.303 2.303 0 01-1.744-2.234V62.056a2.303 2.303 0 011.744-2.234l53.456-13.364v65.55z" fill="url(#paint14_radial_2525_50529)"/><path d="M102.797 105.108l-17.25 3.45v2.16a8.19 8.19 0 008.19 8.19h10.35c-1.023 0-.73-7.513-1.29-13.8z" fill="url(#paint15_radial_2525_50529)"/><path d="M104.087 39.558h-10.35a8.19 8.19 0 00-8.19 8.19v60.81h16.164c-1.915-21.497-1.123-69 2.376-69z" fill="url(#paint16_radial_2525_50529)"/><path d="M149.808 118.908h-45.719a8.19 8.19 0 01-8.19-8.19v-62.97a8.19 8.19 0 018.19-8.19h45.719a8.19 8.19 0 018.19 8.19v62.97a8.19 8.19 0 01-8.19 8.19z" fill="url(#paint17_radial_2525_50529)"/><path d="M148.208 112.008h-42.522a2.888 2.888 0 01-2.889-2.889V91.308l2.527-12.03-2.527-12.12V49.347a2.889 2.889 0 012.889-2.889h42.522a2.889 2.889 0 012.889 2.889v59.772a2.888 2.888 0 01-2.889 2.889z" fill="url(#paint18_radial_2525_50529)"/><path d="M150.058 47.127l-36.91 30.381v10.35l36.795 23.573a2.892 2.892 0 001.155-2.311V49.347c0-.892-.404-1.69-1.04-2.22z" fill="url(#paint19_radial_2525_50529)"/><path d="M120.047 84.408l-17.25 3.45v3.45h17.465c-.364 0-.025-4.817-.215-6.9z" fill="url(#paint20_radial_2525_50529)"/><path d="M120.262 67.158h-17.465v20.7h16.634c-.61-6.673-.333-20.7.831-20.7z" fill="url(#paint21_radial_2525_50529)"/><path d="M137.985 91.308h-17.72a2.765 2.765 0 01-2.765-2.765v-18.62a2.765 2.765 0 012.765-2.765h17.72a2.765 2.765 0 012.765 2.765v18.62a2.765 2.765 0 01-2.765 2.765z" fill="url(#paint22_radial_2525_50529)"/><defs><radialGradient id="paint0_radial_2525_50529" cx="0" cy="0" r="1" gradientUnits="userSpaceOnUse" gradientTransform="matrix(33.0289 0 0 32.8701 154.585 105.341)"><stop stop-color="#fff"/><stop offset=".27" stop-color="#FCFCFC"/><stop offset=".48" stop-color="#F2F2F2"/><stop offset=".68" stop-color="#E0E0E0"/><stop offset=".87" stop-color="#C9C9C9"/><stop offset="1" stop-color="#B4B4B4"/></radialGradient><radialGradient id="paint1_radial_2525_50529" cx="0" cy="0" r="1" gradientUnits="userSpaceOnUse" gradientTransform="matrix(15.6454 0 0 15.5702 142.686 109.635)"><stop stop-color="#fff"/><stop offset=".27" stop-color="#FCFCFC"/><stop offset=".48" stop-color="#F2F2F2"/><stop offset=".68" stop-color="#E0E0E0"/><stop offset=".87" stop-color="#C9C9C9"/><stop offset="1" stop-color="#B4B4B4"/></radialGradient><radialGradient id="paint2_radial_2525_50529" cx="0" cy="0" r="1" gradientUnits="userSpaceOnUse" gradientTransform="matrix(13.2308 0 0 13.1672 164.837 102.537)"><stop stop-color="#fff"/><stop offset=".27" stop-color="#FCFCFC"/><stop offset=".48" stop-color="#F2F2F2"/><stop offset=".68" stop-color="#E0E0E0"/><stop offset=".87" stop-color="#C9C9C9"/><stop offset="1" stop-color="#B4B4B4"/></radialGradient><radialGradient id="paint3_radial_2525_50529" cx="0" cy="0" r="1" gradientUnits="userSpaceOnUse" gradientTransform="matrix(-30.88278 -20.48508 28.74573 -43.33632 60.476 63.385)"><stop stop-color="#C0E4ED"/><stop offset="1" stop-color="#CCE6DB"/></radialGradient><radialGradient id="paint5_radial_2525_50529" cx="0" cy="0" r="1" gradientUnits="userSpaceOnUse" gradientTransform="matrix(27.5102 0 0 27.5103 58.225 129.655)"><stop stop-color="#A2DBFF"/><stop offset=".271" stop-color="#7CD1FF"/><stop offset=".43" stop-color="#64CAFF"/><stop offset="1" stop-color="#00A8FF"/></radialGradient><radialGradient id="paint6_radial_2525_50529" cx="0" cy="0" r="1" gradientUnits="userSpaceOnUse" gradientTransform="rotate(5.163 -1356.11 958.167) scale(14.9431 10.997)"><stop stop-color="#00B8FF"/><stop offset=".504" stop-color="#00A8FF"/><stop offset=".976" stop-color="#0B3EB5"/></radialGradient><radialGradient id="paint7_radial_2525_50529" cx="0" cy="0" r="1" gradientUnits="userSpaceOnUse" gradientTransform="translate(73.606 114.434) scale(7.98837)"><stop stop-color="#FF9AA2"/><stop offset=".43" stop-color="#FF8188"/><stop offset="1" stop-color="#FF4555"/></radialGradient><radialGradient id="paint8_radial_2525_50529" cx="0" cy="0" r="1" gradientUnits="userSpaceOnUse" gradientTransform="translate(81.183 114.092) scale(11.3799)"><stop stop-color="#FF2738"/><stop offset=".504" stop-color="#E51222"/><stop offset=".618" stop-color="#D61527"/><stop offset=".942" stop-color="#B01F35"/></radialGradient><radialGradient id="paint9_radial_2525_50529" cx="0" cy="0" r="1" gradientUnits="userSpaceOnUse" gradientTransform="matrix(27.5102 0 0 27.5103 58.225 129.655)"><stop stop-color="#A2DBFF"/><stop offset=".271" stop-color="#7CD1FF"/><stop offset=".43" stop-color="#64CAFF"/><stop offset="1" stop-color="#00A8FF"/></radialGradient><radialGradient id="paint10_radial_2525_50529" cx="0" cy="0" r="1" gradientUnits="userSpaceOnUse" gradientTransform="translate(81.941 130.454) scale(11.6559)"><stop stop-color="#00B8FF"/><stop offset=".504" stop-color="#00A8FF"/><stop offset=".976" stop-color="#0B3EB5"/></radialGradient><radialGradient id="paint11_radial_2525_50529" cx="0" cy="0" r="1" gradientUnits="userSpaceOnUse" gradientTransform="matrix(17.971 0 0 6.84695 25.318 95.187)"><stop stop-color="#A2DBFF"/><stop offset=".271" stop-color="#7CD1FF"/><stop offset=".43" stop-color="#64CAFF"/><stop offset="1" stop-color="#00A8FF"/></radialGradient><radialGradient id="paint12_radial_2525_50529" cx="0" cy="0" r="1" gradientUnits="userSpaceOnUse" gradientTransform="translate(26.98 58.765) scale(33.2755)"><stop stop-color="#EFFBFF"/><stop offset=".43" stop-color="#D1EDFF"/><stop offset="1" stop-color="#A2DBFF"/></radialGradient><radialGradient id="paint13_radial_2525_50529" cx="0" cy="0" r="1" gradientUnits="userSpaceOnUse" gradientTransform="matrix(33.7682 0 0 43.2909 61.454 83.558)"><stop stop-color="#00B8FF"/><stop offset=".504" stop-color="#00A8FF"/><stop offset=".976" stop-color="#0B3EB5"/></radialGradient><radialGradient id="paint14_radial_2525_50529" cx="0" cy="0" r="1" gradientUnits="userSpaceOnUse" gradientTransform="translate(36.127 61.504) scale(63.0234)"><stop stop-color="#fff"/><stop offset=".31" stop-color="#E5F2F6"/><stop offset=".514" stop-color="#D9EDF2"/><stop offset=".714" stop-color="#BAE1E7"/><stop offset=".978" stop-color="#94D4D9"/></radialGradient><radialGradient id="paint15_radial_2525_50529" cx="0" cy="0" r="1" gradientUnits="userSpaceOnUse" gradientTransform="matrix(17.971 0 0 12.0945 89.266 108.584)"><stop stop-color="#A2DBFF"/><stop offset=".271" stop-color="#7CD1FF"/><stop offset=".43" stop-color="#64CAFF"/><stop offset="1" stop-color="#00A8FF"/></radialGradient><radialGradient id="paint16_radial_2525_50529" cx="0" cy="0" r="1" gradientUnits="userSpaceOnUse" gradientTransform="translate(87.193 38.73) scale(63.4366)"><stop stop-color="#EFFBFF"/><stop offset=".43" stop-color="#D1EDFF"/><stop offset="1" stop-color="#A2DBFF"/></radialGradient><radialGradient id="paint17_radial_2525_50529" cx="0" cy="0" r="1" gradientUnits="userSpaceOnUse" gradientTransform="matrix(72.5483 0 0 64.7435 159.501 85.504)"><stop stop-color="#00B8FF"/><stop offset=".504" stop-color="#00A8FF"/><stop offset=".976" stop-color="#0B3EB5"/></radialGradient><radialGradient id="paint18_radial_2525_50529" cx="0" cy="0" r="1" gradientUnits="userSpaceOnUse" gradientTransform="matrix(48.6504 0 0 42.9898 154.308 88.4)"><stop stop-color="#0094FF"/><stop offset=".504" stop-color="#0073FF"/><stop offset=".826" stop-color="#023DA6"/><stop offset=".983" stop-color="#032680"/></radialGradient><radialGradient id="paint19_radial_2525_50529" cx="0" cy="0" r="1" gradientUnits="userSpaceOnUse" gradientTransform="matrix(44.7586 0 0 37.8658 152.551 102.581)"><stop stop-color="#0571F9"/><stop offset=".655" stop-color="#1340A3"/><stop offset=".983" stop-color="#192A7D"/></radialGradient><radialGradient id="paint20_radial_2525_50529" cx="0" cy="0" r="1" gradientUnits="userSpaceOnUse" gradientTransform="matrix(15.2045 0 0 7.32858 113.962 85.488)"><stop stop-color="#94D4D9"/><stop offset=".257" stop-color="#84C6CF"/><stop offset=".514" stop-color="#78BBC7"/><stop offset=".585" stop-color="#71B4BF"/><stop offset=".978" stop-color="#518E9A"/></radialGradient><radialGradient id="paint21_radial_2525_50529" cx="0" cy="0" r="1" gradientUnits="userSpaceOnUse" gradientTransform="translate(118.071 85.249) scale(21.0566)"><stop stop-color="#94D4D9"/><stop offset=".257" stop-color="#84C6CF"/><stop offset=".514" stop-color="#78BBC7"/><stop offset=".585" stop-color="#71B4BF"/><stop offset=".978" stop-color="#518E9A"/></radialGradient><radialGradient id="paint22_radial_2525_50529" cx="0" cy="0" r="1" gradientUnits="userSpaceOnUse" gradientTransform="translate(138.102 85.249) scale(26.0119)"><stop stop-color="#69A2B3"/><stop offset=".504" stop-color="#518E9A"/><stop offset=".942" stop-color="#397A85"/></radialGradient><linearGradient id="paint4_linear_2525_50529" x1="71.88" y1="74.101" x2="89.102" y2="74.101" gradientUnits="userSpaceOnUse"><stop stop-color="#8BA7BE"/><stop offset="1" stop-color="#BBC5CD"/></linearGradient><filter id="filter0_i_2525_50529" x="3.906" y="3.085" width="66.188" height="65.072" filterUnits="userSpaceOnUse" color-interpolation-filters="sRGB"><feFlood flood-opacity="0" result="BackgroundImageFix"/><feBlend in="SourceGraphic" in2="BackgroundImageFix" result="shape"/><feColorMatrix in="SourceAlpha" values="0 0 0 0 0 0 0 0 0 0 0 0 0 0 0 0 0 0 127 0" result="hardAlpha"/><feOffset dy=".5"/><feGaussianBlur stdDeviation="1"/><feComposite in2="hardAlpha" operator="arithmetic" k2="-1" k3="1"/><feColorMatrix values="0 0 0 0 1 0 0 0 0 1 0 0 0 0 1 0 0 0 0.4 0"/><feBlend in2="shape" result="effect1_innerShadow_2525_50529"/></filter></defs></svg>