<?xml version="1.0" encoding="utf-8"?><svg viewBox="0 0 120 120" xmlns="http://www.w3.org/2000/svg" xmlns:xlink="http://www.w3.org/1999/xlink"><style>:root>svg{display:none}:root>svg:target{display:block}</style><svg fill="none" viewBox="0 0 24 24" id="icon-arrow-next" xmlns="http://www.w3.org/2000/svg"><path d="M9 18l6-6-6-6" stroke="currentColor" stroke-width="2" stroke-linecap="square" stroke-linejoin="round"/></svg><svg fill="none" viewBox="0 0 24 24" id="icon-arrow-prev" xmlns="http://www.w3.org/2000/svg"><path d="M15 18l-6-6 6-6" stroke="currentColor" stroke-width="2" stroke-linecap="square" stroke-linejoin="round"/></svg><svg fill="none" viewBox="0 0 16 16" id="icon-calendar" xmlns="http://www.w3.org/2000/svg"><path d="M14 6.667H2m8.667-5.333v2.667M5.333 1.334v2.667M5.2 14.667h5.6c1.12 0 1.68 0 2.108-.218a2 2 0 00.874-.874c.218-.427.218-.988.218-2.108v-5.6c0-1.12 0-1.68-.218-2.108a2 2 0 00-.874-.874c-.428-.218-.988-.218-2.108-.218H5.2c-1.12 0-1.68 0-2.108.218a2 2 0 00-.874.874C2 4.187 2 4.747 2 5.867v5.6c0 1.12 0 1.68.218 2.108a2 2 0 00.874.874c.428.218.988.218 2.108.218z" stroke="currentColor" stroke-linecap="square" stroke-linejoin="round" opacity=".5"/></svg><svg fill="none" viewBox="0 0 24 24" id="icon-call" xmlns="http://www.w3.org/2000/svg"><circle cx="12" cy="12" r="12" fill="currentColor"/><path d="M18.163 16.296s-.998 1.28-1.719 1.579c-1.833.758-4.42 0-7.368-2.947C6.13 11.98 5.37 9.392 6.13 7.56c.3-.722 1.58-1.72 1.58-1.72a.932.932 0 011.196.075l1.448 1.448c.31.31.31.82 0 1.131l-.909.908s-.368 1.105 1.842 3.316c2.21 2.21 3.316 1.842 3.316 1.842l.908-.909c.31-.31.82-.31 1.13 0L18.09 15.1c.31.31.344.849.074 1.197z" fill="#fff"/></svg><svg fill="none" viewBox="0 0 24 24" id="icon-call-white" xmlns="http://www.w3.org/2000/svg"><circle cx="12" cy="12" r="12" fill="currentColor"/><path d="M18.163 16.296s-.998 1.28-1.719 1.579c-1.833.758-4.42 0-7.368-2.947C6.13 11.98 5.37 9.392 6.13 7.56c.3-.722 1.58-1.72 1.58-1.72a.932.932 0 011.196.075l1.448 1.448c.31.31.31.82 0 1.131l-.909.908s-.368 1.105 1.842 3.316c2.21 2.21 3.316 1.842 3.316 1.842l.908-.909c.31-.31.82-.31 1.13 0L18.09 15.1c.31.31.344.849.074 1.197z" fill="#374151"/></svg><svg fill="none" viewBox="0 0 10 10" id="icon-caret" xmlns="http://www.w3.org/2000/svg"><path d="M3.332 3.75l1.667 2.5 1.666-2.5" stroke="#1F2937" stroke-linecap="square" stroke-linejoin="round"/></svg><svg fill="none" viewBox="0 0 16 16" id="icon-check" xmlns="http://www.w3.org/2000/svg"><path d="M13.333 4L6 11.333 2.667 8" stroke="#1F2937" stroke-width="1.5" stroke-linecap="square" stroke-linejoin="round"/></svg><svg fill="none" viewBox="0 0 24 24" id="icon-close" xmlns="http://www.w3.org/2000/svg"><path d="M18 6L6 18M6 6l12 12" stroke="#1F2937" stroke-width="2" stroke-linecap="square" stroke-linejoin="round"/></svg><svg fill="none" viewBox="0 0 16 16" id="icon-eye" xmlns="http://www.w3.org/2000/svg"><path d="M1.613 8.476c-.09-.144-.136-.216-.161-.326a.782.782 0 010-.298c.025-.111.07-.183.161-.327C2.363 6.337 4.597 3.334 8 3.334c3.404 0 5.637 3.003 6.387 4.191.09.144.136.216.162.327.019.083.019.214 0 .298-.026.11-.071.182-.162.326-.75 1.188-2.983 4.191-6.387 4.191-3.403 0-5.636-3.003-6.387-4.19z" stroke="#1F2937" stroke-width="1.5" stroke-linecap="square" stroke-linejoin="round"/><path d="M8 10a2 2 0 100-4 2 2 0 000 4z" stroke="#1F2937" stroke-width="1.5" stroke-linecap="square" stroke-linejoin="round"/></svg><svg fill="none" viewBox="0 0 16 16" id="icon-eye-off" xmlns="http://www.w3.org/2000/svg"><g clip-path="url(#ajclip0_3101_53142)"><path d="M7.162 3.395c.27-.04.55-.062.838-.062 3.404 0 5.637 3.004 6.387 4.192.09.143.136.215.162.326a.784.784 0 010 .298c-.026.11-.071.183-.163.328-.2.316-.505.761-.908 1.243M4.479 4.48L2 2m2.48 2.48l7.041 7.04M4.48 4.48c-1.44.977-2.416 2.333-2.865 3.044-.091.144-.137.216-.162.327a.782.782 0 000 .298c.025.11.07.183.161.326.75 1.188 2.984 4.192 6.387 4.192 1.37 0 2.55-.487 3.521-1.146m0 0L14.001 14M6.585 6.586a2 2 0 002.828 2.828" stroke="#1F2937" stroke-width="1.5" stroke-linecap="square" stroke-linejoin="round"/></g><defs><clipPath id="ajclip0_3101_53142"><path fill="#fff" d="M0 0h16v16H0z"/></clipPath></defs></svg><svg fill="none" viewBox="0 0 12 12" id="icon-location" xmlns="http://www.w3.org/2000/svg"><path d="M1.706 5.372c-.298-.116-.447-.173-.49-.257a.25.25 0 010-.23c.043-.084.192-.142.49-.258l8.443-3.295c.269-.105.403-.158.489-.129a.25.25 0 01.158.158c.029.086-.024.22-.129.489l-3.295 8.444c-.116.297-.174.446-.258.49a.25.25 0 01-.23 0c-.084-.044-.142-.193-.257-.49l-1.314-3.38a.537.537 0 00-.054-.116.25.25 0 00-.058-.058.537.537 0 00-.116-.054l-3.38-1.314z" fill="#1F2937"/></svg><svg fill="none" viewBox="0 0 32 32" id="icon-ok" xmlns="http://www.w3.org/2000/svg"><circle cx="16" cy="16" r="16" fill="currentColor"/><path fill-rule="evenodd" clip-rule="evenodd" d="M20.915 11.395c0 2.603-2.209 4.717-4.914 4.717-2.706 0-4.915-2.114-4.915-4.717 0-2.613 2.209-4.727 4.915-4.727 2.705 0 4.914 2.114 4.914 4.727zm-2.5 0c0-1.29-1.085-2.332-2.414-2.332-1.33 0-2.414 1.042-2.414 2.332 0 1.28 1.085 2.322 2.414 2.322 1.33 0 2.413-1.043 2.413-2.322zm-6.775 7.442c-1.236-.765-1.777-1.213-1.3-2.15.28-.532 1.05-.98 2.067-.208 0 0 1.375 1.054 3.595 1.054s3.595-1.054 3.595-1.054c1.02-.769 1.784-.324 2.068.208.47.937-.071 1.384-1.306 2.154-1.037.635-2.466.886-3.41.981l2.056 1.971 1.628 1.561c1.057 1.042-.662 2.672-1.731 1.665-.712-.695-1.75-1.694-2.838-2.74l-.053-.052-2.891 2.788c-1.068 1.003-2.789-.64-1.72-1.665l3.672-3.532c-.932-.095-2.382-.332-3.432-.98z" fill="#fff"/></svg><svg fill="none" viewBox="0 0 32 32" id="icon-ok-white" xmlns="http://www.w3.org/2000/svg"><circle cx="16" cy="16" r="16" fill="currentColor"/><path fill-rule="evenodd" clip-rule="evenodd" d="M20.915 11.395c0 2.603-2.209 4.717-4.914 4.717-2.706 0-4.915-2.114-4.915-4.717 0-2.613 2.209-4.727 4.915-4.727 2.705 0 4.914 2.114 4.914 4.727zm-2.5 0c0-1.29-1.085-2.332-2.414-2.332-1.33 0-2.414 1.042-2.414 2.332 0 1.28 1.085 2.322 2.414 2.322 1.33 0 2.413-1.043 2.413-2.322zm-6.775 7.442c-1.236-.765-1.777-1.213-1.3-2.15.28-.532 1.05-.98 2.067-.208 0 0 1.375 1.054 3.595 1.054s3.595-1.054 3.595-1.054c1.02-.769 1.784-.324 2.068.208.47.937-.071 1.384-1.306 2.154-1.037.635-2.466.886-3.41.981l2.056 1.971 1.628 1.561c1.057 1.042-.662 2.672-1.731 1.665-.712-.695-1.75-1.694-2.838-2.74l-.053-.052-2.891 2.788c-1.068 1.003-2.789-.64-1.72-1.665l3.672-3.532c-.932-.095-2.382-.332-3.432-.98z" fill="#374151"/></svg><svg fill="none" viewBox="0 0 120 120" id="icon-play" xmlns="http://www.w3.org/2000/svg"><rect width="120" height="120" rx="60" fill="#E63946"/><path d="M79 58.267c1.333.77 1.333 2.694 0 3.464l-30 17.32c-1.333.77-3-.192-3-1.731V42.679c0-1.54 1.667-2.502 3-1.732l30 17.32z" fill="#fff"/></svg><svg fill="none" viewBox="0 0 24 24" id="icon-search" xmlns="http://www.w3.org/2000/svg"><path d="M21 21l-4.35-4.35M19 11a8 8 0 11-16 0 8 8 0 0116 0z" stroke="#1F2937" stroke-width="1.5" stroke-linecap="square" stroke-linejoin="round"/></svg><svg fill="none" viewBox="0 0 24 24" id="icon-star" xmlns="http://www.w3.org/2000/svg"><path d="M11.731 3.674A7.178 7.178 0 0112 3.16l.012.019c.063.102.137.252.257.495l2.187 4.43.014.029c.052.106.118.24.22.35a1 1 0 00.31.226c.136.063.284.084.402.101l.031.005 4.892.715a7.127 7.127 0 01.572.097l-.015.018c-.078.09-.198.208-.391.396l-3.538 3.447-.024.022a1.411 1.411 0 00-.265.318 1 1 0 00-.12.366c-.018.148.008.296.029.413l.005.032.835 4.867a7.116 7.116 0 01.085.574 7.113 7.113 0 01-.52-.258l-4.373-2.3-.028-.014c-.105-.056-.238-.126-.384-.155l-.097.49.097-.49a1.001 1.001 0 00-.385 0l.096.49-.096-.49c-.147.029-.28.099-.384.154l-.03.016-4.372 2.3c-.24.125-.388.203-.499.249l-.02.008v-.023c.01-.119.038-.285.084-.551l.835-4.867.005-.032c.02-.117.046-.265.028-.413a1 1 0 00-.119-.367c-.072-.13-.18-.234-.265-.317l-.024-.022L3.51 10.04a7.145 7.145 0 01-.405-.414l.022-.005c.116-.028.282-.053.55-.092l4.89-.715.033-.005c.117-.017.265-.038.4-.1a1 1 0 00.311-.227 1.412 1.412 0 00.234-.38l2.187-4.43z" stroke="#5DA26C" stroke-linecap="round" stroke-linejoin="round"/></svg><svg fill="none" viewBox="0 0 24 24" id="icon-star-filled" xmlns="http://www.w3.org/2000/svg"><path d="M11.731 3.674A7.178 7.178 0 0112 3.16l.012.019c.063.102.137.252.257.495l2.187 4.43.014.029c.052.106.118.24.22.35a1 1 0 00.31.226c.136.063.284.084.402.101l.031.005 4.892.715a7.127 7.127 0 01.572.097l-.015.018c-.078.09-.198.208-.391.396l-3.538 3.447-.024.022a1.411 1.411 0 00-.265.318 1 1 0 00-.12.366c-.018.148.008.296.029.413l.005.032.835 4.867a7.116 7.116 0 01.085.574 7.113 7.113 0 01-.52-.258l-4.373-2.3-.028-.014c-.105-.056-.238-.126-.384-.155l-.097.49.097-.49a1.001 1.001 0 00-.385 0l.096.49-.096-.49c-.147.029-.28.099-.384.154l-.03.016-4.372 2.3c-.24.125-.388.203-.499.249l-.02.008v-.023c.01-.119.038-.285.084-.551l.835-4.867.005-.032c.02-.117.046-.265.028-.413a1 1 0 00-.119-.367c-.072-.13-.18-.234-.265-.317l-.024-.022L3.51 10.04a7.145 7.145 0 01-.405-.414l.022-.005c.116-.028.282-.053.55-.092l4.89-.715.033-.005c.117-.017.265-.038.4-.1a1 1 0 00.311-.227 1.412 1.412 0 00.234-.38l2.187-4.43z" fill="currentColor" stroke="#5DA26C" stroke-linecap="round" stroke-linejoin="round"/></svg><svg fill="none" viewBox="0 0 48 48" id="icon-system-help-01" xmlns="http://www.w3.org/2000/svg"><g clip-path="url(#arclip0_2054_35397)"><mask id="ara" style="mask-type:luminance" maskUnits="userSpaceOnUse" x="0" y="0" width="48" height="48"><path d="M48 0H0v48h48V0z" fill="#fff"/></mask><g mask="url(#ara)" fill="#E63946"><path d="M34.8 13V7.4a5 5 0 00-5-5H11a5 5 0 00-5 5v19l8.4-8.4h15.4a5 5 0 005-5z"/><path d="M13.2 32.2v-5.6a5 5 0 015-5H37a5 5 0 015 5v19l-8.4-8.4H18.2a5 5 0 01-5-5z"/></g></g><defs><clipPath id="arclip0_2054_35397"><path fill="#fff" d="M0 0h48v48H0z"/></clipPath></defs></svg><svg fill="none" viewBox="0 0 48 48" id="icon-system-help-02" xmlns="http://www.w3.org/2000/svg"><path d="M24 4a20 20 0 100 40 20 20 0 000-40zm.98 9.7a2.3 2.3 0 110 4.6 2.3 2.3 0 010-4.6zm.085 20.491a3.573 3.573 0 01-4.18-2.546 3.576 3.576 0 01-.033-1.778l1.314-5.507-2.984.691-.766-3.52 3.016-.656a3.574 3.574 0 014.234 4.32l-1.312 5.506 3.005-.672.743 3.524-3.037.638z" fill="#E63946"/></svg><svg fill="none" viewBox="0 0 48 48" id="icon-system-help-03" xmlns="http://www.w3.org/2000/svg"><path d="M37 8H26V6a2 2 0 00-4 0v2H11L2 27.988a9.36 9.36 0 009 6.407 9.36 9.36 0 009-6.407L12.801 12H22v26.025l-8 1.6V42h20v-2.375l-8-1.6V12h9.199L28 27.988a9.526 9.526 0 0018 0L37 8zM16.048 28H5.953l-.006-.009L11 16.768l5.054 11.224-.006.008zM37 16.768l5.054 11.224-.006.008H31.952l-.006-.008L37 16.768z" fill="#E63946"/></svg><svg fill="none" viewBox="0 0 48 48" id="icon-system-help-04" xmlns="http://www.w3.org/2000/svg"><path d="M44 10h-6V6H10v4H4a2 2 0 00-2 2v4a9.972 9.972 0 008.55 9.854A13.996 13.996 0 0022 35.84v1.036a4 4 0 01-3.03 3.88L14 42v2h20v-2l-4.97-1.243a4.001 4.001 0 01-3.03-3.88V35.84a13.996 13.996 0 0011.45-9.987A9.971 9.971 0 0046 16v-4a2 2 0 00-2-2zM6 16v-2h4v7.631A5.99 5.99 0 016 16zm36 0a5.99 5.99 0 01-4 5.631V14h4v2z" fill="#E63946"/></svg><svg fill="none" viewBox="0 0 24 24" id="icon-tg" xmlns="http://www.w3.org/2000/svg"><circle cx="12" cy="12" r="12" fill="currentColor"/><path d="M15.977 6.106s1.11-.52 1.017.742c-.03.52-.308 2.337-.524 4.304l-.74 5.825s-.061.853-.616 1.002c-.556.148-1.388-.52-1.542-.668-.124-.111-2.313-1.781-3.084-2.597-.216-.223-.462-.668.031-1.188l3.238-3.71c.37-.445.74-1.484-.802-.222l-4.317 3.524s-.493.371-1.418.037l-2.005-.742s-.74-.556.524-1.113c3.084-1.744 6.877-3.524 10.238-5.194z" fill="#fff"/></svg><svg fill="none" viewBox="0 0 24 24" id="icon-tg-white" xmlns="http://www.w3.org/2000/svg"><circle cx="12" cy="12" r="12" fill="currentColor"/><path d="M15.977 6.106s1.11-.52 1.017.742c-.03.52-.308 2.337-.524 4.304l-.74 5.825s-.061.853-.616 1.002c-.556.148-1.388-.52-1.542-.668-.124-.111-2.313-1.781-3.084-2.597-.216-.223-.462-.668.031-1.188l3.238-3.71c.37-.445.74-1.484-.802-.222l-4.317 3.524s-.493.371-1.418.037l-2.005-.742s-.74-.556.524-1.113c3.084-1.744 6.877-3.524 10.238-5.194z" fill="#374151"/></svg><svg fill="none" viewBox="0 0 24 24" id="icon-user" xmlns="http://www.w3.org/2000/svg"><circle cx="4" cy="4" r="4" transform="matrix(-1 0 0 1 16 3)" stroke="#fff" stroke-width="1.5"/><path d="M5 16.935c0-.86.54-1.628 1.351-1.917v0a16.794 16.794 0 0111.298 0v0A2.036 2.036 0 0119 16.934v1.315c0 1.188-1.052 2.1-2.227 1.932l-.955-.136a27.002 27.002 0 00-7.636 0l-.955.136A1.951 1.951 0 015 18.25v-1.315z" stroke="#fff" stroke-width="1.5"/></svg><svg fill="none" viewBox="0 0 32 32" id="icon-vk" xmlns="http://www.w3.org/2000/svg"><circle cx="16" cy="16" r="16" fill="currentColor"/><path d="M16.835 22.668c-6.378 0-10.015-4.505-10.167-12h3.195c.105 5.502 2.46 7.832 4.325 8.312v-8.312h3.008v4.745c1.843-.204 3.778-2.367 4.43-4.745h3.009c-.501 2.93-2.6 5.093-4.093 5.982 1.493.72 3.883 2.607 4.793 6.018h-3.312c-.711-2.282-2.483-4.048-4.827-4.288v4.288h-.361z" fill="#fff"/></svg><svg fill="none" viewBox="0 0 32 32" id="icon-vk-white" xmlns="http://www.w3.org/2000/svg"><circle cx="16" cy="16" r="16" fill="currentColor"/><path d="M16.835 22.668c-6.378 0-10.015-4.505-10.167-12h3.195c.105 5.502 2.46 7.832 4.325 8.312v-8.312h3.008v4.745c1.843-.204 3.778-2.367 4.43-4.745h3.009c-.501 2.93-2.6 5.093-4.093 5.982 1.493.72 3.883 2.607 4.793 6.018h-3.312c-.711-2.282-2.483-4.048-4.827-4.288v4.288h-.361z" fill="#374151"/></svg><svg fill="none" viewBox="0 0 24 24" id="icon-whatsapp" xmlns="http://www.w3.org/2000/svg"><path d="M12 0C5.383 0 0 5.383 0 12c0 2.328.668 4.573 1.935 6.522l-1.87 4.363a.8.8 0 001.05 1.05l4.364-1.87A11.903 11.903 0 0012 24c6.617 0 12-5.383 12-12S18.617 0 12 0z" fill="currentColor"/><path d="M18.163 16.296s-.998 1.28-1.719 1.579c-1.833.758-4.42 0-7.368-2.947C6.13 11.98 5.37 9.392 6.13 7.56c.3-.722 1.58-1.72 1.58-1.72a.932.932 0 011.196.075l1.448 1.448c.31.31.31.82 0 1.131l-.909.908s-.368 1.105 1.842 3.316c2.21 2.21 3.316 1.842 3.316 1.842l.908-.909a.803.803 0 011.13 0L18.09 15.1c.31.31.344.849.074 1.197z" fill="#fff"/></svg><svg fill="none" viewBox="0 0 24 24" id="icon-whatsapp-white" xmlns="http://www.w3.org/2000/svg"><path d="M12 0C5.383 0 0 5.383 0 12c0 2.328.668 4.573 1.935 6.522l-1.87 4.363a.8.8 0 001.05 1.05l4.364-1.87A11.903 11.903 0 0012 24c6.617 0 12-5.383 12-12S18.617 0 12 0z" fill="currentColor"/><path d="M18.163 16.296s-.998 1.28-1.719 1.579c-1.833.758-4.42 0-7.368-2.947C6.13 11.98 5.37 9.392 6.13 7.56c.3-.722 1.58-1.72 1.58-1.72a.932.932 0 011.196.075l1.448 1.448c.31.31.31.82 0 1.131l-.909.908s-.368 1.105 1.842 3.316c2.21 2.21 3.316 1.842 3.316 1.842l.908-.909a.803.803 0 011.13 0L18.09 15.1c.31.31.344.849.074 1.197z" fill="#374151"/></svg></svg>