<?xml version="1.0" encoding="utf-8"?><svg viewBox="0 0 120 120" xmlns="http://www.w3.org/2000/svg" xmlns:xlink="http://www.w3.org/1999/xlink"><style>:root>svg{display:none}:root>svg:target{display:block}</style><svg fill="none" viewBox="0 0 24 24" id="icon-arrow-next" xmlns="http://www.w3.org/2000/svg"><path d="M9 18l6-6-6-6" stroke="currentColor" stroke-width="2" stroke-linecap="square" stroke-linejoin="round"/></svg><svg fill="none" viewBox="0 0 24 24" id="icon-arrow-prev" xmlns="http://www.w3.org/2000/svg"><path d="M15 18l-6-6 6-6" stroke="currentColor" stroke-width="2" stroke-linecap="square" stroke-linejoin="round"/></svg><svg fill="none" viewBox="0 0 24 24" id="icon-calculator" xmlns="http://www.w3.org/2000/svg"><rect x="4" y="2" width="16" height="20" rx="4" stroke="currentColor" stroke-width="1.5"/><rect x="8" y="6" width="8" height="3" rx="1" stroke="currentColor" stroke-width="1.5"/><path d="M9 18H8M12.5 18h-1M9 14H8M12.5 14h-1M15 18h1M15 14h1" stroke="currentColor" stroke-width="1.5" stroke-linecap="round"/></svg><svg fill="none" viewBox="0 0 16 16" id="icon-calendar" xmlns="http://www.w3.org/2000/svg"><path d="M14 6.667H2m8.667-5.333v2.667M5.333 1.334v2.667M5.2 14.667h5.6c1.12 0 1.68 0 2.108-.218a2 2 0 00.874-.874c.218-.427.218-.988.218-2.108v-5.6c0-1.12 0-1.68-.218-2.108a2 2 0 00-.874-.874c-.428-.218-.988-.218-2.108-.218H5.2c-1.12 0-1.68 0-2.108.218a2 2 0 00-.874.874C2 4.187 2 4.747 2 5.867v5.6c0 1.12 0 1.68.218 2.108a2 2 0 00.874.874c.428.218.988.218 2.108.218z" stroke="currentColor" stroke-linecap="square" stroke-linejoin="round"/></svg><svg fill="none" viewBox="0 0 24 24" id="icon-call" xmlns="http://www.w3.org/2000/svg"><circle cx="12" cy="12" r="12" fill="currentColor"/><path d="M18.163 16.296s-.998 1.28-1.719 1.579c-1.833.758-4.42 0-7.368-2.947C6.13 11.98 5.37 9.392 6.13 7.56c.3-.722 1.58-1.72 1.58-1.72a.932.932 0 011.196.075l1.448 1.448c.31.31.31.82 0 1.131l-.909.908s-.368 1.105 1.842 3.316c2.21 2.21 3.316 1.842 3.316 1.842l.908-.909c.31-.31.82-.31 1.13 0L18.09 15.1c.31.31.344.849.074 1.197z" fill="#fff"/></svg><svg fill="none" viewBox="0 0 24 24" id="icon-call-white" xmlns="http://www.w3.org/2000/svg"><circle cx="12" cy="12" r="12" fill="currentColor"/><path d="M18.163 16.296s-.998 1.28-1.719 1.579c-1.833.758-4.42 0-7.368-2.947C6.13 11.98 5.37 9.392 6.13 7.56c.3-.722 1.58-1.72 1.58-1.72a.932.932 0 011.196.075l1.448 1.448c.31.31.31.82 0 1.131l-.909.908s-.368 1.105 1.842 3.316c2.21 2.21 3.316 1.842 3.316 1.842l.908-.909c.31-.31.82-.31 1.13 0L18.09 15.1c.31.31.344.849.074 1.197z" fill="#374151"/></svg><svg fill="none" viewBox="0 0 10 10" id="icon-caret" xmlns="http://www.w3.org/2000/svg"><path d="M3.332 3.75l1.667 2.5 1.666-2.5" stroke="#1F2937" stroke-linecap="square" stroke-linejoin="round"/></svg><svg fill="none" viewBox="0 0 24 24" id="icon-case" xmlns="http://www.w3.org/2000/svg"><path d="M2 8.43a2 2 0 012-2h16a2 2 0 012 2v1.654A2 2 0 0120.575 12l-7.426 2.228a4 4 0 01-2.298 0L3.425 12A2 2 0 012 10.085V8.43z" stroke="currentColor" stroke-width="1.5"/><path d="M12 11.572V9.857" stroke="currentColor" stroke-width="1.5" stroke-linecap="round" stroke-linejoin="round"/><path d="M2.833 11.57V17a4 4 0 004 4h10.334a4 4 0 004-4V11.57M15.333 6.429V5a2 2 0 00-2-2h-2.666a2 2 0 00-2 2v1.429" stroke="currentColor" stroke-width="1.5"/></svg><svg fill="none" viewBox="0 0 16 16" id="icon-check" xmlns="http://www.w3.org/2000/svg"><path d="M13.333 4L6 11.333 2.667 8" stroke="currentColor" stroke-width="1.5" stroke-linecap="square" stroke-linejoin="round"/></svg><svg fill="none" viewBox="0 0 16 16" id="icon-check-dark" xmlns="http://www.w3.org/2000/svg"><path d="M13.333 4L6 11.333 2.667 8" stroke="#1F2937" stroke-width="1.5" stroke-linecap="square" stroke-linejoin="round"/></svg><svg fill="none" viewBox="0 0 24 24" id="icon-close" xmlns="http://www.w3.org/2000/svg"><path d="M18 6L6 18M6 6l12 12" stroke="currentColor" stroke-width="2" stroke-linecap="square" stroke-linejoin="round"/></svg><svg fill="none" viewBox="0 0 16 16" id="icon-eye" xmlns="http://www.w3.org/2000/svg"><path d="M1.613 8.476c-.09-.144-.136-.216-.161-.326a.782.782 0 010-.298c.025-.111.07-.183.161-.327C2.363 6.337 4.597 3.334 8 3.334c3.404 0 5.637 3.003 6.387 4.191.09.144.136.216.162.327.019.083.019.214 0 .298-.026.11-.071.182-.162.326-.75 1.188-2.983 4.191-6.387 4.191-3.403 0-5.636-3.003-6.387-4.19z" stroke="currentColor" stroke-width="1.5" stroke-linecap="square" stroke-linejoin="round"/><path d="M8 10a2 2 0 100-4 2 2 0 000 4z" stroke="currentColor" stroke-width="1.5" stroke-linecap="square" stroke-linejoin="round"/></svg><svg fill="none" viewBox="0 0 16 16" id="icon-eye-off" xmlns="http://www.w3.org/2000/svg"><path d="M7.162 3.395c.27-.04.55-.062.838-.062 3.404 0 5.637 3.004 6.387 4.192.09.143.136.215.162.326a.784.784 0 010 .298c-.026.11-.071.183-.163.328-.2.316-.505.761-.908 1.243M4.479 4.48L2 2m2.48 2.48l7.041 7.04M4.48 4.48c-1.44.977-2.416 2.333-2.865 3.044-.091.144-.137.216-.162.327a.782.782 0 000 .298c.025.11.07.183.161.326.75 1.188 2.984 4.192 6.387 4.192 1.37 0 2.55-.487 3.521-1.146m0 0L14.001 14M6.585 6.586a2 2 0 002.828 2.828" stroke="currentColor" stroke-width="1.5" stroke-linecap="square" stroke-linejoin="round"/></svg><svg fill="none" viewBox="0 0 24 24" id="icon-home" xmlns="http://www.w3.org/2000/svg"><path d="M2.5 10.938a4 4 0 011.521-3.14l5.5-4.341a4 4 0 014.958 0l5.5 4.342a4 4 0 011.521 3.14V17.5a4 4 0 01-4 4H16a1 1 0 01-1-1v-3a2 2 0 00-2-2h-2a2 2 0 00-2 2v3a1 1 0 01-1 1H6.5a4 4 0 01-4-4v-6.562z" fill="currentColor" stroke="currentColor" stroke-width="1.5"/></svg><svg fill="none" viewBox="0 0 12 12" id="icon-location" xmlns="http://www.w3.org/2000/svg"><path d="M1.706 5.372c-.298-.116-.447-.173-.49-.257a.25.25 0 010-.23c.043-.084.192-.142.49-.258l8.443-3.295c.269-.105.403-.158.489-.129a.25.25 0 01.158.158c.029.086-.024.22-.129.489l-3.295 8.444c-.116.297-.174.446-.258.49a.25.25 0 01-.23 0c-.084-.044-.142-.193-.257-.49l-1.314-3.38a.537.537 0 00-.054-.116.25.25 0 00-.058-.058.537.537 0 00-.116-.054l-3.38-1.314z" fill="#1F2937"/></svg><svg fill="none" viewBox="0 0 32 32" id="icon-message-alert" xmlns="http://www.w3.org/2000/svg"><path d="M16.667 14.667V10m0 9.333h.013m-.013 7.334C22.926 26.667 28 21.593 28 15.333 28 9.074 22.926 4 16.667 4 10.407 4 5.333 9.074 5.333 15.333c0 1.267.208 2.485.592 3.623.144.428.216.642.229.806.013.162.003.276-.037.434-.04.16-.13.326-.31.658l-2.18 4.037c-.312.576-.468.864-.433 1.086.03.194.144.364.312.466.192.117.517.083 1.168.016l6.828-.706c.207-.021.31-.032.405-.028.092.003.158.012.248.033.092.021.208.066.439.155 1.264.487 2.637.754 4.073.754z" stroke="#1F2937" stroke-width="1.5" stroke-linecap="square" stroke-linejoin="round"/></svg><svg fill="none" viewBox="0 0 32 32" id="icon-ok" xmlns="http://www.w3.org/2000/svg"><circle cx="16" cy="16" r="16" fill="currentColor"/><path fill-rule="evenodd" clip-rule="evenodd" d="M20.915 11.395c0 2.603-2.209 4.717-4.914 4.717-2.706 0-4.915-2.114-4.915-4.717 0-2.613 2.209-4.727 4.915-4.727 2.705 0 4.914 2.114 4.914 4.727zm-2.5 0c0-1.29-1.085-2.332-2.414-2.332-1.33 0-2.414 1.042-2.414 2.332 0 1.28 1.085 2.322 2.414 2.322 1.33 0 2.413-1.043 2.413-2.322zm-6.775 7.442c-1.236-.765-1.777-1.213-1.3-2.15.28-.532 1.05-.98 2.067-.208 0 0 1.375 1.054 3.595 1.054s3.595-1.054 3.595-1.054c1.02-.769 1.784-.324 2.068.208.47.937-.071 1.384-1.306 2.154-1.037.635-2.466.886-3.41.981l2.056 1.971 1.628 1.561c1.057 1.042-.662 2.672-1.731 1.665-.712-.695-1.75-1.694-2.838-2.74l-.053-.052-2.891 2.788c-1.068 1.003-2.789-.64-1.72-1.665l3.672-3.532c-.932-.095-2.382-.332-3.432-.98z" fill="#fff"/></svg><svg fill="none" viewBox="0 0 80 80" id="icon-ok-sm" xmlns="http://www.w3.org/2000/svg"><rect width="80" height="80" rx="40" fill="currentColor"/><path fill-rule="evenodd" clip-rule="evenodd" d="M48.6 31.94c0 4.553-3.866 8.253-8.6 8.253-4.736 0-8.602-3.7-8.602-8.254 0-4.573 3.866-8.273 8.601-8.273 4.735 0 8.6 3.7 8.6 8.273zm-4.377 0c0-2.258-1.897-4.083-4.224-4.083s-4.224 1.824-4.223 4.082c0 2.238 1.897 4.063 4.223 4.063 2.327 0 4.224-1.825 4.224-4.063zM32.368 44.961c-2.161-1.34-3.109-2.123-2.274-3.764.491-.93 1.836-1.716 3.618-.363 0 0 2.406 1.844 6.29 1.844s6.292-1.844 6.292-1.844c1.783-1.346 3.123-.568 3.62.363.822 1.64-.126 2.423-2.287 3.77h.001c-1.816 1.111-4.316 1.551-5.967 1.717l3.602 3.454 2.844 2.727c1.85 1.824-1.16 4.676-3.03 2.914a1009.244 1009.244 0 00-4.965-4.795l-.094-.091-5.06 4.88c-1.868 1.754-4.88-1.122-3.009-2.915l6.426-6.18c-1.63-.167-4.17-.582-6.007-1.717z" fill="#fff"/></svg><svg fill="none" viewBox="0 0 32 32" id="icon-ok-white" xmlns="http://www.w3.org/2000/svg"><circle cx="16" cy="16" r="16" fill="currentColor"/><path fill-rule="evenodd" clip-rule="evenodd" d="M20.915 11.395c0 2.603-2.209 4.717-4.914 4.717-2.706 0-4.915-2.114-4.915-4.717 0-2.613 2.209-4.727 4.915-4.727 2.705 0 4.914 2.114 4.914 4.727zm-2.5 0c0-1.29-1.085-2.332-2.414-2.332-1.33 0-2.414 1.042-2.414 2.332 0 1.28 1.085 2.322 2.414 2.322 1.33 0 2.413-1.043 2.413-2.322zm-6.775 7.442c-1.236-.765-1.777-1.213-1.3-2.15.28-.532 1.05-.98 2.067-.208 0 0 1.375 1.054 3.595 1.054s3.595-1.054 3.595-1.054c1.02-.769 1.784-.324 2.068.208.47.937-.071 1.384-1.306 2.154-1.037.635-2.466.886-3.41.981l2.056 1.971 1.628 1.561c1.057 1.042-.662 2.672-1.731 1.665-.712-.695-1.75-1.694-2.838-2.74l-.053-.052-2.891 2.788c-1.068 1.003-2.789-.64-1.72-1.665l3.672-3.532c-.932-.095-2.382-.332-3.432-.98z" fill="#374151"/></svg><svg fill="none" viewBox="0 0 120 120" id="icon-play" xmlns="http://www.w3.org/2000/svg"><rect width="120" height="120" rx="60" fill="#E63946"/><path d="M79 58.267c1.333.77 1.333 2.694 0 3.464l-30 17.32c-1.333.77-3-.192-3-1.731V42.679c0-1.54 1.667-2.502 3-1.732l30 17.32z" fill="#fff"/></svg><svg fill="none" viewBox="0 0 24 24" id="icon-search" xmlns="http://www.w3.org/2000/svg"><path d="M21 21l-4.35-4.35M19 11a8 8 0 11-16 0 8 8 0 0116 0z" stroke="currentColor" stroke-width="1.5" stroke-linecap="square" stroke-linejoin="round"/></svg><svg fill="none" viewBox="0 0 24 24" id="icon-star" xmlns="http://www.w3.org/2000/svg"><path d="M11.731 3.674A7.178 7.178 0 0112 3.16l.012.019c.063.102.137.252.257.495l2.187 4.43.014.029c.052.106.118.24.22.35a1 1 0 00.31.226c.136.063.284.084.402.101l.031.005 4.892.715a7.127 7.127 0 01.572.097l-.015.018c-.078.09-.198.208-.391.396l-3.538 3.447-.024.022a1.411 1.411 0 00-.265.318 1 1 0 00-.12.366c-.018.148.008.296.029.413l.005.032.835 4.867a7.116 7.116 0 01.085.574 7.113 7.113 0 01-.52-.258l-4.373-2.3-.028-.014c-.105-.056-.238-.126-.384-.155l-.097.49.097-.49a1.001 1.001 0 00-.385 0l.096.49-.096-.49c-.147.029-.28.099-.384.154l-.03.016-4.372 2.3c-.24.125-.388.203-.499.249l-.02.008v-.023c.01-.119.038-.285.084-.551l.835-4.867.005-.032c.02-.117.046-.265.028-.413a1 1 0 00-.119-.367c-.072-.13-.18-.234-.265-.317l-.024-.022L3.51 10.04a7.145 7.145 0 01-.405-.414l.022-.005c.116-.028.282-.053.55-.092l4.89-.715.033-.005c.117-.017.265-.038.4-.1a1 1 0 00.311-.227 1.412 1.412 0 00.234-.38l2.187-4.43z" stroke="#5DA26C" stroke-linecap="round" stroke-linejoin="round"/></svg><svg fill="none" viewBox="0 0 24 24" id="icon-star-filled" xmlns="http://www.w3.org/2000/svg"><path d="M11.731 3.674A7.178 7.178 0 0112 3.16l.012.019c.063.102.137.252.257.495l2.187 4.43.014.029c.052.106.118.24.22.35a1 1 0 00.31.226c.136.063.284.084.402.101l.031.005 4.892.715a7.127 7.127 0 01.572.097l-.015.018c-.078.09-.198.208-.391.396l-3.538 3.447-.024.022a1.411 1.411 0 00-.265.318 1 1 0 00-.12.366c-.018.148.008.296.029.413l.005.032.835 4.867a7.116 7.116 0 01.085.574 7.113 7.113 0 01-.52-.258l-4.373-2.3-.028-.014c-.105-.056-.238-.126-.384-.155l-.097.49.097-.49a1.001 1.001 0 00-.385 0l.096.49-.096-.49c-.147.029-.28.099-.384.154l-.03.016-4.372 2.3c-.24.125-.388.203-.499.249l-.02.008v-.023c.01-.119.038-.285.084-.551l.835-4.867.005-.032c.02-.117.046-.265.028-.413a1 1 0 00-.119-.367c-.072-.13-.18-.234-.265-.317l-.024-.022L3.51 10.04a7.145 7.145 0 01-.405-.414l.022-.005c.116-.028.282-.053.55-.092l4.89-.715.033-.005c.117-.017.265-.038.4-.1a1 1 0 00.311-.227 1.412 1.412 0 00.234-.38l2.187-4.43z" fill="currentColor" stroke="#5DA26C" stroke-linecap="round" stroke-linejoin="round"/></svg><svg fill="none" viewBox="0 0 48 48" id="icon-system-help-01" xmlns="http://www.w3.org/2000/svg"><g clip-path="url(#axclip0_2054_35397)"><mask id="axa" style="mask-type:luminance" maskUnits="userSpaceOnUse" x="0" y="0" width="48" height="48"><path d="M48 0H0v48h48V0z" fill="#fff"/></mask><g mask="url(#axa)" fill="#E63946"><path d="M34.8 13V7.4a5 5 0 00-5-5H11a5 5 0 00-5 5v19l8.4-8.4h15.4a5 5 0 005-5z"/><path d="M13.2 32.2v-5.6a5 5 0 015-5H37a5 5 0 015 5v19l-8.4-8.4H18.2a5 5 0 01-5-5z"/></g></g><defs><clipPath id="axclip0_2054_35397"><path fill="#fff" d="M0 0h48v48H0z"/></clipPath></defs></svg><svg fill="none" viewBox="0 0 48 48" id="icon-system-help-02" xmlns="http://www.w3.org/2000/svg"><path d="M24 4a20 20 0 100 40 20 20 0 000-40zm.98 9.7a2.3 2.3 0 110 4.6 2.3 2.3 0 010-4.6zm.085 20.491a3.573 3.573 0 01-4.18-2.546 3.576 3.576 0 01-.033-1.778l1.314-5.507-2.984.691-.766-3.52 3.016-.656a3.574 3.574 0 014.234 4.32l-1.312 5.506 3.005-.672.743 3.524-3.037.638z" fill="#E63946"/></svg><svg fill="none" viewBox="0 0 48 48" id="icon-system-help-03" xmlns="http://www.w3.org/2000/svg"><path d="M37 8H26V6a2 2 0 00-4 0v2H11L2 27.988a9.36 9.36 0 009 6.407 9.36 9.36 0 009-6.407L12.801 12H22v26.025l-8 1.6V42h20v-2.375l-8-1.6V12h9.199L28 27.988a9.526 9.526 0 0018 0L37 8zM16.048 28H5.953l-.006-.009L11 16.768l5.054 11.224-.006.008zM37 16.768l5.054 11.224-.006.008H31.952l-.006-.008L37 16.768z" fill="#E63946"/></svg><svg fill="none" viewBox="0 0 48 48" id="icon-system-help-04" xmlns="http://www.w3.org/2000/svg"><path d="M44 10h-6V6H10v4H4a2 2 0 00-2 2v4a9.972 9.972 0 008.55 9.854A13.996 13.996 0 0022 35.84v1.036a4 4 0 01-3.03 3.88L14 42v2h20v-2l-4.97-1.243a4.001 4.001 0 01-3.03-3.88V35.84a13.996 13.996 0 0011.45-9.987A9.971 9.971 0 0046 16v-4a2 2 0 00-2-2zM6 16v-2h4v7.631A5.99 5.99 0 016 16zm36 0a5.99 5.99 0 01-4 5.631V14h4v2z" fill="#E63946"/></svg><svg fill="none" viewBox="0 0 48 48" id="icon-system-help-05" xmlns="http://www.w3.org/2000/svg"><path d="M24 4a20 20 0 100 40 20 20 0 000-40zm-1.205 25.913l-6.666-6.667 2.402-2.404 4.264 4.262 7.049-7.045 2.402 2.404-9.451 9.45z" fill="#E63946"/></svg><svg fill="none" viewBox="0 0 48 48" id="icon-system-help-06" xmlns="http://www.w3.org/2000/svg"><path d="M30.828 4H8v40h32V13.172L30.828 4zM26 29.9H16v-3.8h10v3.8zm6-8H16v-3.8h16v3.8z" fill="#E63946"/></svg><svg fill="none" viewBox="0 0 48 48" id="icon-system-help-07" xmlns="http://www.w3.org/2000/svg"><path d="M24 20a7.5 7.5 0 10-7.5-7.5A7.509 7.509 0 0024 20zm15.414 11.57a21.823 21.823 0 00-30.828 0L8 32.156V42h32v-9.844l-.586-.586z" fill="#E63946"/></svg><svg fill="none" viewBox="0 0 48 48" id="icon-system-help-08" xmlns="http://www.w3.org/2000/svg"><path d="M22 12.178v-8.08a19.924 19.924 0 00-11.951 5.584l6.181 5.187A11.95 11.95 0 0122 12.178zm4-8.08v8.08a11.993 11.993 0 019.295 15.928A11.995 11.995 0 0122.9 35.944a11.992 11.992 0 01-4.963-1.608l-5.195 6.19a20 20 0 0030.052-9.689A19.997 19.997 0 0034.54 7.001 20 20 0 0026 4.098zm-14 19.9a11.908 11.908 0 011.663-6.065l-6.19-5.194a19.972 19.972 0 002.212 25.21l5.186-6.182A11.94 11.94 0 0112 23.997z" fill="#E63946"/></svg><svg fill="none" viewBox="0 0 24 24" id="icon-tg" xmlns="http://www.w3.org/2000/svg"><circle cx="12" cy="12" r="12" fill="currentColor"/><path d="M15.977 6.106s1.11-.52 1.017.742c-.03.52-.308 2.337-.524 4.304l-.74 5.825s-.061.853-.616 1.002c-.556.148-1.388-.52-1.542-.668-.124-.111-2.313-1.781-3.084-2.597-.216-.223-.462-.668.031-1.188l3.238-3.71c.37-.445.74-1.484-.802-.222l-4.317 3.524s-.493.371-1.418.037l-2.005-.742s-.74-.556.524-1.113c3.084-1.744 6.877-3.524 10.238-5.194z" fill="#fff"/></svg><svg fill="none" viewBox="0 0 80 80" id="icon-tg-sm" xmlns="http://www.w3.org/2000/svg"><rect width="80" height="80" rx="40" fill="currentColor"/><path d="M49.28 26.247s2.591-1.212 2.375 1.732c-.072 1.212-.72 5.454-1.223 10.042l-1.727 13.592s-.144 1.99-1.439 2.337c-1.295.346-3.237-1.212-3.597-1.558-.288-.26-5.396-4.156-7.195-6.06-.504-.52-1.08-1.559.072-2.77l7.554-8.658c.864-1.038 1.727-3.463-1.87-.52L32.157 42.61s-1.151.866-3.31.087l-4.677-1.732s-1.727-1.298 1.223-2.597c7.195-4.069 16.045-8.224 23.888-12.12z" fill="#fff"/></svg><svg fill="none" viewBox="0 0 24 24" id="icon-tg-white" xmlns="http://www.w3.org/2000/svg"><circle cx="12" cy="12" r="12" fill="currentColor"/><path d="M15.977 6.106s1.11-.52 1.017.742c-.03.52-.308 2.337-.524 4.304l-.74 5.825s-.061.853-.616 1.002c-.556.148-1.388-.52-1.542-.668-.124-.111-2.313-1.781-3.084-2.597-.216-.223-.462-.668.031-1.188l3.238-3.71c.37-.445.74-1.484-.802-.222l-4.317 3.524s-.493.371-1.418.037l-2.005-.742s-.74-.556.524-1.113c3.084-1.744 6.877-3.524 10.238-5.194z" fill="#374151"/></svg><svg fill="none" viewBox="0 0 24 24" id="icon-user" xmlns="http://www.w3.org/2000/svg"><circle cx="4" cy="4" r="4" transform="matrix(-1 0 0 1 16 3)" stroke="currentColor" stroke-width="1.5"/><path d="M5 16.935c0-.86.54-1.628 1.351-1.917v0a16.794 16.794 0 0111.298 0v0A2.036 2.036 0 0119 16.934v1.315c0 1.188-1.052 2.1-2.227 1.932l-.955-.136a27.002 27.002 0 00-7.636 0l-.955.136A1.951 1.951 0 015 18.25v-1.315z" stroke="currentColor" stroke-width="1.5"/></svg><svg fill="none" viewBox="0 0 32 32" id="icon-vk" xmlns="http://www.w3.org/2000/svg"><circle cx="16" cy="16" r="16" fill="currentColor"/><path d="M16.835 22.668c-6.378 0-10.015-4.505-10.167-12h3.195c.105 5.502 2.46 7.832 4.325 8.312v-8.312h3.008v4.745c1.843-.204 3.778-2.367 4.43-4.745h3.009c-.501 2.93-2.6 5.093-4.093 5.982 1.493.72 3.883 2.607 4.793 6.018h-3.312c-.711-2.282-2.483-4.048-4.827-4.288v4.288h-.361z" fill="#fff"/></svg><svg fill="none" viewBox="0 0 80 80" id="icon-vk-sm" xmlns="http://www.w3.org/2000/svg"><rect width="80" height="80" rx="40" fill="currentColor"/><path d="M41.46 51.666c-11.16 0-17.527-7.883-17.792-21h5.59c.184 9.628 4.306 13.706 7.57 14.546V30.666h5.265v8.303c3.224-.357 6.61-4.14 7.753-8.303h5.264c-.877 5.13-4.55 8.913-7.162 10.469 2.612 1.26 6.795 4.561 8.387 10.531H50.54c-1.245-3.994-4.346-7.084-8.447-7.505v7.505h-.633z" fill="#fff"/></svg><svg fill="none" viewBox="0 0 32 32" id="icon-vk-white" xmlns="http://www.w3.org/2000/svg"><circle cx="16" cy="16" r="16" fill="currentColor"/><path d="M16.835 22.668c-6.378 0-10.015-4.505-10.167-12h3.195c.105 5.502 2.46 7.832 4.325 8.312v-8.312h3.008v4.745c1.843-.204 3.778-2.367 4.43-4.745h3.009c-.501 2.93-2.6 5.093-4.093 5.982 1.493.72 3.883 2.607 4.793 6.018h-3.312c-.711-2.282-2.483-4.048-4.827-4.288v4.288h-.361z" fill="#374151"/></svg><svg fill="none" viewBox="0 0 24 24" id="icon-whatsapp" xmlns="http://www.w3.org/2000/svg"><path d="M12 0C5.383 0 0 5.383 0 12c0 2.328.668 4.573 1.935 6.522l-1.87 4.363a.8.8 0 001.05 1.05l4.364-1.87A11.903 11.903 0 0012 24c6.617 0 12-5.383 12-12S18.617 0 12 0z" fill="currentColor"/><path d="M18.163 16.296s-.998 1.28-1.719 1.579c-1.833.758-4.42 0-7.368-2.947C6.13 11.98 5.37 9.392 6.13 7.56c.3-.722 1.58-1.72 1.58-1.72a.932.932 0 011.196.075l1.448 1.448c.31.31.31.82 0 1.131l-.909.908s-.368 1.105 1.842 3.316c2.21 2.21 3.316 1.842 3.316 1.842l.908-.909a.803.803 0 011.13 0L18.09 15.1c.31.31.344.849.074 1.197z" fill="#fff"/></svg><svg fill="none" viewBox="0 0 24 24" id="icon-whatsapp-white" xmlns="http://www.w3.org/2000/svg"><path d="M12 0C5.383 0 0 5.383 0 12c0 2.328.668 4.573 1.935 6.522l-1.87 4.363a.8.8 0 001.05 1.05l4.364-1.87A11.903 11.903 0 0012 24c6.617 0 12-5.383 12-12S18.617 0 12 0z" fill="currentColor"/><path d="M18.163 16.296s-.998 1.28-1.719 1.579c-1.833.758-4.42 0-7.368-2.947C6.13 11.98 5.37 9.392 6.13 7.56c.3-.722 1.58-1.72 1.58-1.72a.932.932 0 011.196.075l1.448 1.448c.31.31.31.82 0 1.131l-.909.908s-.368 1.105 1.842 3.316c2.21 2.21 3.316 1.842 3.316 1.842l.908-.909a.803.803 0 011.13 0L18.09 15.1c.31.31.344.849.074 1.197z" fill="#374151"/></svg></svg>