<svg width="180" height="160" fill="none" xmlns="http://www.w3.org/2000/svg"><path d="M179.194 132.501c0 4.45-1.326 8.8-3.81 12.5a22.593 22.593 0 01-10.147 8.287 22.71 22.71 0 01-13.062 1.281 22.642 22.642 0 01-11.576-6.158 22.466 22.466 0 01-6.188-11.52 22.396 22.396 0 011.287-13 22.518 22.518 0 018.327-10.098 22.707 22.707 0 0121.213-2.08 22.632 22.632 0 017.335 4.877 22.504 22.504 0 014.901 7.3 22.412 22.412 0 011.72 8.611z" fill="url(#paint0_radial_2516_52458)"/><path style="mix-blend-mode:lighten" opacity=".5" d="M155.394 132.5c0 2.108-.628 4.169-1.804 5.921a10.697 10.697 0 01-4.806 3.925 10.758 10.758 0 01-6.188.607 10.722 10.722 0 01-5.483-2.917 10.642 10.642 0 01-2.931-5.457 10.606 10.606 0 01.61-6.157 10.662 10.662 0 013.944-4.783 10.745 10.745 0 0113.522 1.325c.994.99 1.783 2.165 2.321 3.458.538 1.293.815 2.679.815 4.078z" fill="url(#paint1_radial_2516_52458)"/><path style="mix-blend-mode:lighten" opacity=".5" d="M175.894 124.805a8.99 8.99 0 01-1.528 5.007 9.05 9.05 0 01-4.065 3.318 9.095 9.095 0 01-5.232.512 9.07 9.07 0 01-4.636-2.467 9.004 9.004 0 01-2.478-4.615 8.971 8.971 0 01.516-5.207 9.016 9.016 0 013.335-4.044 9.091 9.091 0 0111.436 1.122 9.007 9.007 0 012.652 6.374z" fill="url(#paint2_radial_2516_52458)"/><g clip-path="url(#clip0_2516_52458)"><path d="M51.778 102.627L22 127.72v.717a3.006 3.006 0 003.006 3.006H47.34c-.283 0 4.625-26.493 4.438-28.816z" fill="url(#paint3_radial_2516_52458)"/><path d="M47.34 61.794H25.006A3.006 3.006 0 0022 64.799v62.92h24.636c-.908-11.318-.674-65.925.704-65.925z" fill="url(#paint4_radial_2516_52458)"/><path d="M71.1 131.442a3.006 3.006 0 003.007-3.006V64.8a3.006 3.006 0 00-3.007-3.006H47.334a3.006 3.006 0 00-3.006 3.006v63.636a3.006 3.006 0 003.006 3.006H71.1z" fill="url(#paint5_radial_2516_52458)"/><path d="M68.899 124.743h-16.75v-20.101l16.75-35.143v55.244z" fill="url(#paint6_radial_2516_52458)"/><path d="M68.899 124.743h-16.75v-20.101l16.75-35.143v55.244z" fill="#000" fill-opacity=".2"/><path d="M149.336 58.5a6.67 6.67 0 016.671 6.67v52.901a6.67 6.67 0 01-6.671 6.671h-30.128c3.684 0 1.086-66.243-2.599-66.243h32.727z" fill="url(#paint7_radial_2516_52458)"/><path d="M92.723 16.908c8.876 0 16.071 7.195 16.071 16.07v34.18L93.948 58.5V32.978c0-8.876-12.698-16.07-12.698-16.07h11.473z" fill="url(#paint8_radial_2516_52458)"/><path d="M119.2 58.499H97.318V32.978c0-8.876-7.195-16.07-16.07-16.07L67.461 68.8H52.148v46.614h20.315c5.455 5.741 13.158 9.327 21.703 9.327H119.2a6.671 6.671 0 006.671-6.671v-52.9a6.671 6.671 0 00-6.671-6.671z" fill="url(#paint9_radial_2516_52458)"/></g><g filter="url(#filter0_i_2516_52458)"><path d="M59 20.156L35.8 40.464v9.394L24.2 54V40.464L1 20.156V12h58v8.156z" fill="#F1F1F1" fill-opacity=".1"/><path d="M59 20.156L35.8 40.464v9.394L24.2 54V40.464L1 20.156V12h58v8.156z" fill="url(#paint10_radial_2516_52458)"/></g><path d="M1.5 19.929V12.5h57v7.429L35.47 40.087l-.17.15v9.269L24.7 53.29V40.237l-.17-.15L1.5 19.93z" stroke="url(#paint11_linear_2516_52458)" stroke-opacity=".1"/><defs><radialGradient id="paint0_radial_2516_52458" cx="0" cy="0" r="1" gradientUnits="userSpaceOnUse" gradientTransform="matrix(33.0289 0 0 32.8701 156.585 124.342)"><stop stop-color="#fff"/><stop offset=".27" stop-color="#FCFCFC"/><stop offset=".48" stop-color="#F2F2F2"/><stop offset=".68" stop-color="#E0E0E0"/><stop offset=".87" stop-color="#C9C9C9"/><stop offset="1" stop-color="#B4B4B4"/></radialGradient><radialGradient id="paint1_radial_2516_52458" cx="0" cy="0" r="1" gradientUnits="userSpaceOnUse" gradientTransform="matrix(15.6454 0 0 15.5702 144.686 128.636)"><stop stop-color="#fff"/><stop offset=".27" stop-color="#FCFCFC"/><stop offset=".48" stop-color="#F2F2F2"/><stop offset=".68" stop-color="#E0E0E0"/><stop offset=".87" stop-color="#C9C9C9"/><stop offset="1" stop-color="#B4B4B4"/></radialGradient><radialGradient id="paint2_radial_2516_52458" cx="0" cy="0" r="1" gradientUnits="userSpaceOnUse" gradientTransform="matrix(13.2308 0 0 13.1672 166.837 121.538)"><stop stop-color="#fff"/><stop offset=".27" stop-color="#FCFCFC"/><stop offset=".48" stop-color="#F2F2F2"/><stop offset=".68" stop-color="#E0E0E0"/><stop offset=".87" stop-color="#C9C9C9"/><stop offset="1" stop-color="#B4B4B4"/></radialGradient><radialGradient id="paint3_radial_2516_52458" cx="0" cy="0" r="1" gradientUnits="userSpaceOnUse" gradientTransform="matrix(33.2106 0 0 29.7507 30.94 102.791)"><stop stop-color="#BEE4C8"/><stop offset=".665" stop-color="#93D3A2"/><stop offset=".96" stop-color="#83CC91"/><stop offset="1" stop-color="#80CB8E"/></radialGradient><radialGradient id="paint4_radial_2516_52458" cx="0" cy="0" r="1" gradientUnits="userSpaceOnUse" gradientTransform="matrix(65.7894 0 0 59.9578 15.946 74.683)"><stop stop-color="#E4FBEF"/><stop offset=".514" stop-color="#C6EAD0"/><stop offset=".976" stop-color="#BEE4C8"/></radialGradient><radialGradient id="paint5_radial_2516_52458" cx="0" cy="0" r="1" gradientUnits="userSpaceOnUse" gradientTransform="matrix(28.106 0 0 84.3826 70.083 119.049)"><stop stop-color="#93D3A2"/><stop offset=".189" stop-color="#8DD09C"/><stop offset=".442" stop-color="#7CC88B"/><stop offset=".597" stop-color="#6EC17D"/><stop offset="1" stop-color="#528E61"/></radialGradient><radialGradient id="paint6_radial_2516_52458" cx="0" cy="0" r="1" gradientUnits="userSpaceOnUse" gradientTransform="matrix(15.8094 0 0 66.93 66.635 114.913)"><stop stop-color="#93D3A2"/><stop offset=".189" stop-color="#8DD09C"/><stop offset=".442" stop-color="#7CC88B"/><stop offset=".597" stop-color="#6EC17D"/><stop offset="1" stop-color="#528E61"/></radialGradient><radialGradient id="paint7_radial_2516_52458" cx="0" cy="0" r="1" gradientUnits="userSpaceOnUse" gradientTransform="matrix(0 54.6729 -32.9678 0 152.968 88.65)"><stop stop-color="#FFAB56"/><stop offset=".512" stop-color="#FF982A"/><stop offset=".598" stop-color="#FF8F2A"/><stop offset=".976" stop-color="#FF6927"/></radialGradient><radialGradient id="paint8_radial_2516_52458" cx="0" cy="0" r="1" gradientUnits="userSpaceOnUse" gradientTransform="translate(123.328 32.041) scale(43.0334)"><stop stop-color="#FFAB56"/><stop offset=".512" stop-color="#FF982A"/><stop offset=".598" stop-color="#FF8F2A"/><stop offset=".976" stop-color="#FF6927"/></radialGradient><radialGradient id="paint9_radial_2516_52458" cx="0" cy="0" r="1" gradientUnits="userSpaceOnUse" gradientTransform="matrix(74.8057 0 0 74.8056 102.784 43.728)"><stop stop-color="#FFF9E2"/><stop offset=".535" stop-color="#FFE4CB"/><stop offset=".623" stop-color="#FFDFC1"/><stop offset=".973" stop-color="#FFCB9B"/></radialGradient><radialGradient id="paint10_radial_2516_52458" cx="0" cy="0" r="1" gradientUnits="userSpaceOnUse" gradientTransform="matrix(-20.71423 -13.19133 18.20683 -28.59002 45.743 56.433)"><stop stop-color="#E7E3D7"/><stop offset="1" stop-color="#CCE6DB"/></radialGradient><linearGradient id="paint11_linear_2516_52458" x1="53.392" y1="63.334" x2="64.943" y2="63.334" gradientUnits="userSpaceOnUse"><stop stop-color="#8BA7BE"/><stop offset="1" stop-color="#BBC5CD"/></linearGradient><clipPath id="clip0_2516_52458"><path fill="#fff" transform="translate(21.773 10.669)" d="M0 0h133.977v133.333H0z"/></clipPath><filter id="filter0_i_2516_52458" x="1" y="12" width="58" height="42.5" filterUnits="userSpaceOnUse" color-interpolation-filters="sRGB"><feFlood flood-opacity="0" result="BackgroundImageFix"/><feBlend in="SourceGraphic" in2="BackgroundImageFix" result="shape"/><feColorMatrix in="SourceAlpha" values="0 0 0 0 0 0 0 0 0 0 0 0 0 0 0 0 0 0 127 0" result="hardAlpha"/><feOffset dy=".5"/><feGaussianBlur stdDeviation="1"/><feComposite in2="hardAlpha" operator="arithmetic" k2="-1" k3="1"/><feColorMatrix values="0 0 0 0 1 0 0 0 0 1 0 0 0 0 1 0 0 0 0.4 0"/><feBlend in2="shape" result="effect1_innerShadow_2516_52458"/></filter></defs></svg>