<svg width="80" height="80" fill="none" xmlns="http://www.w3.org/2000/svg"><path fill-rule="evenodd" clip-rule="evenodd" d="M21.482 12.284a33.333 33.333 0 1137.038 55.43 33.333 33.333 0 01-37.038-55.43zM29.11 44.18v-3.368h3.196v-6.99c0-3.095 0-4.642.602-5.824a5.526 5.526 0 012.415-2.415c1.183-.602 2.73-.602 5.825-.602h2.641c.213 0 .519.007.916.02.412.015.86.065 1.342.151 1.662.258 3.054.83 4.176 1.716a8.243 8.243 0 012.556 3.347c.569 1.344.853 2.838.853 4.483 0 2.446-.64 4.512-1.918 6.2-1.278 1.673-3.167 2.71-5.667 3.11-.483.072-.93.122-1.342.15a28.62 28.62 0 01-.916.022h-7.69v3.646h10.055v3.154H36.097v4.89h-3.792v-4.89h-3.196v-3.154h3.196V44.18h-3.196zm14.551-3.368h-7.563v-9.259c0-1.032 0-1.547.201-1.941.177-.347.458-.629.805-.805.394-.201.91-.201 1.942-.201h4.615c.213 0 .497.007.852.021.37.015.725.072 1.066.172.98.214 1.775.63 2.386 1.244a5.5 5.5 0 011.363 2.167 7.89 7.89 0 01.426 2.574c0 1.387-.34 2.617-1.022 3.69-.682 1.072-1.733 1.78-3.153 2.123-.37.086-.725.143-1.066.172a9.76 9.76 0 01-.852.043z" fill="#E63946"/></svg>