<svg width="88" height="88" fill="none" xmlns="http://www.w3.org/2000/svg"><path d="M29.333 53.575L17.6 63.462v.283c0 .654.53 1.184 1.184 1.184h8.8c-.111 0 1.822-10.439 1.749-11.354z" fill="url(#paint0_radial_2719_27424)"/><path d="M27.584 37.486h-8.8c-.654 0-1.184.53-1.184 1.185v24.792h9.707c-.358-4.46-.266-25.977.277-25.977z" fill="url(#paint1_radial_2719_27424)"/><path d="M36.947 64.93c.654 0 1.185-.53 1.185-1.185V38.671c0-.654-.53-1.185-1.185-1.185h-9.364c-.654 0-1.185.53-1.185 1.185v25.074c0 .654.53 1.185 1.185 1.185h9.364z" fill="url(#paint2_radial_2719_27424)"/><path d="M36.078 62.29h-6.6v-7.92l6.6-13.847V62.29z" fill="url(#paint3_radial_2719_27424)"/><path d="M36.078 62.29h-6.6v-7.92l6.6-13.847V62.29z" fill="#000" fill-opacity=".2"/><path d="M67.772 36.188a2.629 2.629 0 012.629 2.628V59.66a2.629 2.629 0 01-2.629 2.629H55.901c1.451 0 .428-26.102-1.024-26.102h12.895z" fill="url(#paint4_radial_2719_27424)"/><path d="M45.466 19.8a6.332 6.332 0 016.332 6.332V39.6l-5.85-3.412V26.132c0-3.497-5.003-6.332-5.003-6.332h4.521z" fill="url(#paint5_radial_2719_27424)"/><path d="M55.898 36.188h-8.622V26.132a6.332 6.332 0 00-6.332-6.332l-5.432 20.447h-6.034v18.367h8.005a11.76 11.76 0 008.552 3.675h9.863a2.629 2.629 0 002.629-2.629V38.816a2.628 2.628 0 00-2.629-2.628z" fill="url(#paint6_radial_2719_27424)"/><defs><radialGradient id="paint0_radial_2719_27424" cx="0" cy="0" r="1" gradientUnits="userSpaceOnUse" gradientTransform="matrix(13.0858 0 0 11.7225 21.122 53.64)"><stop stop-color="#BEE4C8"/><stop offset=".665" stop-color="#93D3A2"/><stop offset=".96" stop-color="#83CC91"/><stop offset="1" stop-color="#80CB8E"/></radialGradient><radialGradient id="paint1_radial_2719_27424" cx="0" cy="0" r="1" gradientUnits="userSpaceOnUse" gradientTransform="matrix(25.9227 0 0 23.6249 15.214 42.565)"><stop stop-color="#E4FBEF"/><stop offset=".514" stop-color="#C6EAD0"/><stop offset=".976" stop-color="#BEE4C8"/></radialGradient><radialGradient id="paint2_radial_2719_27424" cx="0" cy="0" r="1" gradientUnits="userSpaceOnUse" gradientTransform="matrix(11.0745 0 0 33.2489 36.547 60.046)"><stop stop-color="#93D3A2"/><stop offset=".189" stop-color="#8DD09C"/><stop offset=".442" stop-color="#7CC88B"/><stop offset=".597" stop-color="#6EC17D"/><stop offset="1" stop-color="#528E61"/></radialGradient><radialGradient id="paint3_radial_2719_27424" cx="0" cy="0" r="1" gradientUnits="userSpaceOnUse" gradientTransform="matrix(6.22932 0 0 26.3721 35.187 58.416)"><stop stop-color="#93D3A2"/><stop offset=".189" stop-color="#8DD09C"/><stop offset=".442" stop-color="#7CC88B"/><stop offset=".597" stop-color="#6EC17D"/><stop offset="1" stop-color="#528E61"/></radialGradient><radialGradient id="paint4_radial_2719_27424" cx="0" cy="0" r="1" gradientUnits="userSpaceOnUse" gradientTransform="matrix(0 21.5425 -12.9901 0 69.203 48.067)"><stop stop-color="#FFAB56"/><stop offset=".512" stop-color="#FF982A"/><stop offset=".598" stop-color="#FF8F2A"/><stop offset=".976" stop-color="#FF6927"/></radialGradient><radialGradient id="paint5_radial_2719_27424" cx="0" cy="0" r="1" gradientUnits="userSpaceOnUse" gradientTransform="translate(57.525 25.763) scale(16.9562)"><stop stop-color="#FFAB56"/><stop offset=".512" stop-color="#FF982A"/><stop offset=".598" stop-color="#FF8F2A"/><stop offset=".976" stop-color="#FF6927"/></radialGradient><radialGradient id="paint6_radial_2719_27424" cx="0" cy="0" r="1" gradientUnits="userSpaceOnUse" gradientTransform="translate(49.43 30.368) scale(29.4753)"><stop stop-color="#FFF9E2"/><stop offset=".535" stop-color="#FFE4CB"/><stop offset=".623" stop-color="#FFDFC1"/><stop offset=".973" stop-color="#FFCB9B"/></radialGradient></defs></svg>