<svg width="88" height="88" fill="none" xmlns="http://www.w3.org/2000/svg"><path d="M27.584 51.83l-9.984.633v.282c0 .654.53 1.184 1.184 1.184h8.8c-.111 0 0-1.184 0-2.099z" fill="url(#paint0_radial_2719_27443)"/><path d="M27.584 26.485h-8.8c-.654 0-1.184.53-1.184 1.185v24.792h9.707c-.358-4.46-.266-25.977.277-25.977z" fill="url(#paint1_radial_2719_27443)"/><path d="M36.947 53.929c.654 0 1.185-.53 1.185-1.185V27.67c0-.654-.53-1.185-1.185-1.185h-9.364c-.654 0-1.185.53-1.185 1.185v25.074c0 .654.53 1.185 1.185 1.185h9.364z" fill="url(#paint2_radial_2719_27443)"/><path d="M36.078 51.289h-6.6v-7.92l6.6-13.848V51.29z" fill="url(#paint3_radial_2719_27443)"/><path d="M36.078 51.289h-6.6v-7.92l6.6-13.848V51.29z" fill="#000" fill-opacity=".2"/><path d="M67.77 51.69a2.628 2.628 0 002.629-2.628V28.218a2.628 2.628 0 00-2.629-2.629H55.9c1.451 0 .428 26.101-1.024 26.101H67.77z" fill="url(#paint4_radial_2719_27443)"/><path d="M45.466 68.078a6.332 6.332 0 006.332-6.332V48.278l-5.85 3.412v10.056c0 3.497-5.003 6.332-5.003 6.332h4.521z" fill="url(#paint5_radial_2719_27443)"/><path d="M55.898 51.69h-8.622v10.056a6.332 6.332 0 01-6.332 6.332l-5.432-20.447h-6.034V29.264h8.005a11.76 11.76 0 018.552-3.675h9.863a2.629 2.629 0 012.629 2.628v20.845a2.628 2.628 0 01-2.629 2.628z" fill="url(#paint6_radial_2719_27443)"/><defs><radialGradient id="paint0_radial_2719_27443" cx="0" cy="0" r="1" gradientUnits="userSpaceOnUse" gradientTransform="matrix(16.1294 0 0 1.99371 21.83 51.845)"><stop stop-color="#FF9AA2"/><stop offset=".43" stop-color="#FF8188"/><stop offset="1" stop-color="#FF4555"/></radialGradient><radialGradient id="paint1_radial_2719_27443" cx="0" cy="0" r="1" gradientUnits="userSpaceOnUse" gradientTransform="matrix(12.8484 0 0 25.5899 23.427 26.64)"><stop stop-color="#FFD6D6"/><stop offset=".535" stop-color="#FFB3BD"/><stop offset=".56" stop-color="#FFB1BB"/><stop offset=".973" stop-color="#FF8B99"/></radialGradient><radialGradient id="paint2_radial_2719_27443" cx="0" cy="0" r="1" gradientUnits="userSpaceOnUse" gradientTransform="matrix(-26.8306 0 0 -49.1315 37.946 55.953)"><stop stop-color="#FF6470"/><stop offset=".504" stop-color="#FF4555"/><stop offset=".629" stop-color="#EF3A4B"/><stop offset=".942" stop-color="#C92136"/></radialGradient><radialGradient id="paint3_radial_2719_27443" cx="0" cy="0" r="1" gradientUnits="userSpaceOnUse" gradientTransform="matrix(-15.0921 0 0 -38.9698 35.974 52.895)"><stop stop-color="#FF6470"/><stop offset=".504" stop-color="#FF4555"/><stop offset=".629" stop-color="#EF3A4B"/><stop offset=".942" stop-color="#C92136"/></radialGradient><radialGradient id="paint4_radial_2719_27443" cx="0" cy="0" r="1" gradientUnits="userSpaceOnUse" gradientTransform="matrix(0 -21.5425 12.9901 0 69.201 39.81)"><stop stop-color="#FFAB56"/><stop offset=".512" stop-color="#FF982A"/><stop offset=".598" stop-color="#FF8F2A"/><stop offset=".976" stop-color="#FF6927"/></radialGradient><radialGradient id="paint5_radial_2719_27443" cx="0" cy="0" r="1" gradientUnits="userSpaceOnUse" gradientTransform="translate(57.525 62.115) scale(16.9562)"><stop stop-color="#FFAB56"/><stop offset=".512" stop-color="#FF982A"/><stop offset=".598" stop-color="#FF8F2A"/><stop offset=".976" stop-color="#FF6927"/></radialGradient><radialGradient id="paint6_radial_2719_27443" cx="0" cy="0" r="1" gradientUnits="userSpaceOnUse" gradientTransform="translate(49.43 57.51) scale(29.4753)"><stop stop-color="#FFF9E2"/><stop offset=".535" stop-color="#FFE4CB"/><stop offset=".623" stop-color="#FFDFC1"/><stop offset=".973" stop-color="#FFCB9B"/></radialGradient></defs></svg>