<svg width="138" height="138" fill="none" xmlns="http://www.w3.org/2000/svg"><path d="M10.35 30.314L40.664 0h13.8L27.6 34.5l-17.25-4.186z" fill="url(#paint0_radial_2754_76682)"/><path d="M40.664 103.5L10.35 73.186 27.6 69l26.864 34.5h-13.8z" fill="url(#paint1_radial_2754_76682)"/><path d="M10.35 73.186V30.314h13.8L27.6 51.75l-3.45 21.436h-13.8z" fill="url(#paint2_radial_2754_76682)"/><path d="M69 131.1H55.2v-27.6h17.25L69 131.1z" fill="url(#paint3_radial_2754_76682)"/><path d="M69 103.5h13.8v27.6H69v-27.6z" fill="url(#paint4_radial_2754_76682)"/><path d="M97.336 0H54.465L24.15 30.314v42.872L54.465 103.5h42.87l30.315-30.314V30.314L97.336 0z" fill="url(#paint5_radial_2754_76682)"/><path d="M57.321 96.6L31.05 70.328V33.173L57.32 6.9h37.155l26.273 26.273v37.155L94.476 96.6H57.321z" fill="url(#paint6_radial_2754_76682)"/><path d="M41.4 41.4h69v20.7h-69V41.4z" fill="#fff"/><defs><radialGradient id="paint0_radial_2754_76682" cx="0" cy="0" r="1" gradientUnits="userSpaceOnUse" gradientTransform="matrix(114.534 0 0 31.3768 -.19 6.745)"><stop stop-color="#E2EFE8"/><stop offset=".514" stop-color="#C6EAD0"/><stop offset=".976" stop-color="#9DD2AB"/></radialGradient><radialGradient id="paint1_radial_2754_76682" cx="0" cy="0" r="1" gradientUnits="userSpaceOnUse" gradientTransform="matrix(114.534 0 0 31.3768 -.19 75.745)"><stop stop-color="#E2EFE8"/><stop offset=".514" stop-color="#C6EAD0"/><stop offset=".976" stop-color="#9DD2AB"/></radialGradient><radialGradient id="paint2_radial_2754_76682" cx="0" cy="0" r="1" gradientUnits="userSpaceOnUse" gradientTransform="matrix(44.7862 0 0 38.9901 6.228 38.696)"><stop stop-color="#E2EFE8"/><stop offset=".514" stop-color="#C6EAD0"/><stop offset=".976" stop-color="#9DD2AB"/></radialGradient><radialGradient id="paint3_radial_2754_76682" cx="0" cy="0" r="1" gradientUnits="userSpaceOnUse" gradientTransform="matrix(20.025 0 0 47.2749 59.135 120.488)"><stop offset=".035" stop-color="#DFEAEF"/><stop offset=".256" stop-color="#D4E3E8"/><stop offset=".645" stop-color="#B6D1D6"/><stop offset=".671" stop-color="#B4D0D5"/><stop offset="1" stop-color="#9BB9C1"/></radialGradient><radialGradient id="paint4_radial_2754_76682" cx="0" cy="0" r="1" gradientUnits="userSpaceOnUse" gradientTransform="matrix(17.4289 0 0 23.628 84.012 119.403)"><stop offset=".1" stop-color="#D0E2E7"/><stop offset="1" stop-color="#9FB8BF"/></radialGradient><radialGradient id="paint5_radial_2754_76682" cx="0" cy="0" r="1" gradientUnits="userSpaceOnUse" gradientTransform="matrix(97.687 0 0 125.395 113.667 85.083)"><stop stop-color="#A4DAB1"/><stop offset=".516" stop-color="#96D4A4"/><stop offset="1" stop-color="#68D383"/></radialGradient><radialGradient id="paint6_radial_2754_76682" cx="0" cy="0" r="1" gradientUnits="userSpaceOnUse" gradientTransform="translate(117.847 20.12) scale(101.645)"><stop stop-color="#FF6470"/><stop offset=".504" stop-color="#FF4555"/><stop offset=".942" stop-color="#EB2A42"/></radialGradient></defs></svg>