<svg width="30" height="28" fill="none" xmlns="http://www.w3.org/2000/svg"><g clip-path="url(#clip0_2382_44487)"><path fill-rule="evenodd" clip-rule="evenodd" d="M28.782 27.97c1.798.517-.515-5.894-.515-5.894 1.03-3.08 2.05-13.596 1.41-16.8-.64-3.207-3.04-3.096-7.45-3.973C17.738.403 6.448-.112 3.998.02 1.563.147-.227 1.81.023 5.15c.257 3.33 4.163 15.74 6.1 18.82 1.93 3.08 4.783 2.543 6.485 2.337 2.334-.288 11.12-2.336 11.12-2.336-.786-1.01 3.257 3.483 5.054 4zM16.998 8.59l1.564-3.324h4.68l-5.116 9.742v5.74h-5.37v-5.74l-2.86-5.446-2.263-4.296h4.68l3.124 6.626 1.561-3.302z" fill="#ED484A"/></g><defs><clipPath id="clip0_2382_44487"><path fill="#fff" d="M0 0h30v28H0z"/></clipPath></defs></svg>