<svg width="82" height="25" fill="none" xmlns="http://www.w3.org/2000/svg"><g clip-path="url(#clip0_2382_44466)"><mask id="a" style="mask-type:luminance" maskUnits="userSpaceOnUse" x="-19" y="-19" width="120" height="63"><path d="M100.882-18.87H-18.875v62.754h119.757V-18.87z" fill="#fff"/></mask><g mask="url(#a)"><path d="M10.76 3.67H9.216c-2.832 0-4.32 1.42-4.32 3.524 0 2.387 1.03 3.494 3.146 4.916l1.745 1.165-5.03 7.473h-3.75l4.52-6.678c-2.603-1.846-4.062-3.637-4.062-6.677C1.465 3.586 4.125 1 9.188 1h5.03v19.748h-3.46L10.76 3.67z" fill="#FC3F1D"/><path d="M42.278 6.455h-9.926v1.223c0 3.494-.229 8.012-1.43 10.398h-1.055v5.939h3.147v-3.267h7.631v3.267h3.147v-5.939h-1.514V6.456zm-3.404 11.617h-4.806c.944-2.156 1.198-6.052 1.198-8.525v-.425h3.605l.003 8.95zM25.03 12.11h-4.547V6.458h-3.405V20.75h3.405v-5.966h4.547v5.966h3.403V6.457H25.03v5.654zm52.69-3.268c1.318 0 2.604.455 3.29.882V6.849c-.718-.397-1.974-.681-3.66-.681-4.348 0-6.608 3.097-6.608 7.444 0 4.774 2.203 7.417 6.75 7.417 1.573 0 2.688-.284 3.518-.88v-2.755c-.857.599-1.887.966-3.317.966-2.432 0-3.432-1.875-3.432-4.83 0-3.098 1.23-4.69 3.46-4.69m-7.439-2.385H66.85l-4.806 6.593V6.455h-3.403v14.293h3.403V13.73l5.035 7.018h3.86l-5.463-7.7 4.806-6.593zM50.746 6.17c-4.147 0-6.121 3.155-6.121 7.474 0 4.972 2.46 7.387 6.808 7.387 2.174 0 3.775-.568 4.776-1.25v-2.754c-1.059.71-2.831 1.335-4.49 1.335-2.488 0-3.433-1.165-3.575-3.552h8.208v-1.796c0-4.973-2.203-6.848-5.606-6.848m2.146 6.138h-4.748c.086-2.276.914-3.467 2.546-3.467 1.687 0 2.202 1.392 2.202 3.183v.284z" fill="#000"/></g></g><defs><clipPath id="clip0_2382_44466"><path fill="#fff" d="M0 0h82v25H0z"/></clipPath></defs></svg>